<svg width="28" height="28" viewBox="0 0 28 28" fill="none" xmlns="http://www.w3.org/2000/svg">
<g opacity="0.5">
<path d="M9.7998 4.90005C9.7998 4.34309 10.0211 3.80895 10.4149 3.41512C10.8087 3.0213 11.3429 2.80005 11.8998 2.80005H17.3304C17.8872 2.80054 18.421 3.02211 18.8144 3.41605L23.1852 7.78405C23.3803 7.97931 23.5351 8.21114 23.6405 8.46626C23.746 8.72138 23.8001 8.99479 23.7998 9.27085V17.5C23.7998 18.057 23.5786 18.5911 23.1847 18.985C22.7909 19.3788 22.2568 19.6 21.6998 19.6H20.2998V14.8694C20.2996 13.7556 19.8569 12.6875 19.0692 11.9L14.6998 7.53065C13.9123 6.74294 12.8442 6.30029 11.7304 6.30005H9.7998V4.90005Z" fill="white"/>
<path d="M6.3002 8.40003C5.74324 8.40003 5.2091 8.62127 4.81527 9.0151C4.42144 9.40893 4.2002 9.94307 4.2002 10.5V23.1C4.2002 23.657 4.42144 24.1911 4.81527 24.5849C5.2091 24.9788 5.74324 25.2 6.3002 25.2H16.1002C16.6571 25.2 17.1913 24.9788 17.5851 24.5849C17.9789 24.1911 18.2002 23.657 18.2002 23.1V14.8694C18.1997 14.3127 17.9781 13.7789 17.5842 13.3854L13.2162 9.01463C13.0209 8.81949 12.7891 8.66476 12.534 8.5593C12.2789 8.45384 12.0055 8.39972 11.7294 8.40003H6.3002Z" fill="white"/>
</g>
</svg>
