<svg width="36" height="36" viewBox="0 0 36 36" fill="none" xmlns="http://www.w3.org/2000/svg">
<g clip-path="url(#clip0_1325_7708)">
<path d="M30.4755 6.55471C28.1415 5.48336 25.6784 4.71938 23.1479 4.28191C23.1249 4.27763 23.1011 4.2807 23.08 4.29069C23.0588 4.30068 23.0414 4.31708 23.0301 4.33756C22.7136 4.90051 22.3631 5.63476 22.1177 6.21181C19.3506 5.79751 16.5977 5.79751 13.8875 6.21181C13.6421 5.62186 13.2788 4.90051 12.9609 4.33756C12.9491 4.31755 12.9316 4.30155 12.9106 4.29165C12.8896 4.28175 12.8661 4.27841 12.8432 4.28206C10.3123 4.71851 7.84905 5.48243 5.51536 6.55456C5.49539 6.5631 5.47857 6.57761 5.46721 6.59611C0.800106 13.5687 -0.478494 20.3699 0.148806 27.0867C0.15058 27.1032 0.155636 27.1191 0.163675 27.1335C0.171714 27.148 0.182572 27.1607 0.195606 27.1709C3.27481 29.4323 6.25756 30.8051 9.18496 31.715C9.20772 31.7218 9.23201 31.7214 9.25459 31.714C9.27716 31.7066 9.29693 31.6925 9.31126 31.6736C10.0037 30.728 10.6209 29.7308 11.1503 28.6823C11.1575 28.6679 11.1617 28.6522 11.1624 28.6361C11.1632 28.62 11.1605 28.604 11.1546 28.589C11.1488 28.574 11.1398 28.5604 11.1282 28.5492C11.1167 28.5379 11.103 28.5293 11.0879 28.5237C10.1087 28.1523 9.17641 27.6995 8.27956 27.1853C8.2632 27.1757 8.24946 27.1622 8.23956 27.146C8.22965 27.1298 8.22388 27.1115 8.22275 27.0925C8.22162 27.0736 8.22518 27.0547 8.2331 27.0374C8.24101 27.0202 8.25306 27.0052 8.26816 26.9937C8.45686 26.8523 8.64571 26.7053 8.82586 26.5566C8.84187 26.5434 8.86125 26.5349 8.88181 26.5322C8.90238 26.5294 8.92331 26.5324 8.94226 26.5409C14.834 29.2308 21.2123 29.2308 27.0344 26.5409C27.0533 26.5318 27.0745 26.5284 27.0953 26.5309C27.1161 26.5334 27.1358 26.5418 27.1521 26.5551C27.3324 26.7036 27.5211 26.8523 27.7113 26.9937C27.7264 27.0051 27.7386 27.02 27.7466 27.0371C27.7546 27.0543 27.7583 27.0731 27.7573 27.0921C27.7563 27.111 27.7507 27.1293 27.741 27.1456C27.7312 27.1618 27.7176 27.1754 27.7014 27.1851C26.8042 27.7091 25.8644 28.1564 24.8919 28.5222C24.8768 28.528 24.8631 28.5369 24.8517 28.5483C24.8402 28.5598 24.8314 28.5735 24.8256 28.5886C24.8198 28.6037 24.8173 28.6198 24.8182 28.636C24.8191 28.6521 24.8234 28.6679 24.8309 28.6823C25.3715 29.7293 25.9887 30.7265 26.6684 31.6721C26.6822 31.6916 26.7019 31.7062 26.7246 31.7139C26.7472 31.7216 26.7718 31.722 26.7947 31.715C29.7362 30.8049 32.7189 29.4321 35.7981 27.1709C35.8114 27.1612 35.8224 27.1488 35.8305 27.1345C35.8386 27.1202 35.8436 27.1044 35.8451 27.0881C36.5957 19.3226 34.5878 12.5772 30.5223 6.59747C30.5123 6.57804 30.4957 6.56297 30.4755 6.55471ZM12.03 22.9968C10.2563 22.9968 8.79466 21.3683 8.79466 19.3683C8.79466 17.3685 10.2279 15.74 12.0302 15.74C13.8464 15.74 15.2937 17.3828 15.2654 19.3685C15.2654 21.3683 13.8321 22.9968 12.03 22.9968ZM23.9922 22.9968C22.2185 22.9968 20.7569 21.3683 20.7569 19.3683C20.7569 17.3685 22.19 15.74 23.9922 15.74C25.8084 15.74 27.2558 17.3828 27.2274 19.3685C27.2274 21.3683 25.8084 22.9968 23.9922 22.9968Z" fill="white"/>
</g>
<defs>
<clipPath id="clip0_1325_7708">
<rect width="36" height="36" fill="white"/>
</clipPath>
</defs>
</svg>
