<svg width="22" height="22" viewBox="0 0 22 22" fill="none" xmlns="http://www.w3.org/2000/svg">
<g clip-path="url(#clip0_1325_7522)">
<mask id="mask0_1325_7522" style="mask-type:luminance" maskUnits="userSpaceOnUse" x="0" y="0" width="22" height="22">
<path d="M22 0H0V22H22V0Z" fill="white"/>
</mask>
<g mask="url(#mask0_1325_7522)">
<path fill-rule="evenodd" clip-rule="evenodd" d="M11 0C4.9247 0 0 4.9324 0 11.0187C0 15.8862 3.1515 20.0167 7.5229 21.4731C8.0729 21.5743 8.2731 21.2344 8.2731 20.9418C8.2731 20.6811 8.2643 19.987 8.2588 19.0685C5.1986 19.734 4.5529 17.5912 4.5529 17.5912C4.0535 16.3174 3.3319 15.9786 3.3319 15.9786C2.3331 15.2966 3.4078 15.3098 3.4078 15.3098C4.5111 15.3868 5.0919 16.445 5.0919 16.445C6.0731 18.128 7.667 17.6418 8.2929 17.3602C8.3941 16.6485 8.6779 16.1634 8.9925 15.8884C6.5505 15.6101 3.982 14.6641 3.982 10.4423C3.982 9.24 4.411 8.2555 5.1139 7.4855C5.0006 7.2072 4.6233 6.0863 5.2217 4.5705C5.2217 4.5705 6.1457 4.2735 8.2467 5.6991C9.14404 5.45437 10.0699 5.32971 11 5.3284C11.935 5.3328 12.8755 5.4549 13.7544 5.6991C15.8543 4.2735 16.7761 4.5694 16.7761 4.5694C17.3767 6.0863 16.9983 7.2072 16.8861 7.4855C17.5901 8.2555 18.0169 9.24 18.0169 10.4423C18.0169 14.6751 15.444 15.6068 12.9943 15.8796C13.3892 16.2195 13.7401 16.8916 13.7401 17.9201C13.7401 19.3919 13.7269 20.581 13.7269 20.9418C13.7269 21.2366 13.9249 21.5798 14.4837 21.472C16.6742 20.7373 18.5783 19.3329 19.927 17.4571C21.2757 15.5812 22.0009 13.3291 22 11.0187C22 4.9324 17.0742 0 11 0Z" fill="white"/>
</g>
</g>
<defs>
<clipPath id="clip0_1325_7522">
<rect width="22" height="22" fill="white"/>
</clipPath>
</defs>
</svg>
