<svg width="32" height="26" viewBox="0 0 32 26" fill="none" xmlns="http://www.w3.org/2000/svg">
<path d="M28.724 6.472C28.744 6.75333 28.744 7.036 28.744 7.32C28.744 15.996 22.1387 26 10.064 26V25.996C6.49631 26.0009 3.00259 24.9789 0 23.052C1.71888 23.2591 3.46172 23.1254 5.12887 22.6584C6.79602 22.1915 8.35478 21.4005 9.716 20.3307C8.34592 20.3047 7.0182 19.8512 5.91851 19.0336C4.81882 18.216 4.00214 17.0752 3.58267 15.7707C4.56625 15.9603 5.5802 15.922 6.54667 15.6587C5.06098 15.3583 3.72489 14.5534 2.76498 13.3804C1.80506 12.2073 1.28041 10.7384 1.28 9.22266V9.14C2.19308 9.64883 3.21517 9.93054 4.26 9.96133C2.86996 9.03315 1.88589 7.61011 1.50813 5.98191C1.13037 4.35371 1.38732 2.64275 2.22667 1.19733C3.87548 3.22553 5.93242 4.88428 8.26394 6.06589C10.5955 7.2475 13.1494 7.92554 15.76 8.056C15.4348 6.64909 15.582 5.17425 16.1789 3.85938C16.7758 2.54452 17.7891 1.46283 19.0622 0.781495C20.3354 0.100155 21.7975 -0.142908 23.2226 0.0898679C24.6477 0.322644 25.9565 1.0183 26.9467 2.06933C28.4176 1.77928 29.8281 1.23996 31.1173 0.474663C30.6273 1.9953 29.6015 3.28606 28.2307 4.10666C29.5317 3.95258 30.8023 3.60426 32 3.07333C31.1184 4.3917 30.0091 5.54256 28.724 6.472Z" fill="white"/>
</svg>
