<svg width="38" height="38" viewBox="0 0 38 38" fill="none" xmlns="http://www.w3.org/2000/svg">
<path d="M37.2052 9.79462C36.9905 8.98597 36.5671 8.24792 35.9775 7.65437C35.3878 7.06082 34.6526 6.63261 33.8453 6.41262C30.8829 5.61304 19 5.61304 19 5.61304C19 5.61304 7.11708 5.61304 4.15308 6.41262C3.34623 6.633 2.61138 7.06136 2.02204 7.65488C1.4327 8.24839 1.00952 8.98623 0.794833 9.79462C0 12.7776 0 19.0001 0 19.0001C0 19.0001 0 25.2226 0.794833 28.2056C1.00951 29.0143 1.43288 29.7523 2.02254 30.3459C2.61219 30.9394 3.34745 31.3676 4.15467 31.5876C7.11708 32.3872 19 32.3872 19 32.3872C19 32.3872 30.8829 32.3872 33.8469 31.5876C34.6542 31.3678 35.3895 30.9396 35.9792 30.346C36.5689 29.7525 36.9922 29.0143 37.2068 28.2056C38 25.2226 38 19.0001 38 19.0001C38 19.0001 38 12.7776 37.2052 9.79462ZM15.1129 24.6495V13.3508L25.0452 19.0001L15.1129 24.6495Z" fill="white"/>
</svg>
