<svg width="21" height="20" viewBox="0 0 21 20" fill="none" xmlns="http://www.w3.org/2000/svg">
<g clip-path="url(#clip0_1325_8243)">
<rect y="-0.00164795" width="2.50867" height="2.50041" fill="#FF7612"/>
<rect y="2.49876" width="2.50867" height="2.50041" fill="#FF7612"/>
<rect y="4.99918" width="2.50867" height="2.50041" fill="#FF7612"/>
<rect y="7.49959" width="2.50867" height="2.50041" fill="#FF7612"/>
<rect y="10" width="2.50867" height="2.50041" fill="#FF7612"/>
<rect y="12.5004" width="2.50867" height="2.50041" fill="#FF7612"/>
<rect y="15.0008" width="2.50867" height="2.50041" fill="#FF7612"/>
<rect y="17.5012" width="2.50867" height="2.50041" fill="#FF7612"/>
<rect x="2.50879" y="17.5012" width="2.50867" height="2.50041" fill="#FF7612"/>
<rect x="5.01758" y="17.5012" width="2.50867" height="2.50041" fill="#FF7612"/>
<rect x="7.52637" y="17.5012" width="2.50867" height="2.50041" fill="#FF7612"/>
<rect x="10.0352" y="17.5012" width="2.50867" height="2.50041" fill="#FF7612"/>
<rect x="12.543" y="17.5012" width="2.50867" height="2.50041" fill="#FF7612"/>
<rect x="17.5605" y="15.0008" width="2.50867" height="2.50041" fill="#FF7612"/>
<rect x="17.5605" y="17.5012" width="2.50867" height="2.50041" fill="#FF7612"/>
<rect x="15.0518" y="17.5012" width="2.50867" height="2.50041" fill="#FF7612"/>
<rect x="17.5605" y="12.5004" width="2.50867" height="2.50041" fill="#FF7612"/>
<rect x="17.5605" y="10" width="2.50867" height="2.50041" fill="#FF7612"/>
<rect x="17.5605" y="7.49959" width="2.50867" height="2.50041" fill="#FF7612"/>
<rect opacity="0.5" x="5.01758" y="4.99918" width="2.50867" height="2.50041" fill="#FF7612"/>
<rect opacity="0.5" x="5.01758" y="7.49959" width="2.50867" height="2.50041" fill="#FF7612"/>
<rect opacity="0.5" x="5.01758" y="10" width="2.50867" height="2.50041" fill="#FF7612"/>
<rect opacity="0.5" x="5.01758" y="12.5004" width="2.50867" height="2.50041" fill="#FF7612"/>
<rect opacity="0.5" x="7.52637" y="4.99918" width="2.50867" height="2.50041" fill="#FF7612"/>
<rect opacity="0.5" x="10.0352" y="4.99918" width="2.50867" height="2.50041" fill="#FF7612"/>
<rect opacity="0.5" x="12.543" y="4.99918" width="2.50867" height="2.50041" fill="#FF7612"/>
<rect opacity="0.5" x="12.543" y="7.49959" width="2.50867" height="2.50041" fill="#FF7612"/>
<rect opacity="0.5" x="12.543" y="10" width="2.50867" height="2.50041" fill="#FF7612"/>
<rect opacity="0.5" x="12.543" y="12.5004" width="2.50867" height="2.50041" fill="#FF7612"/>
<rect opacity="0.5" x="10.0352" y="12.5004" width="2.50867" height="2.50041" fill="#FF7612"/>
<rect opacity="0.5" x="7.52637" y="12.5004" width="2.50867" height="2.50041" fill="#FF7612"/>
<rect x="17.5605" y="4.99918" width="2.50867" height="2.50041" fill="#FF7612"/>
<rect x="17.5605" y="2.49876" width="2.50867" height="2.50041" fill="#FF7612"/>
<rect x="2.50879" y="-0.00164795" width="2.50867" height="2.50041" fill="#FF7612"/>
<rect x="5.01758" y="-0.00164795" width="2.50867" height="2.50041" fill="#FF7612"/>
<rect x="7.52637" y="-0.00164795" width="2.50867" height="2.50041" fill="#FF7612"/>
<rect x="10.0352" y="-0.00164795" width="2.50867" height="2.50041" fill="#FF7612"/>
<rect x="12.543" y="-0.00164795" width="2.50867" height="2.50041" fill="#FF7612"/>
<rect x="15.0518" y="-0.00164795" width="2.50867" height="2.50041" fill="#FF7612"/>
<rect x="17.5605" y="-0.00164795" width="2.50867" height="2.50041" fill="#FF7612"/>
</g>
<defs>
<clipPath id="clip0_1325_8243">
<rect width="20.0693" height="20.0033" fill="white" transform="translate(0 -0.00164795)"/>
</clipPath>
</defs>
</svg>
