<svg xmlns="http://www.w3.org/2000/svg" width="8" height="8" fill="none" shape-rendering="crispEdges">
  <path fill="#fff" d="M0 0h1v1H0zm0 1h1v1H0zm0 1h1v1H0zm0 1h1v1H0zm0 1h1v1H0zm0 1h1v1H0zm0 1h1v1H0zm0 1h1v1H0zm1 0h1v1H1zm1 0h1v1H2zm1 0h1v1H3zm1 0h1v1H4zm1 0h1v1H5zm2-1h1v1H7zm0 1h1v1H7zM6 7h1v1H6zm1-2h1v1H7zm0-1h1v1H7zm0-1h1v1H7z"/>
  <path fill="#fff" d="M2 2h1v1H2zm0 1h1v1H2zm0 1h1v1H2zm0 1h1v1H2zm1-3h1v1H3zm1 0h1v1H4zm1 0h1v1H5zm0 1h1v1H5zm0 1h1v1H5zm0 1h1v1H5zM4 5h1v1H4zM3 5h1v1H3z" opacity=".5"/>
  <path fill="#fff" d="M7 2h1v1H7zm0-1h1v1H7zM1 0h1v1H1zm1 0h1v1H2zm1 0h1v1H3zm1 0h1v1H4zm1 0h1v1H5zm1 0h1v1H6zm1 0h1v1H7z"/>
</svg>