<svg xmlns="http://www.w3.org/2000/svg" width="8" height="8" fill="none" shape-rendering="crispEdges">
  <path fill="#fff" d="M0 0h1v1H0zm7 1h1V0H7zm0 6h1v1H7zM0 8h1V7H0z"/>
  <path fill="#fff" d="M0 1h1v1H0z" opacity=".75"/>
  <path fill="#fff" d="M0 2h1v1H0zm2-2h1v1H2zm3 0h1v1H5zm2 2h1v1H7zm0 3h1v1H7zM5 7h1v1H5zM2 7h1v1H2zM0 5h1v1H0z" opacity=".25"/>
  <path fill="#fff" d="M7 2h1V1H7zm0 4h1v1H7zM0 7h1V6H0zm1-7h1v1H1zm5 1h1V0H6zm0 6h1v1H6zM1 8h1V7H1z" opacity=".75"/>
  <path fill="#fff" d="M2 2h1v1H2zm0 1h1v1H2zm0 1h1v1H2zm0 1h1v1H2zm1 0h1v1H3zm1 0h1v1H4zm1 0h1v1H5zm0-1h1v1H5zm0-1h1v1H5zM3 2h1v1H3zm1 0h1v1H4zm1 0h1v1H5z"/>
</svg>