<svg width="2918" height="2918" viewBox="0 0 2918 2918" fill="none" xmlns="http://www.w3.org/2000/svg">
<rect width="2918" height="2918" fill="#5C9AF6"/>
<rect opacity="0.5" width="212.5" height="212.5" transform="matrix(0 1 1 0 609 2096.5)" fill="white"/>
<rect width="212.5" height="212.5" transform="matrix(0 1 1 0 1671.5 2096.5)" fill="white"/>
<rect width="212.5" height="212.5" transform="matrix(0 1 1 0 1034 2096.5)" fill="white"/>
<rect width="212.5" height="212.5" transform="matrix(0 1 1 0 1034 1246.5)" fill="white"/>
<rect width="212.5" height="212.5" transform="matrix(0 1 1 0 1034 1459)" fill="white"/>
<rect opacity="0.5" width="212.5" height="212.5" transform="matrix(0 1 1 0 2096.5 2096.5)" fill="white"/>
<rect opacity="0.75" width="212.5" height="212.5" transform="matrix(0 1 1 0 821.5 2096.5)" fill="white"/>
<rect opacity="0.75" width="212.5" height="212.5" transform="matrix(0 1 1 0 1884 2096.5)" fill="white"/>
<rect opacity="0.75" width="212.5" height="212.5" transform="matrix(0 1 1 0 609 1884)" fill="white"/>
<rect opacity="0.75" width="212.5" height="212.5" transform="matrix(0 1 1 0 609 821.5)" fill="white"/>
<rect width="212.5" height="212.5" transform="matrix(0 1 1 0 1671.5 1884)" fill="white"/>
<rect width="212.5" height="212.5" transform="matrix(0 1 1 0 1671.5 821.5)" fill="white"/>
<rect width="212.5" height="212.5" transform="matrix(0 1 1 0 1034 1884)" fill="white"/>
<rect width="212.5" height="212.5" transform="matrix(0 1 1 0 1034 821.5)" fill="white"/>
<rect opacity="0.75" width="212.5" height="212.5" transform="matrix(0 1 1 0 2096.5 1884)" fill="white"/>
<rect opacity="0.75" width="212.5" height="212.5" transform="matrix(0 1 1 0 2096.5 821.5)" fill="white"/>
<rect width="212.5" height="212.5" transform="matrix(0 1 1 0 609 1671.5)" fill="white"/>
<rect width="212.5" height="212.5" transform="matrix(0 1 1 0 609 1034)" fill="white"/>
<rect opacity="0.5" width="212.5" height="212.5" transform="matrix(0 1 1 0 609 609)" fill="white"/>
<rect width="212.5" height="212.5" transform="matrix(0 1 1 0 1671.5 1671.5)" fill="white"/>
<rect width="212.5" height="212.5" transform="matrix(0 1 1 0 1671.5 1034)" fill="white"/>
<rect width="212.5" height="212.5" transform="matrix(0 1 1 0 1671.5 1459)" fill="white"/>
<rect width="212.5" height="212.5" transform="matrix(0 1 1 0 1671.5 1246.5)" fill="white"/>
<rect width="212.5" height="212.5" transform="matrix(0 1 1 0 1671.5 609)" fill="white"/>
<rect width="212.5" height="212.5" transform="matrix(0 1 1 0 821.5 1671.5)" fill="white"/>
<rect width="212.5" height="212.5" transform="matrix(0 1 1 0 821.5 1034)" fill="white"/>
<rect opacity="0.75" width="212.5" height="212.5" transform="matrix(0 1 1 0 821.5 609)" fill="white"/>
<rect width="212.5" height="212.5" transform="matrix(0 1 1 0 1884 1671.5)" fill="white"/>
<rect width="212.5" height="212.5" transform="matrix(0 1 1 0 1884 1034)" fill="white"/>
<rect opacity="0.75" width="212.5" height="212.5" transform="matrix(0 1 1 0 1884 609)" fill="white"/>
<rect width="212.5" height="212.5" transform="matrix(0 1 1 0 1034 1671.5)" fill="white"/>
<rect width="212.5" height="212.5" transform="matrix(0 1 1 0 1034 1034)" fill="white"/>
<rect width="212.5" height="212.5" transform="matrix(0 1 1 0 1246.5 1671.5)" fill="white"/>
<rect width="212.5" height="212.5" transform="matrix(0 1 1 0 1246.5 1034)" fill="white"/>
<rect width="212.5" height="212.5" transform="matrix(0 1 1 0 1459 1671.5)" fill="white"/>
<rect width="212.5" height="212.5" transform="matrix(0 1 1 0 1459 1034)" fill="white"/>
<rect width="212.5" height="212.5" transform="matrix(0 1 1 0 1034 609)" fill="white"/>
<rect width="212.5" height="212.5" transform="matrix(0 1 1 0 2096.5 1671.5)" fill="white"/>
<rect width="212.5" height="212.5" transform="matrix(0 1 1 0 2096.5 1034)" fill="white"/>
<rect opacity="0.5" width="212.5" height="212.5" transform="matrix(0 1 1 0 2096.5 609)" fill="white"/>
</svg>
