<svg width="2918" height="2918" viewBox="0 0 2918 2918" fill="none" xmlns="http://www.w3.org/2000/svg">
<rect width="2918" height="2918" fill="#FF7612"/>
<g clip-path="url(#clip0_842_45815)">
<rect x="609" y="609" width="212.5" height="212.5" fill="white"/>
<rect x="609" y="821.5" width="212.5" height="212.5" fill="white"/>
<rect x="609" y="1034" width="212.5" height="212.5" fill="white"/>
<rect x="609" y="1246.5" width="212.5" height="212.5" fill="white"/>
<rect x="609" y="1459" width="212.5" height="212.5" fill="white"/>
<rect x="609" y="1671.5" width="212.5" height="212.5" fill="white"/>
<rect x="609" y="1884" width="212.5" height="212.5" fill="white"/>
<rect x="609" y="2096.5" width="212.5" height="212.5" fill="white"/>
<rect x="821.5" y="2096.5" width="212.5" height="212.5" fill="white"/>
<rect x="1034" y="2096.5" width="212.5" height="212.5" fill="white"/>
<rect x="1246.5" y="2096.5" width="212.5" height="212.5" fill="white"/>
<rect x="1459" y="2096.5" width="212.5" height="212.5" fill="white"/>
<rect x="1671.5" y="2096.5" width="212.5" height="212.5" fill="white"/>
<rect x="2096.5" y="1884" width="212.5" height="212.5" fill="white"/>
<rect x="2096.5" y="2096.5" width="212.5" height="212.5" fill="white"/>
<rect x="1884" y="2096.5" width="212.5" height="212.5" fill="white"/>
<rect x="2096.5" y="1671.5" width="212.5" height="212.5" fill="white"/>
<rect x="2096.5" y="1459" width="212.5" height="212.5" fill="white"/>
<rect x="2096.5" y="1246.5" width="212.5" height="212.5" fill="white"/>
<rect opacity="0.5" x="1034" y="1034" width="212.5" height="212.5" fill="white"/>
<rect opacity="0.5" x="1034" y="1246.5" width="212.5" height="212.5" fill="white"/>
<rect opacity="0.5" x="1034" y="1459" width="212.5" height="212.5" fill="white"/>
<rect opacity="0.5" x="1034" y="1671.5" width="212.5" height="212.5" fill="white"/>
<rect opacity="0.5" x="1246.5" y="1034" width="212.5" height="212.5" fill="white"/>
<rect opacity="0.5" x="1459" y="1034" width="212.5" height="212.5" fill="white"/>
<rect opacity="0.5" x="1671.5" y="1034" width="212.5" height="212.5" fill="white"/>
<rect opacity="0.5" x="1671.5" y="1246.5" width="212.5" height="212.5" fill="white"/>
<rect opacity="0.5" x="1671.5" y="1459" width="212.5" height="212.5" fill="white"/>
<rect opacity="0.5" x="1671.5" y="1671.5" width="212.5" height="212.5" fill="white"/>
<rect opacity="0.5" x="1459" y="1671.5" width="212.5" height="212.5" fill="white"/>
<rect opacity="0.5" x="1246.5" y="1671.5" width="212.5" height="212.5" fill="white"/>
<rect x="2096.5" y="1034" width="212.5" height="212.5" fill="white"/>
<rect x="2096.5" y="821.5" width="212.5" height="212.5" fill="white"/>
<rect x="821.5" y="609" width="212.5" height="212.5" fill="white"/>
<rect x="1034" y="609" width="212.5" height="212.5" fill="white"/>
<rect x="1246.5" y="609" width="212.5" height="212.5" fill="white"/>
<rect x="1459" y="609" width="212.5" height="212.5" fill="white"/>
<rect x="1671.5" y="609" width="212.5" height="212.5" fill="white"/>
<rect x="1884" y="609" width="212.5" height="212.5" fill="white"/>
<rect x="2096.5" y="609" width="212.5" height="212.5" fill="white"/>
</g>
<defs>
<clipPath id="clip0_842_45815">
<rect width="1700" height="1700" fill="white" transform="translate(609 609)"/>
</clipPath>
</defs>
</svg>
