<svg width="2918" height="2918" viewBox="0 0 2918 2918" fill="none" xmlns="http://www.w3.org/2000/svg">
<g clip-path="url(#clip0_1265_1062)">
<rect width="2918" height="2918" fill="#5C9AF6"/>
<rect opacity="0.5" width="197.5" height="197.5" transform="matrix(0 1 1 0 669 2051.5)" fill="white"/>
<rect width="197.5" height="197.5" transform="matrix(0 1 1 0 1656.5 2051.5)" fill="white"/>
<rect width="197.5" height="197.5" transform="matrix(0 1 1 0 1064 2051.5)" fill="white"/>
<rect width="197.5" height="197.5" transform="matrix(0 1 1 0 1064 1261.5)" fill="white"/>
<rect width="197.5" height="197.5" transform="matrix(0 1 1 0 1064 1459)" fill="white"/>
<rect opacity="0.5" width="197.5" height="197.5" transform="matrix(0 1 1 0 2051.5 2051.5)" fill="white"/>
<rect opacity="0.75" width="197.5" height="197.5" transform="matrix(0 1 1 0 866.5 2051.5)" fill="white"/>
<rect opacity="0.75" width="197.5" height="197.5" transform="matrix(0 1 1 0 1854 2051.5)" fill="white"/>
<rect opacity="0.75" width="197.5" height="197.5" transform="matrix(0 1 1 0 669 1854)" fill="white"/>
<rect opacity="0.75" width="197.5" height="197.5" transform="matrix(0 1 1 0 669 866.5)" fill="white"/>
<rect width="197.5" height="197.5" transform="matrix(0 1 1 0 1656.5 1854)" fill="white"/>
<rect width="197.5" height="197.5" transform="matrix(0 1 1 0 1656.5 866.5)" fill="white"/>
<rect width="197.5" height="197.5" transform="matrix(0 1 1 0 1064 1854)" fill="white"/>
<rect width="197.5" height="197.5" transform="matrix(0 1 1 0 1064 866.5)" fill="white"/>
<rect opacity="0.75" width="197.5" height="197.5" transform="matrix(0 1 1 0 2051.5 1854)" fill="white"/>
<rect opacity="0.75" width="197.5" height="197.5" transform="matrix(0 1 1 0 2051.5 866.5)" fill="white"/>
<rect width="197.5" height="197.5" transform="matrix(0 1 1 0 669 1656.5)" fill="white"/>
<rect width="197.5" height="197.5" transform="matrix(0 1 1 0 669 1064)" fill="white"/>
<rect opacity="0.5" width="197.5" height="197.5" transform="matrix(0 1 1 0 669 669)" fill="white"/>
<rect width="197.5" height="197.5" transform="matrix(0 1 1 0 1656.5 1656.5)" fill="white"/>
<rect width="197.5" height="197.5" transform="matrix(0 1 1 0 1656.5 1064)" fill="white"/>
<rect width="197.5" height="197.5" transform="matrix(0 1 1 0 1656.5 1459)" fill="white"/>
<rect width="197.5" height="197.5" transform="matrix(0 1 1 0 1656.5 1261.5)" fill="white"/>
<rect width="197.5" height="197.5" transform="matrix(0 1 1 0 1656.5 669)" fill="white"/>
<rect width="197.5" height="197.5" transform="matrix(0 1 1 0 866.5 1656.5)" fill="white"/>
<rect width="197.5" height="197.5" transform="matrix(0 1 1 0 866.5 1064)" fill="white"/>
<rect opacity="0.75" width="197.5" height="197.5" transform="matrix(0 1 1 0 866.5 669)" fill="white"/>
<rect width="197.5" height="197.5" transform="matrix(0 1 1 0 1854 1656.5)" fill="white"/>
<rect width="197.5" height="197.5" transform="matrix(0 1 1 0 1854 1064)" fill="white"/>
<rect opacity="0.75" width="197.5" height="197.5" transform="matrix(0 1 1 0 1854 669)" fill="white"/>
<rect width="197.5" height="197.5" transform="matrix(0 1 1 0 1064 1656.5)" fill="white"/>
<rect width="197.5" height="197.5" transform="matrix(0 1 1 0 1064 1064)" fill="white"/>
<rect width="197.5" height="197.5" transform="matrix(0 1 1 0 1261.5 1656.5)" fill="white"/>
<rect width="197.5" height="197.5" transform="matrix(0 1 1 0 1261.5 1064)" fill="white"/>
<rect width="197.5" height="197.5" transform="matrix(0 1 1 0 1459 1656.5)" fill="white"/>
<rect width="197.5" height="197.5" transform="matrix(0 1 1 0 1459 1064)" fill="white"/>
<rect width="197.5" height="197.5" transform="matrix(0 1 1 0 1064 669)" fill="white"/>
<rect width="197.5" height="197.5" transform="matrix(0 1 1 0 2051.5 1656.5)" fill="white"/>
<rect width="197.5" height="197.5" transform="matrix(0 1 1 0 2051.5 1064)" fill="white"/>
<rect opacity="0.5" width="197.5" height="197.5" transform="matrix(0 1 1 0 2051.5 669)" fill="white"/>
</g>
<defs>
<clipPath id="clip0_1265_1062">
<rect width="2918" height="2918" rx="1459" fill="white"/>
</clipPath>
</defs>
</svg>
