<svg width="1148" height="401" viewBox="0 0 1148 401" fill="none" xmlns="http://www.w3.org/2000/svg">
<rect opacity="0.1" x="675" y="1" width="473" height="400" fill="#1AC267"/>
<rect x="0.5" y="1.5" width="1147" height="399" stroke="#006C32"/>
<path opacity="0.5" d="M149.21 38.77L147.815 35.8V43H146.315V32.5H147.815L149.615 36.415L151.415 32.5H152.915V43H151.415V35.8L150.02 38.77H149.21ZM161.759 40.285C161.759 41.77 160.544 43 159.059 43H157.859C156.359 43 155.159 41.77 155.159 40.285V32.5H156.659V40.285C156.659 40.945 157.199 41.485 157.859 41.485H159.059C159.719 41.485 160.259 40.945 160.259 40.285V32.5H161.759V40.285ZM167.904 32.5C169.389 32.5 170.604 33.7 170.604 35.2V40.285C170.604 41.77 169.389 43 167.904 43H164.004V32.5H167.904ZM165.504 41.485H167.904C168.564 41.485 169.104 40.945 169.104 40.285V35.2C169.104 34.54 168.579 34 167.904 34H165.504V41.485Z" fill="white"/>
<path opacity="0.5" d="M456.856 28.5H463.456V30H460.906V37.5H463.456V39H456.856V37.5H459.406V30H456.856V28.5ZM470.8 28.5H472.3V39H470.125L467.2 31.02V39H465.7V28.5H467.875L470.8 36.48V28.5ZM474.544 28.5H481.144V30H478.594V39H477.094V30H474.544V28.5ZM489.988 28.5V30H484.888V32.745H489.388V34.245H484.888V37.5H489.988V39H483.388V28.5H489.988ZM498.832 39H497.182L495.277 34.8H493.732V39H492.232V28.5H496.132C497.632 28.5 498.832 29.7 498.832 31.2V32.1C498.832 33.345 498.007 34.38 496.867 34.695L498.832 39ZM493.732 33.3H496.132C496.807 33.3 497.332 32.775 497.332 32.1V31.2C497.332 30.525 496.807 30 496.132 30H493.732V33.3ZM507.677 28.5V30H502.577V33.195H507.077V34.695H502.577V39H501.077V28.5H507.677ZM511.421 39H509.921V35.55L512.471 28.5H513.971L516.521 35.55V39H515.021V36.57H511.421V39ZM511.691 35.07H514.751L513.236 30.87H513.206L511.691 35.07ZM523.865 31.2C523.865 30.525 523.34 30 522.665 30H521.465C520.79 30 520.265 30.54 520.265 31.2V36.285C520.265 36.945 520.805 37.485 521.465 37.485H522.665C523.325 37.485 523.865 36.945 523.865 36.285V35.46H525.365V36.285C525.365 37.77 524.165 39 522.665 39H521.465C519.98 39 518.765 37.77 518.765 36.285V31.2C518.765 29.7 519.98 28.5 521.465 28.5H522.665C524.165 28.5 525.365 29.7 525.365 31.2V32.025H523.865V31.2ZM534.209 28.5V30H529.109V32.745H533.609V34.245H529.109V37.5H534.209V39H527.609V28.5H534.209ZM536.453 35.61H537.953V36.21C537.953 36.915 538.538 37.5 539.243 37.5H540.248C541.013 37.5 541.553 37.02 541.553 36.36C541.553 34.29 536.603 33.84 536.603 30.99C536.603 29.52 537.758 28.5 539.393 28.5H540.098C541.643 28.5 542.903 29.745 542.903 31.29V31.74H541.403V31.29C541.403 30.57 540.818 30 540.098 30H539.393C538.583 30 538.103 30.375 538.103 30.99C538.103 32.58 543.053 33.195 543.053 36.36C543.053 37.86 541.838 39 540.248 39H539.243C537.698 39 536.453 37.755 536.453 36.21V35.61Z" fill="white"/>
<path opacity="0.5" d="M875.992 28.5V30H870.892V32.745H875.392V34.245H870.892V37.5H875.992V39H869.392V28.5H875.992ZM883.336 28.5H884.836V39H882.661L879.736 31.02V39H878.236V28.5H880.411L883.336 36.48V28.5ZM892.18 28.5H893.68V31.95L891.13 39H889.63L887.08 31.95V28.5H888.58V31.68L890.365 36.63H890.395L892.18 31.68V28.5ZM895.924 28.5H902.524V30H899.974V37.5H902.524V39H895.924V37.5H898.474V30H895.924V28.5ZM911.368 39H909.718L907.813 34.8H906.268V39H904.768V28.5H908.668C910.168 28.5 911.368 29.7 911.368 31.2V32.1C911.368 33.345 910.543 34.38 909.403 34.695L911.368 39ZM906.268 33.3H908.668C909.343 33.3 909.868 32.775 909.868 32.1V31.2C909.868 30.525 909.343 30 908.668 30H906.268V33.3ZM917.513 37.485C918.173 37.485 918.713 36.945 918.713 36.285V31.2C918.713 30.525 918.188 30 917.513 30H916.313C915.638 30 915.113 30.54 915.113 31.2V36.285C915.113 36.945 915.653 37.485 916.313 37.485H917.513ZM913.613 36.285V31.2C913.613 29.7 914.828 28.5 916.313 28.5H917.513C919.013 28.5 920.213 29.7 920.213 31.2V36.285C920.213 37.77 919.013 39 917.513 39H916.313C914.828 39 913.613 37.77 913.613 36.285ZM927.557 28.5H929.057V39H926.882L923.957 31.02V39H922.457V28.5H924.632L927.557 36.48V28.5ZM934.196 34.77L932.801 31.8V39H931.301V28.5H932.801L934.601 32.415L936.401 28.5H937.901V39H936.401V31.8L935.006 34.77H934.196ZM946.745 28.5V30H941.645V32.745H946.145V34.245H941.645V37.5H946.745V39H940.145V28.5H946.745ZM954.089 28.5H955.589V39H953.414L950.489 31.02V39H948.989V28.5H951.164L954.089 36.48V28.5ZM957.833 28.5H964.433V30H961.883V39H960.383V30H957.833V28.5Z" fill="white"/>
<rect x="39.2637" y="62.5" width="235.558" height="39" stroke="#FF7612" stroke-opacity="0.5"/>
<g clip-path="url(#clip0_1325_7768)">
<rect x="115.008" y="71.9984" width="2.50867" height="2.50041" fill="#FF7612"/>
<rect x="115.008" y="74.4988" width="2.50867" height="2.50041" fill="#FF7612"/>
<rect x="115.008" y="76.9992" width="2.50867" height="2.50041" fill="#FF7612"/>
<rect x="115.008" y="79.4996" width="2.50867" height="2.50041" fill="#FF7612"/>
<rect x="115.008" y="82" width="2.50867" height="2.50041" fill="#FF7612"/>
<rect x="115.008" y="84.5004" width="2.50867" height="2.50041" fill="#FF7612"/>
<rect x="115.008" y="87.0008" width="2.50867" height="2.50041" fill="#FF7612"/>
<rect x="115.008" y="89.5012" width="2.50867" height="2.50041" fill="#FF7612"/>
<rect x="117.517" y="89.5012" width="2.50867" height="2.50041" fill="#FF7612"/>
<rect x="120.025" y="89.5012" width="2.50867" height="2.50041" fill="#FF7612"/>
<rect x="122.534" y="89.5012" width="2.50867" height="2.50041" fill="#FF7612"/>
<rect x="125.043" y="89.5012" width="2.50867" height="2.50041" fill="#FF7612"/>
<rect x="127.551" y="89.5012" width="2.50867" height="2.50041" fill="#FF7612"/>
<rect x="132.568" y="87.0008" width="2.50867" height="2.50041" fill="#FF7612"/>
<rect x="132.568" y="89.5012" width="2.50867" height="2.50041" fill="#FF7612"/>
<rect x="130.06" y="89.5012" width="2.50867" height="2.50041" fill="#FF7612"/>
<rect x="132.568" y="84.5004" width="2.50867" height="2.50041" fill="#FF7612"/>
<rect x="132.568" y="82" width="2.50867" height="2.50041" fill="#FF7612"/>
<rect x="132.568" y="79.4996" width="2.50867" height="2.50041" fill="#FF7612"/>
<rect opacity="0.5" x="120.025" y="76.9992" width="2.50867" height="2.50041" fill="#FF7612"/>
<rect opacity="0.5" x="120.025" y="79.4996" width="2.50867" height="2.50041" fill="#FF7612"/>
<rect opacity="0.5" x="120.025" y="82" width="2.50867" height="2.50041" fill="#FF7612"/>
<rect opacity="0.5" x="120.025" y="84.5004" width="2.50867" height="2.50041" fill="#FF7612"/>
<rect opacity="0.5" x="122.534" y="76.9992" width="2.50867" height="2.50041" fill="#FF7612"/>
<rect opacity="0.5" x="125.043" y="76.9992" width="2.50867" height="2.50041" fill="#FF7612"/>
<rect opacity="0.5" x="127.551" y="76.9992" width="2.50867" height="2.50041" fill="#FF7612"/>
<rect opacity="0.5" x="127.551" y="79.4996" width="2.50867" height="2.50041" fill="#FF7612"/>
<rect opacity="0.5" x="127.551" y="82" width="2.50867" height="2.50041" fill="#FF7612"/>
<rect opacity="0.5" x="127.551" y="84.5004" width="2.50867" height="2.50041" fill="#FF7612"/>
<rect opacity="0.5" x="125.043" y="84.5004" width="2.50867" height="2.50041" fill="#FF7612"/>
<rect opacity="0.5" x="122.534" y="84.5004" width="2.50867" height="2.50041" fill="#FF7612"/>
<rect x="132.568" y="76.9992" width="2.50867" height="2.50041" fill="#FF7612"/>
<rect x="132.568" y="74.4988" width="2.50867" height="2.50041" fill="#FF7612"/>
<rect x="117.517" y="71.9984" width="2.50867" height="2.50041" fill="#FF7612"/>
<rect x="120.025" y="71.9984" width="2.50867" height="2.50041" fill="#FF7612"/>
<rect x="122.534" y="71.9984" width="2.50867" height="2.50041" fill="#FF7612"/>
<rect x="125.043" y="71.9984" width="2.50867" height="2.50041" fill="#FF7612"/>
<rect x="127.551" y="71.9984" width="2.50867" height="2.50041" fill="#FF7612"/>
<rect x="130.06" y="71.9984" width="2.50867" height="2.50041" fill="#FF7612"/>
<rect x="132.568" y="71.9984" width="2.50867" height="2.50041" fill="#FF7612"/>
</g>
<path d="M146.67 77.5H153.27V79H150.72V88H149.22V79H146.67V77.5ZM157.014 88H155.514V84.55L158.064 77.5H159.564L162.114 84.55V88H160.614V85.57H157.014V88ZM157.284 84.07H160.344L158.829 79.87H158.799L157.284 84.07ZM170.658 80.8C170.658 81.49 170.403 82.135 169.968 82.6C170.568 83.095 170.958 83.845 170.958 84.7V85.3C170.958 86.8 169.758 88 168.258 88H164.358V77.5H167.958C169.458 77.5 170.658 78.7 170.658 80.2V80.8ZM165.858 86.5H168.258C168.933 86.5 169.458 85.975 169.458 85.3V84.7C169.458 84.025 168.933 83.5 168.258 83.5H165.858V86.5ZM165.858 82H167.958C168.633 82 169.158 81.475 169.158 80.8V80.2C169.158 79.525 168.633 79 167.958 79H165.858V82ZM174.702 77.5V86.5H179.802V88H173.202V77.5H174.702ZM188.646 77.5V79H183.546V81.745H188.046V83.245H183.546V86.5H188.646V88H182.046V77.5H188.646ZM190.89 84.61H192.39V85.21C192.39 85.915 192.975 86.5 193.68 86.5H194.685C195.45 86.5 195.99 86.02 195.99 85.36C195.99 83.29 191.04 82.84 191.04 79.99C191.04 78.52 192.195 77.5 193.83 77.5H194.535C196.08 77.5 197.34 78.745 197.34 80.29V80.74H195.84V80.29C195.84 79.57 195.255 79 194.535 79H193.83C193.02 79 192.54 79.375 192.54 79.99C192.54 81.58 197.49 82.195 197.49 85.36C197.49 86.86 196.275 88 194.685 88H193.68C192.135 88 190.89 86.755 190.89 85.21V84.61Z" fill="#FF7612"/>
<rect x="39.2637" y="115.5" width="235.558" height="39" stroke="#FF7612" stroke-opacity="0.5"/>
<g clip-path="url(#clip1_1325_7768)">
<rect x="110.508" y="124.998" width="2.50867" height="2.50041" fill="#FF7612"/>
<rect x="110.508" y="127.499" width="2.50867" height="2.50041" fill="#FF7612"/>
<rect x="110.508" y="129.999" width="2.50867" height="2.50041" fill="#FF7612"/>
<rect x="110.508" y="132.5" width="2.50867" height="2.50041" fill="#FF7612"/>
<rect x="110.508" y="135" width="2.50867" height="2.50041" fill="#FF7612"/>
<rect x="110.508" y="137.5" width="2.50867" height="2.50041" fill="#FF7612"/>
<rect x="110.508" y="140.001" width="2.50867" height="2.50041" fill="#FF7612"/>
<rect x="110.508" y="142.501" width="2.50867" height="2.50041" fill="#FF7612"/>
<rect x="113.017" y="142.501" width="2.50867" height="2.50041" fill="#FF7612"/>
<rect x="115.525" y="142.501" width="2.50867" height="2.50041" fill="#FF7612"/>
<rect x="118.034" y="142.501" width="2.50867" height="2.50041" fill="#FF7612"/>
<rect x="120.543" y="142.501" width="2.50867" height="2.50041" fill="#FF7612"/>
<rect x="123.051" y="142.501" width="2.50867" height="2.50041" fill="#FF7612"/>
<rect x="128.068" y="140.001" width="2.50867" height="2.50041" fill="#FF7612"/>
<rect x="128.068" y="142.501" width="2.50867" height="2.50041" fill="#FF7612"/>
<rect x="125.56" y="142.501" width="2.50867" height="2.50041" fill="#FF7612"/>
<rect x="128.068" y="137.5" width="2.50867" height="2.50041" fill="#FF7612"/>
<rect x="128.068" y="135" width="2.50867" height="2.50041" fill="#FF7612"/>
<rect x="128.068" y="132.5" width="2.50867" height="2.50041" fill="#FF7612"/>
<rect opacity="0.5" x="115.525" y="129.999" width="2.50867" height="2.50041" fill="#FF7612"/>
<rect opacity="0.5" x="115.525" y="132.5" width="2.50867" height="2.50041" fill="#FF7612"/>
<rect opacity="0.5" x="115.525" y="135" width="2.50867" height="2.50041" fill="#FF7612"/>
<rect opacity="0.5" x="115.525" y="137.5" width="2.50867" height="2.50041" fill="#FF7612"/>
<rect opacity="0.5" x="118.034" y="129.999" width="2.50867" height="2.50041" fill="#FF7612"/>
<rect opacity="0.5" x="120.543" y="129.999" width="2.50867" height="2.50041" fill="#FF7612"/>
<rect opacity="0.5" x="123.051" y="129.999" width="2.50867" height="2.50041" fill="#FF7612"/>
<rect opacity="0.5" x="123.051" y="132.5" width="2.50867" height="2.50041" fill="#FF7612"/>
<rect opacity="0.5" x="123.051" y="135" width="2.50867" height="2.50041" fill="#FF7612"/>
<rect opacity="0.5" x="123.051" y="137.5" width="2.50867" height="2.50041" fill="#FF7612"/>
<rect opacity="0.5" x="120.543" y="137.5" width="2.50867" height="2.50041" fill="#FF7612"/>
<rect opacity="0.5" x="118.034" y="137.5" width="2.50867" height="2.50041" fill="#FF7612"/>
<rect x="128.068" y="129.999" width="2.50867" height="2.50041" fill="#FF7612"/>
<rect x="128.068" y="127.499" width="2.50867" height="2.50041" fill="#FF7612"/>
<rect x="113.017" y="124.998" width="2.50867" height="2.50041" fill="#FF7612"/>
<rect x="115.525" y="124.998" width="2.50867" height="2.50041" fill="#FF7612"/>
<rect x="118.034" y="124.998" width="2.50867" height="2.50041" fill="#FF7612"/>
<rect x="120.543" y="124.998" width="2.50867" height="2.50041" fill="#FF7612"/>
<rect x="123.051" y="124.998" width="2.50867" height="2.50041" fill="#FF7612"/>
<rect x="125.56" y="124.998" width="2.50867" height="2.50041" fill="#FF7612"/>
<rect x="128.068" y="124.998" width="2.50867" height="2.50041" fill="#FF7612"/>
</g>
<path d="M142.248 137.61H143.748V138.21C143.748 138.915 144.333 139.5 145.038 139.5H146.043C146.808 139.5 147.348 139.02 147.348 138.36C147.348 136.29 142.398 135.84 142.398 132.99C142.398 131.52 143.553 130.5 145.188 130.5H145.893C147.438 130.5 148.698 131.745 148.698 133.29V133.74H147.198V133.29C147.198 132.57 146.613 132 145.893 132H145.188C144.378 132 143.898 132.375 143.898 132.99C143.898 134.58 148.848 135.195 148.848 138.36C148.848 139.86 147.633 141 146.043 141H145.038C143.493 141 142.248 139.755 142.248 138.21V137.61ZM153.642 141V137.265L151.092 134.1V130.5H152.592V133.56L154.362 135.765H154.392L156.192 133.41V130.5H157.692V133.92L155.142 137.265V141H153.642ZM159.936 137.61H161.436V138.21C161.436 138.915 162.021 139.5 162.726 139.5H163.731C164.496 139.5 165.036 139.02 165.036 138.36C165.036 136.29 160.086 135.84 160.086 132.99C160.086 131.52 161.241 130.5 162.876 130.5H163.581C165.126 130.5 166.386 131.745 166.386 133.29V133.74H164.886V133.29C164.886 132.57 164.301 132 163.581 132H162.876C162.066 132 161.586 132.375 161.586 132.99C161.586 134.58 166.536 135.195 166.536 138.36C166.536 139.86 165.321 141 163.731 141H162.726C161.181 141 159.936 139.755 159.936 138.21V137.61ZM168.78 130.5H175.38V132H172.83V141H171.33V132H168.78V130.5ZM184.224 130.5V132H179.124V134.745H183.624V136.245H179.124V139.5H184.224V141H177.624V130.5H184.224ZM189.363 136.77L187.968 133.8V141H186.468V130.5H187.968L189.768 134.415L191.568 130.5H193.068V141H191.568V133.8L190.173 136.77H189.363ZM195.312 137.61H196.812V138.21C196.812 138.915 197.397 139.5 198.102 139.5H199.107C199.872 139.5 200.412 139.02 200.412 138.36C200.412 136.29 195.462 135.84 195.462 132.99C195.462 131.52 196.617 130.5 198.252 130.5H198.957C200.502 130.5 201.762 131.745 201.762 133.29V133.74H200.262V133.29C200.262 132.57 199.677 132 198.957 132H198.252C197.442 132 196.962 132.375 196.962 132.99C196.962 134.58 201.912 135.195 201.912 138.36C201.912 139.86 200.697 141 199.107 141H198.102C196.557 141 195.312 139.755 195.312 138.21V137.61Z" fill="#FF7612"/>
<rect x="384.161" y="62.5" width="235.558" height="39" stroke="white" stroke-opacity="0.5"/>
<path d="M496.398 77.5V79H491.298V81.745H495.798V83.245H491.298V86.5H496.398V88H489.798V77.5H496.398ZM503.742 77.5H505.242V80.95L502.692 88H501.192L498.642 80.95V77.5H500.142V80.68L501.927 85.63H501.957L503.742 80.68V77.5ZM510.382 83.77L508.987 80.8V88H507.487V77.5H508.987L510.787 81.415L512.587 77.5H514.087V88H512.587V80.8L511.192 83.77H510.382Z" fill="white"/>
<rect x="384.161" y="115.5" width="235.558" height="39" stroke="white" stroke-opacity="0.5"/>
<path d="M474.288 130.5V132H469.188V134.745H473.688V136.245H469.188V139.5H474.288V141H467.688V130.5H474.288ZM483.132 141H481.482L479.577 136.8H478.032V141H476.532V130.5H480.432C481.932 130.5 483.132 131.7 483.132 133.2V134.1C483.132 135.345 482.307 136.38 481.167 136.695L483.132 141ZM478.032 135.3H480.432C481.107 135.3 481.632 134.775 481.632 134.1V133.2C481.632 132.525 481.107 132 480.432 132H478.032V135.3ZM490.476 133.2C490.476 132.525 489.951 132 489.276 132H488.076C487.401 132 486.876 132.54 486.876 133.2V138.285C486.876 138.945 487.416 139.485 488.076 139.485H489.276C489.936 139.485 490.476 138.945 490.476 138.285V137.46H491.976V138.285C491.976 139.77 490.776 141 489.276 141H488.076C486.591 141 485.376 139.77 485.376 138.285V133.2C485.376 131.7 486.591 130.5 488.076 130.5H489.276C490.776 130.5 491.976 131.7 491.976 133.2V134.025H490.476V133.2ZM494.82 136.245H500.22V137.745H494.82V136.245ZM506.664 131.4H508.164V135.15H509.664V136.65H508.164V141H506.664V136.65H503.064V130.5H504.564V135.15H506.664V131.4ZM518.509 133.8C518.509 134.565 518.194 135.255 517.684 135.75C518.194 136.245 518.509 136.935 518.509 137.7V138.3C518.509 139.8 517.309 141 515.809 141H514.609C513.124 141 511.909 139.8 511.909 138.3V137.775H513.409V138.3C513.409 138.96 513.949 139.5 514.609 139.5H515.809C516.484 139.5 517.009 138.975 517.009 138.3V137.7C517.009 137.025 516.484 136.5 515.809 136.5H514.759V135H515.809C516.484 135 517.009 134.475 517.009 133.8V133.2C517.009 132.525 516.484 132 515.809 132H514.609C513.949 132 513.409 132.54 513.409 133.2V133.725H511.909V133.2C511.909 131.7 513.124 130.5 514.609 130.5H515.809C517.309 130.5 518.509 131.7 518.509 133.2V133.8ZM527.353 133.8C527.353 134.565 527.038 135.255 526.528 135.75C527.038 136.245 527.353 136.935 527.353 137.7V138.3C527.353 139.8 526.153 141 524.653 141H523.453C521.968 141 520.753 139.8 520.753 138.3V137.775H522.253V138.3C522.253 138.96 522.793 139.5 523.453 139.5H524.653C525.328 139.5 525.853 138.975 525.853 138.3V137.7C525.853 137.025 525.328 136.5 524.653 136.5H523.603V135H524.653C525.328 135 525.853 134.475 525.853 133.8V133.2C525.853 132.525 525.328 132 524.653 132H523.453C522.793 132 522.253 132.54 522.253 133.2V133.725H520.753V133.2C520.753 131.7 521.968 130.5 523.453 130.5H524.653C526.153 130.5 527.353 131.7 527.353 133.2V133.8ZM531.697 141H530.197V138.075L534.697 133.425V132H531.097V133.65H529.597V130.5H536.197V134.025L531.697 138.675V141Z" fill="white"/>
<rect x="384.161" y="168.5" width="235.558" height="39" stroke="#FF7612" stroke-opacity="0.5"/>
<g clip-path="url(#clip2_1325_7768)">
<rect x="455.405" y="177.998" width="2.50867" height="2.50041" fill="#FF7612"/>
<rect x="455.405" y="180.499" width="2.50867" height="2.50041" fill="#FF7612"/>
<rect x="455.405" y="182.999" width="2.50867" height="2.50041" fill="#FF7612"/>
<rect x="455.405" y="185.5" width="2.50867" height="2.50041" fill="#FF7612"/>
<rect x="455.405" y="188" width="2.50867" height="2.50041" fill="#FF7612"/>
<rect x="455.405" y="190.5" width="2.50867" height="2.50041" fill="#FF7612"/>
<rect x="455.405" y="193.001" width="2.50867" height="2.50041" fill="#FF7612"/>
<rect x="455.405" y="195.501" width="2.50867" height="2.50041" fill="#FF7612"/>
<rect x="457.914" y="195.501" width="2.50867" height="2.50041" fill="#FF7612"/>
<rect x="460.423" y="195.501" width="2.50867" height="2.50041" fill="#FF7612"/>
<rect x="462.932" y="195.501" width="2.50867" height="2.50041" fill="#FF7612"/>
<rect x="465.439" y="195.501" width="2.50867" height="2.50041" fill="#FF7612"/>
<rect x="467.948" y="195.501" width="2.50867" height="2.50041" fill="#FF7612"/>
<rect x="472.966" y="193.001" width="2.50867" height="2.50041" fill="#FF7612"/>
<rect x="472.966" y="195.501" width="2.50867" height="2.50041" fill="#FF7612"/>
<rect x="470.457" y="195.501" width="2.50867" height="2.50041" fill="#FF7612"/>
<rect x="472.966" y="190.5" width="2.50867" height="2.50041" fill="#FF7612"/>
<rect x="472.966" y="188" width="2.50867" height="2.50041" fill="#FF7612"/>
<rect x="472.966" y="185.5" width="2.50867" height="2.50041" fill="#FF7612"/>
<rect opacity="0.5" x="460.423" y="182.999" width="2.50867" height="2.50041" fill="#FF7612"/>
<rect opacity="0.5" x="460.423" y="185.5" width="2.50867" height="2.50041" fill="#FF7612"/>
<rect opacity="0.5" x="460.423" y="188" width="2.50867" height="2.50041" fill="#FF7612"/>
<rect opacity="0.5" x="460.423" y="190.5" width="2.50867" height="2.50041" fill="#FF7612"/>
<rect opacity="0.5" x="462.932" y="182.999" width="2.50867" height="2.50041" fill="#FF7612"/>
<rect opacity="0.5" x="465.439" y="182.999" width="2.50867" height="2.50041" fill="#FF7612"/>
<rect opacity="0.5" x="467.948" y="182.999" width="2.50867" height="2.50041" fill="#FF7612"/>
<rect opacity="0.5" x="467.948" y="185.5" width="2.50867" height="2.50041" fill="#FF7612"/>
<rect opacity="0.5" x="467.948" y="188" width="2.50867" height="2.50041" fill="#FF7612"/>
<rect opacity="0.5" x="467.948" y="190.5" width="2.50867" height="2.50041" fill="#FF7612"/>
<rect opacity="0.5" x="465.439" y="190.5" width="2.50867" height="2.50041" fill="#FF7612"/>
<rect opacity="0.5" x="462.932" y="190.5" width="2.50867" height="2.50041" fill="#FF7612"/>
<rect x="472.966" y="182.999" width="2.50867" height="2.50041" fill="#FF7612"/>
<rect x="472.966" y="180.499" width="2.50867" height="2.50041" fill="#FF7612"/>
<rect x="457.914" y="177.998" width="2.50867" height="2.50041" fill="#FF7612"/>
<rect x="460.423" y="177.998" width="2.50867" height="2.50041" fill="#FF7612"/>
<rect x="462.932" y="177.998" width="2.50867" height="2.50041" fill="#FF7612"/>
<rect x="465.439" y="177.998" width="2.50867" height="2.50041" fill="#FF7612"/>
<rect x="467.948" y="177.998" width="2.50867" height="2.50041" fill="#FF7612"/>
<rect x="470.457" y="177.998" width="2.50867" height="2.50041" fill="#FF7612"/>
<rect x="472.966" y="177.998" width="2.50867" height="2.50041" fill="#FF7612"/>
</g>
<path d="M487.145 190.61H488.645V191.21C488.645 191.915 489.23 192.5 489.935 192.5H490.94C491.705 192.5 492.245 192.02 492.245 191.36C492.245 189.29 487.295 188.84 487.295 185.99C487.295 184.52 488.45 183.5 490.085 183.5H490.79C492.335 183.5 493.595 184.745 493.595 186.29V186.74H492.095V186.29C492.095 185.57 491.51 185 490.79 185H490.085C489.275 185 488.795 185.375 488.795 185.99C488.795 187.58 493.745 188.195 493.745 191.36C493.745 192.86 492.53 194 490.94 194H489.935C488.39 194 487.145 192.755 487.145 191.21V190.61ZM502.589 195.23L501.269 195.965L500.054 194H499.889H498.689C497.204 194 495.989 192.77 495.989 191.285V186.2C495.989 184.7 497.204 183.5 498.689 183.5H499.889C501.389 183.5 502.589 184.7 502.589 186.2V191.285C502.589 192.17 502.169 192.965 501.509 193.46L502.589 195.23ZM497.489 191.285C497.489 191.945 498.029 192.485 498.689 192.485H499.889C500.549 192.485 501.089 191.945 501.089 191.285V186.2C501.089 185.525 500.564 185 499.889 185H498.689C498.014 185 497.489 185.54 497.489 186.2V191.285ZM506.333 183.5V192.5H511.433V194H504.833V183.5H506.333ZM524.022 194H522.522V190.55L525.072 183.5H526.572L529.122 190.55V194H527.622V191.57H524.022V194ZM524.292 190.07H527.352L525.837 185.87H525.807L524.292 190.07ZM537.966 187.1C537.966 188.6 536.766 189.8 535.266 189.8H532.866V194H531.366V183.5H535.266C536.766 183.5 537.966 184.7 537.966 186.2V187.1ZM532.866 188.3H535.266C535.941 188.3 536.466 187.775 536.466 187.1V186.2C536.466 185.525 535.941 185 535.266 185H532.866V188.3ZM540.21 183.5H546.81V185H544.26V192.5H546.81V194H540.21V192.5H542.76V185H540.21V183.5Z" fill="#FF7612"/>
<rect x="384.161" y="221.5" width="235.558" height="39" stroke="#FF7612" stroke-opacity="0.5"/>
<g clip-path="url(#clip3_1325_7768)">
<rect x="446.905" y="230.998" width="2.50867" height="2.50041" fill="#FF7612"/>
<rect x="446.905" y="233.499" width="2.50867" height="2.50041" fill="#FF7612"/>
<rect x="446.905" y="235.999" width="2.50867" height="2.50041" fill="#FF7612"/>
<rect x="446.905" y="238.5" width="2.50867" height="2.50041" fill="#FF7612"/>
<rect x="446.905" y="241" width="2.50867" height="2.50041" fill="#FF7612"/>
<rect x="446.905" y="243.5" width="2.50867" height="2.50041" fill="#FF7612"/>
<rect x="446.905" y="246.001" width="2.50867" height="2.50041" fill="#FF7612"/>
<rect x="446.905" y="248.501" width="2.50867" height="2.50041" fill="#FF7612"/>
<rect x="449.414" y="248.501" width="2.50867" height="2.50041" fill="#FF7612"/>
<rect x="451.923" y="248.501" width="2.50867" height="2.50041" fill="#FF7612"/>
<rect x="454.432" y="248.501" width="2.50867" height="2.50041" fill="#FF7612"/>
<rect x="456.939" y="248.501" width="2.50867" height="2.50041" fill="#FF7612"/>
<rect x="459.448" y="248.501" width="2.50867" height="2.50041" fill="#FF7612"/>
<rect x="464.466" y="246.001" width="2.50867" height="2.50041" fill="#FF7612"/>
<rect x="464.466" y="248.501" width="2.50867" height="2.50041" fill="#FF7612"/>
<rect x="461.957" y="248.501" width="2.50867" height="2.50041" fill="#FF7612"/>
<rect x="464.466" y="243.5" width="2.50867" height="2.50041" fill="#FF7612"/>
<rect x="464.466" y="241" width="2.50867" height="2.50041" fill="#FF7612"/>
<rect x="464.466" y="238.5" width="2.50867" height="2.50041" fill="#FF7612"/>
<rect opacity="0.5" x="451.923" y="235.999" width="2.50867" height="2.50041" fill="#FF7612"/>
<rect opacity="0.5" x="451.923" y="238.5" width="2.50867" height="2.50041" fill="#FF7612"/>
<rect opacity="0.5" x="451.923" y="241" width="2.50867" height="2.50041" fill="#FF7612"/>
<rect opacity="0.5" x="451.923" y="243.5" width="2.50867" height="2.50041" fill="#FF7612"/>
<rect opacity="0.5" x="454.432" y="235.999" width="2.50867" height="2.50041" fill="#FF7612"/>
<rect opacity="0.5" x="456.939" y="235.999" width="2.50867" height="2.50041" fill="#FF7612"/>
<rect opacity="0.5" x="459.448" y="235.999" width="2.50867" height="2.50041" fill="#FF7612"/>
<rect opacity="0.5" x="459.448" y="238.5" width="2.50867" height="2.50041" fill="#FF7612"/>
<rect opacity="0.5" x="459.448" y="241" width="2.50867" height="2.50041" fill="#FF7612"/>
<rect opacity="0.5" x="459.448" y="243.5" width="2.50867" height="2.50041" fill="#FF7612"/>
<rect opacity="0.5" x="456.939" y="243.5" width="2.50867" height="2.50041" fill="#FF7612"/>
<rect opacity="0.5" x="454.432" y="243.5" width="2.50867" height="2.50041" fill="#FF7612"/>
<rect x="464.466" y="235.999" width="2.50867" height="2.50041" fill="#FF7612"/>
<rect x="464.466" y="233.499" width="2.50867" height="2.50041" fill="#FF7612"/>
<rect x="449.414" y="230.998" width="2.50867" height="2.50041" fill="#FF7612"/>
<rect x="451.923" y="230.998" width="2.50867" height="2.50041" fill="#FF7612"/>
<rect x="454.432" y="230.998" width="2.50867" height="2.50041" fill="#FF7612"/>
<rect x="456.939" y="230.998" width="2.50867" height="2.50041" fill="#FF7612"/>
<rect x="459.448" y="230.998" width="2.50867" height="2.50041" fill="#FF7612"/>
<rect x="461.957" y="230.998" width="2.50867" height="2.50041" fill="#FF7612"/>
<rect x="464.466" y="230.998" width="2.50867" height="2.50041" fill="#FF7612"/>
</g>
<path d="M481.196 242.77L479.801 239.8V247H478.301V236.5H479.801L481.601 240.415L483.401 236.5H484.901V247H483.401V239.8L482.006 242.77H481.196ZM493.745 244.285C493.745 245.77 492.53 247 491.045 247H489.845C488.345 247 487.145 245.77 487.145 244.285V236.5H488.645V244.285C488.645 244.945 489.185 245.485 489.845 245.485H491.045C491.705 245.485 492.245 244.945 492.245 244.285V236.5H493.745V244.285ZM499.889 236.5C501.374 236.5 502.589 237.7 502.589 239.2V244.285C502.589 245.77 501.374 247 499.889 247H495.989V236.5H499.889ZM497.489 245.485H499.889C500.549 245.485 501.089 244.945 501.089 244.285V239.2C501.089 238.54 500.564 238 499.889 238H497.489V245.485ZM513.678 243.61H515.178V244.21C515.178 244.915 515.763 245.5 516.468 245.5H517.473C518.238 245.5 518.778 245.02 518.778 244.36C518.778 242.29 513.828 241.84 513.828 238.99C513.828 237.52 514.983 236.5 516.618 236.5H517.323C518.868 236.5 520.128 237.745 520.128 239.29V239.74H518.628V239.29C518.628 238.57 518.043 238 517.323 238H516.618C515.808 238 515.328 238.375 515.328 238.99C515.328 240.58 520.278 241.195 520.278 244.36C520.278 245.86 519.063 247 517.473 247H516.468C514.923 247 513.678 245.755 513.678 244.21V243.61ZM522.522 236.5H529.122V238H526.572V247H525.072V238H522.522V236.5ZM532.866 247H531.366V243.55L533.916 236.5H535.416L537.966 243.55V247H536.466V244.57H532.866V247ZM533.136 243.07H536.196L534.681 238.87H534.651L533.136 243.07ZM540.21 236.5H546.81V238H544.26V247H542.76V238H540.21V236.5ZM555.654 236.5V238H550.554V240.745H555.054V242.245H550.554V245.5H555.654V247H549.054V236.5H555.654Z" fill="#FF7612"/>
<rect x="384.161" y="274.5" width="235.558" height="39" stroke="#FF7612" stroke-opacity="0.5"/>
<g clip-path="url(#clip4_1325_7768)">
<rect x="411.405" y="283.998" width="2.50867" height="2.50041" fill="#FF7612"/>
<rect x="411.405" y="286.499" width="2.50867" height="2.50041" fill="#FF7612"/>
<rect x="411.405" y="288.999" width="2.50867" height="2.50041" fill="#FF7612"/>
<rect x="411.405" y="291.5" width="2.50867" height="2.50041" fill="#FF7612"/>
<rect x="411.405" y="294" width="2.50867" height="2.50041" fill="#FF7612"/>
<rect x="411.405" y="296.5" width="2.50867" height="2.50041" fill="#FF7612"/>
<rect x="411.405" y="299.001" width="2.50867" height="2.50041" fill="#FF7612"/>
<rect x="411.405" y="301.501" width="2.50867" height="2.50041" fill="#FF7612"/>
<rect x="413.914" y="301.501" width="2.50867" height="2.50041" fill="#FF7612"/>
<rect x="416.423" y="301.501" width="2.50867" height="2.50041" fill="#FF7612"/>
<rect x="418.932" y="301.501" width="2.50867" height="2.50041" fill="#FF7612"/>
<rect x="421.439" y="301.501" width="2.50867" height="2.50041" fill="#FF7612"/>
<rect x="423.948" y="301.501" width="2.50867" height="2.50041" fill="#FF7612"/>
<rect x="428.966" y="299.001" width="2.50867" height="2.50041" fill="#FF7612"/>
<rect x="428.966" y="301.501" width="2.50867" height="2.50041" fill="#FF7612"/>
<rect x="426.457" y="301.501" width="2.50867" height="2.50041" fill="#FF7612"/>
<rect x="428.966" y="296.5" width="2.50867" height="2.50041" fill="#FF7612"/>
<rect x="428.966" y="294" width="2.50867" height="2.50041" fill="#FF7612"/>
<rect x="428.966" y="291.5" width="2.50867" height="2.50041" fill="#FF7612"/>
<rect opacity="0.5" x="416.423" y="288.999" width="2.50867" height="2.50041" fill="#FF7612"/>
<rect opacity="0.5" x="416.423" y="291.5" width="2.50867" height="2.50041" fill="#FF7612"/>
<rect opacity="0.5" x="416.423" y="294" width="2.50867" height="2.50041" fill="#FF7612"/>
<rect opacity="0.5" x="416.423" y="296.5" width="2.50867" height="2.50041" fill="#FF7612"/>
<rect opacity="0.5" x="418.932" y="288.999" width="2.50867" height="2.50041" fill="#FF7612"/>
<rect opacity="0.5" x="421.439" y="288.999" width="2.50867" height="2.50041" fill="#FF7612"/>
<rect opacity="0.5" x="423.948" y="288.999" width="2.50867" height="2.50041" fill="#FF7612"/>
<rect opacity="0.5" x="423.948" y="291.5" width="2.50867" height="2.50041" fill="#FF7612"/>
<rect opacity="0.5" x="423.948" y="294" width="2.50867" height="2.50041" fill="#FF7612"/>
<rect opacity="0.5" x="423.948" y="296.5" width="2.50867" height="2.50041" fill="#FF7612"/>
<rect opacity="0.5" x="421.439" y="296.5" width="2.50867" height="2.50041" fill="#FF7612"/>
<rect opacity="0.5" x="418.932" y="296.5" width="2.50867" height="2.50041" fill="#FF7612"/>
<rect x="428.966" y="288.999" width="2.50867" height="2.50041" fill="#FF7612"/>
<rect x="428.966" y="286.499" width="2.50867" height="2.50041" fill="#FF7612"/>
<rect x="413.914" y="283.998" width="2.50867" height="2.50041" fill="#FF7612"/>
<rect x="416.423" y="283.998" width="2.50867" height="2.50041" fill="#FF7612"/>
<rect x="418.932" y="283.998" width="2.50867" height="2.50041" fill="#FF7612"/>
<rect x="421.439" y="283.998" width="2.50867" height="2.50041" fill="#FF7612"/>
<rect x="423.948" y="283.998" width="2.50867" height="2.50041" fill="#FF7612"/>
<rect x="426.457" y="283.998" width="2.50867" height="2.50041" fill="#FF7612"/>
<rect x="428.966" y="283.998" width="2.50867" height="2.50041" fill="#FF7612"/>
</g>
<path d="M449.524 293.1C449.524 294.6 448.324 295.8 446.824 295.8H444.424V300H442.924V289.5H446.824C448.324 289.5 449.524 290.7 449.524 292.2V293.1ZM444.424 294.3H446.824C447.499 294.3 448.024 293.775 448.024 293.1V292.2C448.024 291.525 447.499 291 446.824 291H444.424V294.3ZM458.369 300H456.719L454.814 295.8H453.269V300H451.769V289.5H455.669C457.169 289.5 458.369 290.7 458.369 292.2V293.1C458.369 294.345 457.544 295.38 456.404 295.695L458.369 300ZM453.269 294.3H455.669C456.344 294.3 456.869 293.775 456.869 293.1V292.2C456.869 291.525 456.344 291 455.669 291H453.269V294.3ZM467.213 289.5V291H462.113V293.745H466.613V295.245H462.113V298.5H467.213V300H460.613V289.5H467.213ZM470.057 295.245H475.457V296.745H470.057V295.245ZM483.401 292.2C483.401 291.525 482.876 291 482.201 291H481.001C480.326 291 479.801 291.54 479.801 292.2V297.285C479.801 297.945 480.341 298.485 481.001 298.485H482.201C482.861 298.485 483.401 297.945 483.401 297.285V296.46H484.901V297.285C484.901 298.77 483.701 300 482.201 300H481.001C479.516 300 478.301 298.77 478.301 297.285V292.2C478.301 290.7 479.516 289.5 481.001 289.5H482.201C483.701 289.5 484.901 290.7 484.901 292.2V293.025H483.401V292.2ZM491.045 298.485C491.705 298.485 492.245 297.945 492.245 297.285V292.2C492.245 291.525 491.72 291 491.045 291H489.845C489.17 291 488.645 291.54 488.645 292.2V297.285C488.645 297.945 489.185 298.485 489.845 298.485H491.045ZM487.145 297.285V292.2C487.145 290.7 488.36 289.5 489.845 289.5H491.045C492.545 289.5 493.745 290.7 493.745 292.2V297.285C493.745 298.77 492.545 300 491.045 300H489.845C488.36 300 487.145 298.77 487.145 297.285ZM501.089 289.5H502.589V300H500.414L497.489 292.02V300H495.989V289.5H498.164L501.089 297.48V289.5ZM511.433 289.5V291H506.333V294.195H510.833V295.695H506.333V300H504.833V289.5H511.433ZM513.678 289.5H520.278V291H517.728V298.5H520.278V300H513.678V298.5H516.228V291H513.678V289.5ZM529.122 300H527.472L525.567 295.8H524.022V300H522.522V289.5H526.422C527.922 289.5 529.122 290.7 529.122 292.2V293.1C529.122 294.345 528.297 295.38 527.157 295.695L529.122 300ZM524.022 294.3H526.422C527.097 294.3 527.622 293.775 527.622 293.1V292.2C527.622 291.525 527.097 291 526.422 291H524.022V294.3ZM534.261 295.77L532.866 292.8V300H531.366V289.5H532.866L534.666 293.415L536.466 289.5H537.966V300H536.466V292.8L535.071 295.77H534.261ZM541.71 300H540.21V296.55L542.76 289.5H544.26L546.81 296.55V300H545.31V297.57H541.71V300ZM541.98 296.07H545.04L543.525 291.87H543.495L541.98 296.07ZM549.054 289.5H555.654V291H553.104V300H551.604V291H549.054V289.5ZM557.898 289.5H564.498V291H561.948V298.5H564.498V300H557.898V298.5H560.448V291H557.898V289.5ZM570.642 298.485C571.302 298.485 571.842 297.945 571.842 297.285V292.2C571.842 291.525 571.317 291 570.642 291H569.442C568.767 291 568.242 291.54 568.242 292.2V297.285C568.242 297.945 568.782 298.485 569.442 298.485H570.642ZM566.742 297.285V292.2C566.742 290.7 567.957 289.5 569.442 289.5H570.642C572.142 289.5 573.342 290.7 573.342 292.2V297.285C573.342 298.77 572.142 300 570.642 300H569.442C567.957 300 566.742 298.77 566.742 297.285ZM580.687 289.5H582.187V300H580.012L577.087 292.02V300H575.587V289.5H577.762L580.687 297.48V289.5ZM584.431 296.61H585.931V297.21C585.931 297.915 586.516 298.5 587.221 298.5H588.226C588.991 298.5 589.531 298.02 589.531 297.36C589.531 295.29 584.581 294.84 584.581 291.99C584.581 290.52 585.736 289.5 587.371 289.5H588.076C589.621 289.5 590.881 290.745 590.881 292.29V292.74H589.381V292.29C589.381 291.57 588.796 291 588.076 291H587.371C586.561 291 586.081 291.375 586.081 291.99C586.081 293.58 591.031 294.195 591.031 297.36C591.031 298.86 589.816 300 588.226 300H587.221C585.676 300 584.431 298.755 584.431 297.21V296.61Z" fill="#FF7612"/>
<rect x="384.161" y="327.5" width="235.558" height="39" stroke="#FF7612" stroke-opacity="0.5"/>
<g clip-path="url(#clip5_1325_7768)">
<rect x="415.905" y="336.998" width="2.50867" height="2.50041" fill="#FF7612"/>
<rect x="415.905" y="339.499" width="2.50867" height="2.50041" fill="#FF7612"/>
<rect x="415.905" y="341.999" width="2.50867" height="2.50041" fill="#FF7612"/>
<rect x="415.905" y="344.5" width="2.50867" height="2.50041" fill="#FF7612"/>
<rect x="415.905" y="347" width="2.50867" height="2.50041" fill="#FF7612"/>
<rect x="415.905" y="349.5" width="2.50867" height="2.50041" fill="#FF7612"/>
<rect x="415.905" y="352.001" width="2.50867" height="2.50041" fill="#FF7612"/>
<rect x="415.905" y="354.501" width="2.50867" height="2.50041" fill="#FF7612"/>
<rect x="418.414" y="354.501" width="2.50867" height="2.50041" fill="#FF7612"/>
<rect x="420.923" y="354.501" width="2.50867" height="2.50041" fill="#FF7612"/>
<rect x="423.432" y="354.501" width="2.50867" height="2.50041" fill="#FF7612"/>
<rect x="425.939" y="354.501" width="2.50867" height="2.50041" fill="#FF7612"/>
<rect x="428.448" y="354.501" width="2.50867" height="2.50041" fill="#FF7612"/>
<rect x="433.466" y="352.001" width="2.50867" height="2.50041" fill="#FF7612"/>
<rect x="433.466" y="354.501" width="2.50867" height="2.50041" fill="#FF7612"/>
<rect x="430.957" y="354.501" width="2.50867" height="2.50041" fill="#FF7612"/>
<rect x="433.466" y="349.5" width="2.50867" height="2.50041" fill="#FF7612"/>
<rect x="433.466" y="347" width="2.50867" height="2.50041" fill="#FF7612"/>
<rect x="433.466" y="344.5" width="2.50867" height="2.50041" fill="#FF7612"/>
<rect opacity="0.5" x="420.923" y="341.999" width="2.50867" height="2.50041" fill="#FF7612"/>
<rect opacity="0.5" x="420.923" y="344.5" width="2.50867" height="2.50041" fill="#FF7612"/>
<rect opacity="0.5" x="420.923" y="347" width="2.50867" height="2.50041" fill="#FF7612"/>
<rect opacity="0.5" x="420.923" y="349.5" width="2.50867" height="2.50041" fill="#FF7612"/>
<rect opacity="0.5" x="423.432" y="341.999" width="2.50867" height="2.50041" fill="#FF7612"/>
<rect opacity="0.5" x="425.939" y="341.999" width="2.50867" height="2.50041" fill="#FF7612"/>
<rect opacity="0.5" x="428.448" y="341.999" width="2.50867" height="2.50041" fill="#FF7612"/>
<rect opacity="0.5" x="428.448" y="344.5" width="2.50867" height="2.50041" fill="#FF7612"/>
<rect opacity="0.5" x="428.448" y="347" width="2.50867" height="2.50041" fill="#FF7612"/>
<rect opacity="0.5" x="428.448" y="349.5" width="2.50867" height="2.50041" fill="#FF7612"/>
<rect opacity="0.5" x="425.939" y="349.5" width="2.50867" height="2.50041" fill="#FF7612"/>
<rect opacity="0.5" x="423.432" y="349.5" width="2.50867" height="2.50041" fill="#FF7612"/>
<rect x="433.466" y="341.999" width="2.50867" height="2.50041" fill="#FF7612"/>
<rect x="433.466" y="339.499" width="2.50867" height="2.50041" fill="#FF7612"/>
<rect x="418.414" y="336.998" width="2.50867" height="2.50041" fill="#FF7612"/>
<rect x="420.923" y="336.998" width="2.50867" height="2.50041" fill="#FF7612"/>
<rect x="423.432" y="336.998" width="2.50867" height="2.50041" fill="#FF7612"/>
<rect x="425.939" y="336.998" width="2.50867" height="2.50041" fill="#FF7612"/>
<rect x="428.448" y="336.998" width="2.50867" height="2.50041" fill="#FF7612"/>
<rect x="430.957" y="336.998" width="2.50867" height="2.50041" fill="#FF7612"/>
<rect x="433.466" y="336.998" width="2.50867" height="2.50041" fill="#FF7612"/>
</g>
<path d="M447.346 342.5H453.946V344H451.396V351.5H453.946V353H447.346V351.5H449.896V344H447.346V342.5ZM461.291 342.5H462.791V353H460.616L457.691 345.02V353H456.191V342.5H458.366L461.291 350.48V342.5ZM465.035 349.61H466.535V350.21C466.535 350.915 467.12 351.5 467.825 351.5H468.83C469.595 351.5 470.135 351.02 470.135 350.36C470.135 348.29 465.185 347.84 465.185 344.99C465.185 343.52 466.34 342.5 467.975 342.5H468.68C470.225 342.5 471.485 343.745 471.485 345.29V345.74H469.985V345.29C469.985 344.57 469.4 344 468.68 344H467.975C467.165 344 466.685 344.375 466.685 344.99C466.685 346.58 471.635 347.195 471.635 350.36C471.635 351.86 470.42 353 468.83 353H467.825C466.28 353 465.035 351.755 465.035 350.21V349.61ZM473.879 342.5H480.479V344H477.929V353H476.429V344H473.879V342.5ZM484.223 353H482.723V349.55L485.273 342.5H486.773L489.323 349.55V353H487.823V350.57H484.223V353ZM484.493 349.07H487.553L486.038 344.87H486.008L484.493 349.07ZM496.667 342.5H498.167V353H495.992L493.067 345.02V353H491.567V342.5H493.742L496.667 350.48V342.5ZM500.411 342.5H507.011V344H504.461V353H502.961V344H500.411V342.5ZM524.4 345.8C524.4 346.49 524.145 347.135 523.71 347.6C524.31 348.095 524.7 348.845 524.7 349.7V350.3C524.7 351.8 523.5 353 522 353H518.1V342.5H521.7C523.2 342.5 524.4 343.7 524.4 345.2V345.8ZM519.6 351.5H522C522.675 351.5 523.2 350.975 523.2 350.3V349.7C523.2 349.025 522.675 348.5 522 348.5H519.6V351.5ZM519.6 347H521.7C522.375 347 522.9 346.475 522.9 345.8V345.2C522.9 344.525 522.375 344 521.7 344H519.6V347ZM533.544 350.285C533.544 351.77 532.329 353 530.844 353H529.644C528.144 353 526.944 351.77 526.944 350.285V342.5H528.444V350.285C528.444 350.945 528.984 351.485 529.644 351.485H530.844C531.504 351.485 532.044 350.945 532.044 350.285V342.5H533.544V350.285ZM540.888 342.5H542.388V353H540.213L537.288 345.02V353H535.788V342.5H537.963L540.888 350.48V342.5ZM548.532 342.5C550.017 342.5 551.232 343.7 551.232 345.2V350.285C551.232 351.77 550.017 353 548.532 353H544.632V342.5H548.532ZM546.132 351.485H548.532C549.192 351.485 549.732 350.945 549.732 350.285V345.2C549.732 344.54 549.207 344 548.532 344H546.132V351.485ZM554.976 342.5V351.5H560.076V353H553.476V342.5H554.976ZM562.32 342.5H568.92V344H566.37V351.5H568.92V353H562.32V351.5H564.87V344H562.32V342.5ZM576.264 342.5H577.764V353H575.589L572.664 345.02V353H571.164V342.5H573.339L576.264 350.48V342.5ZM582.859 347.345H586.609V350.285C586.609 351.77 585.409 353 583.909 353H582.709C581.224 353 580.009 351.77 580.009 350.285V345.2C580.009 343.7 581.224 342.5 582.709 342.5H583.909C585.409 342.5 586.609 343.7 586.609 345.2V346.025H585.109V345.2C585.109 344.525 584.584 344 583.909 344H582.709C582.034 344 581.509 344.54 581.509 345.2V350.285C581.509 350.945 582.049 351.485 582.709 351.485H583.909C584.569 351.485 585.109 350.945 585.109 350.285V348.845H582.859V347.345Z" fill="#FF7612"/>
<rect x="719.612" y="77" width="389.624" height="264" stroke="#08C35E"/>
<rect x="740.112" y="97.5" width="348.624" height="39" stroke="white" stroke-opacity="0.3"/>
<path opacity="0.75" d="M775.05 114.312L775.05 111.625L777.737 111.625L777.737 114.313L775.05 114.312Z" fill="#F34242"/>
<path d="M775.05 117L775.05 114.312L777.737 114.313L777.737 117L775.05 117Z" fill="#F34242"/>
<path d="M775.05 119.688L775.05 117L777.737 117L777.737 119.688L775.05 119.688Z" fill="#F34242"/>
<path opacity="0.75" d="M775.05 122.375L775.05 119.688L777.737 119.688L777.737 122.375L775.05 122.375Z" fill="#F34242"/>
<path opacity="0.75" d="M783.112 114.312L783.112 111.625L785.8 111.625L785.8 114.313L783.112 114.312Z" fill="#F34242"/>
<path d="M783.112 117L783.112 114.312L785.8 114.313L785.8 117L783.112 117Z" fill="#F34242"/>
<path d="M783.112 119.688L783.112 117L785.8 117L785.8 119.688L783.112 119.688Z" fill="#F34242"/>
<path opacity="0.75" d="M783.112 122.375L783.112 119.688L785.8 119.688L785.8 122.375L783.112 122.375Z" fill="#F34242"/>
<path d="M780.425 122.375H777.737V119.688H780.425V122.375Z" fill="#F34242"/>
<path d="M783.112 122.375H780.425V119.688H783.112V122.375Z" fill="#F34242"/>
<path d="M780.425 114.312H777.737V111.625H780.425V114.312Z" fill="#F34242"/>
<path d="M783.112 114.312H780.425V111.625H783.112V114.312Z" fill="#F34242"/>
<path d="M777.737 106.25V108.938H780.425V106.25H777.737Z" fill="#F34242" fill-opacity="0.25"/>
<path d="M780.425 125.062V122.375H783.112V125.062H780.425Z" fill="#F34242" fill-opacity="0.75"/>
<path d="M788.487 117L785.8 117L785.8 119.688L788.487 119.688L788.487 117Z" fill="#F34242" fill-opacity="0.75"/>
<path d="M772.362 117L775.05 117L775.05 119.688L772.362 119.688L772.362 117Z" fill="#F34242" fill-opacity="0.75"/>
<path d="M780.425 108.938V111.625H783.112V108.938H780.425Z" fill="#F34242" fill-opacity="0.75"/>
<path d="M780.425 106.25V108.938H783.112V106.25H780.425Z" fill="#F34242" fill-opacity="0.25"/>
<path d="M777.737 127.75V125.062H780.425V127.75H777.737Z" fill="#F34242" fill-opacity="0.25"/>
<path d="M780.425 127.75V125.062H783.112V127.75H780.425Z" fill="#F34242" fill-opacity="0.25"/>
<path d="M791.175 114.313L788.487 114.312L788.487 117L791.175 117L791.175 114.313Z" fill="#F34242" fill-opacity="0.25"/>
<path d="M791.175 117L788.487 117L788.487 119.688L791.175 119.688L791.175 117Z" fill="#F34242" fill-opacity="0.25"/>
<path d="M769.675 117L772.362 117L772.362 119.688L769.675 119.688L769.675 117Z" fill="#F34242" fill-opacity="0.25"/>
<path d="M769.675 114.313L772.362 114.312L772.362 117L769.675 117L769.675 114.313Z" fill="#F34242" fill-opacity="0.25"/>
<path d="M777.737 108.938V111.625H780.425V108.938H777.737Z" fill="#F34242" fill-opacity="0.75"/>
<path d="M777.737 125.062V122.375H780.425V125.062H777.737Z" fill="#F34242" fill-opacity="0.75"/>
<path d="M788.487 114.313L785.8 114.312L785.8 117L788.487 117L788.487 114.313Z" fill="#F34242" fill-opacity="0.75"/>
<path d="M772.362 114.313L775.05 114.312L775.05 117L772.362 117L772.362 114.313Z" fill="#F34242" fill-opacity="0.75"/>
<path d="M807.023 123H805.373L803.468 118.8H801.923V123H800.423V112.5H804.323C805.823 112.5 807.023 113.7 807.023 115.2V116.1C807.023 117.345 806.198 118.38 805.058 118.695L807.023 123ZM801.923 117.3H804.323C804.998 117.3 805.523 116.775 805.523 116.1V115.2C805.523 114.525 804.998 114 804.323 114H801.923V117.3ZM815.867 112.5V114H810.767V116.745H815.267V118.245H810.767V121.5H815.867V123H809.267V112.5H815.867ZM822.012 112.5C823.497 112.5 824.712 113.7 824.712 115.2V120.285C824.712 121.77 823.497 123 822.012 123H818.112V112.5H822.012ZM819.612 121.485H822.012C822.672 121.485 823.212 120.945 823.212 120.285V115.2C823.212 114.54 822.687 114 822.012 114H819.612V121.485ZM826.956 119.61H828.456V120.21C828.456 120.915 829.041 121.5 829.746 121.5H830.751C831.516 121.5 832.056 121.02 832.056 120.36C832.056 118.29 827.106 117.84 827.106 114.99C827.106 113.52 828.261 112.5 829.896 112.5H830.601C832.146 112.5 833.406 113.745 833.406 115.29V115.74H831.906V115.29C831.906 114.57 831.321 114 830.601 114H829.896C829.086 114 828.606 114.375 828.606 114.99C828.606 116.58 833.556 117.195 833.556 120.36C833.556 121.86 832.341 123 830.751 123H829.746C828.201 123 826.956 121.755 826.956 120.21V119.61ZM835.8 112.5H842.4V114H839.85V123H838.35V114H835.8V112.5ZM848.544 121.485C849.204 121.485 849.744 120.945 849.744 120.285V115.2C849.744 114.525 849.219 114 848.544 114H847.344C846.669 114 846.144 114.54 846.144 115.2V120.285C846.144 120.945 846.684 121.485 847.344 121.485H848.544ZM844.644 120.285V115.2C844.644 113.7 845.859 112.5 847.344 112.5H848.544C850.044 112.5 851.244 113.7 851.244 115.2V120.285C851.244 121.77 850.044 123 848.544 123H847.344C845.859 123 844.644 121.77 844.644 120.285ZM858.588 112.5H860.088V123H857.913L854.988 115.02V123H853.488V112.5H855.663L858.588 120.48V112.5ZM868.932 112.5V114H863.832V116.745H868.332V118.245H863.832V121.5H868.932V123H862.332V112.5H868.932Z" fill="#F34242"/>
<path opacity="0.4" d="M891.175 128.5V105.5" stroke="white" stroke-dasharray="2 2"/>
<path d="M916.129 123V119.265L913.579 116.1V112.5H915.079V115.56L916.849 117.765H916.879L918.679 115.41V112.5H920.179V115.92L917.629 119.265V123H916.129ZM926.323 121.485C926.983 121.485 927.523 120.945 927.523 120.285V115.2C927.523 114.525 926.998 114 926.323 114H925.123C924.448 114 923.923 114.54 923.923 115.2V120.285C923.923 120.945 924.463 121.485 925.123 121.485H926.323ZM922.423 120.285V115.2C922.423 113.7 923.638 112.5 925.123 112.5H926.323C927.823 112.5 929.023 113.7 929.023 115.2V120.285C929.023 121.77 927.823 123 926.323 123H925.123C923.638 123 922.423 121.77 922.423 120.285ZM937.867 120.285C937.867 121.77 936.652 123 935.167 123H933.967C932.467 123 931.267 121.77 931.267 120.285V112.5H932.767V120.285C932.767 120.945 933.307 121.485 933.967 121.485H935.167C935.827 121.485 936.367 120.945 936.367 120.285V112.5H937.867V120.285ZM946.712 123H945.062L943.157 118.8H941.612V123H940.112V112.5H944.012C945.512 112.5 946.712 113.7 946.712 115.2V116.1C946.712 117.345 945.887 118.38 944.747 118.695L946.712 123ZM941.612 117.3H944.012C944.687 117.3 945.212 116.775 945.212 116.1V115.2C945.212 114.525 944.687 114 944.012 114H941.612V117.3ZM962.9 115.2C962.9 114.525 962.375 114 961.7 114H960.5C959.825 114 959.3 114.54 959.3 115.2V120.285C959.3 120.945 959.84 121.485 960.5 121.485H961.7C962.36 121.485 962.9 120.945 962.9 120.285V119.46H964.4V120.285C964.4 121.77 963.2 123 961.7 123H960.5C959.015 123 957.8 121.77 957.8 120.285V115.2C957.8 113.7 959.015 112.5 960.5 112.5H961.7C963.2 112.5 964.4 113.7 964.4 115.2V116.025H962.9V115.2ZM968.144 112.5V116.7H971.744V112.5H973.244V123H971.744V118.2H968.144V123H966.644V112.5H968.144ZM976.988 123H975.488V119.55L978.038 112.5H979.538L982.088 119.55V123H980.588V120.57H976.988V123ZM977.258 119.07H980.318L978.803 114.87H978.773L977.258 119.07ZM984.332 112.5H990.932V114H988.382V121.5H990.932V123H984.332V121.5H986.882V114H984.332V112.5ZM998.276 112.5H999.776V123H997.601L994.676 115.02V123H993.176V112.5H995.351L998.276 120.48V112.5Z" fill="white"/>
<path opacity="0.4" d="M1022.17 128.5V105.5" stroke="white" stroke-dasharray="2 2"/>
<path d="M1045.31 118.53C1044.79 118.53 1044.35 118.095 1044.35 117.57C1044.35 117.045 1044.79 116.61 1045.31 116.61C1045.84 116.61 1046.27 117.045 1046.27 117.57C1046.27 118.095 1045.84 118.53 1045.31 118.53ZM1051.17 118.53C1050.65 118.53 1050.21 118.095 1050.21 117.57C1050.21 117.045 1050.65 116.61 1051.17 116.61C1051.7 116.61 1052.13 117.045 1052.13 117.57C1052.13 118.095 1051.7 118.53 1051.17 118.53ZM1057.03 118.53C1056.5 118.53 1056.07 118.095 1056.07 117.57C1056.07 117.045 1056.5 116.61 1057.03 116.61C1057.55 116.61 1057.99 117.045 1057.99 117.57C1057.99 118.095 1057.55 118.53 1057.03 118.53Z" fill="white"/>
<rect x="739.612" y="157" width="349.624" height="40" fill="#08C35E" fill-opacity="0.2"/>
<rect x="740.112" y="157.5" width="348.624" height="39" stroke="#08C35E" stroke-opacity="0.2"/>
<g clip-path="url(#clip6_1325_7768)">
<path d="M861.55 166.5H858.925V169.125H861.55V166.5Z" fill="#08C35E"/>
<path d="M879.925 169.125H877.3V166.5H879.925V169.125Z" fill="#08C35E"/>
<path d="M879.925 184.875H877.3V187.5H879.925V184.875Z" fill="#08C35E"/>
<path d="M861.55 187.5H858.925V184.875H861.55V187.5Z" fill="#08C35E"/>
<path opacity="0.75" d="M861.55 169.125H858.925V171.75H861.55V169.125Z" fill="#08C35E"/>
<path opacity="0.3" d="M861.55 171.75H858.925V174.375H861.55V171.75Z" fill="#08C35E"/>
<path opacity="0.3" d="M866.8 166.5H864.175V169.125H866.8V166.5Z" fill="#08C35E"/>
<path opacity="0.3" d="M874.675 166.5H872.05V169.125H874.675V166.5Z" fill="#08C35E"/>
<path opacity="0.3" d="M879.925 171.75H877.3V174.375H879.925V171.75Z" fill="#08C35E"/>
<path opacity="0.3" d="M879.925 179.625H877.3V182.25H879.925V179.625Z" fill="#08C35E"/>
<path opacity="0.3" d="M874.675 184.875H872.05V187.5H874.675V184.875Z" fill="#08C35E"/>
<path opacity="0.3" d="M866.8 184.875H864.175V187.5H866.8V184.875Z" fill="#08C35E"/>
<path opacity="0.3" d="M861.55 179.625H858.925V182.25H861.55V179.625Z" fill="#08C35E"/>
<path opacity="0.75" d="M879.925 171.75H877.3V169.125H879.925V171.75Z" fill="#08C35E"/>
<path opacity="0.75" d="M879.925 182.25H877.3V184.875H879.925V182.25Z" fill="#08C35E"/>
<path opacity="0.75" d="M861.55 184.875H858.925V182.25H861.55V184.875Z" fill="#08C35E"/>
<path opacity="0.75" d="M864.175 166.5H861.55V169.125H864.175V166.5Z" fill="#08C35E"/>
<path opacity="0.75" d="M877.3 169.125H874.675V166.5H877.3V169.125Z" fill="#08C35E"/>
<path opacity="0.75" d="M877.3 184.875H874.675V187.5H877.3V184.875Z" fill="#08C35E"/>
<path opacity="0.75" d="M864.175 187.5H861.55V184.875H864.175V187.5Z" fill="#08C35E"/>
<path d="M866.8 171.75H864.175V174.375H866.8V171.75Z" fill="#08C35E"/>
<path d="M866.8 174.375H864.175V177H866.8V174.375Z" fill="#08C35E"/>
<path d="M866.8 177H864.175V179.625H866.8V177Z" fill="#08C35E"/>
<path d="M866.8 179.625H864.175V182.25H866.8V179.625Z" fill="#08C35E"/>
<path d="M869.425 179.625H866.8V182.25H869.425V179.625Z" fill="#08C35E"/>
<path d="M872.05 179.625H869.425V182.25H872.05V179.625Z" fill="#08C35E"/>
<path d="M874.675 179.625H872.05V182.25H874.675V179.625Z" fill="#08C35E"/>
<path d="M874.675 177H872.05V179.625H874.675V177Z" fill="#08C35E"/>
<path d="M874.675 174.375H872.05V177H874.675V174.375Z" fill="#08C35E"/>
<path d="M869.425 171.75H866.8V174.375H869.425V171.75Z" fill="#08C35E"/>
<path d="M872.05 171.75H869.425V174.375H872.05V171.75Z" fill="#08C35E"/>
<path d="M874.675 171.75H872.05V174.375H874.675V171.75Z" fill="#08C35E"/>
</g>
<path d="M892.625 183H891.125V179.55L893.675 172.5H895.175L897.725 179.55V183H896.225V180.57H892.625V183ZM892.895 179.07H895.955L894.44 174.87H894.41L892.895 179.07ZM905.069 175.2C905.069 174.525 904.544 174 903.869 174H902.669C901.994 174 901.469 174.54 901.469 175.2V180.285C901.469 180.945 902.009 181.485 902.669 181.485H903.869C904.529 181.485 905.069 180.945 905.069 180.285V179.46H906.569V180.285C906.569 181.77 905.369 183 903.869 183H902.669C901.184 183 899.969 181.77 899.969 180.285V175.2C899.969 173.7 901.184 172.5 902.669 172.5H903.869C905.369 172.5 906.569 173.7 906.569 175.2V176.025H905.069V175.2ZM913.913 175.2C913.913 174.525 913.388 174 912.713 174H911.513C910.838 174 910.313 174.54 910.313 175.2V180.285C910.313 180.945 910.853 181.485 911.513 181.485H912.713C913.373 181.485 913.913 180.945 913.913 180.285V179.46H915.413V180.285C915.413 181.77 914.213 183 912.713 183H911.513C910.028 183 908.813 181.77 908.813 180.285V175.2C908.813 173.7 910.028 172.5 911.513 172.5H912.713C914.213 172.5 915.413 173.7 915.413 175.2V176.025H913.913V175.2ZM921.557 181.485C922.217 181.485 922.757 180.945 922.757 180.285V175.2C922.757 174.525 922.232 174 921.557 174H920.357C919.682 174 919.157 174.54 919.157 175.2V180.285C919.157 180.945 919.697 181.485 920.357 181.485H921.557ZM917.657 180.285V175.2C917.657 173.7 918.872 172.5 920.357 172.5H921.557C923.057 172.5 924.257 173.7 924.257 175.2V180.285C924.257 181.77 923.057 183 921.557 183H920.357C918.872 183 917.657 181.77 917.657 180.285ZM933.101 180.285C933.101 181.77 931.886 183 930.401 183H929.201C927.701 183 926.501 181.77 926.501 180.285V172.5H928.001V180.285C928.001 180.945 928.541 181.485 929.201 181.485H930.401C931.061 181.485 931.601 180.945 931.601 180.285V172.5H933.101V180.285ZM940.446 172.5H941.946V183H939.771L936.846 175.02V183H935.346V172.5H937.521L940.446 180.48V172.5ZM944.19 172.5H950.79V174H948.24V183H946.74V174H944.19V172.5ZM953.034 179.61H954.534V180.21C954.534 180.915 955.119 181.5 955.824 181.5H956.829C957.594 181.5 958.134 181.02 958.134 180.36C958.134 178.29 953.184 177.84 953.184 174.99C953.184 173.52 954.339 172.5 955.974 172.5H956.679C958.224 172.5 959.484 173.745 959.484 175.29V175.74H957.984V175.29C957.984 174.57 957.399 174 956.679 174H955.974C955.164 174 954.684 174.375 954.684 174.99C954.684 176.58 959.634 177.195 959.634 180.36C959.634 181.86 958.419 183 956.829 183H955.824C954.279 183 953.034 181.755 953.034 180.21V179.61Z" fill="#08C35E"/>
<rect x="739.612" y="217" width="349.624" height="40" fill="#08C35E" fill-opacity="0.2"/>
<rect x="740.112" y="217.5" width="348.624" height="39" stroke="#08C35E" stroke-opacity="0.2"/>
<g clip-path="url(#clip7_1325_7768)">
<path d="M861.55 226.5H858.925V229.125H861.55V226.5Z" fill="#08C35E"/>
<path d="M879.925 229.125H877.3V226.5H879.925V229.125Z" fill="#08C35E"/>
<path d="M879.925 244.875H877.3V247.5H879.925V244.875Z" fill="#08C35E"/>
<path d="M861.55 247.5H858.925V244.875H861.55V247.5Z" fill="#08C35E"/>
<path opacity="0.75" d="M861.55 229.125H858.925V231.75H861.55V229.125Z" fill="#08C35E"/>
<path opacity="0.3" d="M861.55 231.75H858.925V234.375H861.55V231.75Z" fill="#08C35E"/>
<path opacity="0.3" d="M866.8 226.5H864.175V229.125H866.8V226.5Z" fill="#08C35E"/>
<path opacity="0.3" d="M874.675 226.5H872.05V229.125H874.675V226.5Z" fill="#08C35E"/>
<path opacity="0.3" d="M879.925 231.75H877.3V234.375H879.925V231.75Z" fill="#08C35E"/>
<path opacity="0.3" d="M879.925 239.625H877.3V242.25H879.925V239.625Z" fill="#08C35E"/>
<path opacity="0.3" d="M874.675 244.875H872.05V247.5H874.675V244.875Z" fill="#08C35E"/>
<path opacity="0.3" d="M866.8 244.875H864.175V247.5H866.8V244.875Z" fill="#08C35E"/>
<path opacity="0.3" d="M861.55 239.625H858.925V242.25H861.55V239.625Z" fill="#08C35E"/>
<path opacity="0.75" d="M879.925 231.75H877.3V229.125H879.925V231.75Z" fill="#08C35E"/>
<path opacity="0.75" d="M879.925 242.25H877.3V244.875H879.925V242.25Z" fill="#08C35E"/>
<path opacity="0.75" d="M861.55 244.875H858.925V242.25H861.55V244.875Z" fill="#08C35E"/>
<path opacity="0.75" d="M864.175 226.5H861.55V229.125H864.175V226.5Z" fill="#08C35E"/>
<path opacity="0.75" d="M877.3 229.125H874.675V226.5H877.3V229.125Z" fill="#08C35E"/>
<path opacity="0.75" d="M877.3 244.875H874.675V247.5H877.3V244.875Z" fill="#08C35E"/>
<path opacity="0.75" d="M864.175 247.5H861.55V244.875H864.175V247.5Z" fill="#08C35E"/>
<path d="M866.8 231.75H864.175V234.375H866.8V231.75Z" fill="#08C35E"/>
<path d="M866.8 234.375H864.175V237H866.8V234.375Z" fill="#08C35E"/>
<path d="M866.8 237H864.175V239.625H866.8V237Z" fill="#08C35E"/>
<path d="M866.8 239.625H864.175V242.25H866.8V239.625Z" fill="#08C35E"/>
<path d="M869.425 239.625H866.8V242.25H869.425V239.625Z" fill="#08C35E"/>
<path d="M872.05 239.625H869.425V242.25H872.05V239.625Z" fill="#08C35E"/>
<path d="M874.675 239.625H872.05V242.25H874.675V239.625Z" fill="#08C35E"/>
<path d="M874.675 237H872.05V239.625H874.675V237Z" fill="#08C35E"/>
<path d="M874.675 234.375H872.05V237H874.675V234.375Z" fill="#08C35E"/>
<path d="M869.425 231.75H866.8V234.375H869.425V231.75Z" fill="#08C35E"/>
<path d="M872.05 231.75H869.425V234.375H872.05V231.75Z" fill="#08C35E"/>
<path d="M874.675 231.75H872.05V234.375H874.675V231.75Z" fill="#08C35E"/>
</g>
<path d="M891.125 232.5H897.725V234H895.175V241.5H897.725V243H891.125V241.5H893.675V234H891.125V232.5ZM905.069 232.5H906.569V243H904.394L901.469 235.02V243H899.969V232.5H902.144L905.069 240.48V232.5ZM912.713 232.5C914.198 232.5 915.413 233.7 915.413 235.2V240.285C915.413 241.77 914.198 243 912.713 243H908.813V232.5H912.713ZM910.313 241.485H912.713C913.373 241.485 913.913 240.945 913.913 240.285V235.2C913.913 234.54 913.388 234 912.713 234H910.313V241.485ZM924.257 232.5V234H919.157V236.745H923.657V238.245H919.157V241.5H924.257V243H917.657V232.5H924.257ZM926.501 243L928.976 237.75L926.501 232.5H928.151L929.801 235.995L931.451 232.5H933.101L930.626 237.75L933.101 243H931.451L929.801 239.505L928.151 243H926.501ZM941.946 232.5V234H936.846V236.745H941.346V238.245H936.846V241.5H941.946V243H935.346V232.5H941.946ZM950.79 243H949.14L947.235 238.8H945.69V243H944.19V232.5H948.09C949.59 232.5 950.79 233.7 950.79 235.2V236.1C950.79 237.345 949.965 238.38 948.825 238.695L950.79 243ZM945.69 237.3H948.09C948.765 237.3 949.29 236.775 949.29 236.1V235.2C949.29 234.525 948.765 234 948.09 234H945.69V237.3ZM953.034 239.61H954.534V240.21C954.534 240.915 955.119 241.5 955.824 241.5H956.829C957.594 241.5 958.134 241.02 958.134 240.36C958.134 238.29 953.184 237.84 953.184 234.99C953.184 233.52 954.339 232.5 955.974 232.5H956.679C958.224 232.5 959.484 233.745 959.484 235.29V235.74H957.984V235.29C957.984 234.57 957.399 234 956.679 234H955.974C955.164 234 954.684 234.375 954.684 234.99C954.684 236.58 959.634 237.195 959.634 240.36C959.634 241.86 958.419 243 956.829 243H955.824C954.279 243 953.034 241.755 953.034 240.21V239.61Z" fill="#08C35E"/>
<rect x="739.612" y="277" width="349.624" height="40" fill="#08C35E" fill-opacity="0.2"/>
<rect x="740.112" y="277.5" width="348.624" height="39" stroke="#08C35E" stroke-opacity="0.2"/>
<g clip-path="url(#clip8_1325_7768)">
<path d="M861.55 286.5H858.925V289.125H861.55V286.5Z" fill="#08C35E"/>
<path d="M879.925 289.125H877.3V286.5H879.925V289.125Z" fill="#08C35E"/>
<path d="M879.925 304.875H877.3V307.5H879.925V304.875Z" fill="#08C35E"/>
<path d="M861.55 307.5H858.925V304.875H861.55V307.5Z" fill="#08C35E"/>
<path opacity="0.75" d="M861.55 289.125H858.925V291.75H861.55V289.125Z" fill="#08C35E"/>
<path opacity="0.3" d="M861.55 291.75H858.925V294.375H861.55V291.75Z" fill="#08C35E"/>
<path opacity="0.3" d="M866.8 286.5H864.175V289.125H866.8V286.5Z" fill="#08C35E"/>
<path opacity="0.3" d="M874.675 286.5H872.05V289.125H874.675V286.5Z" fill="#08C35E"/>
<path opacity="0.3" d="M879.925 291.75H877.3V294.375H879.925V291.75Z" fill="#08C35E"/>
<path opacity="0.3" d="M879.925 299.625H877.3V302.25H879.925V299.625Z" fill="#08C35E"/>
<path opacity="0.3" d="M874.675 304.875H872.05V307.5H874.675V304.875Z" fill="#08C35E"/>
<path opacity="0.3" d="M866.8 304.875H864.175V307.5H866.8V304.875Z" fill="#08C35E"/>
<path opacity="0.3" d="M861.55 299.625H858.925V302.25H861.55V299.625Z" fill="#08C35E"/>
<path opacity="0.75" d="M879.925 291.75H877.3V289.125H879.925V291.75Z" fill="#08C35E"/>
<path opacity="0.75" d="M879.925 302.25H877.3V304.875H879.925V302.25Z" fill="#08C35E"/>
<path opacity="0.75" d="M861.55 304.875H858.925V302.25H861.55V304.875Z" fill="#08C35E"/>
<path opacity="0.75" d="M864.175 286.5H861.55V289.125H864.175V286.5Z" fill="#08C35E"/>
<path opacity="0.75" d="M877.3 289.125H874.675V286.5H877.3V289.125Z" fill="#08C35E"/>
<path opacity="0.75" d="M877.3 304.875H874.675V307.5H877.3V304.875Z" fill="#08C35E"/>
<path opacity="0.75" d="M864.175 307.5H861.55V304.875H864.175V307.5Z" fill="#08C35E"/>
<path d="M866.8 291.75H864.175V294.375H866.8V291.75Z" fill="#08C35E"/>
<path d="M866.8 294.375H864.175V297H866.8V294.375Z" fill="#08C35E"/>
<path d="M866.8 297H864.175V299.625H866.8V297Z" fill="#08C35E"/>
<path d="M866.8 299.625H864.175V302.25H866.8V299.625Z" fill="#08C35E"/>
<path d="M869.425 299.625H866.8V302.25H869.425V299.625Z" fill="#08C35E"/>
<path d="M872.05 299.625H869.425V302.25H872.05V299.625Z" fill="#08C35E"/>
<path d="M874.675 299.625H872.05V302.25H874.675V299.625Z" fill="#08C35E"/>
<path d="M874.675 297H872.05V299.625H874.675V297Z" fill="#08C35E"/>
<path d="M874.675 294.375H872.05V297H874.675V294.375Z" fill="#08C35E"/>
<path d="M869.425 291.75H866.8V294.375H869.425V291.75Z" fill="#08C35E"/>
<path d="M872.05 291.75H869.425V294.375H872.05V291.75Z" fill="#08C35E"/>
<path d="M874.675 291.75H872.05V294.375H874.675V291.75Z" fill="#08C35E"/>
</g>
<path d="M891.125 299.61H892.625V300.21C892.625 300.915 893.21 301.5 893.915 301.5H894.92C895.685 301.5 896.225 301.02 896.225 300.36C896.225 298.29 891.275 297.84 891.275 294.99C891.275 293.52 892.43 292.5 894.065 292.5H894.77C896.315 292.5 897.575 293.745 897.575 295.29V295.74H896.075V295.29C896.075 294.57 895.49 294 894.77 294H894.065C893.255 294 892.775 294.375 892.775 294.99C892.775 296.58 897.725 297.195 897.725 300.36C897.725 301.86 896.51 303 894.92 303H893.915C892.37 303 891.125 301.755 891.125 300.21V299.61ZM906.569 292.5V294H901.469V296.745H905.969V298.245H901.469V301.5H906.569V303H899.969V292.5H906.569ZM915.413 304.23L914.093 304.965L912.878 303H912.713H911.513C910.028 303 908.813 301.77 908.813 300.285V295.2C908.813 293.7 910.028 292.5 911.513 292.5H912.713C914.213 292.5 915.413 293.7 915.413 295.2V300.285C915.413 301.17 914.993 301.965 914.333 302.46L915.413 304.23ZM910.313 300.285C910.313 300.945 910.853 301.485 911.513 301.485H912.713C913.373 301.485 913.913 300.945 913.913 300.285V295.2C913.913 294.525 913.388 294 912.713 294H911.513C910.838 294 910.313 294.54 910.313 295.2V300.285ZM924.257 300.285C924.257 301.77 923.042 303 921.557 303H920.357C918.857 303 917.657 301.77 917.657 300.285V292.5H919.157V300.285C919.157 300.945 919.697 301.485 920.357 301.485H921.557C922.217 301.485 922.757 300.945 922.757 300.285V292.5H924.257V300.285ZM933.101 292.5V294H928.001V296.745H932.501V298.245H928.001V301.5H933.101V303H926.501V292.5H933.101ZM940.446 292.5H941.946V303H939.771L936.846 295.02V303H935.346V292.5H937.521L940.446 300.48V292.5ZM949.29 295.2C949.29 294.525 948.765 294 948.09 294H946.89C946.215 294 945.69 294.54 945.69 295.2V300.285C945.69 300.945 946.23 301.485 946.89 301.485H948.09C948.75 301.485 949.29 300.945 949.29 300.285V299.46H950.79V300.285C950.79 301.77 949.59 303 948.09 303H946.89C945.405 303 944.19 301.77 944.19 300.285V295.2C944.19 293.7 945.405 292.5 946.89 292.5H948.09C949.59 292.5 950.79 293.7 950.79 295.2V296.025H949.29V295.2ZM959.634 292.5V294H954.534V296.745H959.034V298.245H954.534V301.5H959.634V303H953.034V292.5H959.634ZM968.478 303H966.828L964.923 298.8H963.378V303H961.878V292.5H965.778C967.278 292.5 968.478 293.7 968.478 295.2V296.1C968.478 297.345 967.653 298.38 966.513 298.695L968.478 303ZM963.378 297.3H965.778C966.453 297.3 966.978 296.775 966.978 296.1V295.2C966.978 294.525 966.453 294 965.778 294H963.378V297.3Z" fill="#08C35E"/>
<path opacity="0.54" d="M275.321 82H329.491M383.661 82H329.491M329.491 82V136.5M329.491 136.5H383.661M329.491 136.5H275.321M329.491 136.5V188M329.491 188H383.661M329.491 188V242.5M329.491 242.5H383.661M329.491 242.5V296M329.491 296H383.661M329.491 296V349H383.661" stroke="white"/>
<path opacity="0.54" d="M620.219 81H674.885M719.731 107H674.885L674.885 81M674.885 81V158.65M674.885 158.65V135.621H620.219M674.885 158.65V186.735M620.219 186.735H674.885M674.885 186.735V219.263V244M674.885 244V283.383V296M674.885 244H620.219M674.885 296V346H620.219M674.885 296H620.219" stroke="white"/>
<rect opacity="0.1" width="332" height="401" fill="#FF7612"/>
<path opacity="0.54" d="M919 182V204" stroke="#08C35E"/>
<path opacity="0.54" d="M919 242V264" stroke="#08C35E"/>
<defs>
<clipPath id="clip0_1325_7768">
<rect width="20.0693" height="20.0033" fill="white" transform="translate(115.008 71.9984)"/>
</clipPath>
<clipPath id="clip1_1325_7768">
<rect width="20.0693" height="20.0033" fill="white" transform="translate(110.508 124.998)"/>
</clipPath>
<clipPath id="clip2_1325_7768">
<rect width="20.0693" height="20.0033" fill="white" transform="translate(455.405 177.998)"/>
</clipPath>
<clipPath id="clip3_1325_7768">
<rect width="20.0693" height="20.0033" fill="white" transform="translate(446.905 230.998)"/>
</clipPath>
<clipPath id="clip4_1325_7768">
<rect width="20.0693" height="20.0033" fill="white" transform="translate(411.405 283.998)"/>
</clipPath>
<clipPath id="clip5_1325_7768">
<rect width="20.0693" height="20.0033" fill="white" transform="translate(415.905 336.998)"/>
</clipPath>
<clipPath id="clip6_1325_7768">
<rect width="21" height="21" fill="white" transform="translate(858.925 166.5)"/>
</clipPath>
<clipPath id="clip7_1325_7768">
<rect width="21" height="21" fill="white" transform="translate(858.925 226.5)"/>
</clipPath>
<clipPath id="clip8_1325_7768">
<rect width="21" height="21" fill="white" transform="translate(858.925 286.5)"/>
</clipPath>
</defs>
</svg>
