<svg width="1000" height="501" viewBox="0 0 1000 501" fill="none" xmlns="http://www.w3.org/2000/svg">
<rect width="1000" height="501" fill="#F46700"/>
<rect x="578" y="37" width="392" height="427" fill="white" fill-opacity="0.2"/>
<rect x="41" y="37" width="171" height="106" fill="white" fill-opacity="0.2"/>
<path d="M608.502 68.56L609.712 75.49L610.24 69V64.6H612.44V69.66L611.12 80H609.36L607.6 73.422L605.84 80H604.08L602.76 69.66V64.6H604.96V69L605.488 75.49L606.698 68.56H608.502ZM621.671 77.778C622.639 77.778 623.431 76.986 623.431 76.018V68.56C623.431 67.57 622.661 66.8 621.671 66.8H619.911C618.921 66.8 618.151 67.592 618.151 68.56V76.018C618.151 76.986 618.943 77.778 619.911 77.778H621.671ZM615.951 76.018V68.56C615.951 66.36 617.733 64.6 619.911 64.6H621.671C623.871 64.6 625.631 66.36 625.631 68.56V76.018C625.631 78.196 623.871 80 621.671 80H619.911C617.733 80 615.951 78.196 615.951 76.018ZM638.823 80H636.403L633.609 73.84H631.343V80H629.143V64.6H634.863C637.063 64.6 638.823 66.36 638.823 68.56V69.88C638.823 71.706 637.613 73.224 635.941 73.686L638.823 80ZM631.343 71.64H634.863C635.853 71.64 636.623 70.87 636.623 69.88V68.56C636.623 67.57 635.853 66.8 634.863 66.8H631.343V71.64ZM644.534 64.6V77.8H652.014V80H642.334V64.6H644.534ZM661.246 64.6C663.424 64.6 665.206 66.36 665.206 68.56V76.018C665.206 78.196 663.424 80 661.246 80H655.526V64.6H661.246ZM657.726 77.778H661.246C662.214 77.778 663.006 76.986 663.006 76.018V68.56C663.006 67.592 662.236 66.8 661.246 66.8H657.726V77.778Z" fill="white"/>
<path d="M111.44 95.018C111.44 97.196 109.658 99 107.48 99H105.72C103.52 99 101.76 97.196 101.76 95.018V83.6H103.96V95.018C103.96 95.986 104.752 96.778 105.72 96.778H107.48C108.448 96.778 109.24 95.986 109.24 95.018V83.6H111.44V95.018ZM114.951 94.028H117.151V94.908C117.151 95.942 118.009 96.8 119.043 96.8H120.517C121.639 96.8 122.431 96.096 122.431 95.128C122.431 92.092 115.171 91.432 115.171 87.252C115.171 85.096 116.865 83.6 119.263 83.6H120.297C122.563 83.6 124.411 85.426 124.411 87.692V88.352H122.211V87.692C122.211 86.636 121.353 85.8 120.297 85.8H119.263C118.075 85.8 117.371 86.35 117.371 87.252C117.371 89.584 124.631 90.486 124.631 95.128C124.631 97.328 122.849 99 120.517 99H119.043C116.777 99 114.951 97.174 114.951 94.908V94.028ZM137.823 83.6V85.8H130.343V89.826H136.943V92.026H130.343V96.8H137.823V99H128.143V83.6H137.823ZM151.014 99H148.594L145.8 92.84H143.534V99H141.334V83.6H147.054C149.254 83.6 151.014 85.36 151.014 87.56V88.88C151.014 90.706 149.804 92.224 148.132 92.686L151.014 99ZM143.534 90.64H147.054C148.044 90.64 148.814 89.87 148.814 88.88V87.56C148.814 86.57 148.044 85.8 147.054 85.8H143.534V90.64Z" fill="white"/>
<rect x="623" y="110" width="305" height="154" fill="white" fill-opacity="0.15"/>
<rect x="622" y="296" width="305" height="131" fill="white" fill-opacity="0.15"/>
<rect x="647" y="177" width="259" height="64" fill="white"/>
<rect x="646" y="359" width="259" height="44" fill="white"/>
<path d="M727.4 207.2V209.36H720.6V210.38C720.6 211.26 721.32 211.98 722.2 211.98H723.8C724.68 211.98 725.4 211.26 725.4 210.38V210.18H727.4V210.38C727.4 212.36 725.8 214 723.8 214H722.2C720.22 214 718.6 212.36 718.6 210.38V207.4C718.6 205.4 720.22 203.8 722.2 203.8H723.8C725.74 203.8 727.3 205.3 727.4 207.2ZM720.6 207.76H725.4V207.4C725.4 206.5 724.7 205.8 723.8 205.8H722.2C721.3 205.8 720.6 206.52 720.6 207.4V207.76ZM739.392 203.8V214H737.392V212.88L735.732 214H734.192C732.212 214 730.592 212.38 730.592 210.4V207.4C730.592 205.4 732.212 203.8 734.192 203.8H735.732L737.392 204.92V203.8H739.392ZM732.592 210.4C732.592 211.28 733.312 212 734.192 212H735.112L737.392 210.46V207.34L735.112 205.8H734.192C733.312 205.8 732.592 206.52 732.592 207.4V210.4ZM749.284 214C747.284 214 745.684 212.4 745.684 210.4V205.8H742.584V203.8H745.684V201.2H747.684V203.8H751.384V205.8H747.684V210.4C747.684 211.3 748.384 212 749.284 212H751.384V214H749.284ZM756.577 214H754.577V209.4L757.977 200H759.977L763.377 209.4V214H761.377V210.76H756.577V214ZM756.937 208.76H761.017L758.997 203.16H758.957L756.937 208.76ZM766.569 203.8H768.569V204.92L770.229 203.8H771.769C773.749 203.8 775.369 205.4 775.369 207.4V214H773.369V207.4C773.369 206.52 772.649 205.8 771.769 205.8H770.849L768.569 207.34V214H766.569V203.8ZM787.361 199.8V214H785.361V212.88L783.701 214H782.161C780.181 214 778.561 212.38 778.561 210.4V207.4C778.561 205.4 780.181 203.8 782.161 203.8H783.701L785.361 204.92V199.8H787.361ZM780.561 210.4C780.561 211.28 781.281 212 782.161 212H783.081L785.361 210.46V207.34L783.081 205.8H782.161C781.281 205.8 780.561 206.52 780.561 207.4V210.4ZM794.413 208.36L792.553 204.4V214H790.553V200H792.553L794.953 205.22L797.353 200H799.353V214H797.353V204.4L795.493 208.36H794.413ZM807.745 212C808.645 212 809.345 211.32 809.345 210.42V207.4C809.345 206.5 808.645 205.8 807.745 205.8H806.145C805.245 205.8 804.545 206.5 804.545 207.4V210.42C804.545 211.32 805.245 211.98 806.145 212H807.745ZM802.545 210.42V207.4C802.545 205.4 804.145 203.8 806.145 203.8H807.745C809.745 203.8 811.345 205.4 811.345 207.4V210.42C811.345 212.42 809.745 214 807.745 214H806.145C804.145 214 802.545 212.42 802.545 210.42ZM821.338 203.8H823.338V208.4L819.938 214H817.938L814.538 208.4V203.8H816.538V207.84L818.918 211.76H818.958L821.338 207.84V203.8ZM835.33 207.2V209.36H828.53V210.38C828.53 211.26 829.25 211.98 830.13 211.98H831.73C832.61 211.98 833.33 211.26 833.33 210.38V210.18H835.33V210.38C835.33 212.36 833.73 214 831.73 214H830.13C828.15 214 826.53 212.36 826.53 210.38V207.4C826.53 205.4 828.15 203.8 830.13 203.8H831.73C833.67 203.8 835.23 205.3 835.33 207.2ZM828.53 207.76H833.33V207.4C833.33 206.5 832.63 205.8 831.73 205.8H830.13C829.23 205.8 828.53 206.52 828.53 207.4V207.76Z" fill="#F46700"/>
<path d="M768.4 380.2V382.36H761.6V383.38C761.6 384.26 762.32 384.98 763.2 384.98H764.8C765.68 384.98 766.4 384.26 766.4 383.38V383.18H768.4V383.38C768.4 385.36 766.8 387 764.8 387H763.2C761.22 387 759.6 385.36 759.6 383.38V380.4C759.6 378.4 761.22 376.8 763.2 376.8H764.8C766.74 376.8 768.3 378.3 768.4 380.2ZM761.6 380.76H766.4V380.4C766.4 379.5 765.7 378.8 764.8 378.8H763.2C762.3 378.8 761.6 379.52 761.6 380.4V380.76ZM780.392 376.8V387H778.392V385.88L776.732 387H775.192C773.212 387 771.592 385.38 771.592 383.4V380.4C771.592 378.4 773.212 376.8 775.192 376.8H776.732L778.392 377.92V376.8H780.392ZM773.592 383.4C773.592 384.28 774.312 385 775.192 385H776.112L778.392 383.46V380.34L776.112 378.8H775.192C774.312 378.8 773.592 379.52 773.592 380.4V383.4ZM790.284 387C788.284 387 786.684 385.4 786.684 383.4V378.8H783.584V376.8H786.684V374.2H788.684V376.8H792.384V378.8H788.684V383.4C788.684 384.3 789.384 385 790.284 385H792.384V387H790.284Z" fill="#F46700"/>
<path d="M657.82 140.08C657.82 139.135 657.085 138.4 656.14 138.4H654.46C653.515 138.4 652.78 139.156 652.78 140.08V147.199C652.78 148.123 653.536 148.879 654.46 148.879H656.14C657.064 148.879 657.82 148.123 657.82 147.199V146.044H659.92V147.199C659.92 149.278 658.24 151 656.14 151H654.46C652.381 151 650.68 149.278 650.68 147.199V140.08C650.68 137.98 652.381 136.3 654.46 136.3H656.14C658.24 136.3 659.92 137.98 659.92 140.08V141.235H657.82V140.08ZM668.732 148.9C669.677 148.9 670.412 148.186 670.412 147.241V144.07C670.412 143.125 669.677 142.39 668.732 142.39H667.052C666.107 142.39 665.372 143.125 665.372 144.07V147.241C665.372 148.186 666.107 148.879 667.052 148.9H668.732ZM663.272 147.241V144.07C663.272 141.97 664.952 140.29 667.052 140.29H668.732C670.832 140.29 672.512 141.97 672.512 144.07V147.241C672.512 149.341 670.832 151 668.732 151H667.052C664.952 151 663.272 149.341 663.272 147.241ZM675.444 140.29H677.544V141.508L678.804 140.29H678.972C680.085 140.29 680.862 140.773 681.261 141.781L682.794 140.29H682.962C684.621 140.29 685.524 141.34 685.524 143.65V151H683.424V143.65C683.424 143.251 683.424 142.915 683.382 142.684L681.534 144.448V151H679.434V143.65C679.434 143.251 679.434 142.915 679.392 142.684L677.544 144.448V151H675.444V140.29ZM678.741 142.054H678.867H678.741ZM682.731 142.054H682.857H682.731ZM688.455 136.09H690.555V141.466L692.298 140.29H693.915C695.994 140.29 697.695 141.97 697.695 144.07V147.22C697.695 149.299 695.994 151 693.915 151H692.298L690.555 149.824V151H688.455V136.09ZM690.555 147.283L692.949 148.9H693.915C694.839 148.9 695.595 148.144 695.595 147.22V144.07C695.595 143.146 694.839 142.39 693.915 142.39H692.949L690.555 144.007V147.283ZM706.612 148.9H710.287V151H701.047V148.9H704.512V142.39H701.047V140.29H706.612V148.9ZM704.302 138.4V136.3H706.612V138.4H704.302ZM713.639 140.29H715.739V141.466L717.482 140.29H719.099C721.178 140.29 722.879 141.97 722.879 144.07V151H720.779V144.07C720.779 143.146 720.023 142.39 719.099 142.39H718.133L715.739 144.007V151H713.639V140.29ZM735.471 143.86V146.128H728.331V147.199C728.331 148.123 729.087 148.879 730.011 148.879H731.691C732.615 148.879 733.371 148.123 733.371 147.199V146.989H735.471V147.199C735.471 149.278 733.791 151 731.691 151H730.011C727.932 151 726.231 149.278 726.231 147.199V144.07C726.231 141.97 727.932 140.29 730.011 140.29H731.691C733.728 140.29 735.366 141.865 735.471 143.86ZM728.331 144.448H733.371V144.07C733.371 143.125 732.636 142.39 731.691 142.39H730.011C729.066 142.39 728.331 143.146 728.331 144.07V144.448ZM748.063 136.09V151H745.963V149.824L744.22 151H742.603C740.524 151 738.823 149.299 738.823 147.22V144.07C738.823 141.97 740.524 140.29 742.603 140.29H744.22L745.963 141.466V136.09H748.063ZM740.923 147.22C740.923 148.144 741.679 148.9 742.603 148.9H743.569L745.963 147.283V144.007L743.569 142.39H742.603C741.679 142.39 740.923 143.146 740.923 144.07V147.22ZM753.514 151H751.414V146.17L754.984 136.3H757.084L760.654 146.17V151H758.554V147.598H753.514V151ZM753.892 145.498H758.176L756.055 139.618H756.013L753.892 145.498ZM771.146 144.07C771.146 143.125 770.411 142.39 769.466 142.39H767.786C766.841 142.39 766.106 143.146 766.106 144.07V147.199C766.106 148.123 766.862 148.879 767.786 148.879H769.466C770.39 148.879 771.146 148.123 771.146 147.199V146.989H773.246V147.199C773.246 149.278 771.566 151 769.466 151H767.786C765.707 151 764.006 149.278 764.006 147.199V144.07C764.006 141.97 765.707 140.29 767.786 140.29H769.466C771.566 140.29 773.246 141.97 773.246 144.07V144.28H771.146V144.07ZM783.633 151C781.533 151 779.853 149.32 779.853 147.22V142.39H776.598V140.29H779.853V137.56H781.953V140.29H785.838V142.39H781.953V147.22C781.953 148.165 782.688 148.9 783.633 148.9H785.838V151H783.633ZM794.755 148.9H798.43V151H789.19V148.9H792.655V142.39H789.19V140.29H794.755V148.9ZM792.445 138.4V136.3H794.755V138.4H792.445ZM807.242 148.9C808.187 148.9 808.922 148.186 808.922 147.241V144.07C808.922 143.125 808.187 142.39 807.242 142.39H805.562C804.617 142.39 803.882 143.125 803.882 144.07V147.241C803.882 148.186 804.617 148.879 805.562 148.9H807.242ZM801.782 147.241V144.07C801.782 141.97 803.462 140.29 805.562 140.29H807.242C809.342 140.29 811.022 141.97 811.022 144.07V147.241C811.022 149.341 809.342 151 807.242 151H805.562C803.462 151 801.782 149.341 801.782 147.241ZM814.373 140.29H816.473V141.466L818.216 140.29H819.833C821.912 140.29 823.613 141.97 823.613 144.07V151H821.513V144.07C821.513 143.146 820.757 142.39 819.833 142.39H818.867L816.473 144.007V151H814.373V140.29ZM826.965 146.254H829.065V147.094C829.065 148.081 829.884 148.9 830.871 148.9H832.278C833.349 148.9 834.105 148.228 834.105 147.304C834.105 144.406 827.175 143.776 827.175 139.786C827.175 137.728 828.792 136.3 831.081 136.3H832.068C834.231 136.3 835.995 138.043 835.995 140.206V140.836H833.895V140.206C833.895 139.198 833.076 138.4 832.068 138.4H831.081C829.947 138.4 829.275 138.925 829.275 139.786C829.275 142.012 836.205 142.873 836.205 147.304C836.205 149.404 834.504 151 832.278 151H830.871C828.708 151 826.965 149.257 826.965 147.094V146.254ZM843.253 155.41H841.006L842.938 150.16L839.557 140.29H841.783L844.072 147.031L846.55 140.29H848.797L843.253 155.41ZM852.149 147.472H854.249V147.892C854.249 148.48 854.795 148.9 855.698 148.9H857.819C858.806 148.9 859.289 148.564 859.289 148.039C859.289 145.666 852.296 147.199 852.296 143.125C852.296 141.424 853.661 140.29 855.656 140.29H857.672C859.562 140.29 861.032 141.655 861.032 143.419V143.608H858.932V143.419C858.932 142.831 858.407 142.39 857.672 142.39H855.656C854.774 142.39 854.396 142.684 854.396 143.125C854.396 144.826 861.389 143.755 861.389 148.039C861.389 149.803 859.94 151 857.819 151H855.698C853.661 151 852.149 149.677 852.149 147.892V147.472ZM871.776 151C869.676 151 867.996 149.32 867.996 147.22V142.39H864.741V140.29H867.996V137.56H870.096V140.29H873.981V142.39H870.096V147.22C870.096 148.165 870.831 148.9 871.776 148.9H873.981V151H871.776ZM886.572 143.86V146.128H879.432V147.199C879.432 148.123 880.188 148.879 881.112 148.879H882.792C883.716 148.879 884.472 148.123 884.472 147.199V146.989H886.572V147.199C886.572 149.278 884.892 151 882.792 151H881.112C879.033 151 877.332 149.278 877.332 147.199V144.07C877.332 141.97 879.033 140.29 881.112 140.29H882.792C884.829 140.29 886.467 141.865 886.572 143.86ZM879.432 144.448H884.472V144.07C884.472 143.125 883.737 142.39 882.792 142.39H881.112C880.167 142.39 879.432 143.146 879.432 144.07V144.448ZM889.504 140.29H891.604V141.508L892.864 140.29H893.032C894.145 140.29 894.922 140.773 895.321 141.781L896.854 140.29H897.022C898.681 140.29 899.584 141.34 899.584 143.65V151H897.484V143.65C897.484 143.251 897.484 142.915 897.442 142.684L895.594 144.448V151H893.494V143.65C893.494 143.251 893.494 142.915 893.452 142.684L891.604 144.448V151H889.504V140.29ZM892.801 142.054H892.927H892.801ZM896.791 142.054H896.917H896.791Z" fill="white"/>
<path d="M658.92 322.3V324.4H651.78V328.243H658.08V330.343H651.78V334.9H658.92V337H649.68V322.3H658.92ZM662.272 326.29H664.372V327.466L666.115 326.29H667.732C669.811 326.29 671.512 327.97 671.512 330.07V337H669.412V330.07C669.412 329.146 668.656 328.39 667.732 328.39H666.766L664.372 330.007V337H662.272V326.29ZM684.104 329.86V332.128H676.964V333.199C676.964 334.123 677.72 334.879 678.644 334.879H680.324C681.248 334.879 682.004 334.123 682.004 333.199V332.989H684.104V333.199C684.104 335.278 682.424 337 680.324 337H678.644C676.565 337 674.864 335.278 674.864 333.199V330.07C674.864 327.97 676.565 326.29 678.644 326.29H680.324C682.361 326.29 683.999 327.865 684.104 329.86ZM676.964 330.448H682.004V330.07C682.004 329.125 681.269 328.39 680.324 328.39H678.644C677.699 328.39 676.964 329.146 676.964 330.07V330.448ZM687.455 326.29H689.555V327.97L692.054 326.29H692.915C694.994 326.29 696.695 327.97 696.695 330.07V330.91H694.595V330.07C694.595 329.146 693.839 328.39 692.915 328.39H692.705L689.555 330.511V337H687.455V326.29ZM709.287 337.609C709.287 339.688 707.607 341.41 705.507 341.41H703.827C701.748 341.41 700.047 339.688 700.047 337.609H702.147C702.147 338.533 702.903 339.289 703.827 339.289H705.507C706.431 339.289 707.187 338.533 707.187 337.609V335.824L705.444 337H703.827C701.748 337 700.047 335.299 700.047 333.22V330.07C700.047 327.97 701.748 326.29 703.827 326.29H705.444L707.187 327.466V326.29H709.287V337.609ZM702.147 333.22C702.147 334.144 702.903 334.9 703.827 334.9H704.793L707.187 333.283V330.007L704.793 328.39H703.827C702.903 328.39 702.147 329.146 702.147 330.07V333.22ZM716.335 341.41H714.088L716.02 336.16L712.639 326.29H714.865L717.154 333.031L719.632 326.29H721.879L716.335 341.41ZM725.231 332.254H727.331V333.094C727.331 334.081 728.15 334.9 729.137 334.9H730.544C731.615 334.9 732.371 334.228 732.371 333.304C732.371 330.406 725.441 329.776 725.441 325.786C725.441 323.728 727.058 322.3 729.347 322.3H730.334C732.497 322.3 734.261 324.043 734.261 326.206V326.836H732.161V326.206C732.161 325.198 731.342 324.4 730.334 324.4H729.347C728.213 324.4 727.541 324.925 727.541 325.786C727.541 328.012 734.471 328.873 734.471 333.304C734.471 335.404 732.77 337 730.544 337H729.137C726.974 337 725.231 335.257 725.231 333.094V332.254ZM741.519 341.41H739.272L741.204 336.16L737.823 326.29H740.049L742.338 333.031L744.816 326.29H747.063L741.519 341.41ZM750.414 333.472H752.514V333.892C752.514 334.48 753.06 334.9 753.963 334.9H756.084C757.071 334.9 757.554 334.564 757.554 334.039C757.554 331.666 750.561 333.199 750.561 329.125C750.561 327.424 751.926 326.29 753.921 326.29H755.937C757.827 326.29 759.297 327.655 759.297 329.419V329.608H757.197V329.419C757.197 328.831 756.672 328.39 755.937 328.39H753.921C753.039 328.39 752.661 328.684 752.661 329.125C752.661 330.826 759.654 329.755 759.654 334.039C759.654 335.803 758.205 337 756.084 337H753.963C751.926 337 750.414 335.677 750.414 333.892V333.472ZM770.041 337C767.941 337 766.261 335.32 766.261 333.22V328.39H763.006V326.29H766.261V323.56H768.361V326.29H772.246V328.39H768.361V333.22C768.361 334.165 769.096 334.9 770.041 334.9H772.246V337H770.041ZM784.838 329.86V332.128H777.698V333.199C777.698 334.123 778.454 334.879 779.378 334.879H781.058C781.982 334.879 782.738 334.123 782.738 333.199V332.989H784.838V333.199C784.838 335.278 783.158 337 781.058 337H779.378C777.299 337 775.598 335.278 775.598 333.199V330.07C775.598 327.97 777.299 326.29 779.378 326.29H781.058C783.095 326.29 784.733 327.865 784.838 329.86ZM777.698 330.448H782.738V330.07C782.738 329.125 782.003 328.39 781.058 328.39H779.378C778.433 328.39 777.698 329.146 777.698 330.07V330.448ZM787.77 326.29H789.87V327.508L791.13 326.29H791.298C792.411 326.29 793.188 326.773 793.587 327.781L795.12 326.29H795.288C796.947 326.29 797.85 327.34 797.85 329.65V337H795.75V329.65C795.75 329.251 795.75 328.915 795.708 328.684L793.86 330.448V337H791.76V329.65C791.76 329.251 791.76 328.915 791.718 328.684L789.87 330.448V337H787.77V326.29ZM791.067 328.054H791.193H791.067ZM795.057 328.054H795.183H795.057Z" fill="white"/>
<path d="M597 209V207.5H595.5V209H597ZM597 382H595.5V383.5H597V382ZM633.561 383.061C634.146 382.475 634.146 381.525 633.561 380.939L624.015 371.393C623.429 370.808 622.479 370.808 621.893 371.393C621.308 371.979 621.308 372.929 621.893 373.515L630.379 382L621.893 390.485C621.308 391.071 621.308 392.021 621.893 392.607C622.479 393.192 623.429 393.192 624.015 392.607L633.561 383.061ZM647.5 207.5H597V210.5H647.5V207.5ZM595.5 209V382H598.5V209H595.5ZM597 383.5H632.5V380.5H597V383.5Z" fill="white"/>
<path d="M576.561 91.0607C577.146 90.4749 577.146 89.5252 576.561 88.9394L567.015 79.3934C566.429 78.8077 565.479 78.8077 564.893 79.3934C564.308 79.9792 564.308 80.929 564.893 81.5148L573.379 90L564.893 98.4853C564.308 99.0711 564.308 100.021 564.893 100.607C565.479 101.192 566.429 101.192 567.015 100.607L576.561 91.0607ZM212 91.5004L575.5 91.5L575.5 88.5L212 88.5004L212 91.5004Z" fill="white"/>
<rect width="502" height="144" transform="translate(41 173)" fill="black" fill-opacity="0.1"/>
<path d="M82.26 203.78H84.46V205.54L87.078 203.78H87.98C90.158 203.78 91.94 205.54 91.94 207.74V208.62H89.74V207.74C89.74 206.772 88.948 205.98 87.98 205.98H87.76L84.46 208.202V215H82.26V203.78ZM105.131 207.52V209.896H97.6514V211.018C97.6514 211.986 98.4434 212.778 99.4114 212.778H101.171C102.139 212.778 102.931 211.986 102.931 211.018V210.798H105.131V211.018C105.131 213.196 103.371 215 101.171 215H99.4114C97.2334 215 95.4514 213.196 95.4514 211.018V207.74C95.4514 205.54 97.2334 203.78 99.4114 203.78H101.171C103.305 203.78 105.021 205.43 105.131 207.52ZM97.6514 208.136H102.931V207.74C102.931 206.75 102.161 205.98 101.171 205.98H99.4114C98.4214 205.98 97.6514 206.772 97.6514 207.74V208.136ZM118.323 215.638C118.323 217.816 116.563 219.62 114.363 219.62H112.603C110.425 219.62 108.643 217.816 108.643 215.638H110.843C110.843 216.606 111.635 217.398 112.603 217.398H114.363C115.331 217.398 116.123 216.606 116.123 215.638V213.768L114.297 215H112.603C110.425 215 108.643 213.218 108.643 211.04V207.74C108.643 205.54 110.425 203.78 112.603 203.78H114.297L116.123 205.012V203.78H118.323V215.638ZM110.843 211.04C110.843 212.008 111.635 212.8 112.603 212.8H113.615L116.123 211.106V207.674L113.615 205.98H112.603C111.635 205.98 110.843 206.772 110.843 207.74V211.04ZM127.664 212.8H131.514V215H121.834V212.8H125.464V205.98H121.834V203.78H127.664V212.8ZM125.244 201.8V199.6H127.664V201.8H125.244ZM135.026 211.304H137.226V211.744C137.226 212.36 137.798 212.8 138.744 212.8H140.966C142 212.8 142.506 212.448 142.506 211.898C142.506 209.412 135.18 211.018 135.18 206.75C135.18 204.968 136.61 203.78 138.7 203.78H140.812C142.792 203.78 144.332 205.21 144.332 207.058V207.256H142.132V207.058C142.132 206.442 141.582 205.98 140.812 205.98H138.7C137.776 205.98 137.38 206.288 137.38 206.75C137.38 208.532 144.706 207.41 144.706 211.898C144.706 213.746 143.188 215 140.966 215H138.744C136.61 215 135.026 213.614 135.026 211.744V211.304ZM155.587 215C153.387 215 151.627 213.24 151.627 211.04V205.98H148.217V203.78H151.627V200.92H153.827V203.78H157.897V205.98H153.827V211.04C153.827 212.03 154.597 212.8 155.587 212.8H157.897V215H155.587ZM171.088 207.52V209.896H163.608V211.018C163.608 211.986 164.4 212.778 165.368 212.778H167.128C168.096 212.778 168.888 211.986 168.888 211.018V210.798H171.088V211.018C171.088 213.196 169.328 215 167.128 215H165.368C163.19 215 161.408 213.196 161.408 211.018V207.74C161.408 205.54 163.19 203.78 165.368 203.78H167.128C169.262 203.78 170.978 205.43 171.088 207.52ZM163.608 208.136H168.888V207.74C168.888 206.75 168.118 205.98 167.128 205.98H165.368C164.378 205.98 163.608 206.772 163.608 207.74V208.136ZM174.6 203.78H176.8V205.54L179.418 203.78H180.32C182.498 203.78 184.28 205.54 184.28 207.74V208.62H182.08V207.74C182.08 206.772 181.288 205.98 180.32 205.98H180.1L176.8 208.202V215H174.6V203.78ZM193.511 199.6C195.689 199.6 197.471 201.36 197.471 203.56V211.018C197.471 213.196 195.689 215 193.511 215H187.791V199.6H193.511ZM189.991 212.778H193.511C194.479 212.778 195.271 211.986 195.271 211.018V203.56C195.271 202.592 194.501 201.8 193.511 201.8H189.991V212.778ZM210.663 207.52V209.896H203.183V211.018C203.183 211.986 203.975 212.778 204.943 212.778H206.703C207.671 212.778 208.463 211.986 208.463 211.018V210.798H210.663V211.018C210.663 213.196 208.903 215 206.703 215H204.943C202.765 215 200.983 213.196 200.983 211.018V207.74C200.983 205.54 202.765 203.78 204.943 203.78H206.703C208.837 203.78 210.553 205.43 210.663 207.52ZM203.183 208.136H208.463V207.74C208.463 206.75 207.693 205.98 206.703 205.98H204.943C203.953 205.98 203.183 206.772 203.183 207.74V208.136ZM220.004 212.8H223.854V215H214.174V212.8H217.804V201.58H214.174V199.38H220.004V212.8ZM237.045 207.52V209.896H229.565V211.018C229.565 211.986 230.357 212.778 231.325 212.778H233.085C234.053 212.778 234.845 211.986 234.845 211.018V210.798H237.045V211.018C237.045 213.196 235.285 215 233.085 215H231.325C229.147 215 227.365 213.196 227.365 211.018V207.74C227.365 205.54 229.147 203.78 231.325 203.78H233.085C235.219 203.78 236.935 205.43 237.045 207.52ZM229.565 208.136H234.845V207.74C234.845 206.75 234.075 205.98 233.085 205.98H231.325C230.335 205.98 229.565 206.772 229.565 207.74V208.136ZM250.237 215.638C250.237 217.816 248.477 219.62 246.277 219.62H244.517C242.339 219.62 240.557 217.816 240.557 215.638H242.757C242.757 216.606 243.549 217.398 244.517 217.398H246.277C247.245 217.398 248.037 216.606 248.037 215.638V213.768L246.211 215H244.517C242.339 215 240.557 213.218 240.557 211.04V207.74C240.557 205.54 242.339 203.78 244.517 203.78H246.211L248.037 205.012V203.78H250.237V215.638ZM242.757 211.04C242.757 212.008 243.549 212.8 244.517 212.8H245.529L248.037 211.106V207.674L245.529 205.98H244.517C243.549 205.98 242.757 206.772 242.757 207.74V211.04ZM263.428 203.78V215H261.228V213.768L259.402 215H257.708C255.53 215 253.748 213.218 253.748 211.04V207.74C253.748 205.54 255.53 203.78 257.708 203.78H259.402L261.228 205.012V203.78H263.428ZM255.948 211.04C255.948 212.008 256.74 212.8 257.708 212.8H258.72L261.228 211.106V207.674L258.72 205.98H257.708C256.74 205.98 255.948 206.772 255.948 207.74V211.04ZM274.31 215C272.11 215 270.35 213.24 270.35 211.04V205.98H266.94V203.78H270.35V200.92H272.55V203.78H276.62V205.98H272.55V211.04C272.55 212.03 273.32 212.8 274.31 212.8H276.62V215H274.31ZM285.961 212.8H289.811V215H280.131V212.8H283.761V205.98H280.131V203.78H285.961V212.8ZM283.541 201.8V199.6H285.961V201.8H283.541ZM299.043 212.8C300.033 212.8 300.803 212.052 300.803 211.062V207.74C300.803 206.75 300.033 205.98 299.043 205.98H297.283C296.293 205.98 295.523 206.75 295.523 207.74V211.062C295.523 212.052 296.293 212.778 297.283 212.8H299.043ZM293.323 211.062V207.74C293.323 205.54 295.083 203.78 297.283 203.78H299.043C301.243 203.78 303.003 205.54 303.003 207.74V211.062C303.003 213.262 301.243 215 299.043 215H297.283C295.083 215 293.323 213.262 293.323 211.062ZM306.514 203.78H308.714V205.012L310.54 203.78H312.234C314.412 203.78 316.194 205.54 316.194 207.74V215H313.994V207.74C313.994 206.772 313.202 205.98 312.234 205.98H311.222L308.714 207.674V215H306.514V203.78ZM325.425 217.222C323.247 217.222 321.465 215.418 321.465 213.24V201.36C321.465 199.16 323.247 197.4 325.425 197.4H327.625V199.6H325.425C324.435 199.6 323.665 200.392 323.665 201.36V213.24C323.665 214.208 324.457 215 325.425 215H327.625V217.222H325.425ZM118.323 229.78V241H116.123V239.768L114.297 241H112.603C110.425 241 108.643 239.218 108.643 237.04V233.74C108.643 231.54 110.425 229.78 112.603 229.78H114.297L116.123 231.012V229.78H118.323ZM110.843 237.04C110.843 238.008 111.635 238.8 112.603 238.8H113.615L116.123 237.106V233.674L113.615 231.98H112.603C111.635 231.98 110.843 232.772 110.843 233.74V237.04ZM131.514 225.38V241H129.314V239.768L127.488 241H125.794C123.616 241 121.834 239.218 121.834 237.04V233.74C121.834 231.54 123.616 229.78 125.794 229.78H127.488L129.314 231.012V225.38H131.514ZM124.034 237.04C124.034 238.008 124.826 238.8 125.794 238.8H126.806L129.314 237.106V233.674L126.806 231.98H125.794C124.826 231.98 124.034 232.772 124.034 233.74V237.04ZM144.706 225.38V241H142.506V239.768L140.68 241H138.986C136.808 241 135.026 239.218 135.026 237.04V233.74C135.026 231.54 136.808 229.78 138.986 229.78H140.68L142.506 231.012V225.38H144.706ZM137.226 237.04C137.226 238.008 138.018 238.8 138.986 238.8H139.998L142.506 237.106V233.674L139.998 231.98H138.986C138.018 231.98 137.226 232.772 137.226 233.74V237.04ZM148.217 229.78H150.417V231.54L153.035 229.78H153.937C156.115 229.78 157.897 231.54 157.897 233.74V234.62H155.697V233.74C155.697 232.772 154.905 231.98 153.937 231.98H153.717L150.417 234.202V241H148.217V229.78ZM171.088 233.52V235.896H163.608V237.018C163.608 237.986 164.4 238.778 165.368 238.778H167.128C168.096 238.778 168.888 237.986 168.888 237.018V236.798H171.088V237.018C171.088 239.196 169.328 241 167.128 241H165.368C163.19 241 161.408 239.196 161.408 237.018V233.74C161.408 231.54 163.19 229.78 165.368 229.78H167.128C169.262 229.78 170.978 231.43 171.088 233.52ZM163.608 234.136H168.888V233.74C168.888 232.75 168.118 231.98 167.128 231.98H165.368C164.378 231.98 163.608 232.772 163.608 233.74V234.136ZM174.6 237.304H176.8V237.744C176.8 238.36 177.372 238.8 178.318 238.8H180.54C181.574 238.8 182.08 238.448 182.08 237.898C182.08 235.412 174.754 237.018 174.754 232.75C174.754 230.968 176.184 229.78 178.274 229.78H180.386C182.366 229.78 183.906 231.21 183.906 233.058V233.256H181.706V233.058C181.706 232.442 181.156 231.98 180.386 231.98H178.274C177.35 231.98 176.954 232.288 176.954 232.75C176.954 234.532 184.28 233.41 184.28 237.898C184.28 239.746 182.762 241 180.54 241H178.318C176.184 241 174.6 239.614 174.6 237.744V237.304ZM187.791 237.304H189.991V237.744C189.991 238.36 190.563 238.8 191.509 238.8H193.731C194.765 238.8 195.271 238.448 195.271 237.898C195.271 235.412 187.945 237.018 187.945 232.75C187.945 230.968 189.375 229.78 191.465 229.78H193.577C195.557 229.78 197.097 231.21 197.097 233.058V233.256H194.897V233.058C194.897 232.442 194.347 231.98 193.577 231.98H191.465C190.541 231.98 190.145 232.288 190.145 232.75C190.145 234.532 197.471 233.41 197.471 237.898C197.471 239.746 195.953 241 193.731 241H191.509C189.375 241 187.791 239.614 187.791 237.744V237.304ZM206.703 243.222C204.525 243.222 202.743 241.418 202.743 239.24V227.36C202.743 225.16 204.525 223.4 206.703 223.4H208.903V225.6H206.703C205.713 225.6 204.943 226.392 204.943 227.36V239.24C204.943 240.208 205.735 241 206.703 241H208.903V243.222H206.703ZM221.654 229.56C221.654 228.57 220.884 227.8 219.894 227.8H218.134C217.144 227.8 216.374 228.592 216.374 229.56V237.018C216.374 237.986 217.166 238.778 218.134 238.778H219.894C220.862 238.778 221.654 237.986 221.654 237.018V235.808H223.854V237.018C223.854 239.196 222.094 241 219.894 241H218.134C215.956 241 214.174 239.196 214.174 237.018V229.56C214.174 227.36 215.956 225.6 218.134 225.6H219.894C222.094 225.6 223.854 227.36 223.854 229.56V230.77H221.654V229.56ZM233.085 238.8C234.075 238.8 234.845 238.052 234.845 237.062V233.74C234.845 232.75 234.075 231.98 233.085 231.98H231.325C230.335 231.98 229.565 232.75 229.565 233.74V237.062C229.565 238.052 230.335 238.778 231.325 238.8H233.085ZM227.365 237.062V233.74C227.365 231.54 229.125 229.78 231.325 229.78H233.085C235.285 229.78 237.045 231.54 237.045 233.74V237.062C237.045 239.262 235.285 241 233.085 241H231.325C229.125 241 227.365 239.262 227.365 237.062ZM240.117 229.78H242.317V231.056L243.637 229.78H243.813C244.979 229.78 245.793 230.286 246.211 231.342L247.817 229.78H247.993C249.731 229.78 250.677 230.88 250.677 233.3V241H248.477V233.3C248.477 232.882 248.477 232.53 248.433 232.288L246.497 234.136V241H244.297V233.3C244.297 232.882 244.297 232.53 244.253 232.288L242.317 234.136V241H240.117V229.78ZM243.571 231.628H243.703H243.571ZM247.751 231.628H247.883H247.751ZM253.748 225.38H255.948V231.012L257.774 229.78H259.468C261.646 229.78 263.428 231.54 263.428 233.74V237.04C263.428 239.218 261.646 241 259.468 241H257.774L255.948 239.768V241H253.748V225.38ZM255.948 237.106L258.456 238.8H259.468C260.436 238.8 261.228 238.008 261.228 237.04V233.74C261.228 232.772 260.436 231.98 259.468 231.98H258.456L255.948 233.674V237.106ZM272.77 238.8H276.62V241H266.94V238.8H270.57V231.98H266.94V229.78H272.77V238.8ZM270.35 227.8V225.6H272.77V227.8H270.35ZM280.131 229.78H282.331V231.012L284.157 229.78H285.851C288.029 229.78 289.811 231.54 289.811 233.74V241H287.611V233.74C287.611 232.772 286.819 231.98 285.851 231.98H284.839L282.331 233.674V241H280.131V229.78ZM303.003 233.52V235.896H295.523V237.018C295.523 237.986 296.315 238.778 297.283 238.778H299.043C300.011 238.778 300.803 237.986 300.803 237.018V236.798H303.003V237.018C303.003 239.196 301.243 241 299.043 241H297.283C295.105 241 293.323 239.196 293.323 237.018V233.74C293.323 231.54 295.105 229.78 297.283 229.78H299.043C301.177 229.78 302.893 231.43 303.003 233.52ZM295.523 234.136H300.803V233.74C300.803 232.75 300.033 231.98 299.043 231.98H297.283C296.293 231.98 295.523 232.772 295.523 233.74V234.136ZM316.194 225.38V241H313.994V239.768L312.168 241H310.474C308.296 241 306.514 239.218 306.514 237.04V233.74C306.514 231.54 308.296 229.78 310.474 229.78H312.168L313.994 231.012V225.38H316.194ZM308.714 237.04C308.714 238.008 309.506 238.8 310.474 238.8H311.486L313.994 237.106V233.674L311.486 231.98H310.474C309.506 231.98 308.714 232.772 308.714 233.74V237.04ZM321.905 241H319.705V235.94L323.445 225.6H325.645L329.385 235.94V241H327.185V237.436H321.905V241ZM322.301 235.236H326.789L324.567 229.076H324.523L322.301 235.236ZM340.377 233.74C340.377 232.75 339.607 231.98 338.617 231.98H336.857C335.867 231.98 335.097 232.772 335.097 233.74V237.018C335.097 237.986 335.889 238.778 336.857 238.778H338.617C339.585 238.778 340.377 237.986 340.377 237.018V236.798H342.577V237.018C342.577 239.196 340.817 241 338.617 241H336.857C334.679 241 332.897 239.196 332.897 237.018V233.74C332.897 231.54 334.679 229.78 336.857 229.78H338.617C340.817 229.78 342.577 231.54 342.577 233.74V233.96H340.377V233.74ZM353.458 241C351.258 241 349.498 239.24 349.498 237.04V231.98H346.088V229.78H349.498V226.92H351.698V229.78H355.768V231.98H351.698V237.04C351.698 238.03 352.468 238.8 353.458 238.8H355.768V241H353.458ZM365.11 238.8H368.96V241H359.28V238.8H362.91V231.98H359.28V229.78H365.11V238.8ZM362.69 227.8V225.6H365.11V227.8H362.69ZM378.191 238.8C379.181 238.8 379.951 238.052 379.951 237.062V233.74C379.951 232.75 379.181 231.98 378.191 231.98H376.431C375.441 231.98 374.671 232.75 374.671 233.74V237.062C374.671 238.052 375.441 238.778 376.431 238.8H378.191ZM372.471 237.062V233.74C372.471 231.54 374.231 229.78 376.431 229.78H378.191C380.391 229.78 382.151 231.54 382.151 233.74V237.062C382.151 239.262 380.391 241 378.191 241H376.431C374.231 241 372.471 239.262 372.471 237.062ZM385.662 229.78H387.862V231.012L389.688 229.78H391.382C393.56 229.78 395.342 231.54 395.342 233.74V241H393.142V233.74C393.142 232.772 392.35 231.98 391.382 231.98H390.37L387.862 233.674V241H385.662V229.78ZM398.854 236.028H401.054V236.908C401.054 237.942 401.912 238.8 402.946 238.8H404.42C405.542 238.8 406.334 238.096 406.334 237.128C406.334 234.092 399.074 233.432 399.074 229.252C399.074 227.096 400.768 225.6 403.166 225.6H404.2C406.466 225.6 408.314 227.426 408.314 229.692V230.352H406.114V229.692C406.114 228.636 405.256 227.8 404.2 227.8H403.166C401.978 227.8 401.274 228.35 401.274 229.252C401.274 231.584 408.534 232.486 408.534 237.128C408.534 239.328 406.752 241 404.42 241H402.946C400.68 241 398.854 239.174 398.854 236.908V236.028ZM415.917 245.62H413.563L415.587 240.12L412.045 229.78H414.377L416.775 236.842L419.371 229.78H421.725L415.917 245.62ZM425.237 237.304H427.437V237.744C427.437 238.36 428.009 238.8 428.955 238.8H431.177C432.211 238.8 432.717 238.448 432.717 237.898C432.717 235.412 425.391 237.018 425.391 232.75C425.391 230.968 426.821 229.78 428.911 229.78H431.023C433.003 229.78 434.543 231.21 434.543 233.058V233.256H432.343V233.058C432.343 232.442 431.793 231.98 431.023 231.98H428.911C427.987 231.98 427.591 232.288 427.591 232.75C427.591 234.532 434.917 233.41 434.917 237.898C434.917 239.746 433.399 241 431.177 241H428.955C426.821 241 425.237 239.614 425.237 237.744V237.304ZM445.798 241C443.598 241 441.838 239.24 441.838 237.04V231.98H438.428V229.78H441.838V226.92H444.038V229.78H448.108V231.98H444.038V237.04C444.038 238.03 444.808 238.8 445.798 238.8H448.108V241H445.798ZM461.299 233.52V235.896H453.819V237.018C453.819 237.986 454.611 238.778 455.579 238.778H457.339C458.307 238.778 459.099 237.986 459.099 237.018V236.798H461.299V237.018C461.299 239.196 459.539 241 457.339 241H455.579C453.401 241 451.619 239.196 451.619 237.018V233.74C451.619 231.54 453.401 229.78 455.579 229.78H457.339C459.473 229.78 461.189 231.43 461.299 233.52ZM453.819 234.136H459.099V233.74C459.099 232.75 458.329 231.98 457.339 231.98H455.579C454.589 231.98 453.819 232.772 453.819 233.74V234.136ZM464.371 229.78H466.571V231.056L467.891 229.78H468.067C469.233 229.78 470.047 230.286 470.465 231.342L472.071 229.78H472.247C473.985 229.78 474.931 230.88 474.931 233.3V241H472.731V233.3C472.731 232.882 472.731 232.53 472.687 232.288L470.751 234.136V241H468.551V233.3C468.551 232.882 468.551 232.53 468.507 232.288L466.571 234.136V241H464.371V229.78ZM467.825 231.628H467.957H467.825ZM472.005 231.628H472.137H472.005ZM481.962 243.222H479.762V241H481.962C482.93 241 483.722 240.208 483.722 239.24V227.36C483.722 226.392 482.952 225.6 481.962 225.6H479.762V223.4H481.962C484.14 223.4 485.922 225.16 485.922 227.36V239.24C485.922 241.418 484.14 243.222 481.962 243.222ZM494.89 243.42H493.922L495.506 238.8H497.706L497.178 240.406L494.89 243.42ZM112.273 264.8H114.693V267H112.273V264.8ZM125.464 264.8H127.884V267H125.464V264.8ZM138.656 264.8H141.076V267H138.656V264.8ZM86.22 295.222H84.02V293H86.22C87.188 293 87.98 292.208 87.98 291.24V279.36C87.98 278.392 87.21 277.6 86.22 277.6H84.02V275.4H86.22C88.398 275.4 90.18 277.16 90.18 279.36V291.24C90.18 293.418 88.398 295.222 86.22 295.222Z" fill="white"/>
<rect width="502" height="66" transform="translate(41 347)" fill="black" fill-opacity="0.1"/>
<path d="M70.24 381.74C70.24 380.75 69.47 379.98 68.48 379.98H66.72C65.73 379.98 64.96 380.772 64.96 381.74V385.018C64.96 385.986 65.752 386.778 66.72 386.778H68.48C69.448 386.778 70.24 385.986 70.24 385.018V384.798H72.44V385.018C72.44 387.196 70.68 389 68.48 389H66.72C64.542 389 62.76 387.196 62.76 385.018V381.74C62.76 379.54 64.542 377.78 66.72 377.78H68.48C70.68 377.78 72.44 379.54 72.44 381.74V381.96H70.24V381.74ZM85.6314 377.78V389H83.4314V387.768L81.6054 389H79.9114C77.7334 389 75.9514 387.218 75.9514 385.04V381.74C75.9514 379.54 77.7334 377.78 79.9114 377.78H81.6054L83.4314 379.012V377.78H85.6314ZM78.1514 385.04C78.1514 386.008 78.9434 386.8 79.9114 386.8H80.9234L83.4314 385.106V381.674L80.9234 379.98H79.9114C78.9434 379.98 78.1514 380.772 78.1514 381.74V385.04ZM94.9728 386.8H98.8228V389H89.1428V386.8H92.7728V375.58H89.1428V373.38H94.9728V386.8ZM108.164 386.8H112.014V389H102.334V386.8H105.964V375.58H102.334V373.38H108.164V386.8ZM125.206 373.6V375.8H117.726V380.486H124.326V382.686H117.726V389H115.526V373.6H125.206ZM128.717 377.78H130.917V379.54L133.535 377.78H134.437C136.615 377.78 138.397 379.54 138.397 381.74V382.62H136.197V381.74C136.197 380.772 135.405 379.98 134.437 379.98H134.217L130.917 382.202V389H128.717V377.78ZM147.628 386.8C148.618 386.8 149.388 386.052 149.388 385.062V381.74C149.388 380.75 148.618 379.98 147.628 379.98H145.868C144.878 379.98 144.108 380.75 144.108 381.74V385.062C144.108 386.052 144.878 386.778 145.868 386.8H147.628ZM141.908 385.062V381.74C141.908 379.54 143.668 377.78 145.868 377.78H147.628C149.828 377.78 151.588 379.54 151.588 381.74V385.062C151.588 387.262 149.828 389 147.628 389H145.868C143.668 389 141.908 387.262 141.908 385.062ZM154.66 377.78H156.86V379.056L158.18 377.78H158.356C159.522 377.78 160.336 378.286 160.754 379.342L162.36 377.78H162.536C164.274 377.78 165.22 378.88 165.22 381.3V389H163.02V381.3C163.02 380.882 163.02 380.53 162.976 380.288L161.04 382.136V389H158.84V381.3C158.84 380.882 158.84 380.53 158.796 380.288L156.86 382.136V389H154.66V377.78ZM158.114 379.628H158.246H158.114ZM162.294 379.628H162.426H162.294ZM174.011 391.222C171.833 391.222 170.051 389.418 170.051 387.24V375.36C170.051 373.16 171.833 371.4 174.011 371.4H176.211V373.6H174.011C173.021 373.6 172.251 374.392 172.251 375.36V387.24C172.251 388.208 173.043 389 174.011 389H176.211V391.222H174.011ZM191.163 389H188.963V387.768L187.137 389H185.443C183.265 389 181.483 387.24 181.483 385.04V377.78H183.683V385.04C183.683 386.008 184.475 386.8 185.443 386.8H186.455L188.963 385.106V377.78H191.163V389ZM194.674 385.304H196.874V385.744C196.874 386.36 197.446 386.8 198.392 386.8H200.614C201.648 386.8 202.154 386.448 202.154 385.898C202.154 383.412 194.828 385.018 194.828 380.75C194.828 378.968 196.258 377.78 198.348 377.78H200.46C202.44 377.78 203.98 379.21 203.98 381.058V381.256H201.78V381.058C201.78 380.442 201.23 379.98 200.46 379.98H198.348C197.424 379.98 197.028 380.288 197.028 380.75C197.028 382.532 204.354 381.41 204.354 385.898C204.354 387.746 202.836 389 200.614 389H198.392C196.258 389 194.674 387.614 194.674 385.744V385.304ZM217.545 381.52V383.896H210.065V385.018C210.065 385.986 210.857 386.778 211.825 386.778H213.585C214.553 386.778 215.345 385.986 215.345 385.018V384.798H217.545V385.018C217.545 387.196 215.785 389 213.585 389H211.825C209.647 389 207.865 387.196 207.865 385.018V381.74C207.865 379.54 209.647 377.78 211.825 377.78H213.585C215.719 377.78 217.435 379.43 217.545 381.52ZM210.065 382.136H215.345V381.74C215.345 380.75 214.575 379.98 213.585 379.98H211.825C210.835 379.98 210.065 380.772 210.065 381.74V382.136ZM221.057 377.78H223.257V379.54L225.875 377.78H226.777C228.955 377.78 230.737 379.54 230.737 381.74V382.62H228.537V381.74C228.537 380.772 227.745 379.98 226.777 379.98H226.557L223.257 382.202V389H221.057V377.78ZM237.944 391.42H236.976L238.56 386.8H240.76L240.232 388.406L237.944 391.42ZM263.777 372.456L266.857 375.8H264.305L260.785 372.456H263.777ZM283.503 373.6V375.8H276.023V379.826H282.623V382.026H276.023V386.8H283.503V389H273.823V373.6H283.503ZM287.014 377.78H289.214V379.012L291.04 377.78H292.734C294.912 377.78 296.694 379.54 296.694 381.74V389H294.494V381.74C294.494 380.772 293.702 379.98 292.734 379.98H291.722L289.214 381.674V389H287.014V377.78ZM309.885 381.52V383.896H302.405V385.018C302.405 385.986 303.197 386.778 304.165 386.778H305.925C306.893 386.778 307.685 385.986 307.685 385.018V384.798H309.885V385.018C309.885 387.196 308.125 389 305.925 389H304.165C301.987 389 300.205 387.196 300.205 385.018V381.74C300.205 379.54 301.987 377.78 304.165 377.78H305.925C308.059 377.78 309.775 379.43 309.885 381.52ZM302.405 382.136H307.685V381.74C307.685 380.75 306.915 379.98 305.925 379.98H304.165C303.175 379.98 302.405 380.772 302.405 381.74V382.136ZM313.397 377.78H315.597V379.54L318.215 377.78H319.117C321.295 377.78 323.077 379.54 323.077 381.74V382.62H320.877V381.74C320.877 380.772 320.085 379.98 319.117 379.98H318.897L315.597 382.202V389H313.397V377.78ZM336.268 389.638C336.268 391.816 334.508 393.62 332.308 393.62H330.548C328.37 393.62 326.588 391.816 326.588 389.638H328.788C328.788 390.606 329.58 391.398 330.548 391.398H332.308C333.276 391.398 334.068 390.606 334.068 389.638V387.768L332.242 389H330.548C328.37 389 326.588 387.218 326.588 385.04V381.74C326.588 379.54 328.37 377.78 330.548 377.78H332.242L334.068 379.012V377.78H336.268V389.638ZM328.788 385.04C328.788 386.008 329.58 386.8 330.548 386.8H331.56L334.068 385.106V381.674L331.56 379.98H330.548C329.58 379.98 328.788 380.772 328.788 381.74V385.04ZM343.652 393.62H341.298L343.322 388.12L339.78 377.78H342.112L344.51 384.842L347.106 377.78H349.46L343.652 393.62ZM352.971 384.028H355.171V384.908C355.171 385.942 356.029 386.8 357.063 386.8H358.537C359.659 386.8 360.451 386.096 360.451 385.128C360.451 382.092 353.191 381.432 353.191 377.252C353.191 375.096 354.885 373.6 357.283 373.6H358.317C360.583 373.6 362.431 375.426 362.431 377.692V378.352H360.231V377.692C360.231 376.636 359.373 375.8 358.317 375.8H357.283C356.095 375.8 355.391 376.35 355.391 377.252C355.391 379.584 362.651 380.486 362.651 385.128C362.651 387.328 360.869 389 358.537 389H357.063C354.797 389 352.971 387.174 352.971 384.908V384.028ZM370.034 393.62H367.68L369.704 388.12L366.162 377.78H368.494L370.892 384.842L373.488 377.78H375.842L370.034 393.62ZM379.354 385.304H381.554V385.744C381.554 386.36 382.126 386.8 383.072 386.8H385.294C386.328 386.8 386.834 386.448 386.834 385.898C386.834 383.412 379.508 385.018 379.508 380.75C379.508 378.968 380.938 377.78 383.028 377.78H385.14C387.12 377.78 388.66 379.21 388.66 381.058V381.256H386.46V381.058C386.46 380.442 385.91 379.98 385.14 379.98H383.028C382.104 379.98 381.708 380.288 381.708 380.75C381.708 382.532 389.034 381.41 389.034 385.898C389.034 387.746 387.516 389 385.294 389H383.072C380.938 389 379.354 387.614 379.354 385.744V385.304ZM399.915 389C397.715 389 395.955 387.24 395.955 385.04V379.98H392.545V377.78H395.955V374.92H398.155V377.78H402.225V379.98H398.155V385.04C398.155 386.03 398.925 386.8 399.915 386.8H402.225V389H399.915ZM415.417 381.52V383.896H407.937V385.018C407.937 385.986 408.729 386.778 409.697 386.778H411.457C412.425 386.778 413.217 385.986 413.217 385.018V384.798H415.417V385.018C415.417 387.196 413.657 389 411.457 389H409.697C407.519 389 405.737 387.196 405.737 385.018V381.74C405.737 379.54 407.519 377.78 409.697 377.78H411.457C413.591 377.78 415.307 379.43 415.417 381.52ZM407.937 382.136H413.217V381.74C413.217 380.75 412.447 379.98 411.457 379.98H409.697C408.707 379.98 407.937 380.772 407.937 381.74V382.136ZM418.488 377.78H420.688V379.056L422.008 377.78H422.184C423.35 377.78 424.164 378.286 424.582 379.342L426.188 377.78H426.364C428.102 377.78 429.048 378.88 429.048 381.3V389H426.848V381.3C426.848 380.882 426.848 380.53 426.804 380.288L424.868 382.136V389H422.668V381.3C422.668 380.882 422.668 380.53 422.624 380.288L420.688 382.136V389H418.488V377.78ZM421.942 379.628H422.074H421.942ZM426.122 379.628H426.254H426.122ZM435.265 372.456L438.345 375.8H435.793L432.273 372.456H435.265ZM449.007 391.42H448.039L449.623 386.8H451.823L451.295 388.406L449.007 391.42ZM481.374 381.52V383.896H473.894V385.018C473.894 385.986 474.686 386.778 475.654 386.778H477.414C478.382 386.778 479.174 385.986 479.174 385.018V384.798H481.374V385.018C481.374 387.196 479.614 389 477.414 389H475.654C473.476 389 471.694 387.196 471.694 385.018V381.74C471.694 379.54 473.476 377.78 475.654 377.78H477.414C479.548 377.78 481.264 379.43 481.374 381.52ZM473.894 382.136H479.174V381.74C479.174 380.75 478.404 379.98 477.414 379.98H475.654C474.664 379.98 473.894 380.772 473.894 381.74V382.136ZM494.565 377.78V389H492.365V387.768L490.539 389H488.845C486.667 389 484.885 387.218 484.885 385.04V381.74C484.885 379.54 486.667 377.78 488.845 377.78H490.539L492.365 379.012V377.78H494.565ZM487.085 385.04C487.085 386.008 487.877 386.8 488.845 386.8H489.857L492.365 385.106V381.674L489.857 379.98H488.845C487.877 379.98 487.085 380.772 487.085 381.74V385.04ZM505.446 389C503.246 389 501.486 387.24 501.486 385.04V379.98H498.076V377.78H501.486V374.92H503.686V377.78H507.756V379.98H503.686V385.04C503.686 386.03 504.456 386.8 505.446 386.8H507.756V389H505.446ZM515.228 391.222H513.028V389H515.228C516.196 389 516.988 388.208 516.988 387.24V375.36C516.988 374.392 516.218 373.6 515.228 373.6H513.028V371.4H515.228C517.406 371.4 519.188 373.16 519.188 375.36V387.24C519.188 389.418 517.406 391.222 515.228 391.222Z" fill="white"/>
</svg>
