<svg width="1000" height="501" viewBox="0 0 1000 501" fill="none" xmlns="http://www.w3.org/2000/svg">
<g clip-path="url(#clip0_2_328)">
<rect width="1000" height="501" fill="#F46700"/>
<rect width="1000" height="501" fill="white" fill-opacity="0.2"/>
<path d="M40.502 35.56L41.712 42.49L42.24 36V31.6H44.44V36.66L43.12 47H41.36L39.6 40.422L37.84 47H36.08L34.76 36.66V31.6H36.96V36L37.488 42.49L38.698 35.56H40.502ZM53.6714 44.778C54.6394 44.778 55.4314 43.986 55.4314 43.018V35.56C55.4314 34.57 54.6614 33.8 53.6714 33.8H51.9114C50.9214 33.8 50.1514 34.592 50.1514 35.56V43.018C50.1514 43.986 50.9434 44.778 51.9114 44.778H53.6714ZM47.9514 43.018V35.56C47.9514 33.36 49.7334 31.6 51.9114 31.6H53.6714C55.8714 31.6 57.6314 33.36 57.6314 35.56V43.018C57.6314 45.196 55.8714 47 53.6714 47H51.9114C49.7334 47 47.9514 45.196 47.9514 43.018ZM70.8228 47H68.4028L65.6088 40.84H63.3428V47H61.1428V31.6H66.8628C69.0628 31.6 70.8228 33.36 70.8228 35.56V36.88C70.8228 38.706 69.6128 40.224 67.9408 40.686L70.8228 47ZM63.3428 38.64H66.8628C67.8528 38.64 68.6228 37.87 68.6228 36.88V35.56C68.6228 34.57 67.8528 33.8 66.8628 33.8H63.3428V38.64ZM76.5342 31.6V44.8H84.0142V47H74.3342V31.6H76.5342ZM93.2456 31.6C95.4236 31.6 97.2056 33.36 97.2056 35.56V43.018C97.2056 45.196 95.4236 47 93.2456 47H87.5256V31.6H93.2456ZM89.7256 44.778H93.2456C94.2136 44.778 95.0056 43.986 95.0056 43.018V35.56C95.0056 34.592 94.2356 33.8 93.2456 33.8H89.7256V44.778Z" fill="white"/>
<rect x="33" y="70" width="461" height="124" fill="white" fill-opacity="0.15"/>
<rect x="648" y="68" width="327" height="199" fill="white" fill-opacity="0.15"/>
<rect x="648" y="283" width="327" height="195" fill="white" fill-opacity="0.15"/>
<rect x="33" y="212" width="461" height="124" fill="white" fill-opacity="0.15"/>
<rect x="33" y="354" width="461" height="124" fill="white" fill-opacity="0.15"/>
<rect x="57" y="129" width="413" height="44" fill="white"/>
<rect x="57" y="271" width="259" height="44" fill="white"/>
<rect x="352" y="225" width="119" height="44" fill="white" fill-opacity="0.2"/>
<rect x="673" y="133" width="278" height="113" fill="white" fill-opacity="0.2"/>
<rect x="673" y="341" width="278" height="113" fill="white" fill-opacity="0.2"/>
<rect x="352" y="279" width="119" height="44" fill="white" fill-opacity="0.2"/>
<rect x="57" y="413" width="413" height="44" fill="white"/>
<path d="M256.4 152.2V154.36H249.6V155.38C249.6 156.26 250.32 156.98 251.2 156.98H252.8C253.68 156.98 254.4 156.26 254.4 155.38V155.18H256.4V155.38C256.4 157.36 254.8 159 252.8 159H251.2C249.22 159 247.6 157.36 247.6 155.38V152.4C247.6 150.4 249.22 148.8 251.2 148.8H252.8C254.74 148.8 256.3 150.3 256.4 152.2ZM249.6 152.76H254.4V152.4C254.4 151.5 253.7 150.8 252.8 150.8H251.2C250.3 150.8 249.6 151.52 249.6 152.4V152.76ZM268.392 148.8V159H266.392V157.88L264.732 159H263.192C261.212 159 259.592 157.38 259.592 155.4V152.4C259.592 150.4 261.212 148.8 263.192 148.8H264.732L266.392 149.92V148.8H268.392ZM261.592 155.4C261.592 156.28 262.312 157 263.192 157H264.112L266.392 155.46V152.34L264.112 150.8H263.192C262.312 150.8 261.592 151.52 261.592 152.4V155.4ZM278.284 159C276.284 159 274.684 157.4 274.684 155.4V150.8H271.584V148.8H274.684V146.2H276.684V148.8H280.384V150.8H276.684V155.4C276.684 156.3 277.384 157 278.284 157H280.384V159H278.284Z" fill="#F46700"/>
<path d="M137.4 294.2V296.36H130.6V297.38C130.6 298.26 131.32 298.98 132.2 298.98H133.8C134.68 298.98 135.4 298.26 135.4 297.38V297.18H137.4V297.38C137.4 299.36 135.8 301 133.8 301H132.2C130.22 301 128.6 299.36 128.6 297.38V294.4C128.6 292.4 130.22 290.8 132.2 290.8H133.8C135.74 290.8 137.3 292.3 137.4 294.2ZM130.6 294.76H135.4V294.4C135.4 293.5 134.7 292.8 133.8 292.8H132.2C131.3 292.8 130.6 293.52 130.6 294.4V294.76ZM149.392 290.8V301H147.392V299.88L145.732 301H144.192C142.212 301 140.592 299.38 140.592 297.4V294.4C140.592 292.4 142.212 290.8 144.192 290.8H145.732L147.392 291.92V290.8H149.392ZM142.592 297.4C142.592 298.28 143.312 299 144.192 299H145.112L147.392 297.46V294.34L145.112 292.8H144.192C143.312 292.8 142.592 293.52 142.592 294.4V297.4ZM159.284 301C157.284 301 155.684 299.4 155.684 297.4V292.8H152.584V290.8H155.684V288.2H157.684V290.8H161.384V292.8H157.684V297.4C157.684 298.3 158.384 299 159.284 299H161.384V301H159.284ZM166.577 301H164.577V296.4L167.977 287H169.977L173.377 296.4V301H171.377V297.76H166.577V301ZM166.937 295.76H171.017L168.997 290.16H168.957L166.937 295.76ZM176.569 290.8H178.569V291.92L180.229 290.8H181.769C183.749 290.8 185.369 292.4 185.369 294.4V301H183.369V294.4C183.369 293.52 182.649 292.8 181.769 292.8H180.849L178.569 294.34V301H176.569V290.8ZM197.361 286.8V301H195.361V299.88L193.701 301H192.161C190.181 301 188.561 299.38 188.561 297.4V294.4C188.561 292.4 190.181 290.8 192.161 290.8H193.701L195.361 291.92V286.8H197.361ZM190.561 297.4C190.561 298.28 191.281 299 192.161 299H193.081L195.361 297.46V294.34L193.081 292.8H192.161C191.281 292.8 190.561 293.52 190.561 294.4V297.4ZM204.413 295.36L202.553 291.4V301H200.553V287H202.553L204.953 292.22L207.353 287H209.353V301H207.353V291.4L205.493 295.36H204.413ZM217.745 299C218.645 299 219.345 298.32 219.345 297.42V294.4C219.345 293.5 218.645 292.8 217.745 292.8H216.145C215.245 292.8 214.545 293.5 214.545 294.4V297.42C214.545 298.32 215.245 298.98 216.145 299H217.745ZM212.545 297.42V294.4C212.545 292.4 214.145 290.8 216.145 290.8H217.745C219.745 290.8 221.345 292.4 221.345 294.4V297.42C221.345 299.42 219.745 301 217.745 301H216.145C214.145 301 212.545 299.42 212.545 297.42ZM231.338 290.8H233.338V295.4L229.938 301H227.938L224.538 295.4V290.8H226.538V294.84L228.918 298.76H228.958L231.338 294.84V290.8ZM245.33 294.2V296.36H238.53V297.38C238.53 298.26 239.25 298.98 240.13 298.98H241.73C242.61 298.98 243.33 298.26 243.33 297.38V297.18H245.33V297.38C245.33 299.36 243.73 301 241.73 301H240.13C238.15 301 236.53 299.36 236.53 297.38V294.4C236.53 292.4 238.15 290.8 240.13 290.8H241.73C243.67 290.8 245.23 292.3 245.33 294.2ZM238.53 294.76H243.33V294.4C243.33 293.5 242.63 292.8 241.73 292.8H240.13C239.23 292.8 238.53 293.52 238.53 294.4V294.76Z" fill="#F46700"/>
<path d="M404.4 248.2V250.36H397.6V251.38C397.6 252.26 398.32 252.98 399.2 252.98H400.8C401.68 252.98 402.4 252.26 402.4 251.38V251.18H404.4V251.38C404.4 253.36 402.8 255 400.8 255H399.2C397.22 255 395.6 253.36 395.6 251.38V248.4C395.6 246.4 397.22 244.8 399.2 244.8H400.8C402.74 244.8 404.3 246.3 404.4 248.2ZM397.6 248.76H402.4V248.4C402.4 247.5 401.7 246.8 400.8 246.8H399.2C398.3 246.8 397.6 247.52 397.6 248.4V248.76ZM416.392 244.8V255H414.392V253.88L412.732 255H411.192C409.212 255 407.592 253.38 407.592 251.4V248.4C407.592 246.4 409.212 244.8 411.192 244.8H412.732L414.392 245.92V244.8H416.392ZM409.592 251.4C409.592 252.28 410.312 253 411.192 253H412.112L414.392 251.46V248.34L412.112 246.8H411.192C410.312 246.8 409.592 247.52 409.592 248.4V251.4ZM426.284 255C424.284 255 422.684 253.4 422.684 251.4V246.8H419.584V244.8H422.684V242.2H424.684V244.8H428.384V246.8H424.684V251.4C424.684 252.3 425.384 253 426.284 253H428.384V255H426.284Z" fill="white"/>
<path d="M802.52 191.16V193.968H793.68V195.294C793.68 196.438 794.616 197.374 795.76 197.374H797.84C798.984 197.374 799.92 196.438 799.92 195.294V195.034H802.52V195.294C802.52 197.868 800.44 200 797.84 200H795.76C793.186 200 791.08 197.868 791.08 195.294V191.42C791.08 188.82 793.186 186.74 795.76 186.74H797.84C800.362 186.74 802.39 188.69 802.52 191.16ZM793.68 191.888H799.92V191.42C799.92 190.25 799.01 189.34 797.84 189.34H795.76C794.59 189.34 793.68 190.276 793.68 191.42V191.888ZM818.11 186.74V200H815.51V198.544L813.352 200H811.35C808.776 200 806.67 197.894 806.67 195.32V191.42C806.67 188.82 808.776 186.74 811.35 186.74H813.352L815.51 188.196V186.74H818.11ZM809.27 195.32C809.27 196.464 810.206 197.4 811.35 197.4H812.546L815.51 195.398V191.342L812.546 189.34H811.35C810.206 189.34 809.27 190.276 809.27 191.42V195.32ZM830.97 200C828.37 200 826.29 197.92 826.29 195.32V189.34H822.26V186.74H826.29V183.36H828.89V186.74H833.7V189.34H828.89V195.32C828.89 196.49 829.8 197.4 830.97 197.4H833.7V200H830.97Z" fill="white"/>
<path d="M782.56 394.74H785.16V396.248L786.72 394.74H786.928C788.306 394.74 789.268 395.338 789.762 396.586L791.66 394.74H791.868C793.922 394.74 795.04 396.04 795.04 398.9V408H792.44V398.9C792.44 398.406 792.44 397.99 792.388 397.704L790.1 399.888V408H787.5V398.9C787.5 398.406 787.5 397.99 787.448 397.704L785.16 399.888V408H782.56V394.74ZM786.642 396.924H786.798H786.642ZM791.582 396.924H791.738H791.582ZM805.43 405.4C806.6 405.4 807.51 404.516 807.51 403.346V399.42C807.51 398.25 806.6 397.34 805.43 397.34H803.35C802.18 397.34 801.27 398.25 801.27 399.42V403.346C801.27 404.516 802.18 405.374 803.35 405.4H805.43ZM798.67 403.346V399.42C798.67 396.82 800.75 394.74 803.35 394.74H805.43C808.03 394.74 810.11 396.82 810.11 399.42V403.346C810.11 405.946 808.03 408 805.43 408H803.35C800.75 408 798.67 405.946 798.67 403.346ZM823.1 394.74H825.7V400.72L821.28 408H818.68L814.26 400.72V394.74H816.86V399.992L819.954 405.088H820.006L823.1 399.992V394.74ZM841.29 399.16V401.968H832.45V403.294C832.45 404.438 833.386 405.374 834.53 405.374H836.61C837.754 405.374 838.69 404.438 838.69 403.294V403.034H841.29V403.294C841.29 405.868 839.21 408 836.61 408H834.53C831.956 408 829.85 405.868 829.85 403.294V399.42C829.85 396.82 831.956 394.74 834.53 394.74H836.61C839.132 394.74 841.16 396.69 841.29 399.16ZM832.45 399.888H838.69V399.42C838.69 398.25 837.78 397.34 836.61 397.34H834.53C833.36 397.34 832.45 398.276 832.45 399.42V399.888Z" fill="white"/>
<path d="M389.2 298.8H391.2V299.96L392.4 298.8H392.56C393.62 298.8 394.36 299.26 394.74 300.22L396.2 298.8H396.36C397.94 298.8 398.8 299.8 398.8 302V309H396.8V302C396.8 301.62 396.8 301.3 396.76 301.08L395 302.76V309H393V302C393 301.62 393 301.3 392.96 301.08L391.2 302.76V309H389.2V298.8ZM392.34 300.48H392.46H392.34ZM396.14 300.48H396.26H396.14ZM406.792 307C407.692 307 408.392 306.32 408.392 305.42V302.4C408.392 301.5 407.692 300.8 406.792 300.8H405.192C404.292 300.8 403.592 301.5 403.592 302.4V305.42C403.592 306.32 404.292 306.98 405.192 307H406.792ZM401.592 305.42V302.4C401.592 300.4 403.192 298.8 405.192 298.8H406.792C408.792 298.8 410.392 300.4 410.392 302.4V305.42C410.392 307.42 408.792 309 406.792 309H405.192C403.192 309 401.592 307.42 401.592 305.42ZM420.384 298.8H422.384V303.4L418.984 309H416.984L413.584 303.4V298.8H415.584V302.84L417.964 306.76H418.004L420.384 302.84V298.8ZM434.377 302.2V304.36H427.577V305.38C427.577 306.26 428.297 306.98 429.177 306.98H430.777C431.657 306.98 432.377 306.26 432.377 305.38V305.18H434.377V305.38C434.377 307.36 432.777 309 430.777 309H429.177C427.197 309 425.577 307.36 425.577 305.38V302.4C425.577 300.4 427.197 298.8 429.177 298.8H430.777C432.717 298.8 434.277 300.3 434.377 302.2ZM427.577 302.76H432.377V302.4C432.377 301.5 431.677 300.8 430.777 300.8H429.177C428.277 300.8 427.577 301.52 427.577 302.4V302.76Z" fill="white"/>
<path d="M241.2 432.8H243.2V433.96L244.4 432.8H244.56C245.62 432.8 246.36 433.26 246.74 434.22L248.2 432.8H248.36C249.94 432.8 250.8 433.8 250.8 436V443H248.8V436C248.8 435.62 248.8 435.3 248.76 435.08L247 436.76V443H245V436C245 435.62 245 435.3 244.96 435.08L243.2 436.76V443H241.2V432.8ZM244.34 434.48H244.46H244.34ZM248.14 434.48H248.26H248.14ZM258.792 441C259.692 441 260.392 440.32 260.392 439.42V436.4C260.392 435.5 259.692 434.8 258.792 434.8H257.192C256.292 434.8 255.592 435.5 255.592 436.4V439.42C255.592 440.32 256.292 440.98 257.192 441H258.792ZM253.592 439.42V436.4C253.592 434.4 255.192 432.8 257.192 432.8H258.792C260.792 432.8 262.392 434.4 262.392 436.4V439.42C262.392 441.42 260.792 443 258.792 443H257.192C255.192 443 253.592 441.42 253.592 439.42ZM272.384 432.8H274.384V437.4L270.984 443H268.984L265.584 437.4V432.8H267.584V436.84L269.964 440.76H270.004L272.384 436.84V432.8ZM286.377 436.2V438.36H279.577V439.38C279.577 440.26 280.297 440.98 281.177 440.98H282.777C283.657 440.98 284.377 440.26 284.377 439.38V439.18H286.377V439.38C286.377 441.36 284.777 443 282.777 443H281.177C279.197 443 277.577 441.36 277.577 439.38V436.4C277.577 434.4 279.197 432.8 281.177 432.8H282.777C284.717 432.8 286.277 434.3 286.377 436.2ZM279.577 436.76H284.377V436.4C284.377 435.5 283.677 434.8 282.777 434.8H281.177C280.277 434.8 279.577 435.52 279.577 436.4V436.76Z" fill="#F46700"/>
<path d="M69.92 92.3V94.4H62.78V98.243H69.08V100.343H62.78V104.9H69.92V107H60.68V92.3H69.92ZM73.2718 96.29H75.3718V97.466L77.1148 96.29H78.7318C80.8108 96.29 82.5118 97.97 82.5118 100.07V107H80.4118V100.07C80.4118 99.146 79.6558 98.39 78.7318 98.39H77.7658L75.3718 100.007V107H73.2718V96.29ZM95.1036 99.86V102.128H87.9636V103.199C87.9636 104.123 88.7196 104.879 89.6436 104.879H91.3236C92.2476 104.879 93.0036 104.123 93.0036 103.199V102.989H95.1036V103.199C95.1036 105.278 93.4236 107 91.3236 107H89.6436C87.5646 107 85.8636 105.278 85.8636 103.199V100.07C85.8636 97.97 87.5646 96.29 89.6436 96.29H91.3236C93.3606 96.29 94.9986 97.865 95.1036 99.86ZM87.9636 100.448H93.0036V100.07C93.0036 99.125 92.2686 98.39 91.3236 98.39H89.6436C88.6986 98.39 87.9636 99.146 87.9636 100.07V100.448ZM98.4554 96.29H100.555V97.97L103.054 96.29H103.915C105.994 96.29 107.695 97.97 107.695 100.07V100.91H105.595V100.07C105.595 99.146 104.839 98.39 103.915 98.39H103.705L100.555 100.511V107H98.4554V96.29ZM120.287 107.609C120.287 109.688 118.607 111.41 116.507 111.41H114.827C112.748 111.41 111.047 109.688 111.047 107.609H113.147C113.147 108.533 113.903 109.289 114.827 109.289H116.507C117.431 109.289 118.187 108.533 118.187 107.609V105.824L116.444 107H114.827C112.748 107 111.047 105.299 111.047 103.22V100.07C111.047 97.97 112.748 96.29 114.827 96.29H116.444L118.187 97.466V96.29H120.287V107.609ZM113.147 103.22C113.147 104.144 113.903 104.9 114.827 104.9H115.793L118.187 103.283V100.007L115.793 98.39H114.827C113.903 98.39 113.147 99.146 113.147 100.07V103.22ZM127.335 111.41H125.088L127.02 106.16L123.639 96.29H125.865L128.154 103.031L130.632 96.29H132.879L127.335 111.41ZM136.231 102.254H138.331V103.094C138.331 104.081 139.15 104.9 140.137 104.9H141.544C142.615 104.9 143.371 104.228 143.371 103.304C143.371 100.406 136.441 99.776 136.441 95.786C136.441 93.728 138.058 92.3 140.347 92.3H141.334C143.497 92.3 145.261 94.043 145.261 96.206V96.836H143.161V96.206C143.161 95.198 142.342 94.4 141.334 94.4H140.347C139.213 94.4 138.541 94.925 138.541 95.786C138.541 98.012 145.471 98.873 145.471 103.304C145.471 105.404 143.77 107 141.544 107H140.137C137.974 107 136.231 105.257 136.231 103.094V102.254ZM152.519 111.41H150.272L152.204 106.16L148.823 96.29H151.049L153.338 103.031L155.816 96.29H158.063L152.519 111.41ZM161.414 103.472H163.514V103.892C163.514 104.48 164.06 104.9 164.963 104.9H167.084C168.071 104.9 168.554 104.564 168.554 104.039C168.554 101.666 161.561 103.199 161.561 99.125C161.561 97.424 162.926 96.29 164.921 96.29H166.937C168.827 96.29 170.297 97.655 170.297 99.419V99.608H168.197V99.419C168.197 98.831 167.672 98.39 166.937 98.39H164.921C164.039 98.39 163.661 98.684 163.661 99.125C163.661 100.826 170.654 99.755 170.654 104.039C170.654 105.803 169.205 107 167.084 107H164.963C162.926 107 161.414 105.677 161.414 103.892V103.472ZM181.041 107C178.941 107 177.261 105.32 177.261 103.22V98.39H174.006V96.29H177.261V93.56H179.361V96.29H183.246V98.39H179.361V103.22C179.361 104.165 180.096 104.9 181.041 104.9H183.246V107H181.041ZM195.838 99.86V102.128H188.698V103.199C188.698 104.123 189.454 104.879 190.378 104.879H192.058C192.982 104.879 193.738 104.123 193.738 103.199V102.989H195.838V103.199C195.838 105.278 194.158 107 192.058 107H190.378C188.299 107 186.598 105.278 186.598 103.199V100.07C186.598 97.97 188.299 96.29 190.378 96.29H192.058C194.095 96.29 195.733 97.865 195.838 99.86ZM188.698 100.448H193.738V100.07C193.738 99.125 193.003 98.39 192.058 98.39H190.378C189.433 98.39 188.698 99.146 188.698 100.07V100.448ZM198.77 96.29H200.87V97.508L202.13 96.29H202.298C203.411 96.29 204.188 96.773 204.587 97.781L206.12 96.29H206.288C207.947 96.29 208.85 97.34 208.85 99.65V107H206.75V99.65C206.75 99.251 206.75 98.915 206.708 98.684L204.86 100.448V107H202.76V99.65C202.76 99.251 202.76 98.915 202.718 98.684L200.87 100.448V107H198.77V96.29ZM202.067 98.054H202.193H202.067ZM206.057 98.054H206.183H206.057Z" fill="white"/>
<path d="M683.92 90.3V92.4H676.78V96.243H683.08V98.343H676.78V102.9H683.92V105H674.68V90.3H683.92ZM687.272 94.29H689.372V95.466L691.115 94.29H692.732C694.811 94.29 696.512 95.97 696.512 98.07V105H694.412V98.07C694.412 97.146 693.656 96.39 692.732 96.39H691.766L689.372 98.007V105H687.272V94.29ZM709.104 97.86V100.128H701.964V101.199C701.964 102.123 702.72 102.879 703.644 102.879H705.324C706.248 102.879 707.004 102.123 707.004 101.199V100.989H709.104V101.199C709.104 103.278 707.424 105 705.324 105H703.644C701.565 105 699.864 103.278 699.864 101.199V98.07C699.864 95.97 701.565 94.29 703.644 94.29H705.324C707.361 94.29 708.999 95.865 709.104 97.86ZM701.964 98.448H707.004V98.07C707.004 97.125 706.269 96.39 705.324 96.39H703.644C702.699 96.39 701.964 97.146 701.964 98.07V98.448ZM712.455 94.29H714.555V95.97L717.054 94.29H717.915C719.994 94.29 721.695 95.97 721.695 98.07V98.91H719.595V98.07C719.595 97.146 718.839 96.39 717.915 96.39H717.705L714.555 98.511V105H712.455V94.29ZM734.287 105.609C734.287 107.688 732.607 109.41 730.507 109.41H728.827C726.748 109.41 725.047 107.688 725.047 105.609H727.147C727.147 106.533 727.903 107.289 728.827 107.289H730.507C731.431 107.289 732.187 106.533 732.187 105.609V103.824L730.444 105H728.827C726.748 105 725.047 103.299 725.047 101.22V98.07C725.047 95.97 726.748 94.29 728.827 94.29H730.444L732.187 95.466V94.29H734.287V105.609ZM727.147 101.22C727.147 102.144 727.903 102.9 728.827 102.9H729.793L732.187 101.283V98.007L729.793 96.39H728.827C727.903 96.39 727.147 97.146 727.147 98.07V101.22ZM741.335 109.41H739.088L741.02 104.16L737.639 94.29H739.865L742.154 101.031L744.632 94.29H746.879L741.335 109.41ZM764.923 90.3V102.9H772.063V105H762.823V90.3H764.923ZM780.979 102.9H784.654V105H775.414V102.9H778.879V96.39H775.414V94.29H780.979V102.9ZM778.669 92.4V90.3H780.979V92.4H778.669ZM788.006 90.09H790.106V95.466L791.849 94.29H793.466C795.545 94.29 797.246 95.97 797.246 98.07V101.22C797.246 103.299 795.545 105 793.466 105H791.849L790.106 103.824V105H788.006V90.09ZM790.106 101.283L792.5 102.9H793.466C794.39 102.9 795.146 102.144 795.146 101.22V98.07C795.146 97.146 794.39 96.39 793.466 96.39H792.5L790.106 98.007V101.283ZM800.598 94.29H802.698V95.97L805.197 94.29H806.058C808.137 94.29 809.838 95.97 809.838 98.07V98.91H807.738V98.07C807.738 97.146 806.982 96.39 806.058 96.39H805.848L802.698 98.511V105H800.598V94.29ZM822.43 94.29V105H820.33V103.824L818.587 105H816.97C814.891 105 813.19 103.299 813.19 101.22V98.07C813.19 95.97 814.891 94.29 816.97 94.29H818.587L820.33 95.466V94.29H822.43ZM815.29 101.22C815.29 102.144 816.046 102.9 816.97 102.9H817.936L820.33 101.283V98.007L817.936 96.39H816.97C816.046 96.39 815.29 97.146 815.29 98.07V101.22ZM825.782 94.29H827.882V95.97L830.381 94.29H831.242C833.321 94.29 835.022 95.97 835.022 98.07V98.91H832.922V98.07C832.922 97.146 832.166 96.39 831.242 96.39H831.032L827.882 98.511V105H825.782V94.29ZM842.069 109.41H839.822L841.754 104.16L838.373 94.29H840.599L842.888 101.031L845.366 94.29H847.613L842.069 109.41Z" fill="white"/>
<path d="M678.733 316.078L676.78 311.92V322H674.68V307.3H676.78L679.3 312.781L681.82 307.3H683.92V322H681.82V311.92L679.867 316.078H678.733ZM692.732 319.9C693.677 319.9 694.412 319.186 694.412 318.241V315.07C694.412 314.125 693.677 313.39 692.732 313.39H691.052C690.107 313.39 689.372 314.125 689.372 315.07V318.241C689.372 319.186 690.107 319.879 691.052 319.9H692.732ZM687.272 318.241V315.07C687.272 312.97 688.952 311.29 691.052 311.29H692.732C694.832 311.29 696.512 312.97 696.512 315.07V318.241C696.512 320.341 694.832 322 692.732 322H691.052C688.952 322 687.272 320.341 687.272 318.241ZM707.004 311.29H709.104V316.12L705.534 322H703.434L699.864 316.12V311.29H701.964V315.532L704.463 319.648H704.505L707.004 315.532V311.29ZM721.695 314.86V317.128H714.555V318.199C714.555 319.123 715.311 319.879 716.235 319.879H717.915C718.839 319.879 719.595 319.123 719.595 318.199V317.989H721.695V318.199C721.695 320.278 720.015 322 717.915 322H716.235C714.156 322 712.455 320.278 712.455 318.199V315.07C712.455 312.97 714.156 311.29 716.235 311.29H717.915C719.952 311.29 721.59 312.865 721.695 314.86ZM714.555 315.448H719.595V315.07C719.595 314.125 718.86 313.39 717.915 313.39H716.235C715.29 313.39 714.555 314.146 714.555 315.07V315.448ZM739.739 307.3V319.9H746.879V322H737.639V307.3H739.739ZM755.796 319.9H759.471V322H750.231V319.9H753.696V313.39H750.231V311.29H755.796V319.9ZM753.486 309.4V307.3H755.796V309.4H753.486ZM762.823 307.09H764.923V312.466L766.666 311.29H768.283C770.362 311.29 772.063 312.97 772.063 315.07V318.22C772.063 320.299 770.362 322 768.283 322H766.666L764.923 320.824V322H762.823V307.09ZM764.923 318.283L767.317 319.9H768.283C769.207 319.9 769.963 319.144 769.963 318.22V315.07C769.963 314.146 769.207 313.39 768.283 313.39H767.317L764.923 315.007V318.283ZM775.414 311.29H777.514V312.97L780.013 311.29H780.874C782.953 311.29 784.654 312.97 784.654 315.07V315.91H782.554V315.07C782.554 314.146 781.798 313.39 780.874 313.39H780.664L777.514 315.511V322H775.414V311.29ZM797.246 311.29V322H795.146V320.824L793.403 322H791.786C789.707 322 788.006 320.299 788.006 318.22V315.07C788.006 312.97 789.707 311.29 791.786 311.29H793.403L795.146 312.466V311.29H797.246ZM790.106 318.22C790.106 319.144 790.862 319.9 791.786 319.9H792.752L795.146 318.283V315.007L792.752 313.39H791.786C790.862 313.39 790.106 314.146 790.106 315.07V318.22ZM800.598 311.29H802.698V312.97L805.197 311.29H806.058C808.137 311.29 809.838 312.97 809.838 315.07V315.91H807.738V315.07C807.738 314.146 806.982 313.39 806.058 313.39H805.848L802.698 315.511V322H800.598V311.29ZM816.886 326.41H814.639L816.571 321.16L813.19 311.29H815.416L817.705 318.031L820.183 311.29H822.43L816.886 326.41Z" fill="white"/>
<path d="M67.82 238.08C67.82 237.135 67.085 236.4 66.14 236.4H64.46C63.515 236.4 62.78 237.156 62.78 238.08V245.199C62.78 246.123 63.536 246.879 64.46 246.879H66.14C67.064 246.879 67.82 246.123 67.82 245.199V244.044H69.92V245.199C69.92 247.278 68.24 249 66.14 249H64.46C62.381 249 60.68 247.278 60.68 245.199V238.08C60.68 235.98 62.381 234.3 64.46 234.3H66.14C68.24 234.3 69.92 235.98 69.92 238.08V239.235H67.82V238.08ZM78.7318 246.9C79.6768 246.9 80.4118 246.186 80.4118 245.241V242.07C80.4118 241.125 79.6768 240.39 78.7318 240.39H77.0518C76.1068 240.39 75.3718 241.125 75.3718 242.07V245.241C75.3718 246.186 76.1068 246.879 77.0518 246.9H78.7318ZM73.2718 245.241V242.07C73.2718 239.97 74.9518 238.29 77.0518 238.29H78.7318C80.8318 238.29 82.5118 239.97 82.5118 242.07V245.241C82.5118 247.341 80.8318 249 78.7318 249H77.0518C74.9518 249 73.2718 247.341 73.2718 245.241ZM85.4436 238.29H87.5436V239.508L88.8036 238.29H88.9716C90.0846 238.29 90.8616 238.773 91.2606 239.781L92.7936 238.29H92.9616C94.6206 238.29 95.5236 239.34 95.5236 241.65V249H93.4236V241.65C93.4236 241.251 93.4236 240.915 93.3816 240.684L91.5336 242.448V249H89.4336V241.65C89.4336 241.251 89.4336 240.915 89.3916 240.684L87.5436 242.448V249H85.4436V238.29ZM88.7406 240.054H88.8666H88.7406ZM92.7306 240.054H92.8566H92.7306ZM98.4554 234.09H100.555V239.466L102.298 238.29H103.915C105.994 238.29 107.695 239.97 107.695 242.07V245.22C107.695 247.299 105.994 249 103.915 249H102.298L100.555 247.824V249H98.4554V234.09ZM100.555 245.283L102.949 246.9H103.915C104.839 246.9 105.595 246.144 105.595 245.22V242.07C105.595 241.146 104.839 240.39 103.915 240.39H102.949L100.555 242.007V245.283ZM116.612 246.9H120.287V249H111.047V246.9H114.512V240.39H111.047V238.29H116.612V246.9ZM114.302 236.4V234.3H116.612V236.4H114.302ZM123.639 238.29H125.739V239.466L127.482 238.29H129.099C131.178 238.29 132.879 239.97 132.879 242.07V249H130.779V242.07C130.779 241.146 130.023 240.39 129.099 240.39H128.133L125.739 242.007V249H123.639V238.29ZM145.471 241.86V244.128H138.331V245.199C138.331 246.123 139.087 246.879 140.011 246.879H141.691C142.615 246.879 143.371 246.123 143.371 245.199V244.989H145.471V245.199C145.471 247.278 143.791 249 141.691 249H140.011C137.932 249 136.231 247.278 136.231 245.199V242.07C136.231 239.97 137.932 238.29 140.011 238.29H141.691C143.728 238.29 145.366 239.865 145.471 241.86ZM138.331 242.448H143.371V242.07C143.371 241.125 142.636 240.39 141.691 240.39H140.011C139.066 240.39 138.331 241.146 138.331 242.07V242.448ZM158.063 234.09V249H155.963V247.824L154.22 249H152.603C150.524 249 148.823 247.299 148.823 245.22V242.07C148.823 239.97 150.524 238.29 152.603 238.29H154.22L155.963 239.466V234.09H158.063ZM150.923 245.22C150.923 246.144 151.679 246.9 152.603 246.9H153.569L155.963 245.283V242.007L153.569 240.39H152.603C151.679 240.39 150.923 241.146 150.923 242.07V245.22ZM163.514 249H161.414V244.17L164.984 234.3H167.084L170.654 244.17V249H168.554V245.598H163.514V249ZM163.892 243.498H168.176L166.055 237.618H166.013L163.892 243.498ZM181.146 242.07C181.146 241.125 180.411 240.39 179.466 240.39H177.786C176.841 240.39 176.106 241.146 176.106 242.07V245.199C176.106 246.123 176.862 246.879 177.786 246.879H179.466C180.39 246.879 181.146 246.123 181.146 245.199V244.989H183.246V245.199C183.246 247.278 181.566 249 179.466 249H177.786C175.707 249 174.006 247.278 174.006 245.199V242.07C174.006 239.97 175.707 238.29 177.786 238.29H179.466C181.566 238.29 183.246 239.97 183.246 242.07V242.28H181.146V242.07ZM193.633 249C191.533 249 189.853 247.32 189.853 245.22V240.39H186.598V238.29H189.853V235.56H191.953V238.29H195.838V240.39H191.953V245.22C191.953 246.165 192.688 246.9 193.633 246.9H195.838V249H193.633ZM204.755 246.9H208.43V249H199.19V246.9H202.655V240.39H199.19V238.29H204.755V246.9ZM202.445 236.4V234.3H204.755V236.4H202.445ZM217.242 246.9C218.187 246.9 218.922 246.186 218.922 245.241V242.07C218.922 241.125 218.187 240.39 217.242 240.39H215.562C214.617 240.39 213.882 241.125 213.882 242.07V245.241C213.882 246.186 214.617 246.879 215.562 246.9H217.242ZM211.782 245.241V242.07C211.782 239.97 213.462 238.29 215.562 238.29H217.242C219.342 238.29 221.022 239.97 221.022 242.07V245.241C221.022 247.341 219.342 249 217.242 249H215.562C213.462 249 211.782 247.341 211.782 245.241ZM224.373 238.29H226.473V239.466L228.216 238.29H229.833C231.912 238.29 233.613 239.97 233.613 242.07V249H231.513V242.07C231.513 241.146 230.757 240.39 229.833 240.39H228.867L226.473 242.007V249H224.373V238.29ZM236.965 244.254H239.065V245.094C239.065 246.081 239.884 246.9 240.871 246.9H242.278C243.349 246.9 244.105 246.228 244.105 245.304C244.105 242.406 237.175 241.776 237.175 237.786C237.175 235.728 238.792 234.3 241.081 234.3H242.068C244.231 234.3 245.995 236.043 245.995 238.206V238.836H243.895V238.206C243.895 237.198 243.076 236.4 242.068 236.4H241.081C239.947 236.4 239.275 236.925 239.275 237.786C239.275 240.012 246.205 240.873 246.205 245.304C246.205 247.404 244.504 249 242.278 249H240.871C238.708 249 236.965 247.257 236.965 245.094V244.254ZM253.253 253.41H251.006L252.938 248.16L249.557 238.29H251.783L254.072 245.031L256.55 238.29H258.797L253.253 253.41ZM262.149 245.472H264.249V245.892C264.249 246.48 264.795 246.9 265.698 246.9H267.819C268.806 246.9 269.289 246.564 269.289 246.039C269.289 243.666 262.296 245.199 262.296 241.125C262.296 239.424 263.661 238.29 265.656 238.29H267.672C269.562 238.29 271.032 239.655 271.032 241.419V241.608H268.932V241.419C268.932 240.831 268.407 240.39 267.672 240.39H265.656C264.774 240.39 264.396 240.684 264.396 241.125C264.396 242.826 271.389 241.755 271.389 246.039C271.389 247.803 269.94 249 267.819 249H265.698C263.661 249 262.149 247.677 262.149 245.892V245.472ZM281.776 249C279.676 249 277.996 247.32 277.996 245.22V240.39H274.741V238.29H277.996V235.56H280.096V238.29H283.981V240.39H280.096V245.22C280.096 246.165 280.831 246.9 281.776 246.9H283.981V249H281.776ZM296.572 241.86V244.128H289.432V245.199C289.432 246.123 290.188 246.879 291.112 246.879H292.792C293.716 246.879 294.472 246.123 294.472 245.199V244.989H296.572V245.199C296.572 247.278 294.892 249 292.792 249H291.112C289.033 249 287.332 247.278 287.332 245.199V242.07C287.332 239.97 289.033 238.29 291.112 238.29H292.792C294.829 238.29 296.467 239.865 296.572 241.86ZM289.432 242.448H294.472V242.07C294.472 241.125 293.737 240.39 292.792 240.39H291.112C290.167 240.39 289.432 241.146 289.432 242.07V242.448ZM299.504 238.29H301.604V239.508L302.864 238.29H303.032C304.145 238.29 304.922 238.773 305.321 239.781L306.854 238.29H307.022C308.681 238.29 309.584 239.34 309.584 241.65V249H307.484V241.65C307.484 241.251 307.484 240.915 307.442 240.684L305.594 242.448V249H303.494V241.65C303.494 241.251 303.494 240.915 303.452 240.684L301.604 242.448V249H299.504V238.29ZM302.801 240.054H302.927H302.801ZM306.791 240.054H306.917H306.791Z" fill="white"/>
<path d="M62.78 376.3V388.9H69.92V391H60.68V376.3H62.78ZM78.7318 388.9C79.6768 388.9 80.4118 388.186 80.4118 387.241V384.07C80.4118 383.125 79.6768 382.39 78.7318 382.39H77.0518C76.1068 382.39 75.3718 383.125 75.3718 384.07V387.241C75.3718 388.186 76.1068 388.879 77.0518 388.9H78.7318ZM73.2718 387.241V384.07C73.2718 381.97 74.9518 380.29 77.0518 380.29H78.7318C80.8318 380.29 82.5118 381.97 82.5118 384.07V387.241C82.5118 389.341 80.8318 391 78.7318 391H77.0518C74.9518 391 73.2718 389.341 73.2718 387.241ZM93.0036 384.07C93.0036 383.125 92.2686 382.39 91.3236 382.39H89.6436C88.6986 382.39 87.9636 383.146 87.9636 384.07V387.199C87.9636 388.123 88.7196 388.879 89.6436 388.879H91.3236C92.2476 388.879 93.0036 388.123 93.0036 387.199V386.989H95.1036V387.199C95.1036 389.278 93.4236 391 91.3236 391H89.6436C87.5646 391 85.8636 389.278 85.8636 387.199V384.07C85.8636 381.97 87.5646 380.29 89.6436 380.29H91.3236C93.4236 380.29 95.1036 381.97 95.1036 384.07V384.28H93.0036V384.07ZM107.695 380.29V391H105.595V389.824L103.852 391H102.235C100.156 391 98.4554 389.299 98.4554 387.22V384.07C98.4554 381.97 100.156 380.29 102.235 380.29H103.852L105.595 381.466V380.29H107.695ZM100.555 387.22C100.555 388.144 101.311 388.9 102.235 388.9H103.201L105.595 387.283V384.007L103.201 382.39H102.235C101.311 382.39 100.555 383.146 100.555 384.07V387.22ZM118.082 391C115.982 391 114.302 389.32 114.302 387.22V382.39H111.047V380.29H114.302V377.56H116.402V380.29H120.287V382.39H116.402V387.22C116.402 388.165 117.137 388.9 118.082 388.9H120.287V391H118.082ZM129.204 388.9H132.879V391H123.639V388.9H127.104V382.39H123.639V380.29H129.204V388.9ZM126.894 378.4V376.3H129.204V378.4H126.894ZM141.691 388.9C142.636 388.9 143.371 388.186 143.371 387.241V384.07C143.371 383.125 142.636 382.39 141.691 382.39H140.011C139.066 382.39 138.331 383.125 138.331 384.07V387.241C138.331 388.186 139.066 388.879 140.011 388.9H141.691ZM136.231 387.241V384.07C136.231 381.97 137.911 380.29 140.011 380.29H141.691C143.791 380.29 145.471 381.97 145.471 384.07V387.241C145.471 389.341 143.791 391 141.691 391H140.011C137.911 391 136.231 389.341 136.231 387.241ZM148.823 380.29H150.923V381.466L152.666 380.29H154.283C156.362 380.29 158.063 381.97 158.063 384.07V391H155.963V384.07C155.963 383.146 155.207 382.39 154.283 382.39H153.317L150.923 384.007V391H148.823V380.29ZM161.414 386.254H163.514V387.094C163.514 388.081 164.333 388.9 165.32 388.9H166.727C167.798 388.9 168.554 388.228 168.554 387.304C168.554 384.406 161.624 383.776 161.624 379.786C161.624 377.728 163.241 376.3 165.53 376.3H166.517C168.68 376.3 170.444 378.043 170.444 380.206V380.836H168.344V380.206C168.344 379.198 167.525 378.4 166.517 378.4H165.53C164.396 378.4 163.724 378.925 163.724 379.786C163.724 382.012 170.654 382.873 170.654 387.304C170.654 389.404 168.953 391 166.727 391H165.32C163.157 391 161.414 389.257 161.414 387.094V386.254ZM177.702 395.41H175.455L177.387 390.16L174.006 380.29H176.232L178.521 387.031L180.999 380.29H183.246L177.702 395.41ZM186.598 387.472H188.698V387.892C188.698 388.48 189.244 388.9 190.147 388.9H192.268C193.255 388.9 193.738 388.564 193.738 388.039C193.738 385.666 186.745 387.199 186.745 383.125C186.745 381.424 188.11 380.29 190.105 380.29H192.121C194.011 380.29 195.481 381.655 195.481 383.419V383.608H193.381V383.419C193.381 382.831 192.856 382.39 192.121 382.39H190.105C189.223 382.39 188.845 382.684 188.845 383.125C188.845 384.826 195.838 383.755 195.838 388.039C195.838 389.803 194.389 391 192.268 391H190.147C188.11 391 186.598 389.677 186.598 387.892V387.472ZM206.225 391C204.125 391 202.445 389.32 202.445 387.22V382.39H199.19V380.29H202.445V377.56H204.545V380.29H208.43V382.39H204.545V387.22C204.545 388.165 205.28 388.9 206.225 388.9H208.43V391H206.225ZM221.022 383.86V386.128H213.882V387.199C213.882 388.123 214.638 388.879 215.562 388.879H217.242C218.166 388.879 218.922 388.123 218.922 387.199V386.989H221.022V387.199C221.022 389.278 219.342 391 217.242 391H215.562C213.483 391 211.782 389.278 211.782 387.199V384.07C211.782 381.97 213.483 380.29 215.562 380.29H217.242C219.279 380.29 220.917 381.865 221.022 383.86ZM213.882 384.448H218.922V384.07C218.922 383.125 218.187 382.39 217.242 382.39H215.562C214.617 382.39 213.882 383.146 213.882 384.07V384.448ZM223.953 380.29H226.053V381.508L227.313 380.29H227.481C228.594 380.29 229.371 380.773 229.77 381.781L231.303 380.29H231.471C233.13 380.29 234.033 381.34 234.033 383.65V391H231.933V383.65C231.933 383.251 231.933 382.915 231.891 382.684L230.043 384.448V391H227.943V383.65C227.943 383.251 227.943 382.915 227.901 382.684L226.053 384.448V391H223.953V380.29ZM227.25 382.054H227.376H227.25ZM231.24 382.054H231.366H231.24Z" fill="white"/>
<path d="M576.985 189H575.485V190.5H576.985V189ZM576.985 148H578.485V146.5H576.985V148ZM476.939 146.939C476.354 147.525 476.354 148.475 476.939 149.061L486.485 158.607C487.071 159.192 488.021 159.192 488.607 158.607C489.192 158.021 489.192 157.071 488.607 156.485L480.121 148L488.607 139.515C489.192 138.929 489.192 137.979 488.607 137.393C488.021 136.808 487.071 136.808 486.485 137.393L476.939 146.939ZM675 187.5H576.985V190.5H675V187.5ZM578.485 189V148H575.485V189H578.485ZM576.985 146.5H478V149.5H576.985V146.5Z" fill="white"/>
<path d="M576.985 395H575.485V393.5H576.985V395ZM576.985 436H578.485V437.5H576.985V436ZM476.939 437.061C476.354 436.475 476.354 435.525 476.939 434.939L486.485 425.393C487.071 424.808 488.021 424.808 488.607 425.393C489.192 425.979 489.192 426.929 488.607 427.515L480.121 436L488.607 444.485C489.192 445.071 489.192 446.021 488.607 446.607C488.021 447.192 487.071 447.192 486.485 446.607L476.939 437.061ZM675 396.5H576.985V393.5H675V396.5ZM578.485 395V436H575.485V395H578.485ZM576.985 437.5H478V434.5H576.985V437.5Z" fill="white"/>
<path d="M576.985 395H575.485V396.5H576.985V395ZM576.985 300H578.485V298.5H576.985V300ZM476.939 298.939C476.354 299.525 476.354 300.475 476.939 301.061L486.485 310.607C487.071 311.192 488.021 311.192 488.607 310.607C489.192 310.021 489.192 309.071 488.607 308.485L480.121 300L488.607 291.515C489.192 290.929 489.192 289.979 488.607 289.393C488.021 288.808 487.071 288.808 486.485 289.393L476.939 298.939ZM675 393.5H576.985V396.5H675V393.5ZM578.485 395V300H575.485V395H578.485ZM576.985 298.5H478V301.5H576.985V298.5Z" fill="white"/>
<path d="M576.985 189H575.485V187.5H576.985V189ZM576.985 249H578.485V250.5H576.985V249ZM476.939 250.061C476.354 249.475 476.354 248.525 476.939 247.939L486.485 238.393C487.071 237.808 488.021 237.808 488.607 238.393C489.192 238.979 489.192 239.929 488.607 240.515L480.121 249L488.607 257.485C489.192 258.071 489.192 259.021 488.607 259.607C488.021 260.192 487.071 260.192 486.485 259.607L476.939 250.061ZM675 190.5H576.985V187.5H675V190.5ZM578.485 189V249H575.485V189H578.485ZM576.985 250.5H478V247.5H576.985V250.5Z" fill="white"/>
<rect width="92" height="44" transform="translate(538 169)" fill="white"/>
<path d="M554.9 197H558.4V199H549.6V197H552.9V190.8H549.6V188.8H554.9V197ZM552.7 187V185H554.9V187H552.7ZM561.192 188.8H563.192V189.96L564.392 188.8H564.552C565.612 188.8 566.352 189.26 566.732 190.22L568.192 188.8H568.352C569.932 188.8 570.792 189.8 570.792 192V199H568.792V192C568.792 191.62 568.792 191.3 568.752 191.08L566.992 192.76V199H564.992V192C564.992 191.62 564.992 191.3 564.952 191.08L563.192 192.76V199H561.192V188.8ZM564.332 190.48H564.452H564.332ZM568.132 190.48H568.252H568.132ZM573.584 203.2V188.8H575.584V189.92L577.244 188.8H578.784C580.764 188.8 582.384 190.42 582.384 192.4V195.4C582.384 197.4 580.764 199 578.784 199H577.244L575.584 197.88V203.2H573.584ZM575.584 195.46L577.864 197H578.784C579.664 197 580.384 196.28 580.384 195.4V192.4C580.384 191.52 579.664 190.8 578.784 190.8H577.864L575.584 192.34V195.46ZM590.777 197C591.677 197 592.377 196.32 592.377 195.42V192.4C592.377 191.5 591.677 190.8 590.777 190.8H589.177C588.277 190.8 587.577 191.5 587.577 192.4V195.42C587.577 196.32 588.277 196.98 589.177 197H590.777ZM585.577 195.42V192.4C585.577 190.4 587.177 188.8 589.177 188.8H590.777C592.777 188.8 594.377 190.4 594.377 192.4V195.42C594.377 197.42 592.777 199 590.777 199H589.177C587.177 199 585.577 197.42 585.577 195.42ZM597.569 188.8H599.569V190.4L601.949 188.8H602.769C604.749 188.8 606.369 190.4 606.369 192.4V193.2H604.369V192.4C604.369 191.52 603.649 190.8 602.769 190.8H602.569L599.569 192.82V199H597.569V188.8ZM616.261 199C614.261 199 612.661 197.4 612.661 195.4V190.8H609.561V188.8H612.661V186.2H614.661V188.8H618.361V190.8H614.661V195.4C614.661 196.3 615.361 197 616.261 197H618.361V199H616.261Z" fill="#F68533"/>
<rect width="92" height="44" transform="translate(538 373)" fill="white"/>
<path d="M554.9 401H558.4V403H549.6V401H552.9V394.8H549.6V392.8H554.9V401ZM552.7 391V389H554.9V391H552.7ZM561.192 392.8H563.192V393.96L564.392 392.8H564.552C565.612 392.8 566.352 393.26 566.732 394.22L568.192 392.8H568.352C569.932 392.8 570.792 393.8 570.792 396V403H568.792V396C568.792 395.62 568.792 395.3 568.752 395.08L566.992 396.76V403H564.992V396C564.992 395.62 564.992 395.3 564.952 395.08L563.192 396.76V403H561.192V392.8ZM564.332 394.48H564.452H564.332ZM568.132 394.48H568.252H568.132ZM573.584 407.2V392.8H575.584V393.92L577.244 392.8H578.784C580.764 392.8 582.384 394.42 582.384 396.4V399.4C582.384 401.4 580.764 403 578.784 403H577.244L575.584 401.88V407.2H573.584ZM575.584 399.46L577.864 401H578.784C579.664 401 580.384 400.28 580.384 399.4V396.4C580.384 395.52 579.664 394.8 578.784 394.8H577.864L575.584 396.34V399.46ZM590.777 401C591.677 401 592.377 400.32 592.377 399.42V396.4C592.377 395.5 591.677 394.8 590.777 394.8H589.177C588.277 394.8 587.577 395.5 587.577 396.4V399.42C587.577 400.32 588.277 400.98 589.177 401H590.777ZM585.577 399.42V396.4C585.577 394.4 587.177 392.8 589.177 392.8H590.777C592.777 392.8 594.377 394.4 594.377 396.4V399.42C594.377 401.42 592.777 403 590.777 403H589.177C587.177 403 585.577 401.42 585.577 399.42ZM597.569 392.8H599.569V394.4L601.949 392.8H602.769C604.749 392.8 606.369 394.4 606.369 396.4V397.2H604.369V396.4C604.369 395.52 603.649 394.8 602.769 394.8H602.569L599.569 396.82V403H597.569V392.8ZM616.261 403C614.261 403 612.661 401.4 612.661 399.4V394.8H609.561V392.8H612.661V390.2H614.661V392.8H618.361V394.8H614.661V399.4C614.661 400.3 615.361 401 616.261 401H618.361V403H616.261Z" fill="#F68533"/>
<path d="M317.293 293.793C316.902 294.183 316.902 294.817 317.293 295.207L323.657 301.571C324.047 301.962 324.681 301.962 325.071 301.571C325.462 301.181 325.462 300.547 325.071 300.157L319.414 294.5L325.071 288.843C325.462 288.453 325.462 287.819 325.071 287.429C324.681 287.038 324.047 287.038 323.657 287.429L317.293 293.793ZM336.5 294.5V295.5H337.5V294.5H336.5ZM336.5 249V248H335.5V249H336.5ZM350.207 249.707C350.598 249.317 350.598 248.683 350.207 248.293L343.843 241.929C343.453 241.538 342.819 241.538 342.429 241.929C342.038 242.319 342.038 242.953 342.429 243.343L348.086 249L342.429 254.657C342.038 255.047 342.038 255.681 342.429 256.071C342.819 256.462 343.453 256.462 343.843 256.071L350.207 249.707ZM318 295.5H336.5V293.5H318V295.5ZM337.5 294.5V249H335.5V294.5H337.5ZM336.5 250H349.5V248H336.5V250Z" fill="white"/>
<path d="M317.293 294.707C316.902 294.317 316.902 293.683 317.293 293.293L323.657 286.929C324.047 286.538 324.681 286.538 325.071 286.929C325.462 287.319 325.462 287.953 325.071 288.343L319.414 294L325.071 299.657C325.462 300.047 325.462 300.681 325.071 301.071C324.681 301.462 324.047 301.462 323.657 301.071L317.293 294.707ZM336.5 294V293H337.5V294H336.5ZM336.5 306V307H335.5V306H336.5ZM350.707 305.293C351.098 305.683 351.098 306.317 350.707 306.707L344.343 313.071C343.953 313.462 343.319 313.462 342.929 313.071C342.538 312.681 342.538 312.047 342.929 311.657L348.586 306L342.929 300.343C342.538 299.953 342.538 299.319 342.929 298.929C343.319 298.538 343.953 298.538 344.343 298.929L350.707 305.293ZM318 293H336.5V295H318V293ZM337.5 294V306H335.5V294H337.5ZM336.5 305H350V307H336.5V305Z" fill="white"/>
</g>
<defs>
<clipPath id="clip0_2_328">
<rect width="1000" height="501" fill="white"/>
</clipPath>
</defs>
</svg>
