<svg width="1000" height="501" viewBox="0 0 1000 501" fill="none" xmlns="http://www.w3.org/2000/svg">
<rect width="1000" height="501" fill="#F46700"/>
<rect x="211" y="27" width="765" height="447" fill="white" fill-opacity="0.2"/>
<path d="M241.502 58.56L242.712 65.49L243.24 59V54.6H245.44V59.66L244.12 70H242.36L240.6 63.422L238.84 70H237.08L235.76 59.66V54.6H237.96V59L238.488 65.49L239.698 58.56H241.502ZM254.671 67.778C255.639 67.778 256.431 66.986 256.431 66.018V58.56C256.431 57.57 255.661 56.8 254.671 56.8H252.911C251.921 56.8 251.151 57.592 251.151 58.56V66.018C251.151 66.986 251.943 67.778 252.911 67.778H254.671ZM248.951 66.018V58.56C248.951 56.36 250.733 54.6 252.911 54.6H254.671C256.871 54.6 258.631 56.36 258.631 58.56V66.018C258.631 68.196 256.871 70 254.671 70H252.911C250.733 70 248.951 68.196 248.951 66.018ZM271.823 70H269.403L266.609 63.84H264.343V70H262.143V54.6H267.863C270.063 54.6 271.823 56.36 271.823 58.56V59.88C271.823 61.706 270.613 63.224 268.941 63.686L271.823 70ZM264.343 61.64H267.863C268.853 61.64 269.623 60.87 269.623 59.88V58.56C269.623 57.57 268.853 56.8 267.863 56.8H264.343V61.64ZM277.534 54.6V67.8H285.014V70H275.334V54.6H277.534ZM294.246 54.6C296.424 54.6 298.206 56.36 298.206 58.56V66.018C298.206 68.196 296.424 70 294.246 70H288.526V54.6H294.246ZM290.726 67.778H294.246C295.214 67.778 296.006 66.986 296.006 66.018V58.56C296.006 57.592 295.236 56.8 294.246 56.8H290.726V67.778Z" fill="white"/>
<rect x="234" y="92" width="349" height="234" fill="white" fill-opacity="0.15"/>
<rect x="608" y="92" width="349" height="361" fill="white" fill-opacity="0.15"/>
<rect x="256" y="156" width="305" height="154" fill="white" fill-opacity="0.15"/>
<rect x="630" y="156" width="305" height="131" fill="white" fill-opacity="0.15"/>
<rect x="630" y="306" width="305" height="124" fill="white" fill-opacity="0.15"/>
<rect x="280" y="223" width="259" height="64" fill="white"/>
<rect x="654" y="219" width="259" height="44" fill="white"/>
<rect x="654" y="369" width="259" height="44" fill="white"/>
<path d="M360.4 253.2V255.36H353.6V256.38C353.6 257.26 354.32 257.98 355.2 257.98H356.8C357.68 257.98 358.4 257.26 358.4 256.38V256.18H360.4V256.38C360.4 258.36 358.8 260 356.8 260H355.2C353.22 260 351.6 258.36 351.6 256.38V253.4C351.6 251.4 353.22 249.8 355.2 249.8H356.8C358.74 249.8 360.3 251.3 360.4 253.2ZM353.6 253.76H358.4V253.4C358.4 252.5 357.7 251.8 356.8 251.8H355.2C354.3 251.8 353.6 252.52 353.6 253.4V253.76ZM372.392 249.8V260H370.392V258.88L368.732 260H367.192C365.212 260 363.592 258.38 363.592 256.4V253.4C363.592 251.4 365.212 249.8 367.192 249.8H368.732L370.392 250.92V249.8H372.392ZM365.592 256.4C365.592 257.28 366.312 258 367.192 258H368.112L370.392 256.46V253.34L368.112 251.8H367.192C366.312 251.8 365.592 252.52 365.592 253.4V256.4ZM382.284 260C380.284 260 378.684 258.4 378.684 256.4V251.8H375.584V249.8H378.684V247.2H380.684V249.8H384.384V251.8H380.684V256.4C380.684 257.3 381.384 258 382.284 258H384.384V260H382.284ZM389.577 260H387.577V255.4L390.977 246H392.977L396.377 255.4V260H394.377V256.76H389.577V260ZM389.937 254.76H394.017L391.997 249.16H391.957L389.937 254.76ZM399.569 249.8H401.569V250.92L403.229 249.8H404.769C406.749 249.8 408.369 251.4 408.369 253.4V260H406.369V253.4C406.369 252.52 405.649 251.8 404.769 251.8H403.849L401.569 253.34V260H399.569V249.8ZM420.361 245.8V260H418.361V258.88L416.701 260H415.161C413.181 260 411.561 258.38 411.561 256.4V253.4C411.561 251.4 413.181 249.8 415.161 249.8H416.701L418.361 250.92V245.8H420.361ZM413.561 256.4C413.561 257.28 414.281 258 415.161 258H416.081L418.361 256.46V253.34L416.081 251.8H415.161C414.281 251.8 413.561 252.52 413.561 253.4V256.4ZM427.413 254.36L425.553 250.4V260H423.553V246H425.553L427.953 251.22L430.353 246H432.353V260H430.353V250.4L428.493 254.36H427.413ZM440.745 258C441.645 258 442.345 257.32 442.345 256.42V253.4C442.345 252.5 441.645 251.8 440.745 251.8H439.145C438.245 251.8 437.545 252.5 437.545 253.4V256.42C437.545 257.32 438.245 257.98 439.145 258H440.745ZM435.545 256.42V253.4C435.545 251.4 437.145 249.8 439.145 249.8H440.745C442.745 249.8 444.345 251.4 444.345 253.4V256.42C444.345 258.42 442.745 260 440.745 260H439.145C437.145 260 435.545 258.42 435.545 256.42ZM454.338 249.8H456.338V254.4L452.938 260H450.938L447.538 254.4V249.8H449.538V253.84L451.918 257.76H451.958L454.338 253.84V249.8ZM468.33 253.2V255.36H461.53V256.38C461.53 257.26 462.25 257.98 463.13 257.98H464.73C465.61 257.98 466.33 257.26 466.33 256.38V256.18H468.33V256.38C468.33 258.36 466.73 260 464.73 260H463.13C461.15 260 459.53 258.36 459.53 256.38V253.4C459.53 251.4 461.15 249.8 463.13 249.8H464.73C466.67 249.8 468.23 251.3 468.33 253.2ZM461.53 253.76H466.33V253.4C466.33 252.5 465.63 251.8 464.73 251.8H463.13C462.23 251.8 461.53 252.52 461.53 253.4V253.76Z" fill="#F46700"/>
<path d="M776.4 240.2V242.36H769.6V243.38C769.6 244.26 770.32 244.98 771.2 244.98H772.8C773.68 244.98 774.4 244.26 774.4 243.38V243.18H776.4V243.38C776.4 245.36 774.8 247 772.8 247H771.2C769.22 247 767.6 245.36 767.6 243.38V240.4C767.6 238.4 769.22 236.8 771.2 236.8H772.8C774.74 236.8 776.3 238.3 776.4 240.2ZM769.6 240.76H774.4V240.4C774.4 239.5 773.7 238.8 772.8 238.8H771.2C770.3 238.8 769.6 239.52 769.6 240.4V240.76ZM788.392 236.8V247H786.392V245.88L784.732 247H783.192C781.212 247 779.592 245.38 779.592 243.4V240.4C779.592 238.4 781.212 236.8 783.192 236.8H784.732L786.392 237.92V236.8H788.392ZM781.592 243.4C781.592 244.28 782.312 245 783.192 245H784.112L786.392 243.46V240.34L784.112 238.8H783.192C782.312 238.8 781.592 239.52 781.592 240.4V243.4ZM798.284 247C796.284 247 794.684 245.4 794.684 243.4V238.8H791.584V236.8H794.684V234.2H796.684V236.8H800.384V238.8H796.684V243.4C796.684 244.3 797.384 245 798.284 245H800.384V247H798.284Z" fill="#F46700"/>
<path d="M761.2 386.8H763.2V387.96L764.4 386.8H764.56C765.62 386.8 766.36 387.26 766.74 388.22L768.2 386.8H768.36C769.94 386.8 770.8 387.8 770.8 390V397H768.8V390C768.8 389.62 768.8 389.3 768.76 389.08L767 390.76V397H765V390C765 389.62 765 389.3 764.96 389.08L763.2 390.76V397H761.2V386.8ZM764.34 388.48H764.46H764.34ZM768.14 388.48H768.26H768.14ZM778.792 395C779.692 395 780.392 394.32 780.392 393.42V390.4C780.392 389.5 779.692 388.8 778.792 388.8H777.192C776.292 388.8 775.592 389.5 775.592 390.4V393.42C775.592 394.32 776.292 394.98 777.192 395H778.792ZM773.592 393.42V390.4C773.592 388.4 775.192 386.8 777.192 386.8H778.792C780.792 386.8 782.392 388.4 782.392 390.4V393.42C782.392 395.42 780.792 397 778.792 397H777.192C775.192 397 773.592 395.42 773.592 393.42ZM792.384 386.8H794.384V391.4L790.984 397H788.984L785.584 391.4V386.8H787.584V390.84L789.964 394.76H790.004L792.384 390.84V386.8ZM806.377 390.2V392.36H799.577V393.38C799.577 394.26 800.297 394.98 801.177 394.98H802.777C803.657 394.98 804.377 394.26 804.377 393.38V393.18H806.377V393.38C806.377 395.36 804.777 397 802.777 397H801.177C799.197 397 797.577 395.36 797.577 393.38V390.4C797.577 388.4 799.197 386.8 801.177 386.8H802.777C804.717 386.8 806.277 388.3 806.377 390.2ZM799.577 390.76H804.377V390.4C804.377 389.5 803.677 388.8 802.777 388.8H801.177C800.277 388.8 799.577 389.52 799.577 390.4V390.76Z" fill="#F46700"/>
<path d="M266.4 118V120H259.6V123.66H265.6V125.66H259.6V130H266.4V132H257.6V118H266.4ZM269.592 132L272.892 125L269.592 118H271.792L273.992 122.66L276.192 118H278.392L275.092 125L278.392 132H276.192L273.992 127.34L271.792 132H269.592ZM281.584 118H290.384V120H286.984V132H284.984V120H281.584V118ZM302.377 118V120H295.577V123.66H301.577V125.66H295.577V130H302.377V132H293.577V118H302.377ZM312.369 118H314.369V132H311.469L307.569 121.36V132H305.569V118H308.469L312.369 128.64V118ZM317.561 127.48H319.561V128.28C319.561 129.22 320.341 130 321.281 130H322.621C323.641 130 324.361 129.36 324.361 128.48C324.361 125.72 317.761 125.12 317.761 121.32C317.761 119.36 319.301 118 321.481 118H322.421C324.481 118 326.161 119.66 326.161 121.72V122.32H324.161V121.72C324.161 120.76 323.381 120 322.421 120H321.481C320.401 120 319.761 120.5 319.761 121.32C319.761 123.44 326.361 124.26 326.361 128.48C326.361 130.48 324.741 132 322.621 132H321.281C319.221 132 317.561 130.34 317.561 128.28V127.48ZM329.553 118H338.353V120H334.953V130H338.353V132H329.553V130H332.953V120H329.553V118ZM346.745 129.98C347.625 129.98 348.345 129.26 348.345 128.38V121.6C348.345 120.7 347.645 120 346.745 120H345.145C344.245 120 343.545 120.72 343.545 121.6V128.38C343.545 129.26 344.265 129.98 345.145 129.98H346.745ZM341.545 128.38V121.6C341.545 119.6 343.165 118 345.145 118H346.745C348.745 118 350.345 119.6 350.345 121.6V128.38C350.345 130.36 348.745 132 346.745 132H345.145C343.165 132 341.545 130.36 341.545 128.38ZM360.338 118H362.338V132H359.438L355.538 121.36V132H353.538V118H356.438L360.338 128.64V118ZM384.322 118H386.322V132H383.422L379.522 121.36V132H377.522V118H380.422L384.322 128.64V118ZM391.514 132H389.514V127.4L392.914 118H394.914L398.314 127.4V132H396.314V128.76H391.514V132ZM391.874 126.76H395.954L393.934 121.16H393.894L391.874 126.76ZM405.366 126.36L403.506 122.4V132H401.506V118H403.506L405.906 123.22L408.306 118H410.306V132H408.306V122.4L406.446 126.36H405.366ZM422.298 118V120H415.498V123.66H421.498V125.66H415.498V130H422.298V132H413.498V118H422.298ZM425.491 127.48H427.491V128.28C427.491 129.22 428.271 130 429.211 130H430.551C431.571 130 432.291 129.36 432.291 128.48C432.291 125.72 425.691 125.12 425.691 121.32C425.691 119.36 427.231 118 429.411 118H430.351C432.411 118 434.091 119.66 434.091 121.72V122.32H432.091V121.72C432.091 120.76 431.311 120 430.351 120H429.411C428.331 120 427.691 120.5 427.691 121.32C427.691 123.44 434.291 124.26 434.291 128.48C434.291 130.48 432.671 132 430.551 132H429.211C427.151 132 425.491 130.34 425.491 128.28V127.48ZM446.283 122.8C446.283 124.8 444.683 126.4 442.683 126.4H439.483V132H437.483V118H442.683C444.683 118 446.283 119.6 446.283 121.6V122.8ZM439.483 124.4H442.683C443.583 124.4 444.283 123.7 444.283 122.8V121.6C444.283 120.7 443.583 120 442.683 120H439.483V124.4ZM451.475 132H449.475V127.4L452.875 118H454.875L458.275 127.4V132H456.275V128.76H451.475V132ZM451.835 126.76H455.915L453.895 121.16H453.855L451.835 126.76ZM468.267 121.6C468.267 120.7 467.567 120 466.667 120H465.067C464.167 120 463.467 120.72 463.467 121.6V128.38C463.467 129.26 464.187 129.98 465.067 129.98H466.667C467.547 129.98 468.267 129.26 468.267 128.38V127.28H470.267V128.38C470.267 130.36 468.667 132 466.667 132H465.067C463.087 132 461.467 130.36 461.467 128.38V121.6C461.467 119.6 463.087 118 465.067 118H466.667C468.667 118 470.267 119.6 470.267 121.6V122.7H468.267V121.6ZM482.259 118V120H475.459V123.66H481.459V125.66H475.459V130H482.259V132H473.459V118H482.259Z" fill="white"/>
<path d="M635.4 124.46H640.4V128.38C640.4 130.36 638.8 132 636.8 132H635.2C633.22 132 631.6 130.36 631.6 128.38V121.6C631.6 119.6 633.22 118 635.2 118H636.8C638.8 118 640.4 119.6 640.4 121.6V122.7H638.4V121.6C638.4 120.7 637.7 120 636.8 120H635.2C634.3 120 633.6 120.72 633.6 121.6V128.38C633.6 129.26 634.32 129.98 635.2 129.98H636.8C637.68 129.98 638.4 129.26 638.4 128.38V126.46H635.4V124.46ZM645.592 132H643.592V127.4L646.992 118H648.992L652.392 127.4V132H650.392V128.76H645.592V132ZM645.952 126.76H650.032L648.012 121.16H647.972L645.952 126.76ZM659.444 126.36L657.584 122.4V132H655.584V118H657.584L659.984 123.22L662.384 118H664.384V132H662.384V122.4L660.524 126.36H659.444ZM676.377 118V120H669.577V123.66H675.577V125.66H669.577V130H676.377V132H667.577V118H676.377ZM698.361 118H700.361V132H697.461L693.561 121.36V132H691.561V118H694.461L698.361 128.64V118ZM705.553 132H703.553V127.4L706.953 118H708.953L712.353 127.4V132H710.353V128.76H705.553V132ZM705.913 126.76H709.993L707.973 121.16H707.933L705.913 126.76ZM719.405 126.36L717.545 122.4V132H715.545V118H717.545L719.945 123.22L722.345 118H724.345V132H722.345V122.4L720.485 126.36H719.405ZM736.338 118V120H729.538V123.66H735.538V125.66H729.538V130H736.338V132H727.538V118H736.338ZM739.53 127.48H741.53V128.28C741.53 129.22 742.31 130 743.25 130H744.59C745.61 130 746.33 129.36 746.33 128.48C746.33 125.72 739.73 125.12 739.73 121.32C739.73 119.36 741.27 118 743.45 118H744.39C746.45 118 748.13 119.66 748.13 121.72V122.32H746.13V121.72C746.13 120.76 745.35 120 744.39 120H743.45C742.37 120 741.73 120.5 741.73 121.32C741.73 123.44 748.33 124.26 748.33 128.48C748.33 130.48 746.71 132 744.59 132H743.25C741.19 132 739.53 130.34 739.53 128.28V127.48ZM760.322 122.8C760.322 124.8 758.722 126.4 756.722 126.4H753.522V132H751.522V118H756.722C758.722 118 760.322 119.6 760.322 121.6V122.8ZM753.522 124.4H756.722C757.622 124.4 758.322 123.7 758.322 122.8V121.6C758.322 120.7 757.622 120 756.722 120H753.522V124.4ZM765.514 132H763.514V127.4L766.914 118H768.914L772.314 127.4V132H770.314V128.76H765.514V132ZM765.874 126.76H769.954L767.934 121.16H767.894L765.874 126.76ZM782.306 121.6C782.306 120.7 781.606 120 780.706 120H779.106C778.206 120 777.506 120.72 777.506 121.6V128.38C777.506 129.26 778.226 129.98 779.106 129.98H780.706C781.586 129.98 782.306 129.26 782.306 128.38V127.28H784.306V128.38C784.306 130.36 782.706 132 780.706 132H779.106C777.126 132 775.506 130.36 775.506 128.38V121.6C775.506 119.6 777.126 118 779.106 118H780.706C782.706 118 784.306 119.6 784.306 121.6V122.7H782.306V121.6ZM796.298 118V120H789.498V123.66H795.498V125.66H789.498V130H796.298V132H787.498V118H796.298Z" fill="white"/>
<path d="M290.82 186.08C290.82 185.135 290.085 184.4 289.14 184.4H287.46C286.515 184.4 285.78 185.156 285.78 186.08V193.199C285.78 194.123 286.536 194.879 287.46 194.879H289.14C290.064 194.879 290.82 194.123 290.82 193.199V192.044H292.92V193.199C292.92 195.278 291.24 197 289.14 197H287.46C285.381 197 283.68 195.278 283.68 193.199V186.08C283.68 183.98 285.381 182.3 287.46 182.3H289.14C291.24 182.3 292.92 183.98 292.92 186.08V187.235H290.82V186.08ZM301.732 194.9C302.677 194.9 303.412 194.186 303.412 193.241V190.07C303.412 189.125 302.677 188.39 301.732 188.39H300.052C299.107 188.39 298.372 189.125 298.372 190.07V193.241C298.372 194.186 299.107 194.879 300.052 194.9H301.732ZM296.272 193.241V190.07C296.272 187.97 297.952 186.29 300.052 186.29H301.732C303.832 186.29 305.512 187.97 305.512 190.07V193.241C305.512 195.341 303.832 197 301.732 197H300.052C297.952 197 296.272 195.341 296.272 193.241ZM308.444 186.29H310.544V187.508L311.804 186.29H311.972C313.085 186.29 313.862 186.773 314.261 187.781L315.794 186.29H315.962C317.621 186.29 318.524 187.34 318.524 189.65V197H316.424V189.65C316.424 189.251 316.424 188.915 316.382 188.684L314.534 190.448V197H312.434V189.65C312.434 189.251 312.434 188.915 312.392 188.684L310.544 190.448V197H308.444V186.29ZM311.741 188.054H311.867H311.741ZM315.731 188.054H315.857H315.731ZM321.455 182.09H323.555V187.466L325.298 186.29H326.915C328.994 186.29 330.695 187.97 330.695 190.07V193.22C330.695 195.299 328.994 197 326.915 197H325.298L323.555 195.824V197H321.455V182.09ZM323.555 193.283L325.949 194.9H326.915C327.839 194.9 328.595 194.144 328.595 193.22V190.07C328.595 189.146 327.839 188.39 326.915 188.39H325.949L323.555 190.007V193.283ZM339.612 194.9H343.287V197H334.047V194.9H337.512V188.39H334.047V186.29H339.612V194.9ZM337.302 184.4V182.3H339.612V184.4H337.302ZM346.639 186.29H348.739V187.466L350.482 186.29H352.099C354.178 186.29 355.879 187.97 355.879 190.07V197H353.779V190.07C353.779 189.146 353.023 188.39 352.099 188.39H351.133L348.739 190.007V197H346.639V186.29ZM368.471 189.86V192.128H361.331V193.199C361.331 194.123 362.087 194.879 363.011 194.879H364.691C365.615 194.879 366.371 194.123 366.371 193.199V192.989H368.471V193.199C368.471 195.278 366.791 197 364.691 197H363.011C360.932 197 359.231 195.278 359.231 193.199V190.07C359.231 187.97 360.932 186.29 363.011 186.29H364.691C366.728 186.29 368.366 187.865 368.471 189.86ZM361.331 190.448H366.371V190.07C366.371 189.125 365.636 188.39 364.691 188.39H363.011C362.066 188.39 361.331 189.146 361.331 190.07V190.448ZM381.063 182.09V197H378.963V195.824L377.22 197H375.603C373.524 197 371.823 195.299 371.823 193.22V190.07C371.823 187.97 373.524 186.29 375.603 186.29H377.22L378.963 187.466V182.09H381.063ZM373.923 193.22C373.923 194.144 374.679 194.9 375.603 194.9H376.569L378.963 193.283V190.007L376.569 188.39H375.603C374.679 188.39 373.923 189.146 373.923 190.07V193.22ZM386.514 197H384.414V192.17L387.984 182.3H390.084L393.654 192.17V197H391.554V193.598H386.514V197ZM386.892 191.498H391.176L389.055 185.618H389.013L386.892 191.498ZM404.146 190.07C404.146 189.125 403.411 188.39 402.466 188.39H400.786C399.841 188.39 399.106 189.146 399.106 190.07V193.199C399.106 194.123 399.862 194.879 400.786 194.879H402.466C403.39 194.879 404.146 194.123 404.146 193.199V192.989H406.246V193.199C406.246 195.278 404.566 197 402.466 197H400.786C398.707 197 397.006 195.278 397.006 193.199V190.07C397.006 187.97 398.707 186.29 400.786 186.29H402.466C404.566 186.29 406.246 187.97 406.246 190.07V190.28H404.146V190.07ZM416.633 197C414.533 197 412.853 195.32 412.853 193.22V188.39H409.598V186.29H412.853V183.56H414.953V186.29H418.838V188.39H414.953V193.22C414.953 194.165 415.688 194.9 416.633 194.9H418.838V197H416.633ZM427.755 194.9H431.43V197H422.19V194.9H425.655V188.39H422.19V186.29H427.755V194.9ZM425.445 184.4V182.3H427.755V184.4H425.445ZM440.242 194.9C441.187 194.9 441.922 194.186 441.922 193.241V190.07C441.922 189.125 441.187 188.39 440.242 188.39H438.562C437.617 188.39 436.882 189.125 436.882 190.07V193.241C436.882 194.186 437.617 194.879 438.562 194.9H440.242ZM434.782 193.241V190.07C434.782 187.97 436.462 186.29 438.562 186.29H440.242C442.342 186.29 444.022 187.97 444.022 190.07V193.241C444.022 195.341 442.342 197 440.242 197H438.562C436.462 197 434.782 195.341 434.782 193.241ZM447.373 186.29H449.473V187.466L451.216 186.29H452.833C454.912 186.29 456.613 187.97 456.613 190.07V197H454.513V190.07C454.513 189.146 453.757 188.39 452.833 188.39H451.867L449.473 190.007V197H447.373V186.29ZM459.965 192.254H462.065V193.094C462.065 194.081 462.884 194.9 463.871 194.9H465.278C466.349 194.9 467.105 194.228 467.105 193.304C467.105 190.406 460.175 189.776 460.175 185.786C460.175 183.728 461.792 182.3 464.081 182.3H465.068C467.231 182.3 468.995 184.043 468.995 186.206V186.836H466.895V186.206C466.895 185.198 466.076 184.4 465.068 184.4H464.081C462.947 184.4 462.275 184.925 462.275 185.786C462.275 188.012 469.205 188.873 469.205 193.304C469.205 195.404 467.504 197 465.278 197H463.871C461.708 197 459.965 195.257 459.965 193.094V192.254ZM476.253 201.41H474.006L475.938 196.16L472.557 186.29H474.783L477.072 193.031L479.55 186.29H481.797L476.253 201.41ZM485.149 193.472H487.249V193.892C487.249 194.48 487.795 194.9 488.698 194.9H490.819C491.806 194.9 492.289 194.564 492.289 194.039C492.289 191.666 485.296 193.199 485.296 189.125C485.296 187.424 486.661 186.29 488.656 186.29H490.672C492.562 186.29 494.032 187.655 494.032 189.419V189.608H491.932V189.419C491.932 188.831 491.407 188.39 490.672 188.39H488.656C487.774 188.39 487.396 188.684 487.396 189.125C487.396 190.826 494.389 189.755 494.389 194.039C494.389 195.803 492.94 197 490.819 197H488.698C486.661 197 485.149 195.677 485.149 193.892V193.472ZM504.776 197C502.676 197 500.996 195.32 500.996 193.22V188.39H497.741V186.29H500.996V183.56H503.096V186.29H506.981V188.39H503.096V193.22C503.096 194.165 503.831 194.9 504.776 194.9H506.981V197H504.776ZM519.572 189.86V192.128H512.432V193.199C512.432 194.123 513.188 194.879 514.112 194.879H515.792C516.716 194.879 517.472 194.123 517.472 193.199V192.989H519.572V193.199C519.572 195.278 517.892 197 515.792 197H514.112C512.033 197 510.332 195.278 510.332 193.199V190.07C510.332 187.97 512.033 186.29 514.112 186.29H515.792C517.829 186.29 519.467 187.865 519.572 189.86ZM512.432 190.448H517.472V190.07C517.472 189.125 516.737 188.39 515.792 188.39H514.112C513.167 188.39 512.432 189.146 512.432 190.07V190.448ZM522.504 186.29H524.604V187.508L525.864 186.29H526.032C527.145 186.29 527.922 186.773 528.321 187.781L529.854 186.29H530.022C531.681 186.29 532.584 187.34 532.584 189.65V197H530.484V189.65C530.484 189.251 530.484 188.915 530.442 188.684L528.594 190.448V197H526.494V189.65C526.494 189.251 526.494 188.915 526.452 188.684L524.604 190.448V197H522.504V186.29ZM525.801 188.054H525.927H525.801ZM529.791 188.054H529.917H529.791Z" fill="white"/>
<path d="M666.92 182.3V184.4H659.78V188.243H666.08V190.343H659.78V194.9H666.92V197H657.68V182.3H666.92ZM670.272 186.29H672.372V187.466L674.115 186.29H675.732C677.811 186.29 679.512 187.97 679.512 190.07V197H677.412V190.07C677.412 189.146 676.656 188.39 675.732 188.39H674.766L672.372 190.007V197H670.272V186.29ZM692.104 189.86V192.128H684.964V193.199C684.964 194.123 685.72 194.879 686.644 194.879H688.324C689.248 194.879 690.004 194.123 690.004 193.199V192.989H692.104V193.199C692.104 195.278 690.424 197 688.324 197H686.644C684.565 197 682.864 195.278 682.864 193.199V190.07C682.864 187.97 684.565 186.29 686.644 186.29H688.324C690.361 186.29 691.999 187.865 692.104 189.86ZM684.964 190.448H690.004V190.07C690.004 189.125 689.269 188.39 688.324 188.39H686.644C685.699 188.39 684.964 189.146 684.964 190.07V190.448ZM695.455 186.29H697.555V187.97L700.054 186.29H700.915C702.994 186.29 704.695 187.97 704.695 190.07V190.91H702.595V190.07C702.595 189.146 701.839 188.39 700.915 188.39H700.705L697.555 190.511V197H695.455V186.29ZM717.287 197.609C717.287 199.688 715.607 201.41 713.507 201.41H711.827C709.748 201.41 708.047 199.688 708.047 197.609H710.147C710.147 198.533 710.903 199.289 711.827 199.289H713.507C714.431 199.289 715.187 198.533 715.187 197.609V195.824L713.444 197H711.827C709.748 197 708.047 195.299 708.047 193.22V190.07C708.047 187.97 709.748 186.29 711.827 186.29H713.444L715.187 187.466V186.29H717.287V197.609ZM710.147 193.22C710.147 194.144 710.903 194.9 711.827 194.9H712.793L715.187 193.283V190.007L712.793 188.39H711.827C710.903 188.39 710.147 189.146 710.147 190.07V193.22ZM724.335 201.41H722.088L724.02 196.16L720.639 186.29H722.865L725.154 193.031L727.632 186.29H729.879L724.335 201.41ZM733.231 192.254H735.331V193.094C735.331 194.081 736.15 194.9 737.137 194.9H738.544C739.615 194.9 740.371 194.228 740.371 193.304C740.371 190.406 733.441 189.776 733.441 185.786C733.441 183.728 735.058 182.3 737.347 182.3H738.334C740.497 182.3 742.261 184.043 742.261 186.206V186.836H740.161V186.206C740.161 185.198 739.342 184.4 738.334 184.4H737.347C736.213 184.4 735.541 184.925 735.541 185.786C735.541 188.012 742.471 188.873 742.471 193.304C742.471 195.404 740.77 197 738.544 197H737.137C734.974 197 733.231 195.257 733.231 193.094V192.254ZM749.519 201.41H747.272L749.204 196.16L745.823 186.29H748.049L750.338 193.031L752.816 186.29H755.063L749.519 201.41ZM758.414 193.472H760.514V193.892C760.514 194.48 761.06 194.9 761.963 194.9H764.084C765.071 194.9 765.554 194.564 765.554 194.039C765.554 191.666 758.561 193.199 758.561 189.125C758.561 187.424 759.926 186.29 761.921 186.29H763.937C765.827 186.29 767.297 187.655 767.297 189.419V189.608H765.197V189.419C765.197 188.831 764.672 188.39 763.937 188.39H761.921C761.039 188.39 760.661 188.684 760.661 189.125C760.661 190.826 767.654 189.755 767.654 194.039C767.654 195.803 766.205 197 764.084 197H761.963C759.926 197 758.414 195.677 758.414 193.892V193.472ZM778.041 197C775.941 197 774.261 195.32 774.261 193.22V188.39H771.006V186.29H774.261V183.56H776.361V186.29H780.246V188.39H776.361V193.22C776.361 194.165 777.096 194.9 778.041 194.9H780.246V197H778.041ZM792.838 189.86V192.128H785.698V193.199C785.698 194.123 786.454 194.879 787.378 194.879H789.058C789.982 194.879 790.738 194.123 790.738 193.199V192.989H792.838V193.199C792.838 195.278 791.158 197 789.058 197H787.378C785.299 197 783.598 195.278 783.598 193.199V190.07C783.598 187.97 785.299 186.29 787.378 186.29H789.058C791.095 186.29 792.733 187.865 792.838 189.86ZM785.698 190.448H790.738V190.07C790.738 189.125 790.003 188.39 789.058 188.39H787.378C786.433 188.39 785.698 189.146 785.698 190.07V190.448ZM795.77 186.29H797.87V187.508L799.13 186.29H799.298C800.411 186.29 801.188 186.773 801.587 187.781L803.12 186.29H803.288C804.947 186.29 805.85 187.34 805.85 189.65V197H803.75V189.65C803.75 189.251 803.75 188.915 803.708 188.684L801.86 190.448V197H799.76V189.65C799.76 189.251 799.76 188.915 799.718 188.684L797.87 190.448V197H795.77V186.29ZM799.067 188.054H799.193H799.067ZM803.057 188.054H803.183H803.057Z" fill="white"/>
<path d="M659.78 332.3V344.9H666.92V347H657.68V332.3H659.78ZM675.732 344.9C676.677 344.9 677.412 344.186 677.412 343.241V340.07C677.412 339.125 676.677 338.39 675.732 338.39H674.052C673.107 338.39 672.372 339.125 672.372 340.07V343.241C672.372 344.186 673.107 344.879 674.052 344.9H675.732ZM670.272 343.241V340.07C670.272 337.97 671.952 336.29 674.052 336.29H675.732C677.832 336.29 679.512 337.97 679.512 340.07V343.241C679.512 345.341 677.832 347 675.732 347H674.052C671.952 347 670.272 345.341 670.272 343.241ZM690.004 340.07C690.004 339.125 689.269 338.39 688.324 338.39H686.644C685.699 338.39 684.964 339.146 684.964 340.07V343.199C684.964 344.123 685.72 344.879 686.644 344.879H688.324C689.248 344.879 690.004 344.123 690.004 343.199V342.989H692.104V343.199C692.104 345.278 690.424 347 688.324 347H686.644C684.565 347 682.864 345.278 682.864 343.199V340.07C682.864 337.97 684.565 336.29 686.644 336.29H688.324C690.424 336.29 692.104 337.97 692.104 340.07V340.28H690.004V340.07ZM704.695 336.29V347H702.595V345.824L700.852 347H699.235C697.156 347 695.455 345.299 695.455 343.22V340.07C695.455 337.97 697.156 336.29 699.235 336.29H700.852L702.595 337.466V336.29H704.695ZM697.555 343.22C697.555 344.144 698.311 344.9 699.235 344.9H700.201L702.595 343.283V340.007L700.201 338.39H699.235C698.311 338.39 697.555 339.146 697.555 340.07V343.22ZM715.082 347C712.982 347 711.302 345.32 711.302 343.22V338.39H708.047V336.29H711.302V333.56H713.402V336.29H717.287V338.39H713.402V343.22C713.402 344.165 714.137 344.9 715.082 344.9H717.287V347H715.082ZM726.204 344.9H729.879V347H720.639V344.9H724.104V338.39H720.639V336.29H726.204V344.9ZM723.894 334.4V332.3H726.204V334.4H723.894ZM738.691 344.9C739.636 344.9 740.371 344.186 740.371 343.241V340.07C740.371 339.125 739.636 338.39 738.691 338.39H737.011C736.066 338.39 735.331 339.125 735.331 340.07V343.241C735.331 344.186 736.066 344.879 737.011 344.9H738.691ZM733.231 343.241V340.07C733.231 337.97 734.911 336.29 737.011 336.29H738.691C740.791 336.29 742.471 337.97 742.471 340.07V343.241C742.471 345.341 740.791 347 738.691 347H737.011C734.911 347 733.231 345.341 733.231 343.241ZM745.823 336.29H747.923V337.466L749.666 336.29H751.283C753.362 336.29 755.063 337.97 755.063 340.07V347H752.963V340.07C752.963 339.146 752.207 338.39 751.283 338.39H750.317L747.923 340.007V347H745.823V336.29ZM758.414 342.254H760.514V343.094C760.514 344.081 761.333 344.9 762.32 344.9H763.727C764.798 344.9 765.554 344.228 765.554 343.304C765.554 340.406 758.624 339.776 758.624 335.786C758.624 333.728 760.241 332.3 762.53 332.3H763.517C765.68 332.3 767.444 334.043 767.444 336.206V336.836H765.344V336.206C765.344 335.198 764.525 334.4 763.517 334.4H762.53C761.396 334.4 760.724 334.925 760.724 335.786C760.724 338.012 767.654 338.873 767.654 343.304C767.654 345.404 765.953 347 763.727 347H762.32C760.157 347 758.414 345.257 758.414 343.094V342.254ZM774.702 351.41H772.455L774.387 346.16L771.006 336.29H773.232L775.521 343.031L777.999 336.29H780.246L774.702 351.41ZM783.598 343.472H785.698V343.892C785.698 344.48 786.244 344.9 787.147 344.9H789.268C790.255 344.9 790.738 344.564 790.738 344.039C790.738 341.666 783.745 343.199 783.745 339.125C783.745 337.424 785.11 336.29 787.105 336.29H789.121C791.011 336.29 792.481 337.655 792.481 339.419V339.608H790.381V339.419C790.381 338.831 789.856 338.39 789.121 338.39H787.105C786.223 338.39 785.845 338.684 785.845 339.125C785.845 340.826 792.838 339.755 792.838 344.039C792.838 345.803 791.389 347 789.268 347H787.147C785.11 347 783.598 345.677 783.598 343.892V343.472ZM803.225 347C801.125 347 799.445 345.32 799.445 343.22V338.39H796.19V336.29H799.445V333.56H801.545V336.29H805.43V338.39H801.545V343.22C801.545 344.165 802.28 344.9 803.225 344.9H805.43V347H803.225ZM818.022 339.86V342.128H810.882V343.199C810.882 344.123 811.638 344.879 812.562 344.879H814.242C815.166 344.879 815.922 344.123 815.922 343.199V342.989H818.022V343.199C818.022 345.278 816.342 347 814.242 347H812.562C810.483 347 808.782 345.278 808.782 343.199V340.07C808.782 337.97 810.483 336.29 812.562 336.29H814.242C816.279 336.29 817.917 337.865 818.022 339.86ZM810.882 340.448H815.922V340.07C815.922 339.125 815.187 338.39 814.242 338.39H812.562C811.617 338.39 810.882 339.146 810.882 340.07V340.448ZM820.953 336.29H823.053V337.508L824.313 336.29H824.481C825.594 336.29 826.371 336.773 826.77 337.781L828.303 336.29H828.471C830.13 336.29 831.033 337.34 831.033 339.65V347H828.933V339.65C828.933 339.251 828.933 338.915 828.891 338.684L827.043 340.448V347H824.943V339.65C824.943 339.251 824.943 338.915 824.901 338.684L823.053 340.448V347H820.953V336.29ZM824.25 338.054H824.376H824.25ZM828.24 338.054H828.366H828.24Z" fill="white"/>
<path d="M145.5 269V267.5H144V269H145.5ZM145.5 362H144V363.5H145.5V362ZM594 362V363.5H595.5V362H594ZM594 242V240.5H592.5V242H594ZM648.061 243.061C648.646 242.475 648.646 241.525 648.061 240.939L638.515 231.393C637.929 230.808 636.979 230.808 636.393 231.393C635.808 231.979 635.808 232.929 636.393 233.515L644.879 242L636.393 250.485C635.808 251.071 635.808 252.021 636.393 252.607C636.979 253.192 637.929 253.192 638.515 252.607L648.061 243.061ZM281.5 267.5H145.5V270.5H281.5V267.5ZM144 269V362H147V269H144ZM145.5 363.5H594V360.5H145.5V363.5ZM595.5 362V242H592.5V362H595.5ZM594 243.5H647V240.5H594V243.5Z" fill="#FFF73B"/>
<path d="M43.5 239V237.5H42V239H43.5ZM43.5 422H42V423.5H43.5V422ZM593.947 422V423.5H595.447V422H593.947ZM648.061 393.061C648.646 392.475 648.646 391.525 648.061 390.939L638.515 381.393C637.929 380.808 636.979 380.808 636.393 381.393C635.808 381.979 635.808 382.929 636.393 383.515L644.879 392L636.393 400.485C635.808 401.071 635.808 402.021 636.393 402.607C636.979 403.192 637.929 403.192 638.515 402.607L648.061 393.061ZM593.947 392V390.5H592.447V392H593.947ZM281.134 237.5H43.5V240.5H281.134V237.5ZM42 239V422H45V239H42ZM43.5 423.5H593.947V420.5H43.5V423.5ZM595.447 422V392H592.447V422H595.447ZM593.947 393.5H647V390.5H593.947V393.5Z" fill="#67FFD1"/>
<g filter="url(#filter0_b_1_228)">
<rect width="128" height="44" transform="translate(75 295)" fill="#F68935"/>
<path d="M95.4 325.58C95.4 327.56 93.8 329.2 91.8 329.2H90.2C88.22 329.2 86.6 327.56 86.6 325.58H88.6C88.6 326.46 89.32 327.18 90.2 327.18H91.8C92.68 327.18 93.4 326.46 93.4 325.58V323.88L91.74 325H90.2C88.22 325 86.6 323.38 86.6 321.4V318.4C86.6 316.4 88.22 314.8 90.2 314.8H91.74L93.4 315.92V314.8H95.4V325.58ZM88.6 321.4C88.6 322.28 89.32 323 90.2 323H91.12L93.4 321.46V318.34L91.12 316.8H90.2C89.32 316.8 88.6 317.52 88.6 318.4V321.4ZM107.392 314.8V325H105.392V323.88L103.732 325H102.192C100.212 325 98.5922 323.38 98.5922 321.4V318.4C98.5922 316.4 100.212 314.8 102.192 314.8H103.732L105.392 315.92V314.8H107.392ZM100.592 321.4C100.592 322.28 101.312 323 102.192 323H103.112L105.392 321.46V318.34L103.112 316.8H102.192C101.312 316.8 100.592 317.52 100.592 318.4V321.4ZM110.184 314.8H112.184V315.96L113.384 314.8H113.544C114.604 314.8 115.344 315.26 115.724 316.22L117.184 314.8H117.344C118.924 314.8 119.784 315.8 119.784 318V325H117.784V318C117.784 317.62 117.784 317.3 117.744 317.08L115.984 318.76V325H113.984V318C113.984 317.62 113.984 317.3 113.944 317.08L112.184 318.76V325H110.184V314.8ZM113.324 316.48H113.444H113.324ZM117.124 316.48H117.244H117.124ZM131.377 318.2V320.36H124.577V321.38C124.577 322.26 125.297 322.98 126.177 322.98H127.777C128.657 322.98 129.377 322.26 129.377 321.38V321.18H131.377V321.38C131.377 323.36 129.777 325 127.777 325H126.177C124.197 325 122.577 323.36 122.577 321.38V318.4C122.577 316.4 124.197 314.8 126.177 314.8H127.777C129.717 314.8 131.277 316.3 131.377 318.2ZM124.577 318.76H129.377V318.4C129.377 317.5 128.677 316.8 127.777 316.8H126.177C125.277 316.8 124.577 317.52 124.577 318.4V318.76ZM133.169 325.66H144.769V327.66H133.169V325.66ZM145.161 325.66H156.761V327.66H145.161V325.66ZM167.353 318.2V320.36H160.553V321.38C160.553 322.26 161.273 322.98 162.153 322.98H163.753C164.633 322.98 165.353 322.26 165.353 321.38V321.18H167.353V321.38C167.353 323.36 165.753 325 163.753 325H162.153C160.173 325 158.553 323.36 158.553 321.38V318.4C158.553 316.4 160.173 314.8 162.153 314.8H163.753C165.693 314.8 167.253 316.3 167.353 318.2ZM160.553 318.76H165.353V318.4C165.353 317.5 164.653 316.8 163.753 316.8H162.153C161.253 316.8 160.553 317.52 160.553 318.4V318.76ZM179.345 314.8V325H177.345V323.88L175.685 325H174.145C172.165 325 170.545 323.38 170.545 321.4V318.4C170.545 316.4 172.165 314.8 174.145 314.8H175.685L177.345 315.92V314.8H179.345ZM172.545 321.4C172.545 322.28 173.265 323 174.145 323H175.065L177.345 321.46V318.34L175.065 316.8H174.145C173.265 316.8 172.545 317.52 172.545 318.4V321.4ZM189.238 325C187.238 325 185.638 323.4 185.638 321.4V316.8H182.538V314.8H185.638V312.2H187.638V314.8H191.338V316.8H187.638V321.4C187.638 322.3 188.338 323 189.238 323H191.338V325H189.238Z" fill="white"/>
</g>
<g filter="url(#filter1_b_1_228)">
<rect width="56" height="44" transform="translate(374 340)" fill="#F8A25D"/>
<path d="M394.4 363.2V365.36H387.6V366.38C387.6 367.26 388.32 367.98 389.2 367.98H390.8C391.68 367.98 392.4 367.26 392.4 366.38V366.18H394.4V366.38C394.4 368.36 392.8 370 390.8 370H389.2C387.22 370 385.6 368.36 385.6 366.38V363.4C385.6 361.4 387.22 359.8 389.2 359.8H390.8C392.74 359.8 394.3 361.3 394.4 363.2ZM387.6 363.76H392.4V363.4C392.4 362.5 391.7 361.8 390.8 361.8H389.2C388.3 361.8 387.6 362.52 387.6 363.4V363.76ZM406.392 359.8V370H404.392V368.88L402.732 370H401.192C399.212 370 397.592 368.38 397.592 366.4V363.4C397.592 361.4 399.212 359.8 401.192 359.8H402.732L404.392 360.92V359.8H406.392ZM399.592 366.4C399.592 367.28 400.312 368 401.192 368H402.112L404.392 366.46V363.34L402.112 361.8H401.192C400.312 361.8 399.592 362.52 399.592 363.4V366.4ZM416.284 370C414.284 370 412.684 368.4 412.684 366.4V361.8H409.584V359.8H412.684V357.2H414.684V359.8H418.384V361.8H414.684V366.4C414.684 367.3 415.384 368 416.284 368H418.384V370H416.284Z" fill="white"/>
</g>
<g filter="url(#filter2_b_1_228)">
<rect width="68" height="44" transform="translate(368 401)" fill="#F8A25D"/>
<path d="M379.2 420.8H381.2V421.96L382.4 420.8H382.56C383.62 420.8 384.36 421.26 384.74 422.22L386.2 420.8H386.36C387.94 420.8 388.8 421.8 388.8 424V431H386.8V424C386.8 423.62 386.8 423.3 386.76 423.08L385 424.76V431H383V424C383 423.62 383 423.3 382.96 423.08L381.2 424.76V431H379.2V420.8ZM382.34 422.48H382.46H382.34ZM386.14 422.48H386.26H386.14ZM396.792 429C397.692 429 398.392 428.32 398.392 427.42V424.4C398.392 423.5 397.692 422.8 396.792 422.8H395.192C394.292 422.8 393.592 423.5 393.592 424.4V427.42C393.592 428.32 394.292 428.98 395.192 429H396.792ZM391.592 427.42V424.4C391.592 422.4 393.192 420.8 395.192 420.8H396.792C398.792 420.8 400.392 422.4 400.392 424.4V427.42C400.392 429.42 398.792 431 396.792 431H395.192C393.192 431 391.592 429.42 391.592 427.42ZM410.384 420.8H412.384V425.4L408.984 431H406.984L403.584 425.4V420.8H405.584V424.84L407.964 428.76H408.004L410.384 424.84V420.8ZM424.377 424.2V426.36H417.577V427.38C417.577 428.26 418.297 428.98 419.177 428.98H420.777C421.657 428.98 422.377 428.26 422.377 427.38V427.18H424.377V427.38C424.377 429.36 422.777 431 420.777 431H419.177C417.197 431 415.577 429.36 415.577 427.38V424.4C415.577 422.4 417.197 420.8 419.177 420.8H420.777C422.717 420.8 424.277 422.3 424.377 424.2ZM417.577 424.76H422.377V424.4C422.377 423.5 421.677 422.8 420.777 422.8H419.177C418.277 422.8 417.577 423.52 417.577 424.4V424.76Z" fill="white"/>
</g>
<g filter="url(#filter3_b_1_228)">
<rect width="140" height="44" transform="translate(19 401)" fill="#F18B3C"/>
<path d="M39.4 431.58C39.4 433.56 37.8 435.2 35.8 435.2H34.2C32.22 435.2 30.6 433.56 30.6 431.58H32.6C32.6 432.46 33.32 433.18 34.2 433.18H35.8C36.68 433.18 37.4 432.46 37.4 431.58V429.88L35.74 431H34.2C32.22 431 30.6 429.38 30.6 427.4V424.4C30.6 422.4 32.22 420.8 34.2 420.8H35.74L37.4 421.92V420.8H39.4V431.58ZM32.6 427.4C32.6 428.28 33.32 429 34.2 429H35.12L37.4 427.46V424.34L35.12 422.8H34.2C33.32 422.8 32.6 423.52 32.6 424.4V427.4ZM51.3922 420.8V431H49.3922V429.88L47.7322 431H46.1922C44.2122 431 42.5922 429.38 42.5922 427.4V424.4C42.5922 422.4 44.2122 420.8 46.1922 420.8H47.7322L49.3922 421.92V420.8H51.3922ZM44.5922 427.4C44.5922 428.28 45.3122 429 46.1922 429H47.1122L49.3922 427.46V424.34L47.1122 422.8H46.1922C45.3122 422.8 44.5922 423.52 44.5922 424.4V427.4ZM54.1844 420.8H56.1844V421.96L57.3844 420.8H57.5444C58.6044 420.8 59.3444 421.26 59.7244 422.22L61.1844 420.8H61.3444C62.9244 420.8 63.7844 421.8 63.7844 424V431H61.7844V424C61.7844 423.62 61.7844 423.3 61.7444 423.08L59.9844 424.76V431H57.9844V424C57.9844 423.62 57.9844 423.3 57.9444 423.08L56.1844 424.76V431H54.1844V420.8ZM57.3244 422.48H57.4444H57.3244ZM61.1244 422.48H61.2444H61.1244ZM75.3766 424.2V426.36H68.5766V427.38C68.5766 428.26 69.2966 428.98 70.1766 428.98H71.7766C72.6566 428.98 73.3766 428.26 73.3766 427.38V427.18H75.3766V427.38C75.3766 429.36 73.7766 431 71.7766 431H70.1766C68.1966 431 66.5766 429.36 66.5766 427.38V424.4C66.5766 422.4 68.1966 420.8 70.1766 420.8H71.7766C73.7166 420.8 75.2766 422.3 75.3766 424.2ZM68.5766 424.76H73.3766V424.4C73.3766 423.5 72.6766 422.8 71.7766 422.8H70.1766C69.2766 422.8 68.5766 423.52 68.5766 424.4V424.76ZM77.1688 431.66H88.7688V433.66H77.1688V431.66ZM89.1609 431.66H100.761V433.66H89.1609V431.66ZM102.153 420.8H104.153V421.96L105.353 420.8H105.513C106.573 420.8 107.313 421.26 107.693 422.22L109.153 420.8H109.313C110.893 420.8 111.753 421.8 111.753 424V431H109.753V424C109.753 423.62 109.753 423.3 109.713 423.08L107.953 424.76V431H105.953V424C105.953 423.62 105.953 423.3 105.913 423.08L104.153 424.76V431H102.153V420.8ZM105.293 422.48H105.413H105.293ZM109.093 422.48H109.213H109.093ZM119.745 429C120.645 429 121.345 428.32 121.345 427.42V424.4C121.345 423.5 120.645 422.8 119.745 422.8H118.145C117.245 422.8 116.545 423.5 116.545 424.4V427.42C116.545 428.32 117.245 428.98 118.145 429H119.745ZM114.545 427.42V424.4C114.545 422.4 116.145 420.8 118.145 420.8H119.745C121.745 420.8 123.345 422.4 123.345 424.4V427.42C123.345 429.42 121.745 431 119.745 431H118.145C116.145 431 114.545 429.42 114.545 427.42ZM133.338 420.8H135.338V425.4L131.938 431H129.938L126.538 425.4V420.8H128.538V424.84L130.918 428.76H130.958L133.338 424.84V420.8ZM147.33 424.2V426.36H140.53V427.38C140.53 428.26 141.25 428.98 142.13 428.98H143.73C144.61 428.98 145.33 428.26 145.33 427.38V427.18H147.33V427.38C147.33 429.36 145.73 431 143.73 431H142.13C140.15 431 138.53 429.36 138.53 427.38V424.4C138.53 422.4 140.15 420.8 142.13 420.8H143.73C145.67 420.8 147.23 422.3 147.33 424.2ZM140.53 424.76H145.33V424.4C145.33 423.5 144.63 422.8 143.73 422.8H142.13C141.23 422.8 140.53 423.52 140.53 424.4V424.76Z" fill="white"/>
</g>
<defs>
<filter id="filter0_b_1_228" x="11" y="231" width="256" height="172" filterUnits="userSpaceOnUse" color-interpolation-filters="sRGB">
<feFlood flood-opacity="0" result="BackgroundImageFix"/>
<feGaussianBlur in="BackgroundImageFix" stdDeviation="32"/>
<feComposite in2="SourceAlpha" operator="in" result="effect1_backgroundBlur_1_228"/>
<feBlend mode="normal" in="SourceGraphic" in2="effect1_backgroundBlur_1_228" result="shape"/>
</filter>
<filter id="filter1_b_1_228" x="310" y="276" width="184" height="172" filterUnits="userSpaceOnUse" color-interpolation-filters="sRGB">
<feFlood flood-opacity="0" result="BackgroundImageFix"/>
<feGaussianBlur in="BackgroundImageFix" stdDeviation="32"/>
<feComposite in2="SourceAlpha" operator="in" result="effect1_backgroundBlur_1_228"/>
<feBlend mode="normal" in="SourceGraphic" in2="effect1_backgroundBlur_1_228" result="shape"/>
</filter>
<filter id="filter2_b_1_228" x="304" y="337" width="196" height="172" filterUnits="userSpaceOnUse" color-interpolation-filters="sRGB">
<feFlood flood-opacity="0" result="BackgroundImageFix"/>
<feGaussianBlur in="BackgroundImageFix" stdDeviation="32"/>
<feComposite in2="SourceAlpha" operator="in" result="effect1_backgroundBlur_1_228"/>
<feBlend mode="normal" in="SourceGraphic" in2="effect1_backgroundBlur_1_228" result="shape"/>
</filter>
<filter id="filter3_b_1_228" x="-45" y="337" width="268" height="172" filterUnits="userSpaceOnUse" color-interpolation-filters="sRGB">
<feFlood flood-opacity="0" result="BackgroundImageFix"/>
<feGaussianBlur in="BackgroundImageFix" stdDeviation="32"/>
<feComposite in2="SourceAlpha" operator="in" result="effect1_backgroundBlur_1_228"/>
<feBlend mode="normal" in="SourceGraphic" in2="effect1_backgroundBlur_1_228" result="shape"/>
</filter>
</defs>
</svg>
