<svg width="1000" height="501" viewBox="0 0 1000 501" fill="none" xmlns="http://www.w3.org/2000/svg">
<rect width="1000" height="501" fill="#F46700"/>
<rect x="265" y="37" width="705" height="427" fill="white" fill-opacity="0.2"/>
<rect x="41" y="37" width="171" height="106" fill="white" fill-opacity="0.2"/>
<path d="M301.502 68.56L302.712 75.49L303.24 69V64.6H305.44V69.66L304.12 80H302.36L300.6 73.422L298.84 80H297.08L295.76 69.66V64.6H297.96V69L298.488 75.49L299.698 68.56H301.502ZM314.671 77.778C315.639 77.778 316.431 76.986 316.431 76.018V68.56C316.431 67.57 315.661 66.8 314.671 66.8H312.911C311.921 66.8 311.151 67.592 311.151 68.56V76.018C311.151 76.986 311.943 77.778 312.911 77.778H314.671ZM308.951 76.018V68.56C308.951 66.36 310.733 64.6 312.911 64.6H314.671C316.871 64.6 318.631 66.36 318.631 68.56V76.018C318.631 78.196 316.871 80 314.671 80H312.911C310.733 80 308.951 78.196 308.951 76.018ZM331.823 80H329.403L326.609 73.84H324.343V80H322.143V64.6H327.863C330.063 64.6 331.823 66.36 331.823 68.56V69.88C331.823 71.706 330.613 73.224 328.941 73.686L331.823 80ZM324.343 71.64H327.863C328.853 71.64 329.623 70.87 329.623 69.88V68.56C329.623 67.57 328.853 66.8 327.863 66.8H324.343V71.64ZM337.534 64.6V77.8H345.014V80H335.334V64.6H337.534ZM354.246 64.6C356.424 64.6 358.206 66.36 358.206 68.56V76.018C358.206 78.196 356.424 80 354.246 80H348.526V64.6H354.246ZM350.726 77.778H354.246C355.214 77.778 356.006 76.986 356.006 76.018V68.56C356.006 67.592 355.236 66.8 354.246 66.8H350.726V77.778Z" fill="white"/>
<path d="M96.24 87.56C96.24 86.57 95.47 85.8 94.48 85.8H92.72C91.73 85.8 90.96 86.592 90.96 87.56V95.018C90.96 95.986 91.752 96.778 92.72 96.778H94.48C95.448 96.778 96.24 95.986 96.24 95.018V93.808H98.44V95.018C98.44 97.196 96.68 99 94.48 99H92.72C90.542 99 88.76 97.196 88.76 95.018V87.56C88.76 85.36 90.542 83.6 92.72 83.6H94.48C96.68 83.6 98.44 85.36 98.44 87.56V88.77H96.24V87.56ZM104.151 83.6V96.8H111.631V99H101.951V83.6H104.151ZM115.143 83.6H124.823V85.8H121.083V96.8H124.823V99H115.143V96.8H118.883V85.8H115.143V83.6ZM138.014 83.6V85.8H130.534V89.826H137.134V92.026H130.534V96.8H138.014V99H128.334V83.6H138.014ZM149.006 83.6H151.206V99H148.016L143.726 87.296V99H141.526V83.6H144.716L149.006 95.304V83.6ZM154.717 83.6H164.397V85.8H160.657V99H158.457V85.8H154.717V83.6Z" fill="white"/>
<rect x="42.5" y="254.5" width="168" height="103" fill="white" fill-opacity="0.2"/>
<rect x="42.5" y="254.5" width="168" height="103" stroke="white" stroke-width="3"/>
<path d="M68.76 299.38H70.96V305.012L72.786 303.78H74.48C76.658 303.78 78.44 305.54 78.44 307.74V311.04C78.44 313.218 76.658 315 74.48 315H72.786L70.96 313.768V315H68.76V299.38ZM70.96 311.106L73.468 312.8H74.48C75.448 312.8 76.24 312.008 76.24 311.04V307.74C76.24 306.772 75.448 305.98 74.48 305.98H73.468L70.96 307.674V311.106ZM91.6314 303.78V315H89.4314V313.768L87.6054 315H85.9114C83.7334 315 81.9514 313.218 81.9514 311.04V307.74C81.9514 305.54 83.7334 303.78 85.9114 303.78H87.6054L89.4314 305.012V303.78H91.6314ZM84.1514 311.04C84.1514 312.008 84.9434 312.8 85.9114 312.8H86.9234L89.4314 311.106V307.674L86.9234 305.98H85.9114C84.9434 305.98 84.1514 306.772 84.1514 307.74V311.04ZM102.513 315C100.313 315 98.5528 313.24 98.5528 311.04V305.98H95.1428V303.78H98.5528V300.92H100.753V303.78H104.823V305.98H100.753V311.04C100.753 312.03 101.523 312.8 102.513 312.8H104.823V315H102.513ZM115.814 307.74C115.814 306.75 115.044 305.98 114.054 305.98H112.294C111.304 305.98 110.534 306.772 110.534 307.74V311.018C110.534 311.986 111.326 312.778 112.294 312.778H114.054C115.022 312.778 115.814 311.986 115.814 311.018V310.798H118.014V311.018C118.014 313.196 116.254 315 114.054 315H112.294C110.116 315 108.334 313.196 108.334 311.018V307.74C108.334 305.54 110.116 303.78 112.294 303.78H114.054C116.254 303.78 118.014 305.54 118.014 307.74V307.96H115.814V307.74ZM121.526 299.38H123.726V305.012L125.552 303.78H127.246C129.424 303.78 131.206 305.54 131.206 307.74V315H129.006V307.74C129.006 306.772 128.214 305.98 127.246 305.98H126.234L123.726 307.674V315H121.526V299.38ZM142.197 303.56C142.197 302.57 141.427 301.8 140.437 301.8H138.677C137.687 301.8 136.917 302.592 136.917 303.56V311.018C136.917 311.986 137.709 312.778 138.677 312.778H140.437C141.405 312.778 142.197 311.986 142.197 311.018V309.808H144.397V311.018C144.397 313.196 142.637 315 140.437 315H138.677C136.499 315 134.717 313.196 134.717 311.018V303.56C134.717 301.36 136.499 299.6 138.677 299.6H140.437C142.637 299.6 144.397 301.36 144.397 303.56V304.77H142.197V303.56ZM157.588 303.78V315H155.388V313.768L153.562 315H151.868C149.69 315 147.908 313.218 147.908 311.04V307.74C147.908 305.54 149.69 303.78 151.868 303.78H153.562L155.388 305.012V303.78H157.588ZM150.108 311.04C150.108 312.008 150.9 312.8 151.868 312.8H152.88L155.388 311.106V307.674L152.88 305.98H151.868C150.9 305.98 150.108 306.772 150.108 307.74V311.04ZM166.93 312.8H170.78V315H161.1V312.8H164.73V301.58H161.1V299.38H166.93V312.8ZM180.121 312.8H183.971V315H174.291V312.8H177.921V301.58H174.291V299.38H180.121V312.8Z" fill="white"/>
<rect x="301.5" y="144.5" width="168" height="281" stroke="white" stroke-width="3"/>
<path d="M327.76 278.38H329.96V284.012L331.786 282.78H333.48C335.658 282.78 337.44 284.54 337.44 286.74V290.04C337.44 292.218 335.658 294 333.48 294H331.786L329.96 292.768V294H327.76V278.38ZM329.96 290.106L332.468 291.8H333.48C334.448 291.8 335.24 291.008 335.24 290.04V286.74C335.24 285.772 334.448 284.98 333.48 284.98H332.468L329.96 286.674V290.106ZM350.631 282.78V294H348.431V292.768L346.605 294H344.911C342.733 294 340.951 292.218 340.951 290.04V286.74C340.951 284.54 342.733 282.78 344.911 282.78H346.605L348.431 284.012V282.78H350.631ZM343.151 290.04C343.151 291.008 343.943 291.8 344.911 291.8H345.923L348.431 290.106V286.674L345.923 284.98H344.911C343.943 284.98 343.151 285.772 343.151 286.74V290.04ZM361.513 294C359.313 294 357.553 292.24 357.553 290.04V284.98H354.143V282.78H357.553V279.92H359.753V282.78H363.823V284.98H359.753V290.04C359.753 291.03 360.523 291.8 361.513 291.8H363.823V294H361.513ZM374.814 286.74C374.814 285.75 374.044 284.98 373.054 284.98H371.294C370.304 284.98 369.534 285.772 369.534 286.74V290.018C369.534 290.986 370.326 291.778 371.294 291.778H373.054C374.022 291.778 374.814 290.986 374.814 290.018V289.798H377.014V290.018C377.014 292.196 375.254 294 373.054 294H371.294C369.116 294 367.334 292.196 367.334 290.018V286.74C367.334 284.54 369.116 282.78 371.294 282.78H373.054C375.254 282.78 377.014 284.54 377.014 286.74V286.96H374.814V286.74ZM380.526 278.38H382.726V284.012L384.552 282.78H386.246C388.424 282.78 390.206 284.54 390.206 286.74V294H388.006V286.74C388.006 285.772 387.214 284.98 386.246 284.98H385.234L382.726 286.674V294H380.526V278.38ZM401.197 282.56C401.197 281.57 400.427 280.8 399.437 280.8H397.677C396.687 280.8 395.917 281.592 395.917 282.56V290.018C395.917 290.986 396.709 291.778 397.677 291.778H399.437C400.405 291.778 401.197 290.986 401.197 290.018V288.808H403.397V290.018C403.397 292.196 401.637 294 399.437 294H397.677C395.499 294 393.717 292.196 393.717 290.018V282.56C393.717 280.36 395.499 278.6 397.677 278.6H399.437C401.637 278.6 403.397 280.36 403.397 282.56V283.77H401.197V282.56ZM416.588 282.78V294H414.388V292.768L412.562 294H410.868C408.69 294 406.908 292.218 406.908 290.04V286.74C406.908 284.54 408.69 282.78 410.868 282.78H412.562L414.388 284.012V282.78H416.588ZM409.108 290.04C409.108 291.008 409.9 291.8 410.868 291.8H411.88L414.388 290.106V286.674L411.88 284.98H410.868C409.9 284.98 409.108 285.772 409.108 286.74V290.04ZM425.93 291.8H429.78V294H420.1V291.8H423.73V280.58H420.1V278.38H425.93V291.8ZM439.121 291.8H442.971V294H433.291V291.8H436.921V280.58H433.291V278.38H439.121V291.8Z" fill="white"/>
<rect x="622" y="296" width="305" height="131" fill="white" fill-opacity="0.15"/>
<rect x="622" y="143" width="305" height="131" fill="white" fill-opacity="0.15"/>
<rect x="646" y="359" width="259" height="44" fill="white"/>
<rect x="646" y="206" width="259" height="44" fill="white"/>
<path d="M753.2 376.8H755.2V377.96L756.4 376.8H756.56C757.62 376.8 758.36 377.26 758.74 378.22L760.2 376.8H760.36C761.94 376.8 762.8 377.8 762.8 380V387H760.8V380C760.8 379.62 760.8 379.3 760.76 379.08L759 380.76V387H757V380C757 379.62 757 379.3 756.96 379.08L755.2 380.76V387H753.2V376.8ZM756.34 378.48H756.46H756.34ZM760.14 378.48H760.26H760.14ZM770.792 385C771.692 385 772.392 384.32 772.392 383.42V380.4C772.392 379.5 771.692 378.8 770.792 378.8H769.192C768.292 378.8 767.592 379.5 767.592 380.4V383.42C767.592 384.32 768.292 384.98 769.192 385H770.792ZM765.592 383.42V380.4C765.592 378.4 767.192 376.8 769.192 376.8H770.792C772.792 376.8 774.392 378.4 774.392 380.4V383.42C774.392 385.42 772.792 387 770.792 387H769.192C767.192 387 765.592 385.42 765.592 383.42ZM784.384 376.8H786.384V381.4L782.984 387H780.984L777.584 381.4V376.8H779.584V380.84L781.964 384.76H782.004L784.384 380.84V376.8ZM798.377 380.2V382.36H791.577V383.38C791.577 384.26 792.297 384.98 793.177 384.98H794.777C795.657 384.98 796.377 384.26 796.377 383.38V383.18H798.377V383.38C798.377 385.36 796.777 387 794.777 387H793.177C791.197 387 789.577 385.36 789.577 383.38V380.4C789.577 378.4 791.197 376.8 793.177 376.8H794.777C796.717 376.8 798.277 378.3 798.377 380.2ZM791.577 380.76H796.377V380.4C796.377 379.5 795.677 378.8 794.777 378.8H793.177C792.277 378.8 791.577 379.52 791.577 380.4V380.76Z" fill="#F46700"/>
<path d="M768.4 227.2V229.36H761.6V230.38C761.6 231.26 762.32 231.98 763.2 231.98H764.8C765.68 231.98 766.4 231.26 766.4 230.38V230.18H768.4V230.38C768.4 232.36 766.8 234 764.8 234H763.2C761.22 234 759.6 232.36 759.6 230.38V227.4C759.6 225.4 761.22 223.8 763.2 223.8H764.8C766.74 223.8 768.3 225.3 768.4 227.2ZM761.6 227.76H766.4V227.4C766.4 226.5 765.7 225.8 764.8 225.8H763.2C762.3 225.8 761.6 226.52 761.6 227.4V227.76ZM780.392 223.8V234H778.392V232.88L776.732 234H775.192C773.212 234 771.592 232.38 771.592 230.4V227.4C771.592 225.4 773.212 223.8 775.192 223.8H776.732L778.392 224.92V223.8H780.392ZM773.592 230.4C773.592 231.28 774.312 232 775.192 232H776.112L778.392 230.46V227.34L776.112 225.8H775.192C774.312 225.8 773.592 226.52 773.592 227.4V230.4ZM790.284 234C788.284 234 786.684 232.4 786.684 230.4V225.8H783.584V223.8H786.684V221.2H788.684V223.8H792.384V225.8H788.684V230.4C788.684 231.3 789.384 232 790.284 232H792.384V234H790.284Z" fill="#F46700"/>
<path d="M651.78 322.3V334.9H658.92V337H649.68V322.3H651.78ZM667.732 334.9C668.677 334.9 669.412 334.186 669.412 333.241V330.07C669.412 329.125 668.677 328.39 667.732 328.39H666.052C665.107 328.39 664.372 329.125 664.372 330.07V333.241C664.372 334.186 665.107 334.879 666.052 334.9H667.732ZM662.272 333.241V330.07C662.272 327.97 663.952 326.29 666.052 326.29H667.732C669.832 326.29 671.512 327.97 671.512 330.07V333.241C671.512 335.341 669.832 337 667.732 337H666.052C663.952 337 662.272 335.341 662.272 333.241ZM682.004 330.07C682.004 329.125 681.269 328.39 680.324 328.39H678.644C677.699 328.39 676.964 329.146 676.964 330.07V333.199C676.964 334.123 677.72 334.879 678.644 334.879H680.324C681.248 334.879 682.004 334.123 682.004 333.199V332.989H684.104V333.199C684.104 335.278 682.424 337 680.324 337H678.644C676.565 337 674.864 335.278 674.864 333.199V330.07C674.864 327.97 676.565 326.29 678.644 326.29H680.324C682.424 326.29 684.104 327.97 684.104 330.07V330.28H682.004V330.07ZM696.695 326.29V337H694.595V335.824L692.852 337H691.235C689.156 337 687.455 335.299 687.455 333.22V330.07C687.455 327.97 689.156 326.29 691.235 326.29H692.852L694.595 327.466V326.29H696.695ZM689.555 333.22C689.555 334.144 690.311 334.9 691.235 334.9H692.201L694.595 333.283V330.007L692.201 328.39H691.235C690.311 328.39 689.555 329.146 689.555 330.07V333.22ZM707.082 337C704.982 337 703.302 335.32 703.302 333.22V328.39H700.047V326.29H703.302V323.56H705.402V326.29H709.287V328.39H705.402V333.22C705.402 334.165 706.137 334.9 707.082 334.9H709.287V337H707.082ZM718.204 334.9H721.879V337H712.639V334.9H716.104V328.39H712.639V326.29H718.204V334.9ZM715.894 324.4V322.3H718.204V324.4H715.894ZM730.691 334.9C731.636 334.9 732.371 334.186 732.371 333.241V330.07C732.371 329.125 731.636 328.39 730.691 328.39H729.011C728.066 328.39 727.331 329.125 727.331 330.07V333.241C727.331 334.186 728.066 334.879 729.011 334.9H730.691ZM725.231 333.241V330.07C725.231 327.97 726.911 326.29 729.011 326.29H730.691C732.791 326.29 734.471 327.97 734.471 330.07V333.241C734.471 335.341 732.791 337 730.691 337H729.011C726.911 337 725.231 335.341 725.231 333.241ZM737.823 326.29H739.923V327.466L741.666 326.29H743.283C745.362 326.29 747.063 327.97 747.063 330.07V337H744.963V330.07C744.963 329.146 744.207 328.39 743.283 328.39H742.317L739.923 330.007V337H737.823V326.29ZM750.414 332.254H752.514V333.094C752.514 334.081 753.333 334.9 754.32 334.9H755.727C756.798 334.9 757.554 334.228 757.554 333.304C757.554 330.406 750.624 329.776 750.624 325.786C750.624 323.728 752.241 322.3 754.53 322.3H755.517C757.68 322.3 759.444 324.043 759.444 326.206V326.836H757.344V326.206C757.344 325.198 756.525 324.4 755.517 324.4H754.53C753.396 324.4 752.724 324.925 752.724 325.786C752.724 328.012 759.654 328.873 759.654 333.304C759.654 335.404 757.953 337 755.727 337H754.32C752.157 337 750.414 335.257 750.414 333.094V332.254ZM766.702 341.41H764.455L766.387 336.16L763.006 326.29H765.232L767.521 333.031L769.999 326.29H772.246L766.702 341.41ZM775.598 333.472H777.698V333.892C777.698 334.48 778.244 334.9 779.147 334.9H781.268C782.255 334.9 782.738 334.564 782.738 334.039C782.738 331.666 775.745 333.199 775.745 329.125C775.745 327.424 777.11 326.29 779.105 326.29H781.121C783.011 326.29 784.481 327.655 784.481 329.419V329.608H782.381V329.419C782.381 328.831 781.856 328.39 781.121 328.39H779.105C778.223 328.39 777.845 328.684 777.845 329.125C777.845 330.826 784.838 329.755 784.838 334.039C784.838 335.803 783.389 337 781.268 337H779.147C777.11 337 775.598 335.677 775.598 333.892V333.472ZM795.225 337C793.125 337 791.445 335.32 791.445 333.22V328.39H788.19V326.29H791.445V323.56H793.545V326.29H797.43V328.39H793.545V333.22C793.545 334.165 794.28 334.9 795.225 334.9H797.43V337H795.225ZM810.022 329.86V332.128H802.882V333.199C802.882 334.123 803.638 334.879 804.562 334.879H806.242C807.166 334.879 807.922 334.123 807.922 333.199V332.989H810.022V333.199C810.022 335.278 808.342 337 806.242 337H804.562C802.483 337 800.782 335.278 800.782 333.199V330.07C800.782 327.97 802.483 326.29 804.562 326.29H806.242C808.279 326.29 809.917 327.865 810.022 329.86ZM802.882 330.448H807.922V330.07C807.922 329.125 807.187 328.39 806.242 328.39H804.562C803.617 328.39 802.882 329.146 802.882 330.07V330.448ZM812.953 326.29H815.053V327.508L816.313 326.29H816.481C817.594 326.29 818.371 326.773 818.77 327.781L820.303 326.29H820.471C822.13 326.29 823.033 327.34 823.033 329.65V337H820.933V329.65C820.933 329.251 820.933 328.915 820.891 328.684L819.043 330.448V337H816.943V329.65C816.943 329.251 816.943 328.915 816.901 328.684L815.053 330.448V337H812.953V326.29ZM816.25 328.054H816.376H816.25ZM820.24 328.054H820.366H820.24Z" fill="white"/>
<path d="M658.92 169.3V171.4H651.78V175.243H658.08V177.343H651.78V181.9H658.92V184H649.68V169.3H658.92ZM662.272 173.29H664.372V174.466L666.115 173.29H667.732C669.811 173.29 671.512 174.97 671.512 177.07V184H669.412V177.07C669.412 176.146 668.656 175.39 667.732 175.39H666.766L664.372 177.007V184H662.272V173.29ZM684.104 176.86V179.128H676.964V180.199C676.964 181.123 677.72 181.879 678.644 181.879H680.324C681.248 181.879 682.004 181.123 682.004 180.199V179.989H684.104V180.199C684.104 182.278 682.424 184 680.324 184H678.644C676.565 184 674.864 182.278 674.864 180.199V177.07C674.864 174.97 676.565 173.29 678.644 173.29H680.324C682.361 173.29 683.999 174.865 684.104 176.86ZM676.964 177.448H682.004V177.07C682.004 176.125 681.269 175.39 680.324 175.39H678.644C677.699 175.39 676.964 176.146 676.964 177.07V177.448ZM687.455 173.29H689.555V174.97L692.054 173.29H692.915C694.994 173.29 696.695 174.97 696.695 177.07V177.91H694.595V177.07C694.595 176.146 693.839 175.39 692.915 175.39H692.705L689.555 177.511V184H687.455V173.29ZM709.287 184.609C709.287 186.688 707.607 188.41 705.507 188.41H703.827C701.748 188.41 700.047 186.688 700.047 184.609H702.147C702.147 185.533 702.903 186.289 703.827 186.289H705.507C706.431 186.289 707.187 185.533 707.187 184.609V182.824L705.444 184H703.827C701.748 184 700.047 182.299 700.047 180.22V177.07C700.047 174.97 701.748 173.29 703.827 173.29H705.444L707.187 174.466V173.29H709.287V184.609ZM702.147 180.22C702.147 181.144 702.903 181.9 703.827 181.9H704.793L707.187 180.283V177.007L704.793 175.39H703.827C702.903 175.39 702.147 176.146 702.147 177.07V180.22ZM716.335 188.41H714.088L716.02 183.16L712.639 173.29H714.865L717.154 180.031L719.632 173.29H721.879L716.335 188.41ZM725.231 179.254H727.331V180.094C727.331 181.081 728.15 181.9 729.137 181.9H730.544C731.615 181.9 732.371 181.228 732.371 180.304C732.371 177.406 725.441 176.776 725.441 172.786C725.441 170.728 727.058 169.3 729.347 169.3H730.334C732.497 169.3 734.261 171.043 734.261 173.206V173.836H732.161V173.206C732.161 172.198 731.342 171.4 730.334 171.4H729.347C728.213 171.4 727.541 171.925 727.541 172.786C727.541 175.012 734.471 175.873 734.471 180.304C734.471 182.404 732.77 184 730.544 184H729.137C726.974 184 725.231 182.257 725.231 180.094V179.254ZM741.519 188.41H739.272L741.204 183.16L737.823 173.29H740.049L742.338 180.031L744.816 173.29H747.063L741.519 188.41ZM750.414 180.472H752.514V180.892C752.514 181.48 753.06 181.9 753.963 181.9H756.084C757.071 181.9 757.554 181.564 757.554 181.039C757.554 178.666 750.561 180.199 750.561 176.125C750.561 174.424 751.926 173.29 753.921 173.29H755.937C757.827 173.29 759.297 174.655 759.297 176.419V176.608H757.197V176.419C757.197 175.831 756.672 175.39 755.937 175.39H753.921C753.039 175.39 752.661 175.684 752.661 176.125C752.661 177.826 759.654 176.755 759.654 181.039C759.654 182.803 758.205 184 756.084 184H753.963C751.926 184 750.414 182.677 750.414 180.892V180.472ZM770.041 184C767.941 184 766.261 182.32 766.261 180.22V175.39H763.006V173.29H766.261V170.56H768.361V173.29H772.246V175.39H768.361V180.22C768.361 181.165 769.096 181.9 770.041 181.9H772.246V184H770.041ZM784.838 176.86V179.128H777.698V180.199C777.698 181.123 778.454 181.879 779.378 181.879H781.058C781.982 181.879 782.738 181.123 782.738 180.199V179.989H784.838V180.199C784.838 182.278 783.158 184 781.058 184H779.378C777.299 184 775.598 182.278 775.598 180.199V177.07C775.598 174.97 777.299 173.29 779.378 173.29H781.058C783.095 173.29 784.733 174.865 784.838 176.86ZM777.698 177.448H782.738V177.07C782.738 176.125 782.003 175.39 781.058 175.39H779.378C778.433 175.39 777.698 176.146 777.698 177.07V177.448ZM787.77 173.29H789.87V174.508L791.13 173.29H791.298C792.411 173.29 793.188 173.773 793.587 174.781L795.12 173.29H795.288C796.947 173.29 797.85 174.34 797.85 176.65V184H795.75V176.65C795.75 176.251 795.75 175.915 795.708 175.684L793.86 177.448V184H791.76V176.65C791.76 176.251 791.76 175.915 791.718 175.684L789.87 177.448V184H787.77V173.29ZM791.067 175.054H791.193H791.067ZM795.057 175.054H795.183H795.057Z" fill="white"/>
<path d="M124.939 242.061C125.525 242.646 126.475 242.646 127.061 242.061L136.607 232.515C137.192 231.929 137.192 230.979 136.607 230.393C136.021 229.808 135.071 229.808 134.485 230.393L126 238.879L117.515 230.393C116.929 229.808 115.979 229.808 115.393 230.393C114.808 230.979 114.808 231.929 115.393 232.515L124.939 242.061ZM124.5 143V241H127.5V143H124.5Z" fill="white"/>
<path d="M301.061 310.061C301.646 309.475 301.646 308.525 301.061 307.939L291.515 298.393C290.929 297.808 289.979 297.808 289.393 298.393C288.808 298.979 288.808 299.929 289.393 300.515L297.879 309L289.393 317.485C288.808 318.071 288.808 319.021 289.393 319.607C289.979 320.192 290.929 320.192 291.515 319.607L301.061 310.061ZM212 310.5H300V307.5H212V310.5Z" fill="white"/>
<path d="M643.061 221.061C643.646 220.475 643.646 219.525 643.061 218.939L633.515 209.393C632.929 208.808 631.979 208.808 631.393 209.393C630.808 209.979 630.808 210.929 631.393 211.515L639.879 220L631.393 228.485C630.808 229.071 630.808 230.021 631.393 230.607C631.979 231.192 632.929 231.192 633.515 230.607L643.061 221.061ZM471 221.5H642V218.5H471V221.5Z" fill="white"/>
<path d="M643.061 370.061C643.646 369.475 643.646 368.525 643.061 367.939L633.515 358.393C632.929 357.808 631.979 357.808 631.393 358.393C630.808 358.979 630.808 359.929 631.393 360.515L639.879 369L631.393 377.485C630.808 378.071 630.808 379.021 631.393 379.607C631.979 380.192 632.929 380.192 633.515 379.607L643.061 370.061ZM471 370.5H642V367.5H471V370.5Z" fill="white"/>
<path d="M473.939 244.939C473.354 245.525 473.354 246.475 473.939 247.061L483.485 256.607C484.071 257.192 485.021 257.192 485.607 256.607C486.192 256.021 486.192 255.071 485.607 254.485L477.121 246L485.607 237.515C486.192 236.929 486.192 235.979 485.607 235.393C485.021 234.808 484.071 234.808 483.485 235.393L473.939 244.939ZM646 244.5H475V247.5H646V244.5Z" fill="white"/>
<path d="M473.939 393.939C473.354 394.525 473.354 395.475 473.939 396.061L483.485 405.607C484.071 406.192 485.021 406.192 485.607 405.607C486.192 405.021 486.192 404.071 485.607 403.485L477.121 395L485.607 386.515C486.192 385.929 486.192 384.979 485.607 384.393C485.021 383.808 484.071 383.808 483.485 384.393L473.939 393.939ZM646 393.5H475V396.5H646V393.5Z" fill="white"/>
<rect width="34" height="46" transform="translate(235 286)" fill="white"/>
<path d="M256.44 315.8V318H246.76V315.8H250.5V305.152L246.76 307.352V304.8L250.5 302.6H252.7V315.8H256.44Z" fill="#F46700"/>
<rect width="34" height="46" transform="translate(540 209)" fill="white"/>
<path d="M561.44 238.8V241H551.76V235.918L559.24 231.716V229.56C559.24 228.57 558.47 227.8 557.48 227.8H555.72C554.752 227.8 553.96 228.592 553.96 229.56V230.33H551.76V229.56C551.76 227.36 553.542 225.6 555.72 225.6H557.48C559.68 225.6 561.44 227.36 561.44 229.56V233.014L553.96 237.216V238.8H561.44Z" fill="#F46700"/>
<rect width="34" height="46" transform="translate(540 358)" fill="white"/>
<path d="M561.44 379.44C561.44 380.562 560.978 381.574 560.23 382.3C560.978 383.026 561.44 384.038 561.44 385.16V386.04C561.44 388.24 559.68 390 557.48 390H555.72C553.542 390 551.76 388.24 551.76 386.04V385.27H553.96V386.04C553.96 387.008 554.752 387.8 555.72 387.8H557.48C558.47 387.8 559.24 387.03 559.24 386.04V385.16C559.24 384.17 558.47 383.4 557.48 383.4H555.94V381.2H557.48C558.47 381.2 559.24 380.43 559.24 379.44V378.56C559.24 377.57 558.47 376.8 557.48 376.8H555.72C554.752 376.8 553.96 377.592 553.96 378.56V379.33H551.76V378.56C551.76 376.36 553.542 374.6 555.72 374.6H557.48C559.68 374.6 561.44 376.36 561.44 378.56V379.44Z" fill="#F46700"/>
</svg>
