<svg width="1920" height="1080" viewBox="0 0 1920 1080" fill="none" xmlns="http://www.w3.org/2000/svg">
<g clip-path="url(#clip0_1617_25)">
<rect width="1920" height="1080" fill="#FF7612"/>
<rect x="372" y="212" width="1175" height="871" stroke="white" stroke-width="6"/>
<rect opacity="0.2" x="375" y="216" width="382" height="864" fill="white"/>
<rect opacity="0.2" x="1162" y="215" width="382" height="864" fill="white"/>
<rect x="758" y="215" width="403" height="864" fill="white"/>
<path d="M496.36 993.6H514.84V997.8H507.7V1023H503.5V997.8H496.36V993.6ZM525.744 1023H521.544V1013.34L528.684 993.6H532.884L540.024 1013.34V1023H535.824V1016.2H525.744V1023ZM526.5 1012H535.068L530.826 1000.24H530.742L526.5 1012ZM564.367 1002.84C564.367 1004.77 563.653 1006.58 562.435 1007.88C564.115 1009.27 565.207 1011.37 565.207 1013.76V1015.44C565.207 1019.64 561.847 1023 557.647 1023H546.727V993.6H556.807C561.007 993.6 564.367 996.96 564.367 1001.16V1002.84ZM550.927 1018.8H557.647C559.537 1018.8 561.007 1017.33 561.007 1015.44V1013.76C561.007 1011.87 559.537 1010.4 557.647 1010.4H550.927V1018.8ZM550.927 1006.2H556.807C558.697 1006.2 560.167 1004.73 560.167 1002.84V1001.16C560.167 999.27 558.697 997.8 556.807 997.8H550.927V1006.2ZM576.111 993.6V1018.8H590.391V1023H571.911V993.6H576.111ZM615.574 993.6V997.8H601.294V1005.49H613.894V1009.69H601.294V1018.8H615.574V1023H597.094V993.6H615.574ZM622.278 1013.51H626.478V1015.19C626.478 1017.16 628.116 1018.8 630.09 1018.8H632.904C635.046 1018.8 636.558 1017.46 636.558 1015.61C636.558 1009.81 622.698 1008.55 622.698 1000.57C622.698 996.456 625.932 993.6 630.51 993.6H632.484C636.81 993.6 640.338 997.086 640.338 1001.41V1002.67H636.138V1001.41C636.138 999.396 634.5 997.8 632.484 997.8H630.51C628.242 997.8 626.898 998.85 626.898 1000.57C626.898 1005.02 640.758 1006.75 640.758 1015.61C640.758 1019.81 637.356 1023 632.904 1023H630.09C625.764 1023 622.278 1019.51 622.278 1015.19V1013.51Z" fill="white"/>
<path d="M1280.36 993.6H1298.84V997.8H1291.7V1023H1287.5V997.8H1280.36V993.6ZM1309.74 1023H1305.54V1013.34L1312.68 993.6H1316.88L1324.02 1013.34V1023H1319.82V1016.2H1309.74V1023ZM1310.5 1012H1319.07L1314.83 1000.24H1314.74L1310.5 1012ZM1348.37 1002.84C1348.37 1004.77 1347.65 1006.58 1346.44 1007.88C1348.12 1009.27 1349.21 1011.37 1349.21 1013.76V1015.44C1349.21 1019.64 1345.85 1023 1341.65 1023H1330.73V993.6H1340.81C1345.01 993.6 1348.37 996.96 1348.37 1001.16V1002.84ZM1334.93 1018.8H1341.65C1343.54 1018.8 1345.01 1017.33 1345.01 1015.44V1013.76C1345.01 1011.87 1343.54 1010.4 1341.65 1010.4H1334.93V1018.8ZM1334.93 1006.2H1340.81C1342.7 1006.2 1344.17 1004.73 1344.17 1002.84V1001.16C1344.17 999.27 1342.7 997.8 1340.81 997.8H1334.93V1006.2ZM1360.11 993.6V1018.8H1374.39V1023H1355.91V993.6H1360.11ZM1399.57 993.6V997.8H1385.29V1005.49H1397.89V1009.69H1385.29V1018.8H1399.57V1023H1381.09V993.6H1399.57ZM1406.28 1013.51H1410.48V1015.19C1410.48 1017.16 1412.12 1018.8 1414.09 1018.8H1416.9C1419.05 1018.8 1420.56 1017.46 1420.56 1015.61C1420.56 1009.81 1406.7 1008.55 1406.7 1000.57C1406.7 996.456 1409.93 993.6 1414.51 993.6H1416.48C1420.81 993.6 1424.34 997.086 1424.34 1001.41V1002.67H1420.14V1001.41C1420.14 999.396 1418.5 997.8 1416.48 997.8H1414.51C1412.24 997.8 1410.9 998.85 1410.9 1000.57C1410.9 1005.02 1424.76 1006.75 1424.76 1015.61C1424.76 1019.81 1421.36 1023 1416.9 1023H1414.09C1409.76 1023 1406.28 1019.51 1406.28 1015.19V1013.51Z" fill="white"/>
<path d="M911.322 1001.16L913.632 1014.39L914.64 1002V993.6H918.84V1003.26L916.32 1023H912.96L909.6 1010.44L906.24 1023H902.88L900.36 1003.26V993.6H904.56V1002L905.568 1014.39L907.878 1001.16H911.322ZM936.464 1018.76C938.312 1018.76 939.824 1017.25 939.824 1015.4V1001.16C939.824 999.27 938.354 997.8 936.464 997.8H933.104C931.214 997.8 929.744 999.312 929.744 1001.16V1015.4C929.744 1017.25 931.256 1018.76 933.104 1018.76H936.464ZM925.544 1015.4V1001.16C925.544 996.96 928.946 993.6 933.104 993.6H936.464C940.664 993.6 944.024 996.96 944.024 1001.16V1015.4C944.024 1019.56 940.664 1023 936.464 1023H933.104C928.946 1023 925.544 1019.56 925.544 1015.4ZM969.207 1023H964.587L959.253 1011.24H954.927V1023H950.727V993.6H961.647C965.847 993.6 969.207 996.96 969.207 1001.16V1003.68C969.207 1007.17 966.897 1010.06 963.705 1010.95L969.207 1023ZM954.927 1007.04H961.647C963.537 1007.04 965.007 1005.57 965.007 1003.68V1001.16C965.007 999.27 963.537 997.8 961.647 997.8H954.927V1007.04ZM980.111 993.6V1018.8H994.391V1023H975.911V993.6H980.111ZM1012.01 993.6C1016.17 993.6 1019.57 996.96 1019.57 1001.16V1015.4C1019.57 1019.56 1016.17 1023 1012.01 1023H1001.09V993.6H1012.01ZM1005.29 1018.76H1012.01C1013.86 1018.76 1015.37 1017.25 1015.37 1015.4V1001.16C1015.37 999.312 1013.9 997.8 1012.01 997.8H1005.29V1018.76Z" fill="#FF7612"/>
<rect width="220" height="98" transform="translate(73 347)" fill="white"/>
<path d="M110.36 402.508H114.56V404.188C114.56 406.162 116.198 407.8 118.172 407.8H120.986C123.128 407.8 124.64 406.456 124.64 404.608C124.64 398.812 110.78 397.552 110.78 389.572C110.78 385.456 114.014 382.6 118.592 382.6H120.566C124.892 382.6 128.42 386.086 128.42 390.412V391.672H124.22V390.412C124.22 388.396 122.582 386.8 120.566 386.8H118.592C116.324 386.8 114.98 387.85 114.98 389.572C114.98 394.024 128.84 395.746 128.84 404.608C128.84 408.808 125.438 412 120.986 412H118.172C113.846 412 110.36 408.514 110.36 404.188V402.508ZM142.684 412V401.542L135.544 392.68V382.6H139.744V391.168L144.7 397.342H144.784L149.824 390.748V382.6H154.024V392.176L146.884 401.542V412H142.684ZM160.727 402.508H164.927V404.188C164.927 406.162 166.565 407.8 168.539 407.8H171.353C173.495 407.8 175.007 406.456 175.007 404.608C175.007 398.812 161.147 397.552 161.147 389.572C161.147 385.456 164.381 382.6 168.959 382.6H170.933C175.259 382.6 178.787 386.086 178.787 390.412V391.672H174.587V390.412C174.587 388.396 172.949 386.8 170.933 386.8H168.959C166.691 386.8 165.347 387.85 165.347 389.572C165.347 394.024 179.207 395.746 179.207 404.608C179.207 408.808 175.805 412 171.353 412H168.539C164.213 412 160.727 408.514 160.727 404.188V402.508ZM185.911 382.6H204.391V386.8H197.251V412H193.051V386.8H185.911V382.6ZM229.574 382.6V386.8H215.294V394.486H227.894V398.686H215.294V407.8H229.574V412H211.094V382.6H229.574ZM244.384 400.156L240.478 391.84V412H236.278V382.6H240.478L245.518 393.562L250.558 382.6H254.758V412H250.558V391.84L246.652 400.156H244.384Z" fill="#FF7612"/>
<rect x="728" y="40" width="465" height="96" stroke="white" stroke-width="2"/>
<path d="M780.84 96.398C780.84 100.556 777.438 104 773.28 104H769.92C765.72 104 762.36 100.556 762.36 96.398V74.6H766.56V96.398C766.56 98.246 768.072 99.758 769.92 99.758H773.28C775.128 99.758 776.64 98.246 776.64 96.398V74.6H780.84V96.398ZM787.544 94.508H791.744V96.188C791.744 98.162 793.382 99.8 795.356 99.8H798.17C800.312 99.8 801.824 98.456 801.824 96.608C801.824 90.812 787.964 89.552 787.964 81.572C787.964 77.456 791.198 74.6 795.776 74.6H797.75C802.076 74.6 805.604 78.086 805.604 82.412V83.672H801.404V82.412C801.404 80.396 799.766 78.8 797.75 78.8H795.776C793.508 78.8 792.164 79.85 792.164 81.572C792.164 86.024 806.024 87.746 806.024 96.608C806.024 100.808 802.622 104 798.17 104H795.356C791.03 104 787.544 100.514 787.544 96.188V94.508ZM831.207 74.6V78.8H816.927V86.486H829.527V90.686H816.927V99.8H831.207V104H812.727V74.6H831.207ZM856.391 104H851.771L846.437 92.24H842.111V104H837.911V74.6H848.831C853.031 74.6 856.391 77.96 856.391 82.16V84.68C856.391 88.166 854.081 91.064 850.889 91.946L856.391 104ZM842.111 88.04H848.831C850.721 88.04 852.191 86.57 852.191 84.68V82.16C852.191 80.27 850.721 78.8 848.831 78.8H842.111V88.04ZM978.109 82.16C978.109 80.27 976.639 78.8 974.749 78.8H971.389C969.499 78.8 968.029 80.312 968.029 82.16V96.398C968.029 98.246 969.541 99.758 971.389 99.758H974.749C976.597 99.758 978.109 98.246 978.109 96.398V94.088H982.309V96.398C982.309 100.556 978.949 104 974.749 104H971.389C967.231 104 963.829 100.556 963.829 96.398V82.16C963.829 77.96 967.231 74.6 971.389 74.6H974.749C978.949 74.6 982.309 77.96 982.309 82.16V84.47H978.109V82.16ZM999.932 99.758C1001.78 99.758 1003.29 98.246 1003.29 96.398V82.16C1003.29 80.27 1001.82 78.8 999.932 78.8H996.572C994.682 78.8 993.212 80.312 993.212 82.16V96.398C993.212 98.246 994.724 99.758 996.572 99.758H999.932ZM989.012 96.398V82.16C989.012 77.96 992.414 74.6 996.572 74.6H999.932C1004.13 74.6 1007.49 77.96 1007.49 82.16V96.398C1007.49 100.556 1004.13 104 999.932 104H996.572C992.414 104 989.012 100.556 989.012 96.398ZM1028.48 74.6H1032.68V104H1026.59L1018.4 81.656V104H1014.2V74.6H1020.29L1028.48 96.944V74.6ZM1039.38 74.6H1057.86V78.8H1050.72V104H1046.52V78.8H1039.38V74.6ZM1083.04 104H1078.42L1073.09 92.24H1068.76V104H1064.56V74.6H1075.48C1079.68 74.6 1083.04 77.96 1083.04 82.16V84.68C1083.04 88.166 1080.73 91.064 1077.54 91.946L1083.04 104ZM1068.76 88.04H1075.48C1077.37 88.04 1078.84 86.57 1078.84 84.68V82.16C1078.84 80.27 1077.37 78.8 1075.48 78.8H1068.76V88.04ZM1093.95 104H1089.75V94.34L1096.89 74.6H1101.09L1108.23 94.34V104H1104.03V97.196H1093.95V104ZM1094.7 92.996H1103.27L1099.03 81.236H1098.94L1094.7 92.996ZM1129.21 82.16C1129.21 80.27 1127.74 78.8 1125.85 78.8H1122.49C1120.6 78.8 1119.13 80.312 1119.13 82.16V96.398C1119.13 98.246 1120.64 99.758 1122.49 99.758H1125.85C1127.7 99.758 1129.21 98.246 1129.21 96.398V94.088H1133.41V96.398C1133.41 100.556 1130.05 104 1125.85 104H1122.49C1118.33 104 1114.93 100.556 1114.93 96.398V82.16C1114.93 77.96 1118.33 74.6 1122.49 74.6H1125.85C1130.05 74.6 1133.41 77.96 1133.41 82.16V84.47H1129.21V82.16ZM1140.11 74.6H1158.59V78.8H1151.45V104H1147.25V78.8H1140.11V74.6Z" fill="white"/>
<path d="M899.198 99.758C901.046 99.758 902.558 98.246 902.558 96.398V82.16C902.558 80.27 901.088 78.8 899.198 78.8H895.838C893.948 78.8 892.478 80.312 892.478 82.16V96.398C892.478 98.246 893.99 99.758 895.838 99.758H899.198ZM888.278 96.398V82.16C888.278 77.96 891.68 74.6 895.838 74.6H899.198C903.398 74.6 906.758 77.96 906.758 82.16V96.398C906.758 100.556 903.398 104 899.198 104H895.838C891.68 104 888.278 100.556 888.278 96.398ZM931.942 104H927.322L921.988 92.24H917.662V104H913.462V74.6H924.382C928.582 74.6 931.942 77.96 931.942 82.16V84.68C931.942 88.166 929.632 91.064 926.44 91.946L931.942 104ZM917.662 88.04H924.382C926.272 88.04 927.742 86.57 927.742 84.68V82.16C927.742 80.27 926.272 78.8 924.382 78.8H917.662V88.04Z" fill="white" fill-opacity="0.5"/>
<rect width="242" height="98" transform="translate(448 711)" fill="white"/>
<path d="M509.36 746.6H527.84V750.8H520.7V776H516.5V750.8H509.36V746.6ZM538.744 776H534.544V766.34L541.684 746.6H545.884L553.024 766.34V776H548.824V769.196H538.744V776ZM539.5 764.996H548.068L543.826 753.236H543.742L539.5 764.996ZM577.367 755.84C577.367 757.772 576.653 759.578 575.435 760.88C577.115 762.266 578.207 764.366 578.207 766.76V768.44C578.207 772.64 574.847 776 570.647 776H559.727V746.6H569.807C574.007 746.6 577.367 749.96 577.367 754.16V755.84ZM563.927 771.8H570.647C572.537 771.8 574.007 770.33 574.007 768.44V766.76C574.007 764.87 572.537 763.4 570.647 763.4H563.927V771.8ZM563.927 759.2H569.807C571.697 759.2 573.167 757.73 573.167 755.84V754.16C573.167 752.27 571.697 750.8 569.807 750.8H563.927V759.2ZM589.111 746.6V771.8H603.391V776H584.911V746.6H589.111ZM628.574 746.6V750.8H614.294V758.486H626.894V762.686H614.294V771.8H628.574V776H610.094V746.6H628.574Z" fill="#FF7612"/>
<rect width="242" height="98" transform="translate(1232 529)" fill="white"/>
<path d="M1293.36 564.6H1311.84V568.8H1304.7V594H1300.5V568.8H1293.36V564.6ZM1322.74 594H1318.54V584.34L1325.68 564.6H1329.88L1337.02 584.34V594H1332.82V587.196H1322.74V594ZM1323.5 582.996H1332.07L1327.83 571.236H1327.74L1323.5 582.996ZM1361.37 573.84C1361.37 575.772 1360.65 577.578 1359.44 578.88C1361.12 580.266 1362.21 582.366 1362.21 584.76V586.44C1362.21 590.64 1358.85 594 1354.65 594H1343.73V564.6H1353.81C1358.01 564.6 1361.37 567.96 1361.37 572.16V573.84ZM1347.93 589.8H1354.65C1356.54 589.8 1358.01 588.33 1358.01 586.44V584.76C1358.01 582.87 1356.54 581.4 1354.65 581.4H1347.93V589.8ZM1347.93 577.2H1353.81C1355.7 577.2 1357.17 575.73 1357.17 573.84V572.16C1357.17 570.27 1355.7 568.8 1353.81 568.8H1347.93V577.2ZM1373.11 564.6V589.8H1387.39V594H1368.91V564.6H1373.11ZM1412.57 564.6V568.8H1398.29V576.486H1410.89V580.686H1398.29V589.8H1412.57V594H1394.09V564.6H1412.57Z" fill="#FF7612"/>
<rect width="242" height="98" transform="translate(1232 347)" fill="white"/>
<path d="M1293.36 382.6H1311.84V386.8H1304.7V412H1300.5V386.8H1293.36V382.6ZM1322.74 412H1318.54V402.34L1325.68 382.6H1329.88L1337.02 402.34V412H1332.82V405.196H1322.74V412ZM1323.5 400.996H1332.07L1327.83 389.236H1327.74L1323.5 400.996ZM1361.37 391.84C1361.37 393.772 1360.65 395.578 1359.44 396.88C1361.12 398.266 1362.21 400.366 1362.21 402.76V404.44C1362.21 408.64 1358.85 412 1354.65 412H1343.73V382.6H1353.81C1358.01 382.6 1361.37 385.96 1361.37 390.16V391.84ZM1347.93 407.8H1354.65C1356.54 407.8 1358.01 406.33 1358.01 404.44V402.76C1358.01 400.87 1356.54 399.4 1354.65 399.4H1347.93V407.8ZM1347.93 395.2H1353.81C1355.7 395.2 1357.17 393.73 1357.17 391.84V390.16C1357.17 388.27 1355.7 386.8 1353.81 386.8H1347.93V395.2ZM1373.11 382.6V407.8H1387.39V412H1368.91V382.6H1373.11ZM1412.57 382.6V386.8H1398.29V394.486H1410.89V398.686H1398.29V407.8H1412.57V412H1394.09V382.6H1412.57Z" fill="#FF7612"/>
<rect width="220" height="98" transform="translate(73 529)" fill="white"/>
<path d="M110.36 584.508H114.56V586.188C114.56 588.162 116.198 589.8 118.172 589.8H120.986C123.128 589.8 124.64 588.456 124.64 586.608C124.64 580.812 110.78 579.552 110.78 571.572C110.78 567.456 114.014 564.6 118.592 564.6H120.566C124.892 564.6 128.42 568.086 128.42 572.412V573.672H124.22V572.412C124.22 570.396 122.582 568.8 120.566 568.8H118.592C116.324 568.8 114.98 569.85 114.98 571.572C114.98 576.024 128.84 577.746 128.84 586.608C128.84 590.808 125.438 594 120.986 594H118.172C113.846 594 110.36 590.514 110.36 586.188V584.508ZM142.684 594V583.542L135.544 574.68V564.6H139.744V573.168L144.7 579.342H144.784L149.824 572.748V564.6H154.024V574.176L146.884 583.542V594H142.684ZM160.727 584.508H164.927V586.188C164.927 588.162 166.565 589.8 168.539 589.8H171.353C173.495 589.8 175.007 588.456 175.007 586.608C175.007 580.812 161.147 579.552 161.147 571.572C161.147 567.456 164.381 564.6 168.959 564.6H170.933C175.259 564.6 178.787 568.086 178.787 572.412V573.672H174.587V572.412C174.587 570.396 172.949 568.8 170.933 568.8H168.959C166.691 568.8 165.347 569.85 165.347 571.572C165.347 576.024 179.207 577.746 179.207 586.608C179.207 590.808 175.805 594 171.353 594H168.539C164.213 594 160.727 590.514 160.727 586.188V584.508ZM185.911 564.6H204.391V568.8H197.251V594H193.051V568.8H185.911V564.6ZM229.574 564.6V568.8H215.294V576.486H227.894V580.686H215.294V589.8H229.574V594H211.094V564.6H229.574ZM244.384 582.156L240.478 573.84V594H236.278V564.6H240.478L245.518 575.562L250.558 564.6H254.758V594H250.558V573.84L246.652 582.156H244.384Z" fill="#FF7612"/>
<rect width="220" height="98" transform="translate(1626 529)" fill="white"/>
<path d="M1663.36 584.508H1667.56V586.188C1667.56 588.162 1669.2 589.8 1671.17 589.8H1673.99C1676.13 589.8 1677.64 588.456 1677.64 586.608C1677.64 580.812 1663.78 579.552 1663.78 571.572C1663.78 567.456 1667.01 564.6 1671.59 564.6H1673.57C1677.89 564.6 1681.42 568.086 1681.42 572.412V573.672H1677.22V572.412C1677.22 570.396 1675.58 568.8 1673.57 568.8H1671.59C1669.32 568.8 1667.98 569.85 1667.98 571.572C1667.98 576.024 1681.84 577.746 1681.84 586.608C1681.84 590.808 1678.44 594 1673.99 594H1671.17C1666.85 594 1663.36 590.514 1663.36 586.188V584.508ZM1695.68 594V583.542L1688.54 574.68V564.6H1692.74V573.168L1697.7 579.342H1697.78L1702.82 572.748V564.6H1707.02V574.176L1699.88 583.542V594H1695.68ZM1713.73 584.508H1717.93V586.188C1717.93 588.162 1719.57 589.8 1721.54 589.8H1724.35C1726.5 589.8 1728.01 588.456 1728.01 586.608C1728.01 580.812 1714.15 579.552 1714.15 571.572C1714.15 567.456 1717.38 564.6 1721.96 564.6H1723.93C1728.26 564.6 1731.79 568.086 1731.79 572.412V573.672H1727.59V572.412C1727.59 570.396 1725.95 568.8 1723.93 568.8H1721.96C1719.69 568.8 1718.35 569.85 1718.35 571.572C1718.35 576.024 1732.21 577.746 1732.21 586.608C1732.21 590.808 1728.81 594 1724.35 594H1721.54C1717.21 594 1713.73 590.514 1713.73 586.188V584.508ZM1738.91 564.6H1757.39V568.8H1750.25V594H1746.05V568.8H1738.91V564.6ZM1782.57 564.6V568.8H1768.29V576.486H1780.89V580.686H1768.29V589.8H1782.57V594H1764.09V564.6H1782.57ZM1797.38 582.156L1793.48 573.84V594H1789.28V564.6H1793.48L1798.52 575.562L1803.56 564.6H1807.76V594H1803.56V573.84L1799.65 582.156H1797.38Z" fill="#FF7612"/>
<rect width="220" height="98" transform="translate(73 711)" fill="white"/>
<path d="M110.36 766.508H114.56V768.188C114.56 770.162 116.198 771.8 118.172 771.8H120.986C123.128 771.8 124.64 770.456 124.64 768.608C124.64 762.812 110.78 761.552 110.78 753.572C110.78 749.456 114.014 746.6 118.592 746.6H120.566C124.892 746.6 128.42 750.086 128.42 754.412V755.672H124.22V754.412C124.22 752.396 122.582 750.8 120.566 750.8H118.592C116.324 750.8 114.98 751.85 114.98 753.572C114.98 758.024 128.84 759.746 128.84 768.608C128.84 772.808 125.438 776 120.986 776H118.172C113.846 776 110.36 772.514 110.36 768.188V766.508ZM142.684 776V765.542L135.544 756.68V746.6H139.744V755.168L144.7 761.342H144.784L149.824 754.748V746.6H154.024V756.176L146.884 765.542V776H142.684ZM160.727 766.508H164.927V768.188C164.927 770.162 166.565 771.8 168.539 771.8H171.353C173.495 771.8 175.007 770.456 175.007 768.608C175.007 762.812 161.147 761.552 161.147 753.572C161.147 749.456 164.381 746.6 168.959 746.6H170.933C175.259 746.6 178.787 750.086 178.787 754.412V755.672H174.587V754.412C174.587 752.396 172.949 750.8 170.933 750.8H168.959C166.691 750.8 165.347 751.85 165.347 753.572C165.347 758.024 179.207 759.746 179.207 768.608C179.207 772.808 175.805 776 171.353 776H168.539C164.213 776 160.727 772.514 160.727 768.188V766.508ZM185.911 746.6H204.391V750.8H197.251V776H193.051V750.8H185.911V746.6ZM229.574 746.6V750.8H215.294V758.486H227.894V762.686H215.294V771.8H229.574V776H211.094V746.6H229.574ZM244.384 764.156L240.478 755.84V776H236.278V746.6H240.478L245.518 757.562L250.558 746.6H254.758V776H250.558V755.84L246.652 764.156H244.384Z" fill="#FF7612"/>
<path d="M1312.64 69.6H1316.84V99H1310.75L1302.56 76.656V99H1298.36V69.6H1304.45L1312.64 91.944V69.6ZM1327.74 99H1323.54V89.34L1330.68 69.6H1334.88L1342.02 89.34V99H1337.82V92.196H1327.74V99ZM1328.5 87.996H1337.07L1332.83 76.236H1332.74L1328.5 87.996ZM1356.83 87.156L1352.93 78.84V99H1348.73V69.6H1352.93L1357.97 80.562L1363.01 69.6H1367.21V99H1363.01V78.84L1359.1 87.156H1356.83ZM1392.39 69.6V73.8H1378.11V81.486H1390.71V85.686H1378.11V94.8H1392.39V99H1373.91V69.6H1392.39ZM1399.09 89.508H1403.29V91.188C1403.29 93.162 1404.93 94.8 1406.91 94.8H1409.72C1411.86 94.8 1413.37 93.456 1413.37 91.608C1413.37 85.812 1399.51 84.552 1399.51 76.572C1399.51 72.456 1402.75 69.6 1407.33 69.6H1409.3C1413.63 69.6 1417.15 73.086 1417.15 77.412V78.672H1412.95V77.412C1412.95 75.396 1411.32 73.8 1409.3 73.8H1407.33C1405.06 73.8 1403.71 74.85 1403.71 76.572C1403.71 81.024 1417.57 82.746 1417.57 91.608C1417.57 95.808 1414.17 99 1409.72 99H1406.91C1402.58 99 1399.09 95.514 1399.09 91.188V89.508ZM1442.76 79.68C1442.76 83.88 1439.4 87.24 1435.2 87.24H1428.48V99H1424.28V69.6H1435.2C1439.4 69.6 1442.76 72.96 1442.76 77.16V79.68ZM1428.48 83.04H1435.2C1437.09 83.04 1438.56 81.57 1438.56 79.68V77.16C1438.56 75.27 1437.09 73.8 1435.2 73.8H1428.48V83.04ZM1453.66 99H1449.46V89.34L1456.6 69.6H1460.8L1467.94 89.34V99H1463.74V92.196H1453.66V99ZM1454.42 87.996H1462.99L1458.74 76.236H1458.66L1454.42 87.996ZM1488.93 77.16C1488.93 75.27 1487.46 73.8 1485.57 73.8H1482.21C1480.32 73.8 1478.85 75.312 1478.85 77.16V91.398C1478.85 93.246 1480.36 94.758 1482.21 94.758H1485.57C1487.41 94.758 1488.93 93.246 1488.93 91.398V89.088H1493.13V91.398C1493.13 95.556 1489.77 99 1485.57 99H1482.21C1478.05 99 1474.65 95.556 1474.65 91.398V77.16C1474.65 72.96 1478.05 69.6 1482.21 69.6H1485.57C1489.77 69.6 1493.13 72.96 1493.13 77.16V79.47H1488.93V77.16ZM1518.31 69.6V73.8H1504.03V81.486H1516.63V85.686H1504.03V94.8H1518.31V99H1499.83V69.6H1518.31ZM1561.12 103.242C1556.96 103.242 1553.56 99.798 1553.56 95.64V72.96C1553.56 68.76 1556.96 65.4 1561.12 65.4H1565.32V69.6H1561.12C1559.23 69.6 1557.76 71.112 1557.76 72.96V95.64C1557.76 97.488 1559.27 99 1561.12 99H1565.32V103.242H1561.12ZM1593.86 84.72V89.256H1579.58V91.398C1579.58 93.246 1581.09 94.758 1582.94 94.758H1586.3C1588.15 94.758 1589.66 93.246 1589.66 91.398V90.978H1593.86V91.398C1593.86 95.556 1590.5 99 1586.3 99H1582.94C1578.78 99 1575.38 95.556 1575.38 91.398V85.14C1575.38 80.94 1578.78 77.58 1582.94 77.58H1586.3C1590.37 77.58 1593.65 80.73 1593.86 84.72ZM1579.58 85.896H1589.66V85.14C1589.66 83.25 1588.19 81.78 1586.3 81.78H1582.94C1581.05 81.78 1579.58 83.292 1579.58 85.14V85.896ZM1619.04 99H1614.09L1609.8 92.196L1605.52 99H1600.56L1607.33 88.29L1600.56 77.58H1605.52L1609.8 84.384L1614.09 77.58H1619.04L1612.28 88.29L1619.04 99ZM1639.82 99C1635.62 99 1632.26 95.64 1632.26 91.44V81.78H1625.75V77.58H1632.26V72.12H1636.46V77.58H1644.23V81.78H1636.46V91.44C1636.46 93.33 1637.93 94.8 1639.82 94.8H1644.23V99H1639.82ZM1669.41 84.72V89.256H1655.13V91.398C1655.13 93.246 1656.64 94.758 1658.49 94.758H1661.85C1663.7 94.758 1665.21 93.246 1665.21 91.398V90.978H1669.41V91.398C1669.41 95.556 1666.05 99 1661.85 99H1658.49C1654.33 99 1650.93 95.556 1650.93 91.398V85.14C1650.93 80.94 1654.33 77.58 1658.49 77.58H1661.85C1665.92 77.58 1669.2 80.73 1669.41 84.72ZM1655.13 85.896H1665.21V85.14C1665.21 83.25 1663.74 81.78 1661.85 81.78H1658.49C1656.6 81.78 1655.13 83.292 1655.13 85.14V85.896ZM1676.11 77.58H1680.31V79.932L1683.8 77.58H1687.03C1691.19 77.58 1694.59 80.94 1694.59 85.14V99H1690.39V85.14C1690.39 83.292 1688.88 81.78 1687.03 81.78H1685.1L1680.31 85.014V99H1676.11V77.58ZM1701.3 91.944H1705.5V92.784C1705.5 93.96 1706.59 94.8 1708.4 94.8H1712.64C1714.61 94.8 1715.58 94.128 1715.58 93.078C1715.58 88.332 1701.59 91.398 1701.59 83.25C1701.59 79.848 1704.32 77.58 1708.31 77.58H1712.34C1716.12 77.58 1719.06 80.31 1719.06 83.838V84.216H1714.86V83.838C1714.86 82.662 1713.81 81.78 1712.34 81.78H1708.31C1706.55 81.78 1705.79 82.368 1705.79 83.25C1705.79 86.652 1719.78 84.51 1719.78 93.078C1719.78 96.606 1716.88 99 1712.64 99H1708.4C1704.32 99 1701.3 96.354 1701.3 92.784V91.944ZM1737.61 94.8H1744.96V99H1726.48V94.8H1733.41V81.78H1726.48V77.58H1737.61V94.8ZM1732.99 73.8V69.6H1737.61V73.8H1732.99ZM1762.58 94.8C1764.47 94.8 1765.94 93.372 1765.94 91.482V85.14C1765.94 83.25 1764.47 81.78 1762.58 81.78H1759.22C1757.33 81.78 1755.86 83.25 1755.86 85.14V91.482C1755.86 93.372 1757.33 94.758 1759.22 94.8H1762.58ZM1751.66 91.482V85.14C1751.66 80.94 1755.02 77.58 1759.22 77.58H1762.58C1766.78 77.58 1770.14 80.94 1770.14 85.14V91.482C1770.14 95.682 1766.78 99 1762.58 99H1759.22C1755.02 99 1751.66 95.682 1751.66 91.482ZM1776.85 77.58H1781.05V79.932L1784.53 77.58H1787.77C1791.93 77.58 1795.33 80.94 1795.33 85.14V99H1791.13V85.14C1791.13 83.292 1789.62 81.78 1787.77 81.78H1785.84L1781.05 85.014V99H1776.85V77.58ZM1809.59 103.242H1805.39V99H1809.59C1811.44 99 1812.95 97.488 1812.95 95.64V72.96C1812.95 71.112 1811.48 69.6 1809.59 69.6H1805.39V65.4H1809.59C1813.75 65.4 1817.15 68.76 1817.15 72.96V95.64C1817.15 99.798 1813.75 103.242 1809.59 103.242Z" fill="white"/>
<path opacity="0.5" d="M1163 209V180H1880V1079.5M1699 179V130" stroke="white" stroke-width="4"/>
<path opacity="0.5" d="M39 1087V180H757V209M272 179V130" stroke="white" stroke-width="4"/>
<path d="M193.64 74.6H197.84V104H191.75L183.56 81.656V104H179.36V74.6H185.45L193.64 96.944V74.6ZM208.744 104H204.544V94.34L211.684 74.6H215.884L223.024 94.34V104H218.824V97.196H208.744V104ZM209.5 92.996H218.068L213.826 81.236H213.742L209.5 92.996ZM237.833 92.156L233.927 83.84V104H229.727V74.6H233.927L238.967 85.562L244.007 74.6H248.207V104H244.007V83.84L240.101 92.156H237.833ZM273.391 74.6V78.8H259.111V86.486H271.711V90.686H259.111V99.8H273.391V104H254.911V74.6H273.391ZM280.094 94.508H284.294V96.188C284.294 98.162 285.932 99.8 287.906 99.8H290.72C292.862 99.8 294.374 98.456 294.374 96.608C294.374 90.812 280.514 89.552 280.514 81.572C280.514 77.456 283.748 74.6 288.326 74.6H290.3C294.626 74.6 298.154 78.086 298.154 82.412V83.672H293.954V82.412C293.954 80.396 292.316 78.8 290.3 78.8H288.326C286.058 78.8 284.714 79.85 284.714 81.572C284.714 86.024 298.574 87.746 298.574 96.608C298.574 100.808 295.172 104 290.72 104H287.906C283.58 104 280.094 100.514 280.094 96.188V94.508ZM323.758 84.68C323.758 88.88 320.398 92.24 316.198 92.24H309.478V104H305.278V74.6H316.198C320.398 74.6 323.758 77.96 323.758 82.16V84.68ZM309.478 88.04H316.198C318.088 88.04 319.558 86.57 319.558 84.68V82.16C319.558 80.27 318.088 78.8 316.198 78.8H309.478V88.04ZM334.662 104H330.462V94.34L337.602 74.6H341.802L348.942 94.34V104H344.742V97.196H334.662V104ZM335.418 92.996H343.986L339.744 81.236H339.66L335.418 92.996ZM369.925 82.16C369.925 80.27 368.455 78.8 366.565 78.8H363.205C361.315 78.8 359.845 80.312 359.845 82.16V96.398C359.845 98.246 361.357 99.758 363.205 99.758H366.565C368.413 99.758 369.925 98.246 369.925 96.398V94.088H374.125V96.398C374.125 100.556 370.765 104 366.565 104H363.205C359.047 104 355.645 100.556 355.645 96.398V82.16C355.645 77.96 359.047 74.6 363.205 74.6H366.565C370.765 74.6 374.125 77.96 374.125 82.16V84.47H369.925V82.16ZM399.309 74.6V78.8H385.029V86.486H397.629V90.686H385.029V99.8H399.309V104H380.829V74.6H399.309ZM442.116 108.242C437.958 108.242 434.556 104.798 434.556 100.64V77.96C434.556 73.76 437.958 70.4 442.116 70.4H446.316V74.6H442.116C440.226 74.6 438.756 76.112 438.756 77.96V100.64C438.756 102.488 440.268 104 442.116 104H446.316V108.242H442.116ZM474.86 105.218C474.86 109.376 471.5 112.82 467.3 112.82H463.94C459.782 112.82 456.38 109.376 456.38 105.218H460.58C460.58 107.066 462.092 108.578 463.94 108.578H467.3C469.148 108.578 470.66 107.066 470.66 105.218V101.648L467.174 104H463.94C459.782 104 456.38 100.598 456.38 96.44V90.14C456.38 85.94 459.782 82.58 463.94 82.58H467.174L470.66 84.932V82.58H474.86V105.218ZM460.58 96.44C460.58 98.288 462.092 99.8 463.94 99.8H465.872L470.66 96.566V90.014L465.872 86.78H463.94C462.092 86.78 460.58 88.292 460.58 90.14V96.44ZM500.043 82.58V104H495.843V101.648L492.357 104H489.123C484.965 104 481.563 100.598 481.563 96.44V90.14C481.563 85.94 484.965 82.58 489.123 82.58H492.357L495.843 84.932V82.58H500.043ZM485.763 96.44C485.763 98.288 487.275 99.8 489.123 99.8H491.055L495.843 96.566V90.014L491.055 86.78H489.123C487.275 86.78 485.763 88.292 485.763 90.14V96.44ZM505.907 82.58H510.107V85.016L512.627 82.58H512.963C515.189 82.58 516.743 83.546 517.541 85.562L520.607 82.58H520.943C524.261 82.58 526.067 84.68 526.067 89.3V104H521.867V89.3C521.867 88.502 521.867 87.83 521.783 87.368L518.087 90.896V104H513.887V89.3C513.887 88.502 513.887 87.83 513.803 87.368L510.107 90.896V104H505.907V82.58ZM512.501 86.108H512.753H512.501ZM520.481 86.108H520.733H520.481ZM550.41 89.72V94.256H536.13V96.398C536.13 98.246 537.642 99.758 539.49 99.758H542.85C544.698 99.758 546.21 98.246 546.21 96.398V95.978H550.41V96.398C550.41 100.556 547.05 104 542.85 104H539.49C535.332 104 531.93 100.556 531.93 96.398V90.14C531.93 85.94 535.332 82.58 539.49 82.58H542.85C546.924 82.58 550.2 85.73 550.41 89.72ZM536.13 90.896H546.21V90.14C546.21 88.25 544.74 86.78 542.85 86.78H539.49C537.6 86.78 536.13 88.292 536.13 90.14V90.896ZM564.674 108.242H560.474V104H564.674C566.522 104 568.034 102.488 568.034 100.64V77.96C568.034 76.112 566.564 74.6 564.674 74.6H560.474V70.4H564.674C568.832 70.4 572.234 73.76 572.234 77.96V100.64C572.234 104.798 568.832 108.242 564.674 108.242Z" fill="white"/>
<path d="M958.5 310H956.5V312H958.5V310ZM1746.5 310H1748.5V308H1746.5V310ZM1745.09 524.914C1745.87 525.695 1747.13 525.695 1747.91 524.914L1760.64 512.186C1761.42 511.405 1761.42 510.139 1760.64 509.358C1759.86 508.577 1758.59 508.577 1757.81 509.358L1746.5 520.672L1735.19 509.358C1734.41 508.577 1733.14 508.577 1732.36 509.358C1731.58 510.139 1731.58 511.405 1732.36 512.186L1745.09 524.914ZM956.5 137V310H960.5V137H956.5ZM958.5 312H1746.5V308H958.5V312ZM1744.5 310V523.5H1748.5V310H1744.5Z" fill="black"/>
<rect x="933" y="159" width="56" height="56" fill="black"/>
<path d="M971.84 197.8V202H953.36V197.8H960.5V177.472L953.36 181.672V176.8L960.5 172.6H964.7V197.8H971.84Z" fill="white"/>
<path d="M1699 763.641V765.641H1701V763.641H1699ZM185.414 818.945C184.633 818.164 183.367 818.164 182.586 818.945L169.858 831.673C169.077 832.454 169.077 833.72 169.858 834.502C170.639 835.283 171.905 835.283 172.686 834.502L184 823.188L195.314 834.502C196.095 835.283 197.361 835.283 198.142 834.502C198.923 833.72 198.923 832.454 198.142 831.673L185.414 818.945ZM1352.41 625.586C1351.63 624.805 1350.37 624.805 1349.59 625.586L1336.86 638.314C1336.08 639.095 1336.08 640.361 1336.86 641.142C1337.64 641.923 1338.91 641.923 1339.69 641.142L1351 629.828L1362.31 641.142C1363.09 641.923 1364.36 641.923 1365.14 641.142C1365.92 640.361 1365.92 639.095 1365.14 638.314L1352.41 625.586ZM692.586 762.226C691.805 763.007 691.805 764.274 692.586 765.055L705.314 777.783C706.095 778.564 707.361 778.564 708.142 777.783C708.923 777.002 708.923 775.735 708.142 774.954L696.828 763.641L708.142 752.327C708.923 751.546 708.923 750.28 708.142 749.498C707.361 748.717 706.095 748.717 705.314 749.498L692.586 762.226ZM184 924H182V926H184V924ZM1754.5 924V926H1756.5V924H1754.5ZM1697 627V763.641H1701V627H1697ZM1699 761.641H1351V765.641H1699V761.641ZM1351 761.641H1075.12V765.641H1351V761.641ZM1353 763.641V627H1349V763.641H1353ZM1075.12 761.641H694V765.641H1075.12V761.641ZM560.078 922H184V926H560.078V922ZM186 924V820.359H182V924H186ZM1754.5 922H560.078V926H1754.5V922ZM1752.5 627V924H1756.5V627H1752.5Z" fill="black"/>
<rect x="159" y="896" width="56" height="56" fill="black"/>
<path d="M189.44 912.12H193.64V922.62H197.84V926.82H193.64V939H189.44V926.82H179.36V909.6H183.56V922.62H189.44V912.12Z" fill="white"/>
<rect x="1717" y="290" width="56" height="56" fill="black"/>
<path d="M1753.84 328.8V333H1735.36V323.298L1749.64 315.276V311.16C1749.64 309.27 1748.17 307.8 1746.28 307.8H1742.92C1741.07 307.8 1739.56 309.312 1739.56 311.16V312.63H1735.36V311.16C1735.36 306.96 1738.76 303.6 1742.92 303.6H1746.28C1750.48 303.6 1753.84 306.96 1753.84 311.16V317.754L1739.56 325.776V328.8H1753.84Z" fill="white"/>
<rect x="1325" y="735" width="56" height="56" fill="black"/>
<path d="M1361.84 758.84C1361.84 760.982 1360.96 762.914 1359.53 764.3C1360.96 765.686 1361.84 767.618 1361.84 769.76V771.44C1361.84 775.64 1358.48 779 1354.28 779H1350.92C1346.76 779 1343.36 775.64 1343.36 771.44V769.97H1347.56V771.44C1347.56 773.288 1349.07 774.8 1350.92 774.8H1354.28C1356.17 774.8 1357.64 773.33 1357.64 771.44V769.76C1357.64 767.87 1356.17 766.4 1354.28 766.4H1351.34V762.2H1354.28C1356.17 762.2 1357.64 760.73 1357.64 758.84V757.16C1357.64 755.27 1356.17 753.8 1354.28 753.8H1350.92C1349.07 753.8 1347.56 755.312 1347.56 757.16V758.63H1343.36V757.16C1343.36 752.96 1346.76 749.6 1350.92 749.6H1354.28C1358.48 749.6 1361.84 752.96 1361.84 757.16V758.84Z" fill="white"/>
</g>
<defs>
<clipPath id="clip0_1617_25">
<rect width="1920" height="1080" fill="white"/>
</clipPath>
</defs>
</svg>
