<svg width="1920" height="1080" viewBox="0 0 1920 1080" fill="none" xmlns="http://www.w3.org/2000/svg">
<rect width="1920" height="1080" fill="#FF7612"/>
<rect x="82" y="59" width="465" height="96" stroke="white" stroke-width="2"/>
<path d="M241.86 113.508H246.06V115.188C246.06 117.162 247.698 118.8 249.672 118.8H252.486C254.628 118.8 256.14 117.456 256.14 115.608C256.14 109.812 242.28 108.552 242.28 100.572C242.28 96.456 245.514 93.6 250.092 93.6H252.066C256.392 93.6 259.92 97.086 259.92 101.412V102.672H255.72V101.412C255.72 99.396 254.082 97.8 252.066 97.8H250.092C247.824 97.8 246.48 98.85 246.48 100.572C246.48 105.024 260.34 106.746 260.34 115.608C260.34 119.808 256.938 123 252.486 123H249.672C245.346 123 241.86 119.514 241.86 115.188V113.508ZM277.964 118.8C279.854 118.8 281.324 117.372 281.324 115.482V109.14C281.324 107.25 279.854 105.78 277.964 105.78H274.604C272.714 105.78 271.244 107.25 271.244 109.14V115.482C271.244 117.372 272.714 118.758 274.604 118.8H277.964ZM267.044 115.482V109.14C267.044 104.94 270.404 101.58 274.604 101.58H277.964C282.164 101.58 285.524 104.94 285.524 109.14V115.482C285.524 119.682 282.164 123 277.964 123H274.604C270.404 123 267.044 119.682 267.044 115.482ZM310.707 123H306.507V120.648L303.021 123H299.787C295.629 123 292.227 119.64 292.227 115.44V101.58H296.427V115.44C296.427 117.288 297.939 118.8 299.787 118.8H301.719L306.507 115.566V101.58H310.707V123ZM317.411 101.58H321.611V104.94L326.609 101.58H328.331C332.489 101.58 335.891 104.94 335.891 109.14V110.82H331.691V109.14C331.691 107.292 330.179 105.78 328.331 105.78H327.911L321.611 110.022V123H317.411V101.58ZM356.874 109.14C356.874 107.25 355.404 105.78 353.514 105.78H350.154C348.264 105.78 346.794 107.292 346.794 109.14V115.398C346.794 117.246 348.306 118.758 350.154 118.758H353.514C355.362 118.758 356.874 117.246 356.874 115.398V114.978H361.074V115.398C361.074 119.556 357.714 123 353.514 123H350.154C345.996 123 342.594 119.556 342.594 115.398V109.14C342.594 104.94 345.996 101.58 350.154 101.58H353.514C357.714 101.58 361.074 104.94 361.074 109.14V109.56H356.874V109.14ZM386.258 108.72V113.256H371.978V115.398C371.978 117.246 373.49 118.758 375.338 118.758H378.698C380.546 118.758 382.058 117.246 382.058 115.398V114.978H386.258V115.398C386.258 119.556 382.898 123 378.698 123H375.338C371.18 123 367.778 119.556 367.778 115.398V109.14C367.778 104.94 371.18 101.58 375.338 101.58H378.698C382.772 101.58 386.048 104.73 386.258 108.72ZM371.978 109.896H382.058V109.14C382.058 107.25 380.588 105.78 378.698 105.78H375.338C373.448 105.78 371.978 107.292 371.978 109.14V109.896Z" fill="white"/>
<rect x="84" y="209" width="834" height="792" fill="white"/>
<rect x="1000" y="209" width="834" height="792" fill="white" fill-opacity="0.2"/>
<path d="M452.322 926.16L454.632 939.39L455.64 927V918.6H459.84V928.26L457.32 948H453.96L450.6 935.442L447.24 948H443.88L441.36 928.26V918.6H445.56V927L446.568 939.39L448.878 926.16H452.322ZM477.464 943.758C479.312 943.758 480.824 942.246 480.824 940.398V926.16C480.824 924.27 479.354 922.8 477.464 922.8H474.104C472.214 922.8 470.744 924.312 470.744 926.16V940.398C470.744 942.246 472.256 943.758 474.104 943.758H477.464ZM466.544 940.398V926.16C466.544 921.96 469.946 918.6 474.104 918.6H477.464C481.664 918.6 485.024 921.96 485.024 926.16V940.398C485.024 944.556 481.664 948 477.464 948H474.104C469.946 948 466.544 944.556 466.544 940.398ZM510.207 948H505.587L500.253 936.24H495.927V948H491.727V918.6H502.647C506.847 918.6 510.207 921.96 510.207 926.16V928.68C510.207 932.166 507.897 935.064 504.705 935.946L510.207 948ZM495.927 932.04H502.647C504.537 932.04 506.007 930.57 506.007 928.68V926.16C506.007 924.27 504.537 922.8 502.647 922.8H495.927V932.04ZM521.111 918.6V943.8H535.391V948H516.911V918.6H521.111ZM553.014 918.6C557.172 918.6 560.574 921.96 560.574 926.16V940.398C560.574 944.556 557.172 948 553.014 948H542.094V918.6H553.014ZM546.294 943.758H553.014C554.862 943.758 556.374 942.246 556.374 940.398V926.16C556.374 924.312 554.904 922.8 553.014 922.8H546.294V943.758Z" fill="#FF7612"/>
<path d="M1344.36 938.508H1348.56V940.188C1348.56 942.162 1350.2 943.8 1352.17 943.8H1354.99C1357.13 943.8 1358.64 942.456 1358.64 940.608C1358.64 934.812 1344.78 933.552 1344.78 925.572C1344.78 921.456 1348.01 918.6 1352.59 918.6H1354.57C1358.89 918.6 1362.42 922.086 1362.42 926.412V927.672H1358.22V926.412C1358.22 924.396 1356.58 922.8 1354.57 922.8H1352.59C1350.32 922.8 1348.98 923.85 1348.98 925.572C1348.98 930.024 1362.84 931.746 1362.84 940.608C1362.84 944.808 1359.44 948 1354.99 948H1352.17C1347.85 948 1344.36 944.514 1344.36 940.188V938.508ZM1376.68 948V937.542L1369.54 928.68V918.6H1373.74V927.168L1378.7 933.342H1378.78L1383.82 926.748V918.6H1388.02V928.176L1380.88 937.542V948H1376.68ZM1394.73 938.508H1398.93V940.188C1398.93 942.162 1400.57 943.8 1402.54 943.8H1405.35C1407.5 943.8 1409.01 942.456 1409.01 940.608C1409.01 934.812 1395.15 933.552 1395.15 925.572C1395.15 921.456 1398.38 918.6 1402.96 918.6H1404.93C1409.26 918.6 1412.79 922.086 1412.79 926.412V927.672H1408.59V926.412C1408.59 924.396 1406.95 922.8 1404.93 922.8H1402.96C1400.69 922.8 1399.35 923.85 1399.35 925.572C1399.35 930.024 1413.21 931.746 1413.21 940.608C1413.21 944.808 1409.81 948 1405.35 948H1402.54C1398.21 948 1394.73 944.514 1394.73 940.188V938.508ZM1419.91 918.6H1438.39V922.8H1431.25V948H1427.05V922.8H1419.91V918.6ZM1463.57 918.6V922.8H1449.29V930.486H1461.89V934.686H1449.29V943.8H1463.57V948H1445.09V918.6H1463.57ZM1478.38 936.156L1474.48 927.84V948H1470.28V918.6H1474.48L1479.52 929.562L1484.56 918.6H1488.76V948H1484.56V927.84L1480.65 936.156H1478.38Z" fill="white"/>
<path opacity="0.7" d="M688.64 1020.6H692.84V1050H686.75L678.56 1027.66V1050H674.36V1020.6H680.45L688.64 1042.94V1020.6ZM703.744 1050H699.544V1040.34L706.684 1020.6H710.884L718.024 1040.34V1050H713.824V1043.2H703.744V1050ZM704.5 1039H713.068L708.826 1027.24H708.742L704.5 1039ZM732.833 1038.16L728.927 1029.84V1050H724.727V1020.6H728.927L733.967 1031.56L739.007 1020.6H743.207V1050H739.007V1029.84L735.101 1038.16H732.833ZM768.391 1020.6V1024.8H754.111V1032.49H766.711V1036.69H754.111V1045.8H768.391V1050H749.911V1020.6H768.391ZM775.094 1040.51H779.294V1042.19C779.294 1044.16 780.932 1045.8 782.906 1045.8H785.72C787.862 1045.8 789.374 1044.46 789.374 1042.61C789.374 1036.81 775.514 1035.55 775.514 1027.57C775.514 1023.46 778.748 1020.6 783.326 1020.6H785.3C789.626 1020.6 793.154 1024.09 793.154 1028.41V1029.67H788.954V1028.41C788.954 1026.4 787.316 1024.8 785.3 1024.8H783.326C781.058 1024.8 779.714 1025.85 779.714 1027.57C779.714 1032.02 793.574 1033.75 793.574 1042.61C793.574 1046.81 790.172 1050 785.72 1050H782.906C778.58 1050 775.094 1046.51 775.094 1042.19V1040.51ZM818.758 1030.68C818.758 1034.88 815.398 1038.24 811.198 1038.24H804.478V1050H800.278V1020.6H811.198C815.398 1020.6 818.758 1023.96 818.758 1028.16V1030.68ZM804.478 1034.04H811.198C813.088 1034.04 814.558 1032.57 814.558 1030.68V1028.16C814.558 1026.27 813.088 1024.8 811.198 1024.8H804.478V1034.04ZM829.662 1050H825.462V1040.34L832.602 1020.6H836.802L843.942 1040.34V1050H839.742V1043.2H829.662V1050ZM830.418 1039H838.986L834.744 1027.24H834.66L830.418 1039ZM864.925 1028.16C864.925 1026.27 863.455 1024.8 861.565 1024.8H858.205C856.315 1024.8 854.845 1026.31 854.845 1028.16V1042.4C854.845 1044.25 856.357 1045.76 858.205 1045.76H861.565C863.413 1045.76 864.925 1044.25 864.925 1042.4V1040.09H869.125V1042.4C869.125 1046.56 865.765 1050 861.565 1050H858.205C854.047 1050 850.645 1046.56 850.645 1042.4V1028.16C850.645 1023.96 854.047 1020.6 858.205 1020.6H861.565C865.765 1020.6 869.125 1023.96 869.125 1028.16V1030.47H864.925V1028.16ZM894.309 1020.6V1024.8H880.029V1032.49H892.629V1036.69H880.029V1045.8H894.309V1050H875.829V1020.6H894.309ZM937.116 1054.24C932.958 1054.24 929.556 1050.8 929.556 1046.64V1023.96C929.556 1019.76 932.958 1016.4 937.116 1016.4H941.316V1020.6H937.116C935.226 1020.6 933.756 1022.11 933.756 1023.96V1046.64C933.756 1048.49 935.268 1050 937.116 1050H941.316V1054.24H937.116ZM951.38 1028.58H955.58V1030.93L959.066 1028.58H962.3C966.458 1028.58 969.86 1031.94 969.86 1036.14V1050H965.66V1036.14C965.66 1034.29 964.148 1032.78 962.3 1032.78H960.368L955.58 1036.01V1050H951.38V1028.58ZM995.043 1028.58V1050H990.843V1047.65L987.357 1050H984.123C979.965 1050 976.563 1046.6 976.563 1042.44V1036.14C976.563 1031.94 979.965 1028.58 984.123 1028.58H987.357L990.843 1030.93V1028.58H995.043ZM980.763 1042.44C980.763 1044.29 982.275 1045.8 984.123 1045.8H986.055L990.843 1042.57V1036.01L986.055 1032.78H984.123C982.275 1032.78 980.763 1034.29 980.763 1036.14V1042.44ZM1000.91 1028.58H1005.11V1031.02L1007.63 1028.58H1007.96C1010.19 1028.58 1011.74 1029.55 1012.54 1031.56L1015.61 1028.58H1015.94C1019.26 1028.58 1021.07 1030.68 1021.07 1035.3V1050H1016.87V1035.3C1016.87 1034.5 1016.87 1033.83 1016.78 1033.37L1013.09 1036.9V1050H1008.89V1035.3C1008.89 1034.5 1008.89 1033.83 1008.8 1033.37L1005.11 1036.9V1050H1000.91V1028.58ZM1007.5 1032.11H1007.75H1007.5ZM1015.48 1032.11H1015.73H1015.48ZM1045.41 1035.72V1040.26H1031.13V1042.4C1031.13 1044.25 1032.64 1045.76 1034.49 1045.76H1037.85C1039.7 1045.76 1041.21 1044.25 1041.21 1042.4V1041.98H1045.41V1042.4C1045.41 1046.56 1042.05 1050 1037.85 1050H1034.49C1030.33 1050 1026.93 1046.56 1026.93 1042.4V1036.14C1026.93 1031.94 1030.33 1028.58 1034.49 1028.58H1037.85C1041.92 1028.58 1045.2 1031.73 1045.41 1035.72ZM1031.13 1036.9H1041.21V1036.14C1041.21 1034.25 1039.74 1032.78 1037.85 1032.78H1034.49C1032.6 1032.78 1031.13 1034.29 1031.13 1036.14V1036.9ZM1052.11 1042.94H1056.31V1043.78C1056.31 1044.96 1057.41 1045.8 1059.21 1045.8H1063.45C1065.43 1045.8 1066.39 1045.13 1066.39 1044.08C1066.39 1039.33 1052.41 1042.4 1052.41 1034.25C1052.41 1030.85 1055.14 1028.58 1059.13 1028.58H1063.16C1066.94 1028.58 1069.88 1031.31 1069.88 1034.84V1035.22H1065.68V1034.84C1065.68 1033.66 1064.63 1032.78 1063.16 1032.78H1059.13C1057.36 1032.78 1056.61 1033.37 1056.61 1034.25C1056.61 1037.65 1070.59 1035.51 1070.59 1044.08C1070.59 1047.61 1067.7 1050 1063.45 1050H1059.21C1055.14 1050 1052.11 1047.35 1052.11 1043.78V1042.94ZM1077.3 1058.82V1028.58H1081.5V1030.93L1084.98 1028.58H1088.22C1092.38 1028.58 1095.78 1031.98 1095.78 1036.14V1042.44C1095.78 1046.64 1092.38 1050 1088.22 1050H1084.98L1081.5 1047.65V1058.82H1077.3ZM1081.5 1042.57L1086.29 1045.8H1088.22C1090.07 1045.8 1091.58 1044.29 1091.58 1042.44V1036.14C1091.58 1034.29 1090.07 1032.78 1088.22 1032.78H1086.29L1081.5 1036.01V1042.57ZM1120.96 1028.58V1050H1116.76V1047.65L1113.28 1050H1110.04C1105.88 1050 1102.48 1046.6 1102.48 1042.44V1036.14C1102.48 1031.94 1105.88 1028.58 1110.04 1028.58H1113.28L1116.76 1030.93V1028.58H1120.96ZM1106.68 1042.44C1106.68 1044.29 1108.19 1045.8 1110.04 1045.8H1111.97L1116.76 1042.57V1036.01L1111.97 1032.78H1110.04C1108.19 1032.78 1106.68 1034.29 1106.68 1036.14V1042.44ZM1141.94 1036.14C1141.94 1034.25 1140.47 1032.78 1138.58 1032.78H1135.22C1133.33 1032.78 1131.86 1034.29 1131.86 1036.14V1042.4C1131.86 1044.25 1133.38 1045.76 1135.22 1045.76H1138.58C1140.43 1045.76 1141.94 1044.25 1141.94 1042.4V1041.98H1146.14V1042.4C1146.14 1046.56 1142.78 1050 1138.58 1050H1135.22C1131.07 1050 1127.66 1046.56 1127.66 1042.4V1036.14C1127.66 1031.94 1131.07 1028.58 1135.22 1028.58H1138.58C1142.78 1028.58 1146.14 1031.94 1146.14 1036.14V1036.56H1141.94V1036.14ZM1171.33 1035.72V1040.26H1157.05V1042.4C1157.05 1044.25 1158.56 1045.76 1160.41 1045.76H1163.77C1165.62 1045.76 1167.13 1044.25 1167.13 1042.4V1041.98H1171.33V1042.4C1171.33 1046.56 1167.97 1050 1163.77 1050H1160.41C1156.25 1050 1152.85 1046.56 1152.85 1042.4V1036.14C1152.85 1031.94 1156.25 1028.58 1160.41 1028.58H1163.77C1167.84 1028.58 1171.12 1031.73 1171.33 1035.72ZM1157.05 1036.9H1167.13V1036.14C1167.13 1034.25 1165.66 1032.78 1163.77 1032.78H1160.41C1158.52 1032.78 1157.05 1034.29 1157.05 1036.14V1036.9ZM1185.59 1054.24H1181.39V1050H1185.59C1187.44 1050 1188.95 1048.49 1188.95 1046.64V1023.96C1188.95 1022.11 1187.48 1020.6 1185.59 1020.6H1181.39V1016.4H1185.59C1189.75 1016.4 1193.15 1019.76 1193.15 1023.96V1046.64C1193.15 1050.8 1189.75 1054.24 1185.59 1054.24Z" fill="white"/>
<rect width="414" height="98" transform="translate(280 706)" fill="#FF7612"/>
<path d="M318.06 771H313.86V761.34L321 741.6H325.2L332.34 761.34V771H328.14V764.196H318.06V771ZM318.816 759.996H327.384L323.142 748.236H323.058L318.816 759.996ZM353.324 757.14C353.324 755.25 351.854 753.78 349.964 753.78H346.604C344.714 753.78 343.244 755.292 343.244 757.14V763.398C343.244 765.246 344.756 766.758 346.604 766.758H349.964C351.812 766.758 353.324 765.246 353.324 763.398V762.978H357.524V763.398C357.524 767.556 354.164 771 349.964 771H346.604C342.446 771 339.044 767.556 339.044 763.398V757.14C339.044 752.94 342.446 749.58 346.604 749.58H349.964C354.164 749.58 357.524 752.94 357.524 757.14V757.56H353.324V757.14ZM378.507 757.14C378.507 755.25 377.037 753.78 375.147 753.78H371.787C369.897 753.78 368.427 755.292 368.427 757.14V763.398C368.427 765.246 369.939 766.758 371.787 766.758H375.147C376.995 766.758 378.507 765.246 378.507 763.398V762.978H382.707V763.398C382.707 767.556 379.347 771 375.147 771H371.787C367.629 771 364.227 767.556 364.227 763.398V757.14C364.227 752.94 367.629 749.58 371.787 749.58H375.147C379.347 749.58 382.707 752.94 382.707 757.14V757.56H378.507V757.14ZM407.891 756.72V761.256H393.611V763.398C393.611 765.246 395.123 766.758 396.971 766.758H400.331C402.179 766.758 403.691 765.246 403.691 763.398V762.978H407.891V763.398C407.891 767.556 404.531 771 400.331 771H396.971C392.813 771 389.411 767.556 389.411 763.398V757.14C389.411 752.94 392.813 749.58 396.971 749.58H400.331C404.405 749.58 407.681 752.73 407.891 756.72ZM393.611 757.896H403.691V757.14C403.691 755.25 402.221 753.78 400.331 753.78H396.971C395.081 753.78 393.611 755.292 393.611 757.14V757.896ZM414.594 763.944H418.794V764.784C418.794 765.96 419.886 766.8 421.692 766.8H425.934C427.908 766.8 428.874 766.128 428.874 765.078C428.874 760.332 414.888 763.398 414.888 755.25C414.888 751.848 417.618 749.58 421.608 749.58H425.64C429.42 749.58 432.36 752.31 432.36 755.838V756.216H428.16V755.838C428.16 754.662 427.11 753.78 425.64 753.78H421.608C419.844 753.78 419.088 754.368 419.088 755.25C419.088 758.652 433.074 756.51 433.074 765.078C433.074 768.606 430.176 771 425.934 771H421.692C417.618 771 414.594 768.354 414.594 764.784V763.944ZM439.778 763.944H443.978V764.784C443.978 765.96 445.07 766.8 446.876 766.8H451.118C453.092 766.8 454.058 766.128 454.058 765.078C454.058 760.332 440.072 763.398 440.072 755.25C440.072 751.848 442.802 749.58 446.792 749.58H450.824C454.604 749.58 457.544 752.31 457.544 755.838V756.216H453.344V755.838C453.344 754.662 452.294 753.78 450.824 753.78H446.792C445.028 753.78 444.272 754.368 444.272 755.25C444.272 758.652 458.258 756.51 458.258 765.078C458.258 768.606 455.36 771 451.118 771H446.876C442.802 771 439.778 768.354 439.778 764.784V763.944ZM504.425 749.16C504.425 747.27 502.955 745.8 501.065 745.8H497.705C495.815 745.8 494.345 747.312 494.345 749.16V763.398C494.345 765.246 495.857 766.758 497.705 766.758H501.065C502.913 766.758 504.425 765.246 504.425 763.398V761.088H508.625V763.398C508.625 767.556 505.265 771 501.065 771H497.705C493.547 771 490.145 767.556 490.145 763.398V749.16C490.145 744.96 493.547 741.6 497.705 741.6H501.065C505.265 741.6 508.625 744.96 508.625 749.16V751.47H504.425V749.16ZM526.249 766.8C528.139 766.8 529.609 765.372 529.609 763.482V757.14C529.609 755.25 528.139 753.78 526.249 753.78H522.889C520.999 753.78 519.529 755.25 519.529 757.14V763.482C519.529 765.372 520.999 766.758 522.889 766.8H526.249ZM515.329 763.482V757.14C515.329 752.94 518.689 749.58 522.889 749.58H526.249C530.449 749.58 533.809 752.94 533.809 757.14V763.482C533.809 767.682 530.449 771 526.249 771H522.889C518.689 771 515.329 767.682 515.329 763.482ZM540.512 749.58H544.712V751.932L548.198 749.58H551.432C555.59 749.58 558.992 752.94 558.992 757.14V771H554.792V757.14C554.792 755.292 553.28 753.78 551.432 753.78H549.5L544.712 757.014V771H540.512V749.58ZM579.766 771C575.566 771 572.206 767.64 572.206 763.44V753.78H565.696V749.58H572.206V744.12H576.406V749.58H584.176V753.78H576.406V763.44C576.406 765.33 577.876 766.8 579.766 766.8H584.176V771H579.766ZM590.88 749.58H595.08V752.94L600.078 749.58H601.8C605.958 749.58 609.36 752.94 609.36 757.14V758.82H605.16V757.14C605.16 755.292 603.648 753.78 601.8 753.78H601.38L595.08 758.022V771H590.88V749.58ZM626.983 766.8C628.873 766.8 630.343 765.372 630.343 763.482V757.14C630.343 755.25 628.873 753.78 626.983 753.78H623.623C621.733 753.78 620.263 755.25 620.263 757.14V763.482C620.263 765.372 621.733 766.758 623.623 766.8H626.983ZM616.063 763.482V757.14C616.063 752.94 619.423 749.58 623.623 749.58H626.983C631.183 749.58 634.543 752.94 634.543 757.14V763.482C634.543 767.682 631.183 771 626.983 771H623.623C619.423 771 616.063 767.682 616.063 763.482ZM652.377 766.8H659.727V771H641.247V766.8H648.177V745.38H641.247V741.18H652.377V766.8Z" fill="white"/>
<rect width="414" height="234" transform="translate(280 285)" fill="#FF7612"/>
<path d="M427.36 356.1H445.84V360.3H438.7V385.5H434.5V360.3H427.36V356.1ZM456.744 385.5H452.544V375.84L459.684 356.1H463.884L471.024 375.84V385.5H466.824V378.696H456.744V385.5ZM457.5 374.496H466.068L461.826 362.736H461.742L457.5 374.496ZM495.367 365.34C495.367 367.272 494.653 369.078 493.435 370.38C495.115 371.766 496.207 373.866 496.207 376.26V377.94C496.207 382.14 492.847 385.5 488.647 385.5H477.727V356.1H487.807C492.007 356.1 495.367 359.46 495.367 363.66V365.34ZM481.927 381.3H488.647C490.537 381.3 492.007 379.83 492.007 377.94V376.26C492.007 374.37 490.537 372.9 488.647 372.9H481.927V381.3ZM481.927 368.7H487.807C489.697 368.7 491.167 367.23 491.167 365.34V363.66C491.167 361.77 489.697 360.3 487.807 360.3H481.927V368.7ZM507.111 356.1V381.3H521.391V385.5H502.911V356.1H507.111ZM546.574 356.1V360.3H532.294V367.986H544.894V372.186H532.294V381.3H546.574V385.5H528.094V356.1H546.574Z" fill="white"/>
<path opacity="0.75" d="M412.78 454.742C408.622 454.742 405.22 451.298 405.22 447.14V424.46C405.22 420.26 408.622 416.9 412.78 416.9H416.98V421.1H412.78C410.89 421.1 409.42 422.612 409.42 424.46V447.14C409.42 448.988 410.932 450.5 412.78 450.5H416.98V454.742H412.78ZM427.044 421.1H445.524V425.3H438.384V446.3H445.524V450.5H427.044V446.3H434.184V425.3H427.044V421.1ZM466.297 450.5C462.097 450.5 458.737 447.14 458.737 442.94V433.28H452.227V429.08H458.737V423.62H462.937V429.08H470.707V433.28H462.937V442.94C462.937 444.83 464.407 446.3 466.297 446.3H470.707V450.5H466.297ZM495.891 436.22V440.756H481.611V442.898C481.611 444.746 483.123 446.258 484.971 446.258H488.331C490.179 446.258 491.691 444.746 491.691 442.898V442.478H495.891V442.898C495.891 447.056 492.531 450.5 488.331 450.5H484.971C480.813 450.5 477.411 447.056 477.411 442.898V436.64C477.411 432.44 480.813 429.08 484.971 429.08H488.331C492.405 429.08 495.681 432.23 495.891 436.22ZM481.611 437.396H491.691V436.64C491.691 434.75 490.221 433.28 488.331 433.28H484.971C483.081 433.28 481.611 434.792 481.611 436.64V437.396ZM501.754 429.08H505.954V431.516L508.474 429.08H508.81C511.036 429.08 512.59 430.046 513.388 432.062L516.454 429.08H516.79C520.108 429.08 521.914 431.18 521.914 435.8V450.5H517.714V435.8C517.714 435.002 517.714 434.33 517.63 433.868L513.934 437.396V450.5H509.734V435.8C509.734 435.002 509.734 434.33 509.65 433.868L505.954 437.396V450.5H501.754V429.08ZM508.348 432.608H508.6H508.348ZM516.328 432.608H516.58H516.328ZM527.778 443.444H531.978V444.284C531.978 445.46 533.07 446.3 534.876 446.3H539.118C541.092 446.3 542.058 445.628 542.058 444.578C542.058 439.832 528.072 442.898 528.072 434.75C528.072 431.348 530.802 429.08 534.792 429.08H538.824C542.604 429.08 545.544 431.81 545.544 435.338V435.716H541.344V435.338C541.344 434.162 540.294 433.28 538.824 433.28H534.792C533.028 433.28 532.272 433.868 532.272 434.75C532.272 438.152 546.258 436.01 546.258 444.578C546.258 448.106 543.36 450.5 539.118 450.5H534.876C530.802 450.5 527.778 447.854 527.778 444.284V443.444ZM560.522 454.742H556.322V450.5H560.522C562.37 450.5 563.882 448.988 563.882 447.14V424.46C563.882 422.612 562.412 421.1 560.522 421.1H556.322V416.9H560.522C564.68 416.9 568.082 420.26 568.082 424.46V447.14C568.082 451.298 564.68 454.742 560.522 454.742Z" fill="white"/>
<rect width="513" height="234" transform="translate(1210 507)" fill="white"/>
<path d="M1269.85 560.18H1273.84V564.38H1269.85C1267.96 564.38 1266.49 565.85 1266.49 567.74V569.84H1273.84V574.04H1266.49V590H1262.29V574.04H1255.36V569.84H1262.29V567.74C1262.29 563.54 1265.65 560.18 1269.85 560.18ZM1299.02 590H1294.82V587.648L1291.34 590H1288.1C1283.95 590 1280.54 586.64 1280.54 582.44V568.58H1284.74V582.44C1284.74 584.288 1286.26 585.8 1288.1 585.8H1290.04L1294.82 582.566V568.58H1299.02V590ZM1305.73 568.58H1309.93V570.932L1313.41 568.58H1316.65C1320.81 568.58 1324.21 571.94 1324.21 576.14V590H1320.01V576.14C1320.01 574.292 1318.5 572.78 1316.65 572.78H1314.72L1309.93 576.014V590H1305.73V568.58ZM1345.19 576.14C1345.19 574.25 1343.72 572.78 1341.83 572.78H1338.47C1336.58 572.78 1335.11 574.292 1335.11 576.14V582.398C1335.11 584.246 1336.62 585.758 1338.47 585.758H1341.83C1343.68 585.758 1345.19 584.246 1345.19 582.398V581.978H1349.39V582.398C1349.39 586.556 1346.03 590 1341.83 590H1338.47C1334.31 590 1330.91 586.556 1330.91 582.398V576.14C1330.91 571.94 1334.31 568.58 1338.47 568.58H1341.83C1346.03 568.58 1349.39 571.94 1349.39 576.14V576.56H1345.19V576.14ZM1370.16 590C1365.96 590 1362.6 586.64 1362.6 582.44V572.78H1356.09V568.58H1362.6V563.12H1366.8V568.58H1374.57V572.78H1366.8V582.44C1366.8 584.33 1368.27 585.8 1370.16 585.8H1374.57V590H1370.16ZM1392.41 585.8H1399.76V590H1381.28V585.8H1388.21V572.78H1381.28V568.58H1392.41V585.8ZM1387.79 564.8V560.6H1392.41V564.8H1387.79ZM1417.38 585.8C1419.27 585.8 1420.74 584.372 1420.74 582.482V576.14C1420.74 574.25 1419.27 572.78 1417.38 572.78H1414.02C1412.13 572.78 1410.66 574.25 1410.66 576.14V582.482C1410.66 584.372 1412.13 585.758 1414.02 585.8H1417.38ZM1406.46 582.482V576.14C1406.46 571.94 1409.82 568.58 1414.02 568.58H1417.38C1421.58 568.58 1424.94 571.94 1424.94 576.14V582.482C1424.94 586.682 1421.58 590 1417.38 590H1414.02C1409.82 590 1406.46 586.682 1406.46 582.482ZM1431.65 568.58H1435.85V570.932L1439.33 568.58H1442.57C1446.72 568.58 1450.13 571.94 1450.13 576.14V590H1445.93V576.14C1445.93 574.292 1444.41 572.78 1442.57 572.78H1440.63L1435.85 576.014V590H1431.65V568.58ZM1467.75 594.242C1463.59 594.242 1460.19 590.798 1460.19 586.64V563.96C1460.19 559.76 1463.59 556.4 1467.75 556.4H1471.95V560.6H1467.75C1465.86 560.6 1464.39 562.112 1464.39 563.96V586.64C1464.39 588.488 1465.9 590 1467.75 590H1471.95V594.242H1467.75ZM1488.94 585.8H1493.56V590H1488.94V585.8ZM1514.13 585.8H1518.75V590H1514.13V585.8ZM1539.31 585.8H1543.93V590H1539.31V585.8ZM1565.12 594.242H1560.92V590H1565.12C1566.97 590 1568.48 588.488 1568.48 586.64V563.96C1568.48 562.112 1567.01 560.6 1565.12 560.6H1560.92V556.4H1565.12C1569.28 556.4 1572.68 559.76 1572.68 563.96V586.64C1572.68 590.798 1569.28 594.242 1565.12 594.242ZM1611.29 573.2C1613.18 573.2 1614.65 571.73 1614.65 569.84V563.96C1614.65 559.76 1618.01 556.4 1622.21 556.4H1623.05V560.6H1622.21C1620.32 560.6 1618.85 562.07 1618.85 563.96V569.84C1618.85 571.982 1617.97 573.914 1616.54 575.3C1617.97 576.686 1618.85 578.618 1618.85 580.76V586.64C1618.85 588.53 1620.32 590 1622.21 590H1623.05V594.2H1622.21C1618.01 594.2 1614.65 590.84 1614.65 586.64V580.76C1614.65 578.87 1613.18 577.4 1611.29 577.4V573.2ZM1271.32 677.4C1269.43 677.4 1267.96 678.87 1267.96 680.76V686.64C1267.96 690.84 1264.6 694.2 1260.4 694.2H1259.56V690H1260.4C1262.29 690 1263.76 688.53 1263.76 686.64V680.76C1263.76 678.618 1264.64 676.686 1266.07 675.3C1264.64 673.914 1263.76 671.982 1263.76 669.84V663.96C1263.76 662.07 1262.29 660.6 1260.4 660.6H1259.56V656.4H1260.4C1264.6 656.4 1267.96 659.76 1267.96 663.96V669.84C1267.96 671.73 1269.43 673.2 1271.32 673.2V677.4Z" fill="#FF7612" fill-opacity="0.5"/>
<path d="M1330.91 610.6H1349.39V614.8H1342.25V635.8H1349.39V640H1330.91V635.8H1338.05V614.8H1330.91V610.6ZM1370.16 640C1365.96 640 1362.6 636.64 1362.6 632.44V622.78H1356.09V618.58H1362.6V613.12H1366.8V618.58H1374.57V622.78H1366.8V632.44C1366.8 634.33 1368.27 635.8 1370.16 635.8H1374.57V640H1370.16ZM1399.76 625.72V630.256H1385.48V632.398C1385.48 634.246 1386.99 635.758 1388.84 635.758H1392.2C1394.05 635.758 1395.56 634.246 1395.56 632.398V631.978H1399.76V632.398C1399.76 636.556 1396.4 640 1392.2 640H1388.84C1384.68 640 1381.28 636.556 1381.28 632.398V626.14C1381.28 621.94 1384.68 618.58 1388.84 618.58H1392.2C1396.27 618.58 1399.55 621.73 1399.76 625.72ZM1385.48 626.896H1395.56V626.14C1395.56 624.25 1394.09 622.78 1392.2 622.78H1388.84C1386.95 622.78 1385.48 624.292 1385.48 626.14V626.896ZM1405.62 618.58H1409.82V621.016L1412.34 618.58H1412.68C1414.9 618.58 1416.46 619.546 1417.26 621.562L1420.32 618.58H1420.66C1423.98 618.58 1425.78 620.68 1425.78 625.3V640H1421.58V625.3C1421.58 624.502 1421.58 623.83 1421.5 623.368L1417.8 626.896V640H1413.6V625.3C1413.6 624.502 1413.6 623.83 1413.52 623.368L1409.82 626.896V640H1405.62V618.58ZM1412.22 622.108H1412.47H1412.22ZM1420.2 622.108H1420.45H1420.2ZM1431.65 632.944H1435.85V633.784C1435.85 634.96 1436.94 635.8 1438.74 635.8H1442.99C1444.96 635.8 1445.93 635.128 1445.93 634.078C1445.93 629.332 1431.94 632.398 1431.94 624.25C1431.94 620.848 1434.67 618.58 1438.66 618.58H1442.69C1446.47 618.58 1449.41 621.31 1449.41 624.838V625.216H1445.21V624.838C1445.21 623.662 1444.16 622.78 1442.69 622.78H1438.66C1436.9 622.78 1436.14 623.368 1436.14 624.25C1436.14 627.652 1450.13 625.51 1450.13 634.078C1450.13 637.606 1447.23 640 1442.99 640H1438.74C1434.67 640 1431.65 637.354 1431.65 633.784V632.944ZM1463.76 635.8H1468.38V640H1463.76V635.8ZM1482.01 632.944H1486.21V633.784C1486.21 634.96 1487.3 635.8 1489.11 635.8H1493.35C1495.33 635.8 1496.29 635.128 1496.29 634.078C1496.29 629.332 1482.31 632.398 1482.31 624.25C1482.31 620.848 1485.04 618.58 1489.03 618.58H1493.06C1496.84 618.58 1499.78 621.31 1499.78 624.838V625.216H1495.58V624.838C1495.58 623.662 1494.53 622.78 1493.06 622.78H1489.03C1487.26 622.78 1486.51 623.368 1486.51 624.25C1486.51 627.652 1500.49 625.51 1500.49 634.078C1500.49 637.606 1497.59 640 1493.35 640H1489.11C1485.04 640 1482.01 637.354 1482.01 633.784V632.944ZM1525.68 625.72V630.256H1511.4V632.398C1511.4 634.246 1512.91 635.758 1514.76 635.758H1518.12C1519.96 635.758 1521.48 634.246 1521.48 632.398V631.978H1525.68V632.398C1525.68 636.556 1522.32 640 1518.12 640H1514.76C1510.6 640 1507.2 636.556 1507.2 632.398V626.14C1507.2 621.94 1510.6 618.58 1514.76 618.58H1518.12C1522.19 618.58 1525.47 621.73 1525.68 625.72ZM1511.4 626.896H1521.48V626.14C1521.48 624.25 1520.01 622.78 1518.12 622.78H1514.76C1512.87 622.78 1511.4 624.292 1511.4 626.14V626.896ZM1546.45 640C1542.25 640 1538.89 636.64 1538.89 632.44V622.78H1532.38V618.58H1538.89V613.12H1543.09V618.58H1550.86V622.78H1543.09V632.44C1543.09 634.33 1544.56 635.8 1546.45 635.8H1550.86V640H1546.45ZM1568.48 644.242C1564.33 644.242 1560.92 640.798 1560.92 636.64V613.96C1560.92 609.76 1564.33 606.4 1568.48 606.4H1572.68V610.6H1568.48C1566.59 610.6 1565.12 612.112 1565.12 613.96V636.64C1565.12 638.488 1566.64 640 1568.48 640H1572.68V644.242H1568.48ZM1589.68 635.8H1594.3V640H1589.68V635.8ZM1614.86 635.8H1619.48V640H1614.86V635.8ZM1640.04 635.8H1644.66V640H1640.04V635.8ZM1665.86 644.242H1661.66V640H1665.86C1667.71 640 1669.22 638.488 1669.22 636.64V613.96C1669.22 612.112 1667.75 610.6 1665.86 610.6H1661.66V606.4H1665.86C1670.02 606.4 1673.42 609.76 1673.42 613.96V636.64C1673.42 640.798 1670.02 644.242 1665.86 644.242Z" fill="#FF7612"/>
<path d="M817 104H819V102H817V104ZM815.586 202.414C816.367 203.195 817.633 203.195 818.414 202.414L831.142 189.686C831.923 188.905 831.923 187.639 831.142 186.858C830.361 186.077 829.095 186.077 828.314 186.858L817 198.172L805.686 186.858C804.905 186.077 803.639 186.077 802.858 186.858C802.077 187.639 802.077 188.905 802.858 189.686L815.586 202.414ZM548 106H817V102H548V106ZM815 104V201H819V104H815Z" fill="black"/>
<rect width="695" height="82" transform="translate(613 64)" fill="black"/>
<rect width="42" height="50" transform="translate(629 80)" fill="white"/>
<path d="M658.84 116.8V121H640.36V116.8H647.5V96.472L640.36 100.672V95.8L647.5 91.6H651.7V116.8H658.84Z" fill="black"/>
<path d="M690.36 99.58H694.56V101.932L698.046 99.58H701.28C705.438 99.58 708.84 102.94 708.84 107.14V121H704.64V107.14C704.64 105.292 703.128 103.78 701.28 103.78H699.348L694.56 107.014V121H690.36V99.58ZM734.024 99.58V121H729.824V118.648L726.338 121H723.104C718.946 121 715.544 117.598 715.544 113.44V107.14C715.544 102.94 718.946 99.58 723.104 99.58H726.338L729.824 101.932V99.58H734.024ZM719.744 113.44C719.744 115.288 721.256 116.8 723.104 116.8H725.036L729.824 113.566V107.014L725.036 103.78H723.104C721.256 103.78 719.744 105.292 719.744 107.14V113.44ZM739.887 99.58H744.087V102.016L746.607 99.58H746.943C749.169 99.58 750.723 100.546 751.521 102.562L754.587 99.58H754.923C758.241 99.58 760.047 101.68 760.047 106.3V121H755.847V106.3C755.847 105.502 755.847 104.83 755.763 104.368L752.067 107.896V121H747.867V106.3C747.867 105.502 747.867 104.83 747.783 104.368L744.087 107.896V121H739.887V99.58ZM746.481 103.108H746.733H746.481ZM754.461 103.108H754.713H754.461ZM784.391 106.72V111.256H770.111V113.398C770.111 115.246 771.623 116.758 773.471 116.758H776.831C778.679 116.758 780.191 115.246 780.191 113.398V112.978H784.391V113.398C784.391 117.556 781.031 121 776.831 121H773.471C769.313 121 765.911 117.556 765.911 113.398V107.14C765.911 102.94 769.313 99.58 773.471 99.58H776.831C780.905 99.58 784.181 102.73 784.391 106.72ZM770.111 107.896H780.191V107.14C780.191 105.25 778.721 103.78 776.831 103.78H773.471C771.581 103.78 770.111 105.292 770.111 107.14V107.896ZM791.094 113.944H795.294V114.784C795.294 115.96 796.386 116.8 798.192 116.8H802.434C804.408 116.8 805.374 116.128 805.374 115.078C805.374 110.332 791.388 113.398 791.388 105.25C791.388 101.848 794.118 99.58 798.108 99.58H802.14C805.92 99.58 808.86 102.31 808.86 105.838V106.216H804.66V105.838C804.66 104.662 803.61 103.78 802.14 103.78H798.108C796.344 103.78 795.588 104.368 795.588 105.25C795.588 108.652 809.574 106.51 809.574 115.078C809.574 118.606 806.676 121 802.434 121H798.192C794.118 121 791.094 118.354 791.094 114.784V113.944ZM816.278 129.82V99.58H820.478V101.932L823.964 99.58H827.198C831.356 99.58 834.758 102.982 834.758 107.14V113.44C834.758 117.64 831.356 121 827.198 121H823.964L820.478 118.648V129.82H816.278ZM820.478 113.566L825.266 116.8H827.198C829.046 116.8 830.558 115.288 830.558 113.44V107.14C830.558 105.292 829.046 103.78 827.198 103.78H825.266L820.478 107.014V113.566ZM859.942 99.58V121H855.742V118.648L852.256 121H849.022C844.864 121 841.462 117.598 841.462 113.44V107.14C841.462 102.94 844.864 99.58 849.022 99.58H852.256L855.742 101.932V99.58H859.942ZM845.662 113.44C845.662 115.288 847.174 116.8 849.022 116.8H850.954L855.742 113.566V107.014L850.954 103.78H849.022C847.174 103.78 845.662 105.292 845.662 107.14V113.44ZM880.925 107.14C880.925 105.25 879.455 103.78 877.565 103.78H874.205C872.315 103.78 870.845 105.292 870.845 107.14V113.398C870.845 115.246 872.357 116.758 874.205 116.758H877.565C879.413 116.758 880.925 115.246 880.925 113.398V112.978H885.125V113.398C885.125 117.556 881.765 121 877.565 121H874.205C870.047 121 866.645 117.556 866.645 113.398V107.14C866.645 102.94 870.047 99.58 874.205 99.58H877.565C881.765 99.58 885.125 102.94 885.125 107.14V107.56H880.925V107.14ZM910.309 106.72V111.256H896.029V113.398C896.029 115.246 897.541 116.758 899.389 116.758H902.749C904.597 116.758 906.109 115.246 906.109 113.398V112.978H910.309V113.398C910.309 117.556 906.949 121 902.749 121H899.389C895.231 121 891.829 117.556 891.829 113.398V107.14C891.829 102.94 895.231 99.58 899.389 99.58H902.749C906.823 99.58 910.099 102.73 910.309 106.72ZM896.029 107.896H906.109V107.14C906.109 105.25 904.639 103.78 902.749 103.78H899.389C897.499 103.78 896.029 105.292 896.029 107.14V107.896ZM914.072 122.386H938.432V126.586H914.072V122.386ZM939.256 122.386H963.616V126.586H939.256V122.386ZM981.87 91.18H985.86V95.38H981.87C979.98 95.38 978.51 96.85 978.51 98.74V100.84H985.86V105.04H978.51V121H974.31V105.04H967.38V100.84H974.31V98.74C974.31 94.54 977.67 91.18 981.87 91.18ZM1011.04 121H1006.84V118.648L1003.36 121H1000.12C995.965 121 992.563 117.64 992.563 113.44V99.58H996.763V113.44C996.763 115.288 998.275 116.8 1000.12 116.8H1002.06L1006.84 113.566V99.58H1011.04V121ZM1017.75 99.58H1021.95V101.932L1025.43 99.58H1028.67C1032.82 99.58 1036.23 102.94 1036.23 107.14V121H1032.03V107.14C1032.03 105.292 1030.51 103.78 1028.67 103.78H1026.73L1021.95 107.014V121H1017.75V99.58ZM1057.21 107.14C1057.21 105.25 1055.74 103.78 1053.85 103.78H1050.49C1048.6 103.78 1047.13 105.292 1047.13 107.14V113.398C1047.13 115.246 1048.64 116.758 1050.49 116.758H1053.85C1055.7 116.758 1057.21 115.246 1057.21 113.398V112.978H1061.41V113.398C1061.41 117.556 1058.05 121 1053.85 121H1050.49C1046.33 121 1042.93 117.556 1042.93 113.398V107.14C1042.93 102.94 1046.33 99.58 1050.49 99.58H1053.85C1058.05 99.58 1061.41 102.94 1061.41 107.14V107.56H1057.21V107.14ZM1082.18 121C1077.98 121 1074.62 117.64 1074.62 113.44V103.78H1068.11V99.58H1074.62V94.12H1078.82V99.58H1086.59V103.78H1078.82V113.44C1078.82 115.33 1080.29 116.8 1082.18 116.8H1086.59V121H1082.18ZM1104.43 116.8H1111.78V121H1093.3V116.8H1100.23V103.78H1093.3V99.58H1104.43V116.8ZM1099.81 95.8V91.6H1104.43V95.8H1099.81ZM1129.4 116.8C1131.29 116.8 1132.76 115.372 1132.76 113.482V107.14C1132.76 105.25 1131.29 103.78 1129.4 103.78H1126.04C1124.15 103.78 1122.68 105.25 1122.68 107.14V113.482C1122.68 115.372 1124.15 116.758 1126.04 116.8H1129.4ZM1118.48 113.482V107.14C1118.48 102.94 1121.84 99.58 1126.04 99.58H1129.4C1133.6 99.58 1136.96 102.94 1136.96 107.14V113.482C1136.96 117.682 1133.6 121 1129.4 121H1126.04C1121.84 121 1118.48 117.682 1118.48 113.482ZM1143.66 99.58H1147.86V101.932L1151.35 99.58H1154.58C1158.74 99.58 1162.14 102.94 1162.14 107.14V121H1157.94V107.14C1157.94 105.292 1156.43 103.78 1154.58 103.78H1152.65L1147.86 107.014V121H1143.66V99.58ZM1179.77 125.242C1175.61 125.242 1172.21 121.798 1172.21 117.64V94.96C1172.21 90.76 1175.61 87.4 1179.77 87.4H1183.97V91.6H1179.77C1177.88 91.6 1176.41 93.112 1176.41 94.96V117.64C1176.41 119.488 1177.92 121 1179.77 121H1183.97V125.242H1179.77ZM1200.96 116.8H1205.58V121H1200.96V116.8ZM1226.15 116.8H1230.77V121H1226.15V116.8ZM1251.33 116.8H1255.95V121H1251.33V116.8ZM1277.14 125.242H1272.94V121H1277.14C1278.99 121 1280.5 119.488 1280.5 117.64V94.96C1280.5 93.112 1279.03 91.6 1277.14 91.6H1272.94V87.4H1277.14C1281.3 87.4 1284.7 90.76 1284.7 94.96V117.64C1284.7 121.798 1281.3 125.242 1277.14 125.242Z" fill="white"/>
<path d="M1511 315H1513V313H1511V315ZM1509.59 501.414C1510.37 502.195 1511.63 502.195 1512.41 501.414L1525.14 488.686C1525.92 487.905 1525.92 486.639 1525.14 485.858C1524.36 485.077 1523.09 485.077 1522.31 485.858L1511 497.172L1499.69 485.858C1498.91 485.077 1497.64 485.077 1496.86 485.858C1496.08 486.639 1496.08 487.905 1496.86 488.686L1509.59 501.414ZM918 317H1511V313H918V317ZM1509 315V500H1513V315H1509Z" fill="black"/>
<path d="M1060 756V758H1062V756H1060ZM698.586 754.586C697.805 755.367 697.805 756.633 698.586 757.414L711.314 770.142C712.095 770.923 713.361 770.923 714.142 770.142C714.923 769.361 714.923 768.095 714.142 767.314L702.828 756L714.142 744.686C714.923 743.905 714.923 742.639 714.142 741.858C713.361 741.077 712.095 741.077 711.314 741.858L698.586 754.586ZM1060 623.5V621.5H1058V623.5H1060ZM1060 754H700V758H1060V754ZM1209.5 621.5H1060V625.5H1209.5V621.5ZM1058 623.5V756H1062V623.5H1058Z" fill="black"/>
<path d="M502.414 524.586C501.633 523.805 500.367 523.805 499.586 524.586L486.858 537.314C486.077 538.095 486.077 539.361 486.858 540.142C487.639 540.923 488.905 540.923 489.686 540.142L501 528.828L512.314 540.142C513.095 540.923 514.361 540.923 515.142 540.142C515.923 539.361 515.923 538.095 515.142 537.314L502.414 524.586ZM503 706L503 526L499 526L499 706L503 706Z" fill="black"/>
<rect width="368" height="82" transform="translate(777 709)" fill="black"/>
<rect width="42" height="50" transform="translate(793 725)" fill="white"/>
<path d="M822.84 745.84C822.84 747.982 821.958 749.914 820.53 751.3C821.958 752.686 822.84 754.618 822.84 756.76V758.44C822.84 762.64 819.48 766 815.28 766H811.92C807.762 766 804.36 762.64 804.36 758.44V756.97H808.56V758.44C808.56 760.288 810.072 761.8 811.92 761.8H815.28C817.17 761.8 818.64 760.33 818.64 758.44V756.76C818.64 754.87 817.17 753.4 815.28 753.4H812.34V749.2H815.28C817.17 749.2 818.64 747.73 818.64 745.84V744.16C818.64 742.27 817.17 740.8 815.28 740.8H811.92C810.072 740.8 808.56 742.312 808.56 744.16V745.63H804.36V744.16C804.36 739.96 807.762 736.6 811.92 736.6H815.28C819.48 736.6 822.84 739.96 822.84 744.16V745.84Z" fill="black"/>
<path d="M872.84 766H868.64V763.648L865.154 766H861.92C857.762 766 854.36 762.64 854.36 758.44V744.58H858.56V758.44C858.56 760.288 860.072 761.8 861.92 761.8H863.852L868.64 758.566V744.58H872.84V766ZM879.544 774.82V744.58H883.744V746.932L887.23 744.58H890.464C894.622 744.58 898.024 747.982 898.024 752.14V758.44C898.024 762.64 894.622 766 890.464 766H887.23L883.744 763.648V774.82H879.544ZM883.744 758.566L888.532 761.8H890.464C892.312 761.8 893.824 760.288 893.824 758.44V752.14C893.824 750.292 892.312 748.78 890.464 748.78H888.532L883.744 752.014V758.566ZM923.207 736.18V766H919.007V763.648L915.521 766H912.287C908.129 766 904.727 762.598 904.727 758.44V752.14C904.727 747.94 908.129 744.58 912.287 744.58H915.521L919.007 746.932V736.18H923.207ZM908.927 758.44C908.927 760.288 910.439 761.8 912.287 761.8H914.219L919.007 758.566V752.014L914.219 748.78H912.287C910.439 748.78 908.927 750.292 908.927 752.14V758.44ZM948.391 744.58V766H944.191V763.648L940.705 766H937.471C933.313 766 929.911 762.598 929.911 758.44V752.14C929.911 747.94 933.313 744.58 937.471 744.58H940.705L944.191 746.932V744.58H948.391ZM934.111 758.44C934.111 760.288 935.623 761.8 937.471 761.8H939.403L944.191 758.566V752.014L939.403 748.78H937.471C935.623 748.78 934.111 750.292 934.111 752.14V758.44ZM969.164 766C964.964 766 961.604 762.64 961.604 758.44V748.78H955.094V744.58H961.604V739.12H965.804V744.58H973.574V748.78H965.804V758.44C965.804 760.33 967.274 761.8 969.164 761.8H973.574V766H969.164ZM998.758 751.72V756.256H984.478V758.398C984.478 760.246 985.99 761.758 987.838 761.758H991.198C993.046 761.758 994.558 760.246 994.558 758.398V757.978H998.758V758.398C998.758 762.556 995.398 766 991.198 766H987.838C983.68 766 980.278 762.556 980.278 758.398V752.14C980.278 747.94 983.68 744.58 987.838 744.58H991.198C995.272 744.58 998.548 747.73 998.758 751.72ZM984.478 752.896H994.558V752.14C994.558 750.25 993.088 748.78 991.198 748.78H987.838C985.948 748.78 984.478 750.292 984.478 752.14V752.896ZM1016.38 770.242C1012.22 770.242 1008.82 766.798 1008.82 762.64V739.96C1008.82 735.76 1012.22 732.4 1016.38 732.4H1020.58V736.6H1016.38C1014.49 736.6 1013.02 738.112 1013.02 739.96V762.64C1013.02 764.488 1014.53 766 1016.38 766H1020.58V770.242H1016.38ZM1037.58 761.8H1042.2V766H1037.58V761.8ZM1062.76 761.8H1067.38V766H1062.76V761.8ZM1087.94 761.8H1092.56V766H1087.94V761.8ZM1113.76 770.242H1109.56V766H1113.76C1115.6 766 1117.12 764.488 1117.12 762.64V739.96C1117.12 738.112 1115.65 736.6 1113.76 736.6H1109.56V732.4H1113.76C1117.91 732.4 1121.32 735.76 1121.32 739.96V762.64C1121.32 766.798 1117.91 770.242 1113.76 770.242Z" fill="white"/>
<rect width="393" height="82" transform="translate(305 575)" fill="black"/>
<rect width="42" height="50" transform="translate(321 591)" fill="white"/>
<path d="M342.44 605.12H346.64V615.62H350.84V619.82H346.64V632H342.44V619.82H332.36V602.6H336.56V615.62H342.44V605.12Z" fill="black"/>
<path d="M400.84 610.58V632H396.64V629.648L393.154 632H389.92C385.762 632 382.36 628.598 382.36 624.44V618.14C382.36 613.94 385.762 610.58 389.92 610.58H393.154L396.64 612.932V610.58H400.84ZM386.56 624.44C386.56 626.288 388.072 627.8 389.92 627.8H391.852L396.64 624.566V618.014L391.852 614.78H389.92C388.072 614.78 386.56 616.292 386.56 618.14V624.44ZM407.544 640.82V610.58H411.744V612.932L415.23 610.58H418.464C422.622 610.58 426.024 613.982 426.024 618.14V624.44C426.024 628.64 422.622 632 418.464 632H415.23L411.744 629.648V640.82H407.544ZM411.744 624.566L416.532 627.8H418.464C420.312 627.8 421.824 626.288 421.824 624.44V618.14C421.824 616.292 420.312 614.78 418.464 614.78H416.532L411.744 618.014V624.566ZM432.727 640.82V610.58H436.927V612.932L440.413 610.58H443.647C447.805 610.58 451.207 613.982 451.207 618.14V624.44C451.207 628.64 447.805 632 443.647 632H440.413L436.927 629.648V640.82H432.727ZM436.927 624.566L441.715 627.8H443.647C445.495 627.8 447.007 626.288 447.007 624.44V618.14C447.007 616.292 445.495 614.78 443.647 614.78H441.715L436.927 618.014V624.566ZM457.911 610.58H462.111V613.94L467.109 610.58H468.831C472.989 610.58 476.391 613.94 476.391 618.14V619.82H472.191V618.14C472.191 616.292 470.679 614.78 468.831 614.78H468.411L462.111 619.022V632H457.911V610.58ZM494.014 627.8C495.904 627.8 497.374 626.372 497.374 624.482V618.14C497.374 616.25 495.904 614.78 494.014 614.78H490.654C488.764 614.78 487.294 616.25 487.294 618.14V624.482C487.294 626.372 488.764 627.758 490.654 627.8H494.014ZM483.094 624.482V618.14C483.094 613.94 486.454 610.58 490.654 610.58H494.014C498.214 610.58 501.574 613.94 501.574 618.14V624.482C501.574 628.682 498.214 632 494.014 632H490.654C486.454 632 483.094 628.682 483.094 624.482ZM522.558 610.58H526.758V620.24L519.618 632H515.418L508.278 620.24V610.58H512.478V619.064L517.476 627.296H517.56L522.558 619.064V610.58ZM551.942 617.72V622.256H537.662V624.398C537.662 626.246 539.174 627.758 541.022 627.758H544.382C546.23 627.758 547.742 626.246 547.742 624.398V623.978H551.942V624.398C551.942 628.556 548.582 632 544.382 632H541.022C536.864 632 533.462 628.556 533.462 624.398V618.14C533.462 613.94 536.864 610.58 541.022 610.58H544.382C548.456 610.58 551.732 613.73 551.942 617.72ZM537.662 618.896H547.742V618.14C547.742 616.25 546.272 614.78 544.382 614.78H541.022C539.132 614.78 537.662 616.292 537.662 618.14V618.896ZM569.565 636.242C565.407 636.242 562.005 632.798 562.005 628.64V605.96C562.005 601.76 565.407 598.4 569.565 598.4H573.765V602.6H569.565C567.675 602.6 566.205 604.112 566.205 605.96V628.64C566.205 630.488 567.717 632 569.565 632H573.765V636.242H569.565ZM590.759 627.8H595.379V632H590.759V627.8ZM615.942 627.8H620.562V632H615.942V627.8ZM641.126 627.8H645.746V632H641.126V627.8ZM666.94 636.242H662.74V632H666.94C668.788 632 670.3 630.488 670.3 628.64V605.96C670.3 604.112 668.83 602.6 666.94 602.6H662.74V598.4H666.94C671.098 598.4 674.5 601.76 674.5 605.96V628.64C674.5 632.798 671.098 636.242 666.94 636.242Z" fill="white"/>
<path opacity="0.45" d="M817.5 209V315H918" stroke="black" stroke-width="4" stroke-dasharray="8 8"/>
<rect width="443" height="82" transform="translate(1001 270)" fill="black"/>
<rect width="42" height="50" transform="translate(1017 286)" fill="white"/>
<path d="M1046.84 322.8V327H1028.36V317.298L1042.64 309.276V305.16C1042.64 303.27 1041.17 301.8 1039.28 301.8H1035.92C1034.07 301.8 1032.56 303.312 1032.56 305.16V306.63H1028.36V305.16C1028.36 300.96 1031.76 297.6 1035.92 297.6H1039.28C1043.48 297.6 1046.84 300.96 1046.84 305.16V311.754L1032.56 319.776V322.8H1046.84Z" fill="black"/>
<path d="M1082.56 327H1078.36V317.34L1085.5 297.6H1089.7L1096.84 317.34V327H1092.64V320.196H1082.56V327ZM1083.32 315.996H1091.88L1087.64 304.236H1087.56L1083.32 315.996ZM1117.82 313.14C1117.82 311.25 1116.35 309.78 1114.46 309.78H1111.1C1109.21 309.78 1107.74 311.292 1107.74 313.14V319.398C1107.74 321.246 1109.26 322.758 1111.1 322.758H1114.46C1116.31 322.758 1117.82 321.246 1117.82 319.398V318.978H1122.02V319.398C1122.02 323.556 1118.66 327 1114.46 327H1111.1C1106.95 327 1103.54 323.556 1103.54 319.398V313.14C1103.54 308.94 1106.95 305.58 1111.1 305.58H1114.46C1118.66 305.58 1122.02 308.94 1122.02 313.14V313.56H1117.82V313.14ZM1143.01 313.14C1143.01 311.25 1141.54 309.78 1139.65 309.78H1136.29C1134.4 309.78 1132.93 311.292 1132.93 313.14V319.398C1132.93 321.246 1134.44 322.758 1136.29 322.758H1139.65C1141.5 322.758 1143.01 321.246 1143.01 319.398V318.978H1147.21V319.398C1147.21 323.556 1143.85 327 1139.65 327H1136.29C1132.13 327 1128.73 323.556 1128.73 319.398V313.14C1128.73 308.94 1132.13 305.58 1136.29 305.58H1139.65C1143.85 305.58 1147.21 308.94 1147.21 313.14V313.56H1143.01V313.14ZM1172.39 312.72V317.256H1158.11V319.398C1158.11 321.246 1159.62 322.758 1161.47 322.758H1164.83C1166.68 322.758 1168.19 321.246 1168.19 319.398V318.978H1172.39V319.398C1172.39 323.556 1169.03 327 1164.83 327H1161.47C1157.31 327 1153.91 323.556 1153.91 319.398V313.14C1153.91 308.94 1157.31 305.58 1161.47 305.58H1164.83C1168.9 305.58 1172.18 308.73 1172.39 312.72ZM1158.11 313.896H1168.19V313.14C1168.19 311.25 1166.72 309.78 1164.83 309.78H1161.47C1159.58 309.78 1158.11 311.292 1158.11 313.14V313.896ZM1179.09 319.944H1183.29V320.784C1183.29 321.96 1184.39 322.8 1186.19 322.8H1190.43C1192.41 322.8 1193.37 322.128 1193.37 321.078C1193.37 316.332 1179.39 319.398 1179.39 311.25C1179.39 307.848 1182.12 305.58 1186.11 305.58H1190.14C1193.92 305.58 1196.86 308.31 1196.86 311.838V312.216H1192.66V311.838C1192.66 310.662 1191.61 309.78 1190.14 309.78H1186.11C1184.34 309.78 1183.59 310.368 1183.59 311.25C1183.59 314.652 1197.57 312.51 1197.57 321.078C1197.57 324.606 1194.68 327 1190.43 327H1186.19C1182.12 327 1179.09 324.354 1179.09 320.784V319.944ZM1204.28 319.944H1208.48V320.784C1208.48 321.96 1209.57 322.8 1211.38 322.8H1215.62C1217.59 322.8 1218.56 322.128 1218.56 321.078C1218.56 316.332 1204.57 319.398 1204.57 311.25C1204.57 307.848 1207.3 305.58 1211.29 305.58H1215.32C1219.1 305.58 1222.04 308.31 1222.04 311.838V312.216H1217.84V311.838C1217.84 310.662 1216.79 309.78 1215.32 309.78H1211.29C1209.53 309.78 1208.77 310.368 1208.77 311.25C1208.77 314.652 1222.76 312.51 1222.76 321.078C1222.76 324.606 1219.86 327 1215.62 327H1211.38C1207.3 327 1204.28 324.354 1204.28 320.784V319.944ZM1268.93 305.16C1268.93 303.27 1267.46 301.8 1265.57 301.8H1262.21C1260.32 301.8 1258.85 303.312 1258.85 305.16V319.398C1258.85 321.246 1260.36 322.758 1262.21 322.758H1265.57C1267.41 322.758 1268.93 321.246 1268.93 319.398V317.088H1273.13V319.398C1273.13 323.556 1269.77 327 1265.57 327H1262.21C1258.05 327 1254.65 323.556 1254.65 319.398V305.16C1254.65 300.96 1258.05 297.6 1262.21 297.6H1265.57C1269.77 297.6 1273.13 300.96 1273.13 305.16V307.47H1268.93V305.16ZM1290.75 322.8C1292.64 322.8 1294.11 321.372 1294.11 319.482V313.14C1294.11 311.25 1292.64 309.78 1290.75 309.78H1287.39C1285.5 309.78 1284.03 311.25 1284.03 313.14V319.482C1284.03 321.372 1285.5 322.758 1287.39 322.8H1290.75ZM1279.83 319.482V313.14C1279.83 308.94 1283.19 305.58 1287.39 305.58H1290.75C1294.95 305.58 1298.31 308.94 1298.31 313.14V319.482C1298.31 323.682 1294.95 327 1290.75 327H1287.39C1283.19 327 1279.83 323.682 1279.83 319.482ZM1305.01 305.58H1309.21V307.932L1312.7 305.58H1315.93C1320.09 305.58 1323.49 308.94 1323.49 313.14V327H1319.29V313.14C1319.29 311.292 1317.78 309.78 1315.93 309.78H1314L1309.21 313.014V327H1305.01V305.58ZM1344.27 327C1340.07 327 1336.71 323.64 1336.71 319.44V309.78H1330.2V305.58H1336.71V300.12H1340.91V305.58H1348.68V309.78H1340.91V319.44C1340.91 321.33 1342.38 322.8 1344.27 322.8H1348.68V327H1344.27ZM1355.38 305.58H1359.58V308.94L1364.58 305.58H1366.3C1370.46 305.58 1373.86 308.94 1373.86 313.14V314.82H1369.66V313.14C1369.66 311.292 1368.15 309.78 1366.3 309.78H1365.88L1359.58 314.022V327H1355.38V305.58ZM1391.48 322.8C1393.37 322.8 1394.84 321.372 1394.84 319.482V313.14C1394.84 311.25 1393.37 309.78 1391.48 309.78H1388.12C1386.23 309.78 1384.76 311.25 1384.76 313.14V319.482C1384.76 321.372 1386.23 322.758 1388.12 322.8H1391.48ZM1380.56 319.482V313.14C1380.56 308.94 1383.92 305.58 1388.12 305.58H1391.48C1395.68 305.58 1399.04 308.94 1399.04 313.14V319.482C1399.04 323.682 1395.68 327 1391.48 327H1388.12C1383.92 327 1380.56 323.682 1380.56 319.482ZM1416.88 322.8H1424.23V327H1405.75V322.8H1412.68V301.38H1405.75V297.18H1416.88V322.8Z" fill="white"/>
</svg>
