<svg width="1920" height="1080" viewBox="0 0 1920 1080" fill="none" xmlns="http://www.w3.org/2000/svg">
<rect width="1920" height="1080" fill="#FF7612"/>
<rect x="82" y="59" width="465" height="96" stroke="white" stroke-width="2"/>
<path d="M241.86 113.508H246.06V115.188C246.06 117.162 247.698 118.8 249.672 118.8H252.486C254.628 118.8 256.14 117.456 256.14 115.608C256.14 109.812 242.28 108.552 242.28 100.572C242.28 96.456 245.514 93.6 250.092 93.6H252.066C256.392 93.6 259.92 97.086 259.92 101.412V102.672H255.72V101.412C255.72 99.396 254.082 97.8 252.066 97.8H250.092C247.824 97.8 246.48 98.85 246.48 100.572C246.48 105.024 260.34 106.746 260.34 115.608C260.34 119.808 256.938 123 252.486 123H249.672C245.346 123 241.86 119.514 241.86 115.188V113.508ZM277.964 118.758C279.812 118.758 281.324 117.246 281.324 115.398V101.16C281.324 99.27 279.854 97.8 277.964 97.8H274.604C272.714 97.8 271.244 99.312 271.244 101.16V115.398C271.244 117.246 272.756 118.758 274.604 118.758H277.964ZM267.044 115.398V101.16C267.044 96.96 270.446 93.6 274.604 93.6H277.964C282.164 93.6 285.524 96.96 285.524 101.16V115.398C285.524 119.556 282.164 123 277.964 123H274.604C270.446 123 267.044 119.556 267.044 115.398ZM310.707 115.398C310.707 119.556 307.305 123 303.147 123H299.787C295.587 123 292.227 119.556 292.227 115.398V93.6H296.427V115.398C296.427 117.246 297.939 118.758 299.787 118.758H303.147C304.995 118.758 306.507 117.246 306.507 115.398V93.6H310.707V115.398ZM335.891 123H331.271L325.937 111.24H321.611V123H317.411V93.6H328.331C332.531 93.6 335.891 96.96 335.891 101.16V103.68C335.891 107.166 333.581 110.064 330.389 110.946L335.891 123ZM321.611 107.04H328.331C330.221 107.04 331.691 105.57 331.691 103.68V101.16C331.691 99.27 330.221 97.8 328.331 97.8H321.611V107.04ZM356.874 101.16C356.874 99.27 355.404 97.8 353.514 97.8H350.154C348.264 97.8 346.794 99.312 346.794 101.16V115.398C346.794 117.246 348.306 118.758 350.154 118.758H353.514C355.362 118.758 356.874 117.246 356.874 115.398V113.088H361.074V115.398C361.074 119.556 357.714 123 353.514 123H350.154C345.996 123 342.594 119.556 342.594 115.398V101.16C342.594 96.96 345.996 93.6 350.154 93.6H353.514C357.714 93.6 361.074 96.96 361.074 101.16V103.47H356.874V101.16ZM386.258 93.6V97.8H371.978V105.486H384.578V109.686H371.978V118.8H386.258V123H367.778V93.6H386.258Z" fill="white"/>
<rect x="84" y="209" width="834" height="792" fill="white"/>
<rect x="1000" y="209" width="834" height="792" fill="white" fill-opacity="0.2"/>
<path d="M452.322 926.16L454.632 939.39L455.64 927V918.6H459.84V928.26L457.32 948H453.96L450.6 935.442L447.24 948H443.88L441.36 928.26V918.6H445.56V927L446.568 939.39L448.878 926.16H452.322ZM477.464 943.758C479.312 943.758 480.824 942.246 480.824 940.398V926.16C480.824 924.27 479.354 922.8 477.464 922.8H474.104C472.214 922.8 470.744 924.312 470.744 926.16V940.398C470.744 942.246 472.256 943.758 474.104 943.758H477.464ZM466.544 940.398V926.16C466.544 921.96 469.946 918.6 474.104 918.6H477.464C481.664 918.6 485.024 921.96 485.024 926.16V940.398C485.024 944.556 481.664 948 477.464 948H474.104C469.946 948 466.544 944.556 466.544 940.398ZM510.207 948H505.587L500.253 936.24H495.927V948H491.727V918.6H502.647C506.847 918.6 510.207 921.96 510.207 926.16V928.68C510.207 932.166 507.897 935.064 504.705 935.946L510.207 948ZM495.927 932.04H502.647C504.537 932.04 506.007 930.57 506.007 928.68V926.16C506.007 924.27 504.537 922.8 502.647 922.8H495.927V932.04ZM521.111 918.6V943.8H535.391V948H516.911V918.6H521.111ZM553.014 918.6C557.172 918.6 560.574 921.96 560.574 926.16V940.398C560.574 944.556 557.172 948 553.014 948H542.094V918.6H553.014ZM546.294 943.758H553.014C554.862 943.758 556.374 942.246 556.374 940.398V926.16C556.374 924.312 554.904 922.8 553.014 922.8H546.294V943.758Z" fill="#FF7612"/>
<path d="M1344.36 938.508H1348.56V940.188C1348.56 942.162 1350.2 943.8 1352.17 943.8H1354.99C1357.13 943.8 1358.64 942.456 1358.64 940.608C1358.64 934.812 1344.78 933.552 1344.78 925.572C1344.78 921.456 1348.01 918.6 1352.59 918.6H1354.57C1358.89 918.6 1362.42 922.086 1362.42 926.412V927.672H1358.22V926.412C1358.22 924.396 1356.58 922.8 1354.57 922.8H1352.59C1350.32 922.8 1348.98 923.85 1348.98 925.572C1348.98 930.024 1362.84 931.746 1362.84 940.608C1362.84 944.808 1359.44 948 1354.99 948H1352.17C1347.85 948 1344.36 944.514 1344.36 940.188V938.508ZM1376.68 948V937.542L1369.54 928.68V918.6H1373.74V927.168L1378.7 933.342H1378.78L1383.82 926.748V918.6H1388.02V928.176L1380.88 937.542V948H1376.68ZM1394.73 938.508H1398.93V940.188C1398.93 942.162 1400.57 943.8 1402.54 943.8H1405.35C1407.5 943.8 1409.01 942.456 1409.01 940.608C1409.01 934.812 1395.15 933.552 1395.15 925.572C1395.15 921.456 1398.38 918.6 1402.96 918.6H1404.93C1409.26 918.6 1412.79 922.086 1412.79 926.412V927.672H1408.59V926.412C1408.59 924.396 1406.95 922.8 1404.93 922.8H1402.96C1400.69 922.8 1399.35 923.85 1399.35 925.572C1399.35 930.024 1413.21 931.746 1413.21 940.608C1413.21 944.808 1409.81 948 1405.35 948H1402.54C1398.21 948 1394.73 944.514 1394.73 940.188V938.508ZM1419.91 918.6H1438.39V922.8H1431.25V948H1427.05V922.8H1419.91V918.6ZM1463.57 918.6V922.8H1449.29V930.486H1461.89V934.686H1449.29V943.8H1463.57V948H1445.09V918.6H1463.57ZM1478.38 936.156L1474.48 927.84V948H1470.28V918.6H1474.48L1479.52 929.562L1484.56 918.6H1488.76V948H1484.56V927.84L1480.65 936.156H1478.38Z" fill="white"/>
<rect width="414" height="234" transform="translate(280 570)" fill="#FF7612"/>
<path d="M427.36 641.1H445.84V645.3H438.7V670.5H434.5V645.3H427.36V641.1ZM456.744 670.5H452.544V660.84L459.684 641.1H463.884L471.024 660.84V670.5H466.824V663.696H456.744V670.5ZM457.5 659.496H466.068L461.826 647.736H461.742L457.5 659.496ZM495.367 650.34C495.367 652.272 494.653 654.078 493.435 655.38C495.115 656.766 496.207 658.866 496.207 661.26V662.94C496.207 667.14 492.847 670.5 488.647 670.5H477.727V641.1H487.807C492.007 641.1 495.367 644.46 495.367 648.66V650.34ZM481.927 666.3H488.647C490.537 666.3 492.007 664.83 492.007 662.94V661.26C492.007 659.37 490.537 657.9 488.647 657.9H481.927V666.3ZM481.927 653.7H487.807C489.697 653.7 491.167 652.23 491.167 650.34V648.66C491.167 646.77 489.697 645.3 487.807 645.3H481.927V653.7ZM507.111 641.1V666.3H521.391V670.5H502.911V641.1H507.111ZM546.574 641.1V645.3H532.294V652.986H544.894V657.186H532.294V666.3H546.574V670.5H528.094V641.1H546.574Z" fill="white"/>
<path opacity="0.75" d="M412.78 739.742C408.622 739.742 405.22 736.298 405.22 732.14V709.46C405.22 705.26 408.622 701.9 412.78 701.9H416.98V706.1H412.78C410.89 706.1 409.42 707.612 409.42 709.46V732.14C409.42 733.988 410.932 735.5 412.78 735.5H416.98V739.742H412.78ZM427.044 706.1H445.524V710.3H438.384V731.3H445.524V735.5H427.044V731.3H434.184V710.3H427.044V706.1ZM466.297 735.5C462.097 735.5 458.737 732.14 458.737 727.94V718.28H452.227V714.08H458.737V708.62H462.937V714.08H470.707V718.28H462.937V727.94C462.937 729.83 464.407 731.3 466.297 731.3H470.707V735.5H466.297ZM495.891 721.22V725.756H481.611V727.898C481.611 729.746 483.123 731.258 484.971 731.258H488.331C490.179 731.258 491.691 729.746 491.691 727.898V727.478H495.891V727.898C495.891 732.056 492.531 735.5 488.331 735.5H484.971C480.813 735.5 477.411 732.056 477.411 727.898V721.64C477.411 717.44 480.813 714.08 484.971 714.08H488.331C492.405 714.08 495.681 717.23 495.891 721.22ZM481.611 722.396H491.691V721.64C491.691 719.75 490.221 718.28 488.331 718.28H484.971C483.081 718.28 481.611 719.792 481.611 721.64V722.396ZM501.754 714.08H505.954V716.516L508.474 714.08H508.81C511.036 714.08 512.59 715.046 513.388 717.062L516.454 714.08H516.79C520.108 714.08 521.914 716.18 521.914 720.8V735.5H517.714V720.8C517.714 720.002 517.714 719.33 517.63 718.868L513.934 722.396V735.5H509.734V720.8C509.734 720.002 509.734 719.33 509.65 718.868L505.954 722.396V735.5H501.754V714.08ZM508.348 717.608H508.6H508.348ZM516.328 717.608H516.58H516.328ZM527.778 728.444H531.978V729.284C531.978 730.46 533.07 731.3 534.876 731.3H539.118C541.092 731.3 542.058 730.628 542.058 729.578C542.058 724.832 528.072 727.898 528.072 719.75C528.072 716.348 530.802 714.08 534.792 714.08H538.824C542.604 714.08 545.544 716.81 545.544 720.338V720.716H541.344V720.338C541.344 719.162 540.294 718.28 538.824 718.28H534.792C533.028 718.28 532.272 718.868 532.272 719.75C532.272 723.152 546.258 721.01 546.258 729.578C546.258 733.106 543.36 735.5 539.118 735.5H534.876C530.802 735.5 527.778 732.854 527.778 729.284V728.444ZM560.522 739.742H556.322V735.5H560.522C562.37 735.5 563.882 733.988 563.882 732.14V709.46C563.882 707.612 562.412 706.1 560.522 706.1H556.322V701.9H560.522C564.68 701.9 568.082 705.26 568.082 709.46V732.14C568.082 736.298 564.68 739.742 560.522 739.742Z" fill="white"/>
<rect width="513" height="234" transform="translate(1210 473)" fill="white"/>
<path d="M1254.52 524.08H1258.72V526.516L1261.24 524.08H1261.58C1263.8 524.08 1265.36 525.046 1266.15 527.062L1269.22 524.08H1269.56C1272.87 524.08 1274.68 526.18 1274.68 530.8V545.5H1270.48V530.8C1270.48 530.002 1270.48 529.33 1270.4 528.868L1266.7 532.396V545.5H1262.5V530.8C1262.5 530.002 1262.5 529.33 1262.42 528.868L1258.72 532.396V545.5H1254.52V524.08ZM1261.11 527.608H1261.37H1261.11ZM1269.09 527.608H1269.35H1269.09ZM1287.94 554.32H1283.44L1287.31 543.82L1280.54 524.08H1285L1289.57 537.562L1294.53 524.08H1299.02L1287.94 554.32ZM1324.21 516.1V520.3H1309.93V529.246H1322.53V533.446H1309.93V545.5H1305.73V516.1H1324.21ZM1349.39 545.5H1345.19V543.148L1341.7 545.5H1338.47C1334.31 545.5 1330.91 542.14 1330.91 537.94V524.08H1335.11V537.94C1335.11 539.788 1336.62 541.3 1338.47 541.3H1340.4L1345.19 538.066V524.08H1349.39V545.5ZM1356.09 524.08H1360.29V526.432L1363.78 524.08H1367.01C1371.17 524.08 1374.57 527.44 1374.57 531.64V545.5H1370.37V531.64C1370.37 529.792 1368.86 528.28 1367.01 528.28H1365.08L1360.29 531.514V545.5H1356.09V524.08ZM1395.56 531.64C1395.56 529.75 1394.09 528.28 1392.2 528.28H1388.84C1386.95 528.28 1385.48 529.792 1385.48 531.64V537.898C1385.48 539.746 1386.99 541.258 1388.84 541.258H1392.2C1394.05 541.258 1395.56 539.746 1395.56 537.898V537.478H1399.76V537.898C1399.76 542.056 1396.4 545.5 1392.2 545.5H1388.84C1384.68 545.5 1381.28 542.056 1381.28 537.898V531.64C1381.28 527.44 1384.68 524.08 1388.84 524.08H1392.2C1396.4 524.08 1399.76 527.44 1399.76 531.64V532.06H1395.56V531.64ZM1417.38 549.742C1413.22 549.742 1409.82 546.298 1409.82 542.14V519.46C1409.82 515.26 1413.22 511.9 1417.38 511.9H1421.58V516.1H1417.38C1415.49 516.1 1414.02 517.612 1414.02 519.46V542.14C1414.02 543.988 1415.53 545.5 1417.38 545.5H1421.58V549.742H1417.38ZM1438.58 541.3H1443.2V545.5H1438.58V541.3ZM1463.76 541.3H1468.38V545.5H1463.76V541.3ZM1488.94 541.3H1493.56V545.5H1488.94V541.3ZM1514.76 549.742H1510.56V545.5H1514.76C1516.6 545.5 1518.12 543.988 1518.12 542.14V519.46C1518.12 517.612 1516.65 516.1 1514.76 516.1H1510.56V511.9H1514.76C1518.91 511.9 1522.32 515.26 1522.32 519.46V542.14C1522.32 546.298 1518.91 549.742 1514.76 549.742ZM1560.92 528.7C1562.81 528.7 1564.28 527.23 1564.28 525.34V519.46C1564.28 515.26 1567.64 511.9 1571.84 511.9H1572.68V516.1H1571.84C1569.95 516.1 1568.48 517.57 1568.48 519.46V525.34C1568.48 527.482 1567.6 529.414 1566.17 530.8C1567.6 532.186 1568.48 534.118 1568.48 536.26V542.14C1568.48 544.03 1569.95 545.5 1571.84 545.5H1572.68V549.7H1571.84C1567.64 549.7 1564.28 546.34 1564.28 542.14V536.26C1564.28 534.37 1562.81 532.9 1560.92 532.9V528.7ZM1271.32 654.9C1269.43 654.9 1267.96 656.37 1267.96 658.26V664.14C1267.96 668.34 1264.6 671.7 1260.4 671.7H1259.56V667.5H1260.4C1262.29 667.5 1263.76 666.03 1263.76 664.14V658.26C1263.76 656.118 1264.64 654.186 1266.07 652.8C1264.64 651.414 1263.76 649.482 1263.76 647.34V641.46C1263.76 639.57 1262.29 638.1 1260.4 638.1H1259.56V633.9H1260.4C1264.6 633.9 1267.96 637.26 1267.96 641.46V647.34C1267.96 649.23 1269.43 650.7 1271.32 650.7V654.9Z" fill="#FF7612" fill-opacity="0.6"/>
<path d="M1330.91 577.1H1349.39V581.3H1342.25V602.3H1349.39V606.5H1330.91V602.3H1338.05V581.3H1330.91V577.1ZM1370.16 606.5C1365.96 606.5 1362.6 603.14 1362.6 598.94V589.28H1356.09V585.08H1362.6V579.62H1366.8V585.08H1374.57V589.28H1366.8V598.94C1366.8 600.83 1368.27 602.3 1370.16 602.3H1374.57V606.5H1370.16ZM1399.76 592.22V596.756H1385.48V598.898C1385.48 600.746 1386.99 602.258 1388.84 602.258H1392.2C1394.05 602.258 1395.56 600.746 1395.56 598.898V598.478H1399.76V598.898C1399.76 603.056 1396.4 606.5 1392.2 606.5H1388.84C1384.68 606.5 1381.28 603.056 1381.28 598.898V592.64C1381.28 588.44 1384.68 585.08 1388.84 585.08H1392.2C1396.27 585.08 1399.55 588.23 1399.76 592.22ZM1385.48 593.396H1395.56V592.64C1395.56 590.75 1394.09 589.28 1392.2 589.28H1388.84C1386.95 589.28 1385.48 590.792 1385.48 592.64V593.396ZM1405.62 585.08H1409.82V587.516L1412.34 585.08H1412.68C1414.9 585.08 1416.46 586.046 1417.26 588.062L1420.32 585.08H1420.66C1423.98 585.08 1425.78 587.18 1425.78 591.8V606.5H1421.58V591.8C1421.58 591.002 1421.58 590.33 1421.5 589.868L1417.8 593.396V606.5H1413.6V591.8C1413.6 591.002 1413.6 590.33 1413.52 589.868L1409.82 593.396V606.5H1405.62V585.08ZM1412.22 588.608H1412.47H1412.22ZM1420.2 588.608H1420.45H1420.2ZM1431.65 599.444H1435.85V600.284C1435.85 601.46 1436.94 602.3 1438.74 602.3H1442.99C1444.96 602.3 1445.93 601.628 1445.93 600.578C1445.93 595.832 1431.94 598.898 1431.94 590.75C1431.94 587.348 1434.67 585.08 1438.66 585.08H1442.69C1446.47 585.08 1449.41 587.81 1449.41 591.338V591.716H1445.21V591.338C1445.21 590.162 1444.16 589.28 1442.69 589.28H1438.66C1436.9 589.28 1436.14 589.868 1436.14 590.75C1436.14 594.152 1450.13 592.01 1450.13 600.578C1450.13 604.106 1447.23 606.5 1442.99 606.5H1438.74C1434.67 606.5 1431.65 603.854 1431.65 600.284V599.444ZM1463.76 602.3H1468.38V606.5H1463.76V602.3ZM1482.01 599.444H1486.21V600.284C1486.21 601.46 1487.3 602.3 1489.11 602.3H1493.35C1495.33 602.3 1496.29 601.628 1496.29 600.578C1496.29 595.832 1482.31 598.898 1482.31 590.75C1482.31 587.348 1485.04 585.08 1489.03 585.08H1493.06C1496.84 585.08 1499.78 587.81 1499.78 591.338V591.716H1495.58V591.338C1495.58 590.162 1494.53 589.28 1493.06 589.28H1489.03C1487.26 589.28 1486.51 589.868 1486.51 590.75C1486.51 594.152 1500.49 592.01 1500.49 600.578C1500.49 604.106 1497.59 606.5 1493.35 606.5H1489.11C1485.04 606.5 1482.01 603.854 1482.01 600.284V599.444ZM1525.68 592.22V596.756H1511.4V598.898C1511.4 600.746 1512.91 602.258 1514.76 602.258H1518.12C1519.96 602.258 1521.48 600.746 1521.48 598.898V598.478H1525.68V598.898C1525.68 603.056 1522.32 606.5 1518.12 606.5H1514.76C1510.6 606.5 1507.2 603.056 1507.2 598.898V592.64C1507.2 588.44 1510.6 585.08 1514.76 585.08H1518.12C1522.19 585.08 1525.47 588.23 1525.68 592.22ZM1511.4 593.396H1521.48V592.64C1521.48 590.75 1520.01 589.28 1518.12 589.28H1514.76C1512.87 589.28 1511.4 590.792 1511.4 592.64V593.396ZM1546.45 606.5C1542.25 606.5 1538.89 603.14 1538.89 598.94V589.28H1532.38V585.08H1538.89V579.62H1543.09V585.08H1550.86V589.28H1543.09V598.94C1543.09 600.83 1544.56 602.3 1546.45 602.3H1550.86V606.5H1546.45ZM1568.48 610.742C1564.33 610.742 1560.92 607.298 1560.92 603.14V580.46C1560.92 576.26 1564.33 572.9 1568.48 572.9H1572.68V577.1H1568.48C1566.59 577.1 1565.12 578.612 1565.12 580.46V603.14C1565.12 604.988 1566.64 606.5 1568.48 606.5H1572.68V610.742H1568.48ZM1589.68 602.3H1594.3V606.5H1589.68V602.3ZM1614.86 602.3H1619.48V606.5H1614.86V602.3ZM1640.04 602.3H1644.66V606.5H1640.04V602.3ZM1665.86 610.742H1661.66V606.5H1665.86C1667.71 606.5 1669.22 604.988 1669.22 603.14V580.46C1669.22 578.612 1667.75 577.1 1665.86 577.1H1661.66V572.9H1665.86C1670.02 572.9 1673.42 576.26 1673.42 580.46V603.14C1673.42 607.298 1670.02 610.742 1665.86 610.742Z" fill="#FF7612"/>
<path d="M644.5 104H646.5V102H644.5V104ZM643.086 203.914C643.867 204.695 645.133 204.695 645.914 203.914L658.642 191.186C659.423 190.405 659.423 189.139 658.642 188.358C657.861 187.577 656.595 187.577 655.814 188.358L644.5 199.672L633.186 188.358C632.405 187.577 631.139 187.577 630.358 188.358C629.577 189.139 629.577 190.405 630.358 191.186L643.086 203.914ZM548 106H644.5V102H548V106ZM642.5 104V202.5H646.5V104H642.5Z" fill="black"/>
<rect width="68" height="82" transform="translate(609 64)" fill="black"/>
<path d="M651.84 116.8V121H633.36V116.8H640.5V96.472L633.36 100.672V95.8L640.5 91.6H644.7V116.8H651.84Z" fill="white"/>
<path d="M1467 308H1469V306H1467V308ZM1465.59 464.914C1466.37 465.695 1467.63 465.695 1468.41 464.914L1481.14 452.186C1481.92 451.405 1481.92 450.139 1481.14 449.358C1480.36 448.577 1479.09 448.577 1478.31 449.358L1467 460.672L1455.69 449.358C1454.91 448.577 1453.64 448.577 1452.86 449.358C1452.08 450.139 1452.08 451.405 1452.86 452.186L1465.59 464.914ZM918 310H1467V306H918V310ZM1465 308V463.5H1469V308H1465Z" fill="black"/>
<path d="M702.086 351.086C701.305 351.867 701.305 353.133 702.086 353.914L714.814 366.642C715.595 367.423 716.861 367.423 717.642 366.642C718.423 365.861 718.423 364.595 717.642 363.814L706.328 352.5L717.642 341.186C718.423 340.405 718.423 339.139 717.642 338.358C716.861 337.577 715.595 337.577 714.814 338.358L702.086 351.086ZM1469 756V758H1471V756H1469ZM756 352.5H758V350.5H756V352.5ZM756 756H754V758H756V756ZM1467 708V756H1471V708H1467ZM1469 754H1060V758H1469V754ZM756 350.5H703.5V354.5H756V350.5ZM1060 754H756V758H1060V754ZM758 756V352.5H754V756H758Z" fill="black"/>
<path d="M502.414 564.414C501.633 565.195 500.367 565.195 499.586 564.414L486.858 551.686C486.077 550.905 486.077 549.639 486.858 548.858C487.639 548.077 488.905 548.077 489.686 548.858L501 560.172L512.314 548.858C513.095 548.077 514.361 548.077 515.142 548.858C515.923 549.639 515.923 550.905 515.142 551.686L502.414 564.414ZM503 383L503 563L499 563L499 383L503 383Z" fill="black"/>
<rect width="68" height="82" transform="translate(1067 709)" fill="black"/>
<path d="M1109.84 745.84C1109.84 747.982 1108.96 749.914 1107.53 751.3C1108.96 752.686 1109.84 754.618 1109.84 756.76V758.44C1109.84 762.64 1106.48 766 1102.28 766H1098.92C1094.76 766 1091.36 762.64 1091.36 758.44V756.97H1095.56V758.44C1095.56 760.288 1097.07 761.8 1098.92 761.8H1102.28C1104.17 761.8 1105.64 760.33 1105.64 758.44V756.76C1105.64 754.87 1104.17 753.4 1102.28 753.4H1099.34V749.2H1102.28C1104.17 749.2 1105.64 747.73 1105.64 745.84V744.16C1105.64 742.27 1104.17 740.8 1102.28 740.8H1098.92C1097.07 740.8 1095.56 742.312 1095.56 744.16V745.63H1091.36V744.16C1091.36 739.96 1094.76 736.6 1098.92 736.6H1102.28C1106.48 736.6 1109.84 739.96 1109.84 744.16V745.84Z" fill="white"/>
<rect width="69" height="82" transform="translate(466 423)" fill="black"/>
<path d="M500.94 453.12H505.14V463.62H509.34V467.82H505.14V480H500.94V467.82H490.86V450.6H495.06V463.62H500.94V453.12Z" fill="white"/>
<path opacity="0.45" d="M645.5 214V308H918" stroke="black" stroke-width="4" stroke-dasharray="8 8"/>
<path d="M1448.64 93.6H1452.84V123H1446.75L1438.56 100.656V123H1434.36V93.6H1440.45L1448.64 115.944V93.6ZM1463.74 123H1459.54V113.34L1466.68 93.6H1470.88L1478.02 113.34V123H1473.82V116.196H1463.74V123ZM1464.5 111.996H1473.07L1468.83 100.236H1468.74L1464.5 111.996ZM1492.83 111.156L1488.93 102.84V123H1484.73V93.6H1488.93L1493.97 104.562L1499.01 93.6H1503.21V123H1499.01V102.84L1495.1 111.156H1492.83ZM1528.39 93.6V97.8H1514.11V105.486H1526.71V109.686H1514.11V118.8H1528.39V123H1509.91V93.6H1528.39ZM1535.09 113.508H1539.29V115.188C1539.29 117.162 1540.93 118.8 1542.91 118.8H1545.72C1547.86 118.8 1549.37 117.456 1549.37 115.608C1549.37 109.812 1535.51 108.552 1535.51 100.572C1535.51 96.456 1538.75 93.6 1543.33 93.6H1545.3C1549.63 93.6 1553.15 97.086 1553.15 101.412V102.672H1548.95V101.412C1548.95 99.396 1547.32 97.8 1545.3 97.8H1543.33C1541.06 97.8 1539.71 98.85 1539.71 100.572C1539.71 105.024 1553.57 106.746 1553.57 115.608C1553.57 119.808 1550.17 123 1545.72 123H1542.91C1538.58 123 1535.09 119.514 1535.09 115.188V113.508ZM1578.76 103.68C1578.76 107.88 1575.4 111.24 1571.2 111.24H1564.48V123H1560.28V93.6H1571.2C1575.4 93.6 1578.76 96.96 1578.76 101.16V103.68ZM1564.48 107.04H1571.2C1573.09 107.04 1574.56 105.57 1574.56 103.68V101.16C1574.56 99.27 1573.09 97.8 1571.2 97.8H1564.48V107.04ZM1589.66 123H1585.46V113.34L1592.6 93.6H1596.8L1603.94 113.34V123H1599.74V116.196H1589.66V123ZM1590.42 111.996H1598.99L1594.74 100.236H1594.66L1590.42 111.996ZM1624.93 101.16C1624.93 99.27 1623.46 97.8 1621.57 97.8H1618.21C1616.32 97.8 1614.85 99.312 1614.85 101.16V115.398C1614.85 117.246 1616.36 118.758 1618.21 118.758H1621.57C1623.41 118.758 1624.93 117.246 1624.93 115.398V113.088H1629.13V115.398C1629.13 119.556 1625.77 123 1621.57 123H1618.21C1614.05 123 1610.65 119.556 1610.65 115.398V101.16C1610.65 96.96 1614.05 93.6 1618.21 93.6H1621.57C1625.77 93.6 1629.13 96.96 1629.13 101.16V103.47H1624.93V101.16ZM1654.31 93.6V97.8H1640.03V105.486H1652.63V109.686H1640.03V118.8H1654.31V123H1635.83V93.6H1654.31Z" fill="white"/>
<path d="M1697.12 127.242C1692.96 127.242 1689.56 123.798 1689.56 119.64V96.96C1689.56 92.76 1692.96 89.4 1697.12 89.4H1701.32V93.6H1697.12C1695.23 93.6 1693.76 95.112 1693.76 96.96V119.64C1693.76 121.488 1695.27 123 1697.12 123H1701.32V127.242H1697.12ZM1729.86 124.218C1729.86 128.376 1726.5 131.82 1722.3 131.82H1718.94C1714.78 131.82 1711.38 128.376 1711.38 124.218H1715.58C1715.58 126.066 1717.09 127.578 1718.94 127.578H1722.3C1724.15 127.578 1725.66 126.066 1725.66 124.218V120.648L1722.17 123H1718.94C1714.78 123 1711.38 119.598 1711.38 115.44V109.14C1711.38 104.94 1714.78 101.58 1718.94 101.58H1722.17L1725.66 103.932V101.58H1729.86V124.218ZM1715.58 115.44C1715.58 117.288 1717.09 118.8 1718.94 118.8H1720.87L1725.66 115.566V109.014L1720.87 105.78H1718.94C1717.09 105.78 1715.58 107.292 1715.58 109.14V115.44ZM1755.04 101.58V123H1750.84V120.648L1747.36 123H1744.12C1739.97 123 1736.56 119.598 1736.56 115.44V109.14C1736.56 104.94 1739.97 101.58 1744.12 101.58H1747.36L1750.84 103.932V101.58H1755.04ZM1740.76 115.44C1740.76 117.288 1742.28 118.8 1744.12 118.8H1746.06L1750.84 115.566V109.014L1746.06 105.78H1744.12C1742.28 105.78 1740.76 107.292 1740.76 109.14V115.44ZM1760.91 101.58H1765.11V104.016L1767.63 101.58H1767.96C1770.19 101.58 1771.74 102.546 1772.54 104.562L1775.61 101.58H1775.94C1779.26 101.58 1781.07 103.68 1781.07 108.3V123H1776.87V108.3C1776.87 107.502 1776.87 106.83 1776.78 106.368L1773.09 109.896V123H1768.89V108.3C1768.89 107.502 1768.89 106.83 1768.8 106.368L1765.11 109.896V123H1760.91V101.58ZM1767.5 105.108H1767.75H1767.5ZM1775.48 105.108H1775.73H1775.48ZM1805.41 108.72V113.256H1791.13V115.398C1791.13 117.246 1792.64 118.758 1794.49 118.758H1797.85C1799.7 118.758 1801.21 117.246 1801.21 115.398V114.978H1805.41V115.398C1805.41 119.556 1802.05 123 1797.85 123H1794.49C1790.33 123 1786.93 119.556 1786.93 115.398V109.14C1786.93 104.94 1790.33 101.58 1794.49 101.58H1797.85C1801.92 101.58 1805.2 104.73 1805.41 108.72ZM1791.13 109.896H1801.21V109.14C1801.21 107.25 1799.74 105.78 1797.85 105.78H1794.49C1792.6 105.78 1791.13 107.292 1791.13 109.14V109.896ZM1819.67 127.242H1815.47V123H1819.67C1821.52 123 1823.03 121.488 1823.03 119.64V96.96C1823.03 95.112 1821.56 93.6 1819.67 93.6H1815.47V89.4H1819.67C1823.83 89.4 1827.23 92.76 1827.23 96.96V119.64C1827.23 123.798 1823.83 127.242 1819.67 127.242Z" fill="white" fill-opacity="0.75"/>
<rect width="414" height="98" transform="translate(280 285)" fill="#FF7612"/>
<path d="M318.06 350H313.86V340.34L321 320.6H325.2L332.34 340.34V350H328.14V343.196H318.06V350ZM318.816 338.996H327.384L323.142 327.236H323.058L318.816 338.996ZM353.324 336.14C353.324 334.25 351.854 332.78 349.964 332.78H346.604C344.714 332.78 343.244 334.292 343.244 336.14V342.398C343.244 344.246 344.756 345.758 346.604 345.758H349.964C351.812 345.758 353.324 344.246 353.324 342.398V341.978H357.524V342.398C357.524 346.556 354.164 350 349.964 350H346.604C342.446 350 339.044 346.556 339.044 342.398V336.14C339.044 331.94 342.446 328.58 346.604 328.58H349.964C354.164 328.58 357.524 331.94 357.524 336.14V336.56H353.324V336.14ZM378.507 336.14C378.507 334.25 377.037 332.78 375.147 332.78H371.787C369.897 332.78 368.427 334.292 368.427 336.14V342.398C368.427 344.246 369.939 345.758 371.787 345.758H375.147C376.995 345.758 378.507 344.246 378.507 342.398V341.978H382.707V342.398C382.707 346.556 379.347 350 375.147 350H371.787C367.629 350 364.227 346.556 364.227 342.398V336.14C364.227 331.94 367.629 328.58 371.787 328.58H375.147C379.347 328.58 382.707 331.94 382.707 336.14V336.56H378.507V336.14ZM407.891 335.72V340.256H393.611V342.398C393.611 344.246 395.123 345.758 396.971 345.758H400.331C402.179 345.758 403.691 344.246 403.691 342.398V341.978H407.891V342.398C407.891 346.556 404.531 350 400.331 350H396.971C392.813 350 389.411 346.556 389.411 342.398V336.14C389.411 331.94 392.813 328.58 396.971 328.58H400.331C404.405 328.58 407.681 331.73 407.891 335.72ZM393.611 336.896H403.691V336.14C403.691 334.25 402.221 332.78 400.331 332.78H396.971C395.081 332.78 393.611 334.292 393.611 336.14V336.896ZM414.594 342.944H418.794V343.784C418.794 344.96 419.886 345.8 421.692 345.8H425.934C427.908 345.8 428.874 345.128 428.874 344.078C428.874 339.332 414.888 342.398 414.888 334.25C414.888 330.848 417.618 328.58 421.608 328.58H425.64C429.42 328.58 432.36 331.31 432.36 334.838V335.216H428.16V334.838C428.16 333.662 427.11 332.78 425.64 332.78H421.608C419.844 332.78 419.088 333.368 419.088 334.25C419.088 337.652 433.074 335.51 433.074 344.078C433.074 347.606 430.176 350 425.934 350H421.692C417.618 350 414.594 347.354 414.594 343.784V342.944ZM439.778 342.944H443.978V343.784C443.978 344.96 445.07 345.8 446.876 345.8H451.118C453.092 345.8 454.058 345.128 454.058 344.078C454.058 339.332 440.072 342.398 440.072 334.25C440.072 330.848 442.802 328.58 446.792 328.58H450.824C454.604 328.58 457.544 331.31 457.544 334.838V335.216H453.344V334.838C453.344 333.662 452.294 332.78 450.824 332.78H446.792C445.028 332.78 444.272 333.368 444.272 334.25C444.272 337.652 458.258 335.51 458.258 344.078C458.258 347.606 455.36 350 451.118 350H446.876C442.802 350 439.778 347.354 439.778 343.784V342.944ZM504.425 328.16C504.425 326.27 502.955 324.8 501.065 324.8H497.705C495.815 324.8 494.345 326.312 494.345 328.16V342.398C494.345 344.246 495.857 345.758 497.705 345.758H501.065C502.913 345.758 504.425 344.246 504.425 342.398V340.088H508.625V342.398C508.625 346.556 505.265 350 501.065 350H497.705C493.547 350 490.145 346.556 490.145 342.398V328.16C490.145 323.96 493.547 320.6 497.705 320.6H501.065C505.265 320.6 508.625 323.96 508.625 328.16V330.47H504.425V328.16ZM526.249 345.8C528.139 345.8 529.609 344.372 529.609 342.482V336.14C529.609 334.25 528.139 332.78 526.249 332.78H522.889C520.999 332.78 519.529 334.25 519.529 336.14V342.482C519.529 344.372 520.999 345.758 522.889 345.8H526.249ZM515.329 342.482V336.14C515.329 331.94 518.689 328.58 522.889 328.58H526.249C530.449 328.58 533.809 331.94 533.809 336.14V342.482C533.809 346.682 530.449 350 526.249 350H522.889C518.689 350 515.329 346.682 515.329 342.482ZM540.512 328.58H544.712V330.932L548.198 328.58H551.432C555.59 328.58 558.992 331.94 558.992 336.14V350H554.792V336.14C554.792 334.292 553.28 332.78 551.432 332.78H549.5L544.712 336.014V350H540.512V328.58ZM579.766 350C575.566 350 572.206 346.64 572.206 342.44V332.78H565.696V328.58H572.206V323.12H576.406V328.58H584.176V332.78H576.406V342.44C576.406 344.33 577.876 345.8 579.766 345.8H584.176V350H579.766ZM590.88 328.58H595.08V331.94L600.078 328.58H601.8C605.958 328.58 609.36 331.94 609.36 336.14V337.82H605.16V336.14C605.16 334.292 603.648 332.78 601.8 332.78H601.38L595.08 337.022V350H590.88V328.58ZM626.983 345.8C628.873 345.8 630.343 344.372 630.343 342.482V336.14C630.343 334.25 628.873 332.78 626.983 332.78H623.623C621.733 332.78 620.263 334.25 620.263 336.14V342.482C620.263 344.372 621.733 345.758 623.623 345.8H626.983ZM616.063 342.482V336.14C616.063 331.94 619.423 328.58 623.623 328.58H626.983C631.183 328.58 634.543 331.94 634.543 336.14V342.482C634.543 346.682 631.183 350 626.983 350H623.623C619.423 350 616.063 346.682 616.063 342.482ZM652.377 345.8H659.727V350H641.247V345.8H648.177V324.38H641.247V320.18H652.377V345.8Z" fill="white"/>
<rect width="68" height="82" transform="translate(813 267)" fill="black"/>
<path d="M855.84 319.8V324H837.36V314.298L851.64 306.276V302.16C851.64 300.27 850.17 298.8 848.28 298.8H844.92C843.072 298.8 841.56 300.312 841.56 302.16V303.63H837.36V302.16C837.36 297.96 840.762 294.6 844.92 294.6H848.28C852.48 294.6 855.84 297.96 855.84 302.16V308.754L841.56 316.776V319.8H855.84Z" fill="white"/>
</svg>
